solid model
  facet normal -0.27899 -0.960294 -0
    outer loop
      vertex -10.8156 -33.287 0
      vertex -8.70415 -33.9004 0
      vertex -8.70415 -33.9004 40
    endloop
  endfacet
  facet normal -0.27899 -0.960294 0
    outer loop
      vertex -10.8156 -33.287 0
      vertex -8.70415 -33.9004 40
      vertex -10.8156 -33.287 40
    endloop
  endfacet
  facet normal 0 0 1
    outer loop
      vertex -10.8156 -33.287 40
      vertex -8.70415 -33.9004 40
      vertex -10.8156 33.287 40
    endloop
  endfacet
  facet normal -0 0 1
    outer loop
      vertex -10.8156 33.287 40
      vertex -8.70415 -33.9004 40
      vertex -8.70415 33.9004 40
    endloop
  endfacet
  facet normal -0.27899 0.960294 0
    outer loop
      vertex -10.8156 33.287 40
      vertex -8.70415 33.9004 40
      vertex -8.70415 33.9004 5
    endloop
  endfacet
  facet normal -0.27899 0.960294 0
    outer loop
      vertex -10.8156 33.287 5
      vertex -10.8156 33.287 40
      vertex -8.70415 33.9004 5
    endloop
  endfacet
  facet normal -0.338739 -0.94088 -0
    outer loop
      vertex -12.8844 -32.5422 0
      vertex -10.8156 -33.287 0
      vertex -10.8156 -33.287 40
    endloop
  endfacet
  facet normal -0.338739 -0.94088 0
    outer loop
      vertex -12.8844 -32.5422 0
      vertex -10.8156 -33.287 40
      vertex -12.8844 -32.5422 40
    endloop
  endfacet
  facet normal 0 0 1
    outer loop
      vertex -12.8844 -32.5422 40
      vertex -10.8156 -33.287 40
      vertex -12.8844 32.5422 40
    endloop
  endfacet
  facet normal -0 0 1
    outer loop
      vertex -12.8844 32.5422 40
      vertex -10.8156 -33.287 40
      vertex -10.8156 33.287 40
    endloop
  endfacet
  facet normal -0.338739 0.94088 0
    outer loop
      vertex -12.8844 32.5422 40
      vertex -10.8156 33.287 40
      vertex -10.8156 33.287 5
    endloop
  endfacet
  facet normal -0.338739 0.94088 0
    outer loop
      vertex -12.8844 32.5422 5
      vertex -12.8844 32.5422 40
      vertex -10.8156 33.287 5
    endloop
  endfacet
  facet normal 0 0 1
    outer loop
      vertex -13.9 105.5 5
      vertex 13.9 105.5 5
      vertex 14.7 106.886 5
    endloop
  endfacet
  facet normal -0 0 1
    outer loop
      vertex -13.9 105.5 5
      vertex 14.7 104.114 5
      vertex 13.9 105.5 5
    endloop
  endfacet
  facet normal 0 0 1
    outer loop
      vertex -13.9 74.5 5
      vertex 13.9 74.5 5
      vertex 14.7 75.8856 5
    endloop
  endfacet
  facet normal 0 0 1
    outer loop
      vertex -14.7 104.114 10
      vertex -13.9 105.5 10
      vertex -14.7 106.886 10
    endloop
  endfacet
  facet normal 0.866026 -0.499999 0
    outer loop
      vertex -14.7 104.114 10
      vertex -13.9 105.5 5
      vertex -13.9 105.5 10
    endloop
  endfacet
  facet normal 0.866026 -0.499999 0
    outer loop
      vertex -14.7 104.114 5
      vertex -13.9 105.5 5
      vertex -14.7 104.114 10
    endloop
  endfacet
  facet normal 0 0 1
    outer loop
      vertex -14.7 104.114 5
      vertex 14.7 104.114 5
      vertex -13.9 105.5 5
    endloop
  endfacet
  facet normal 0 0 1
    outer loop
      vertex -14.7 104.114 5
      vertex 14.7 75.8856 5
      vertex 14.7 104.114 5
    endloop
  endfacet
  facet normal 0.866026 0.499999 0
    outer loop
      vertex -14.7 106.886 5
      vertex -13.9 105.5 10
      vertex -13.9 105.5 5
    endloop
  endfacet
  facet normal 0 0 1
    outer loop
      vertex -14.7 106.886 5
      vertex -13.9 105.5 5
      vertex 14.7 106.886 5
    endloop
  endfacet
  facet normal 0.866026 0.499999 0
    outer loop
      vertex -14.7 106.886 5
      vertex -14.7 106.886 10
      vertex -13.9 105.5 10
    endloop
  endfacet
  facet normal 0 0 1
    outer loop
      vertex -14.7 106.886 5
      vertex 14.7 106.886 5
      vertex 21.25 111.25 5
    endloop
  endfacet
  facet normal 0 0 1
    outer loop
      vertex -14.7 73.1144 10
      vertex -13.9 74.5 10
      vertex -14.7 75.8856 10
    endloop
  endfacet
  facet normal 0.866026 -0.499999 0
    outer loop
      vertex -14.7 73.1144 10
      vertex -13.9 74.5 5
      vertex -13.9 74.5 10
    endloop
  endfacet
  facet normal 0 0 1
    outer loop
      vertex -14.7 73.1144 5
      vertex -10.8156 33.287 5
      vertex -8.70415 33.9004 5
    endloop
  endfacet
  facet normal 0.866026 -0.499999 0
    outer loop
      vertex -14.7 73.1144 5
      vertex -13.9 74.5 5
      vertex -14.7 73.1144 10
    endloop
  endfacet
  facet normal 0 0 1
    outer loop
      vertex -14.7 73.1144 5
      vertex -2.19767 34.9309 5
      vertex 0 35 5
    endloop
  endfacet
  facet normal 0 0 1
    outer loop
      vertex -14.7 73.1144 5
      vertex -4.38666 34.724 5
      vertex -2.19767 34.9309 5
    endloop
  endfacet
  facet normal 0 0 1
    outer loop
      vertex -14.7 73.1144 5
      vertex -6.55835 34.3801 5
      vertex -4.38666 34.724 5
    endloop
  endfacet
  facet normal 0 0 1
    outer loop
      vertex -14.7 73.1144 5
      vertex -8.70415 33.9004 5
      vertex -6.55835 34.3801 5
    endloop
  endfacet
  facet normal 0 -0 1
    outer loop
      vertex -14.7 73.1144 5
      vertex 0 35 5
      vertex 13.9 74.5 5
    endloop
  endfacet
  facet normal 0 0 1
    outer loop
      vertex -14.7 73.1144 5
      vertex 13.9 74.5 5
      vertex -13.9 74.5 5
    endloop
  endfacet
  facet normal 0.866026 0.499999 0
    outer loop
      vertex -14.7 75.8856 5
      vertex -13.9 74.5 10
      vertex -13.9 74.5 5
    endloop
  endfacet
  facet normal 0 0 1
    outer loop
      vertex -14.7 75.8856 5
      vertex -13.9 74.5 5
      vertex 14.7 75.8856 5
    endloop
  endfacet
  facet normal 0.866026 0.499999 0
    outer loop
      vertex -14.7 75.8856 5
      vertex -14.7 75.8856 10
      vertex -13.9 74.5 10
    endloop
  endfacet
  facet normal 0 0 1
    outer loop
      vertex -14.7 75.8856 5
      vertex 14.7 75.8856 5
      vertex -14.7 104.114 5
    endloop
  endfacet
  facet normal -0.397148 -0.917755 -0
    outer loop
      vertex -14.9023 -31.6689 0
      vertex -12.8844 -32.5422 0
      vertex -12.8844 -32.5422 40
    endloop
  endfacet
  facet normal -0.397148 -0.917755 0
    outer loop
      vertex -14.9023 -31.6689 0
      vertex -12.8844 -32.5422 40
      vertex -14.9023 -31.6689 40
    endloop
  endfacet
  facet normal 0 0 1
    outer loop
      vertex -14.9023 -31.6689 40
      vertex -12.8844 -32.5422 40
      vertex -14.9023 31.6689 40
    endloop
  endfacet
  facet normal -0 0 1
    outer loop
      vertex -14.9023 31.6689 40
      vertex -12.8844 -32.5422 40
      vertex -12.8844 32.5422 40
    endloop
  endfacet
  facet normal -0.397148 0.917755 0
    outer loop
      vertex -14.9023 31.6689 40
      vertex -12.8844 32.5422 40
      vertex -12.8844 32.5422 5
    endloop
  endfacet
  facet normal -0.397148 0.917755 0
    outer loop
      vertex -14.9023 31.6689 5
      vertex -14.9023 31.6689 40
      vertex -12.8844 32.5422 5
    endloop
  endfacet
  facet normal 0 0 1
    outer loop
      vertex -16.3 104.114 10
      vertex -14.7 104.114 10
      vertex -16.3 106.886 10
    endloop
  endfacet
  facet normal 0 -1 0
    outer loop
      vertex -16.3 104.114 5
      vertex -14.7 104.114 10
      vertex -16.3 104.114 10
    endloop
  endfacet
  facet normal 0 -1 -0
    outer loop
      vertex -16.3 104.114 5
      vertex -14.7 104.114 5
      vertex -14.7 104.114 10
    endloop
  endfacet
  facet normal -0 0 1
    outer loop
      vertex -16.3 104.114 5
      vertex -14.7 75.8856 5
      vertex -14.7 104.114 5
    endloop
  endfacet
  facet normal -0 0 1
    outer loop
      vertex -16.3 106.886 10
      vertex -14.7 104.114 10
      vertex -14.7 106.886 10
    endloop
  endfacet
  facet normal 0 1 -0
    outer loop
      vertex -16.3 106.886 10
      vertex -14.7 106.886 10
      vertex -14.7 106.886 5
    endloop
  endfacet
  facet normal 0 1 0
    outer loop
      vertex -16.3 106.886 5
      vertex -16.3 106.886 10
      vertex -14.7 106.886 5
    endloop
  endfacet
  facet normal 0 0 1
    outer loop
      vertex -16.3 73.1144 10
      vertex -14.7 73.1144 10
      vertex -16.3 75.8856 10
    endloop
  endfacet
  facet normal -0 0 1
    outer loop
      vertex -16.3 73.1144 5
      vertex -10.8156 33.287 5
      vertex -14.7 73.1144 5
    endloop
  endfacet
  facet normal 0 0 1
    outer loop
      vertex -16.3 73.1144 5
      vertex -12.8844 32.5422 5
      vertex -10.8156 33.287 5
    endloop
  endfacet
  facet normal 0 -1 0
    outer loop
      vertex -16.3 73.1144 5
      vertex -14.7 73.1144 10
      vertex -16.3 73.1144 10
    endloop
  endfacet
  facet normal 0 -1 -0
    outer loop
      vertex -16.3 73.1144 5
      vertex -14.7 73.1144 5
      vertex -14.7 73.1144 10
    endloop
  endfacet
  facet normal 0 0 1
    outer loop
      vertex -16.3 73.1144 5
      vertex -14.9023 31.6689 5
      vertex -12.8844 32.5422 5
    endloop
  endfacet
  facet normal -0 0 1
    outer loop
      vertex -16.3 75.8856 10
      vertex -14.7 73.1144 10
      vertex -14.7 75.8856 10
    endloop
  endfacet
  facet normal 0 1 -0
    outer loop
      vertex -16.3 75.8856 10
      vertex -14.7 75.8856 10
      vertex -14.7 75.8856 5
    endloop
  endfacet
  facet normal 0 0 1
    outer loop
      vertex -16.3 75.8856 5
      vertex -14.7 75.8856 5
      vertex -16.3 104.114 5
    endloop
  endfacet
  facet normal 0 1 0
    outer loop
      vertex -16.3 75.8856 5
      vertex -16.3 75.8856 10
      vertex -14.7 75.8856 5
    endloop
  endfacet
  facet normal -0.45399 -0.891007 -0
    outer loop
      vertex -16.8614 -30.6707 0
      vertex -14.9023 -31.6689 0
      vertex -14.9023 -31.6689 40
    endloop
  endfacet
  facet normal -0.45399 -0.891007 0
    outer loop
      vertex -16.8614 -30.6707 0
      vertex -14.9023 -31.6689 40
      vertex -16.8614 -30.6707 40
    endloop
  endfacet
  facet normal 0 0 1
    outer loop
      vertex -16.8614 -30.6707 40
      vertex -14.9023 -31.6689 40
      vertex -16.8614 30.6707 40
    endloop
  endfacet
  facet normal -0 0 1
    outer loop
      vertex -16.8614 30.6707 40
      vertex -14.9023 -31.6689 40
      vertex -14.9023 31.6689 40
    endloop
  endfacet
  facet normal -0.45399 0.891007 0
    outer loop
      vertex -16.8614 30.6707 40
      vertex -14.9023 31.6689 40
      vertex -14.9023 31.6689 5
    endloop
  endfacet
  facet normal 0 0 1
    outer loop
      vertex -16.8614 30.6707 5
      vertex -14.9023 31.6689 5
      vertex -16.3 73.1144 5
    endloop
  endfacet
  facet normal -0.45399 0.891007 0
    outer loop
      vertex -16.8614 30.6707 5
      vertex -16.8614 30.6707 40
      vertex -14.9023 31.6689 5
    endloop
  endfacet
  facet normal 0 -0 1
    outer loop
      vertex -17.1 105.5 10
      vertex -16.3 104.114 10
      vertex -16.3 106.886 10
    endloop
  endfacet
  facet normal -0.866026 -0.499999 0
    outer loop
      vertex -17.1 105.5 10
      vertex -16.3 104.114 5
      vertex -16.3 104.114 10
    endloop
  endfacet
  facet normal -0.866026 -0.499999 0
    outer loop
      vertex -17.1 105.5 5
      vertex -16.3 104.114 5
      vertex -17.1 105.5 10
    endloop
  endfacet
  facet normal -0.866026 0.499999 0
    outer loop
      vertex -17.1 105.5 5
      vertex -16.3 106.886 10
      vertex -16.3 106.886 5
    endloop
  endfacet
  facet normal 0 0 1
    outer loop
      vertex -17.1 105.5 5
      vertex -16.3 75.8856 5
      vertex -16.3 104.114 5
    endloop
  endfacet
  facet normal -0.866026 0.499999 0
    outer loop
      vertex -17.1 105.5 5
      vertex -17.1 105.5 10
      vertex -16.3 106.886 10
    endloop
  endfacet
  facet normal 0 -0 1
    outer loop
      vertex -17.1 74.5 10
      vertex -16.3 73.1144 10
      vertex -16.3 75.8856 10
    endloop
  endfacet
  facet normal -0.866026 -0.499999 0
    outer loop
      vertex -17.1 74.5 10
      vertex -16.3 73.1144 5
      vertex -16.3 73.1144 10
    endloop
  endfacet
  facet normal -0.866026 -0.499999 0
    outer loop
      vertex -17.1 74.5 5
      vertex -16.3 73.1144 5
      vertex -17.1 74.5 10
    endloop
  endfacet
  facet normal -0.866026 0.499999 0
    outer loop
      vertex -17.1 74.5 5
      vertex -16.3 75.8856 10
      vertex -16.3 75.8856 5
    endloop
  endfacet
  facet normal 0 0 1
    outer loop
      vertex -17.1 74.5 5
      vertex -16.3 75.8856 5
      vertex -17.1 105.5 5
    endloop
  endfacet
  facet normal -0.866026 0.499999 0
    outer loop
      vertex -17.1 74.5 5
      vertex -17.1 74.5 10
      vertex -16.3 75.8856 10
    endloop
  endfacet
  facet normal -0.509042 -0.860742 -0
    outer loop
      vertex -18.7539 -29.5515 0
      vertex -16.8614 -30.6707 0
      vertex -16.8614 -30.6707 40
    endloop
  endfacet
  facet normal -0.509042 -0.860742 0
    outer loop
      vertex -18.7539 -29.5515 0
      vertex -16.8614 -30.6707 40
      vertex -18.7539 -29.5515 40
    endloop
  endfacet
  facet normal 0 0 1
    outer loop
      vertex -18.7539 -29.5515 40
      vertex -16.8614 -30.6707 40
      vertex -18.7539 29.5515 40
    endloop
  endfacet
  facet normal -0 0 1
    outer loop
      vertex -18.7539 29.5515 40
      vertex -16.8614 -30.6707 40
      vertex -16.8614 30.6707 40
    endloop
  endfacet
  facet normal -0.509042 0.860742 0
    outer loop
      vertex -18.7539 29.5515 40
      vertex -16.8614 30.6707 40
      vertex -16.8614 30.6707 5
    endloop
  endfacet
  facet normal 0 0 1
    outer loop
      vertex -18.7539 29.5515 5
      vertex -16.3 73.1144 5
      vertex -17.1 74.5 5
    endloop
  endfacet
  facet normal 0 0 1
    outer loop
      vertex -18.7539 29.5515 5
      vertex -16.8614 30.6707 5
      vertex -16.3 73.1144 5
    endloop
  endfacet
  facet normal -0.509042 0.860742 0
    outer loop
      vertex -18.7539 29.5515 5
      vertex -18.7539 29.5515 40
      vertex -16.8614 30.6707 5
    endloop
  endfacet
  facet normal -0.031411 -0.999507 -0
    outer loop
      vertex -2.19767 -34.9309 0
      vertex 0 -35 0
      vertex 0 -35 40
    endloop
  endfacet
  facet normal -0.031411 -0.999507 0
    outer loop
      vertex -2.19767 -34.9309 0
      vertex 0 -35 40
      vertex -2.19767 -34.9309 40
    endloop
  endfacet
  facet normal 0 0 1
    outer loop
      vertex -2.19767 -34.9309 40
      vertex 0 -35 40
      vertex -2.19767 34.9309 40
    endloop
  endfacet
  facet normal -0 0 1
    outer loop
      vertex -2.19767 34.9309 40
      vertex 0 -35 40
      vertex 0 35 40
    endloop
  endfacet
  facet normal -0.031411 0.999507 0
    outer loop
      vertex -2.19767 34.9309 40
      vertex 0 35 40
      vertex 0 35 5
    endloop
  endfacet
  facet normal -0.031411 0.999507 0
    outer loop
      vertex -2.19767 34.9309 5
      vertex -2.19767 34.9309 40
      vertex 0 35 5
    endloop
  endfacet
  facet normal -0.562083 -0.827081 -0
    outer loop
      vertex -20.5725 -28.3156 0
      vertex -18.7539 -29.5515 0
      vertex -18.7539 -29.5515 40
    endloop
  endfacet
  facet normal -0.562083 -0.827081 0
    outer loop
      vertex -20.5725 -28.3156 0
      vertex -18.7539 -29.5515 40
      vertex -20.5725 -28.3156 40
    endloop
  endfacet
  facet normal 0 0 1
    outer loop
      vertex -20.5725 -28.3156 40
      vertex -18.7539 -29.5515 40
      vertex -20.5725 28.3156 40
    endloop
  endfacet
  facet normal -0 0 1
    outer loop
      vertex -20.5725 28.3156 40
      vertex -18.7539 -29.5515 40
      vertex -18.7539 29.5515 40
    endloop
  endfacet
  facet normal -0.562083 0.827081 0
    outer loop
      vertex -20.5725 28.3156 40
      vertex -18.7539 29.5515 40
      vertex -18.7539 29.5515 5
    endloop
  endfacet
  facet normal 0 0 1
    outer loop
      vertex -20.5725 28.3156 5
      vertex -18.7539 29.5515 5
      vertex -17.1 74.5 5
    endloop
  endfacet
  facet normal -0.562083 0.827081 0
    outer loop
      vertex -20.5725 28.3156 5
      vertex -20.5725 28.3156 40
      vertex -18.7539 29.5515 5
    endloop
  endfacet
  facet normal 0 1 0
    outer loop
      vertex -21.25 111.25 0
      vertex -21.25 111.25 5
      vertex 21.25 111.25 0
    endloop
  endfacet
  facet normal -0 0 1
    outer loop
      vertex -21.25 111.25 5
      vertex -14.7 106.886 5
      vertex 21.25 111.25 5
    endloop
  endfacet
  facet normal 0 0 1
    outer loop
      vertex -21.25 111.25 5
      vertex -16.3 106.886 5
      vertex -14.7 106.886 5
    endloop
  endfacet
  facet normal 0 0 1
    outer loop
      vertex -21.25 111.25 5
      vertex -17.1 105.5 5
      vertex -16.3 106.886 5
    endloop
  endfacet
  facet normal 0 0 1
    outer loop
      vertex -21.25 111.25 5
      vertex -17.1 74.5 5
      vertex -17.1 105.5 5
    endloop
  endfacet
  facet normal 0 1 -0
    outer loop
      vertex -21.25 111.25 5
      vertex 21.25 111.25 5
      vertex 21.25 111.25 0
    endloop
  endfacet
  facet normal -0.612906 -0.790155 -0
    outer loop
      vertex -22.3098 -26.968 0
      vertex -20.5725 -28.3156 0
      vertex -20.5725 -28.3156 40
    endloop
  endfacet
  facet normal -0.612906 -0.790155 0
    outer loop
      vertex -22.3098 -26.968 0
      vertex -20.5725 -28.3156 40
      vertex -22.3098 -26.968 40
    endloop
  endfacet
  facet normal 0 0 1
    outer loop
      vertex -22.3098 -26.968 40
      vertex -20.5725 -28.3156 40
      vertex -22.3098 26.968 40
    endloop
  endfacet
  facet normal -0 0 1
    outer loop
      vertex -22.3098 26.968 40
      vertex -20.5725 -28.3156 40
      vertex -20.5725 28.3156 40
    endloop
  endfacet
  facet normal -0.612906 0.790155 0
    outer loop
      vertex -22.3098 26.968 40
      vertex -20.5725 28.3156 40
      vertex -20.5725 28.3156 5
    endloop
  endfacet
  facet normal 0 0 1
    outer loop
      vertex -22.3098 26.968 5
      vertex -20.5725 28.3156 5
      vertex -17.1 74.5 5
    endloop
  endfacet
  facet normal -0.612906 0.790155 0
    outer loop
      vertex -22.3098 26.968 5
      vertex -22.3098 26.968 40
      vertex -20.5725 28.3156 5
    endloop
  endfacet
  facet normal -0.661312 -0.750111 -0
    outer loop
      vertex -23.9591 -25.5139 0
      vertex -22.3098 -26.968 0
      vertex -22.3098 -26.968 40
    endloop
  endfacet
  facet normal -0.661312 -0.750111 0
    outer loop
      vertex -23.9591 -25.5139 0
      vertex -22.3098 -26.968 40
      vertex -23.9591 -25.5139 40
    endloop
  endfacet
  facet normal 0 0 1
    outer loop
      vertex -23.9591 -25.5139 40
      vertex -22.3098 -26.968 40
      vertex -23.9591 25.5139 40
    endloop
  endfacet
  facet normal -0 0 1
    outer loop
      vertex -23.9591 25.5139 40
      vertex -22.3098 -26.968 40
      vertex -22.3098 26.968 40
    endloop
  endfacet
  facet normal -0.661312 0.750111 0
    outer loop
      vertex -23.9591 25.5139 40
      vertex -22.3098 26.968 40
      vertex -22.3098 26.968 5
    endloop
  endfacet
  facet normal 0 0 1
    outer loop
      vertex -23.9591 25.5139 5
      vertex -22.3098 26.968 5
      vertex -17.1 74.5 5
    endloop
  endfacet
  facet normal -0.661312 0.750111 0
    outer loop
      vertex -23.9591 25.5139 5
      vertex -23.9591 25.5139 40
      vertex -22.3098 26.968 5
    endloop
  endfacet
  facet normal -0.707107 -0.707107 0
    outer loop
      vertex -25.5139 -23.9591 0
      vertex -23.9591 -25.5139 0
      vertex -25.5139 -23.9591 40
    endloop
  endfacet
  facet normal -0.707107 -0.707107 0
    outer loop
      vertex -25.5139 -23.9591 40
      vertex -23.9591 -25.5139 0
      vertex -23.9591 -25.5139 40
    endloop
  endfacet
  facet normal 0 0 1
    outer loop
      vertex -25.5139 -23.9591 40
      vertex -23.9591 -25.5139 40
      vertex -25.5139 23.9591 40
    endloop
  endfacet
  facet normal -0 0 1
    outer loop
      vertex -25.5139 23.9591 40
      vertex -23.9591 -25.5139 40
      vertex -23.9591 25.5139 40
    endloop
  endfacet
  facet normal -0.707107 0.707107 0
    outer loop
      vertex -25.5139 23.9591 5
      vertex -23.9591 25.5139 40
      vertex -23.9591 25.5139 5
    endloop
  endfacet
  facet normal 0 0 1
    outer loop
      vertex -25.5139 23.9591 5
      vertex -23.9591 25.5139 5
      vertex -17.1 74.5 5
    endloop
  endfacet
  facet normal -0.707107 0.707107 0
    outer loop
      vertex -25.5139 23.9591 5
      vertex -25.5139 23.9591 40
      vertex -23.9591 25.5139 40
    endloop
  endfacet
  facet normal -0.750111 -0.661312 0
    outer loop
      vertex -26.968 -22.3098 0
      vertex -25.5139 -23.9591 0
      vertex -26.968 -22.3098 40
    endloop
  endfacet
  facet normal -0.750111 -0.661312 0
    outer loop
      vertex -26.968 -22.3098 40
      vertex -25.5139 -23.9591 0
      vertex -25.5139 -23.9591 40
    endloop
  endfacet
  facet normal 0 0 1
    outer loop
      vertex -26.968 -22.3098 40
      vertex -25.5139 -23.9591 40
      vertex -26.968 22.3098 40
    endloop
  endfacet
  facet normal -0 0 1
    outer loop
      vertex -26.968 22.3098 40
      vertex -25.5139 -23.9591 40
      vertex -25.5139 23.9591 40
    endloop
  endfacet
  facet normal -0.750111 0.661312 0
    outer loop
      vertex -26.968 22.3098 5
      vertex -25.5139 23.9591 40
      vertex -25.5139 23.9591 5
    endloop
  endfacet
  facet normal 0 0 1
    outer loop
      vertex -26.968 22.3098 5
      vertex -25.5139 23.9591 5
      vertex -17.1 74.5 5
    endloop
  endfacet
  facet normal -0.750111 0.661312 0
    outer loop
      vertex -26.968 22.3098 5
      vertex -26.968 22.3098 40
      vertex -25.5139 23.9591 40
    endloop
  endfacet
  facet normal -0.790155 -0.612906 0
    outer loop
      vertex -28.3156 -20.5725 0
      vertex -26.968 -22.3098 0
      vertex -28.3156 -20.5725 40
    endloop
  endfacet
  facet normal -0.790155 -0.612906 0
    outer loop
      vertex -28.3156 -20.5725 40
      vertex -26.968 -22.3098 0
      vertex -26.968 -22.3098 40
    endloop
  endfacet
  facet normal 0 0 1
    outer loop
      vertex -28.3156 -20.5725 40
      vertex -26.968 -22.3098 40
      vertex -28.3156 20.5725 40
    endloop
  endfacet
  facet normal -0 0 1
    outer loop
      vertex -28.3156 20.5725 40
      vertex -26.968 -22.3098 40
      vertex -26.968 22.3098 40
    endloop
  endfacet
  facet normal -0.790155 0.612906 0
    outer loop
      vertex -28.3156 20.5725 5
      vertex -26.968 22.3098 40
      vertex -26.968 22.3098 5
    endloop
  endfacet
  facet normal 0 0 1
    outer loop
      vertex -28.3156 20.5725 5
      vertex -26.968 22.3098 5
      vertex -17.1 74.5 5
    endloop
  endfacet
  facet normal -0.790155 0.612906 0
    outer loop
      vertex -28.3156 20.5725 5
      vertex -28.3156 20.5725 40
      vertex -26.968 22.3098 40
    endloop
  endfacet
  facet normal -0.827081 -0.562083 0
    outer loop
      vertex -29.5515 -18.7539 0
      vertex -28.3156 -20.5725 0
      vertex -29.5515 -18.7539 40
    endloop
  endfacet
  facet normal -0.827081 -0.562083 0
    outer loop
      vertex -29.5515 -18.7539 40
      vertex -28.3156 -20.5725 0
      vertex -28.3156 -20.5725 40
    endloop
  endfacet
  facet normal 0 0 1
    outer loop
      vertex -29.5515 -18.7539 40
      vertex -28.3156 -20.5725 40
      vertex -29.5515 18.7539 40
    endloop
  endfacet
  facet normal -0 0 1
    outer loop
      vertex -29.5515 18.7539 40
      vertex -28.3156 -20.5725 40
      vertex -28.3156 20.5725 40
    endloop
  endfacet
  facet normal -0.827081 0.562083 0
    outer loop
      vertex -29.5515 18.7539 5
      vertex -28.3156 20.5725 40
      vertex -28.3156 20.5725 5
    endloop
  endfacet
  facet normal 0 0 1
    outer loop
      vertex -29.5515 18.7539 5
      vertex -28.3156 20.5725 5
      vertex -17.1 74.5 5
    endloop
  endfacet
  facet normal -0.827081 0.562083 0
    outer loop
      vertex -29.5515 18.7539 5
      vertex -29.5515 18.7539 40
      vertex -28.3156 20.5725 40
    endloop
  endfacet
  facet normal -0.860742 -0.509042 0
    outer loop
      vertex -30.6707 -16.8614 0
      vertex -29.5515 -18.7539 0
      vertex -30.6707 -16.8614 40
    endloop
  endfacet
  facet normal -0.860742 -0.509042 0
    outer loop
      vertex -30.6707 -16.8614 40
      vertex -29.5515 -18.7539 0
      vertex -29.5515 -18.7539 40
    endloop
  endfacet
  facet normal 0 0 1
    outer loop
      vertex -30.6707 -16.8614 40
      vertex -29.5515 -18.7539 40
      vertex -30.6707 16.8614 40
    endloop
  endfacet
  facet normal -0 0 1
    outer loop
      vertex -30.6707 16.8614 40
      vertex -29.5515 -18.7539 40
      vertex -29.5515 18.7539 40
    endloop
  endfacet
  facet normal -0.860742 0.509042 0
    outer loop
      vertex -30.6707 16.8614 5
      vertex -29.5515 18.7539 40
      vertex -29.5515 18.7539 5
    endloop
  endfacet
  facet normal 0 0 1
    outer loop
      vertex -30.6707 16.8614 5
      vertex -29.5515 18.7539 5
      vertex -17.1 74.5 5
    endloop
  endfacet
  facet normal -0.860742 0.509042 0
    outer loop
      vertex -30.6707 16.8614 5
      vertex -30.6707 16.8614 40
      vertex -29.5515 18.7539 40
    endloop
  endfacet
  facet normal -0.891007 -0.45399 0
    outer loop
      vertex -31.6689 -14.9023 0
      vertex -30.6707 -16.8614 0
      vertex -31.6689 -14.9023 40
    endloop
  endfacet
  facet normal -0.891007 -0.45399 0
    outer loop
      vertex -31.6689 -14.9023 40
      vertex -30.6707 -16.8614 0
      vertex -30.6707 -16.8614 40
    endloop
  endfacet
  facet normal 0 0 1
    outer loop
      vertex -31.6689 -14.9023 40
      vertex -30.6707 -16.8614 40
      vertex -31.6689 14.9023 40
    endloop
  endfacet
  facet normal -0 0 1
    outer loop
      vertex -31.6689 14.9023 40
      vertex -30.6707 -16.8614 40
      vertex -30.6707 16.8614 40
    endloop
  endfacet
  facet normal 0 0 1
    outer loop
      vertex -31.6689 14.9023 5
      vertex -17.1 74.5 5
      vertex -21.25 111.25 5
    endloop
  endfacet
  facet normal -0.891007 0.45399 0
    outer loop
      vertex -31.6689 14.9023 5
      vertex -30.6707 16.8614 40
      vertex -30.6707 16.8614 5
    endloop
  endfacet
  facet normal 0 0 1
    outer loop
      vertex -31.6689 14.9023 5
      vertex -30.6707 16.8614 5
      vertex -17.1 74.5 5
    endloop
  endfacet
  facet normal -0.891007 0.45399 0
    outer loop
      vertex -31.6689 14.9023 5
      vertex -31.6689 14.9023 40
      vertex -30.6707 16.8614 40
    endloop
  endfacet
  facet normal -0.917755 -0.397148 0
    outer loop
      vertex -32.5422 -12.8844 0
      vertex -31.6689 -14.9023 0
      vertex -32.5422 -12.8844 40
    endloop
  endfacet
  facet normal -0.917755 -0.397148 0
    outer loop
      vertex -32.5422 -12.8844 40
      vertex -31.6689 -14.9023 0
      vertex -31.6689 -14.9023 40
    endloop
  endfacet
  facet normal 0 0 1
    outer loop
      vertex -32.5422 -12.8844 40
      vertex -31.6689 -14.9023 40
      vertex -32.5422 12.8844 40
    endloop
  endfacet
  facet normal -0 0 1
    outer loop
      vertex -32.5422 12.8844 40
      vertex -31.6689 -14.9023 40
      vertex -31.6689 14.9023 40
    endloop
  endfacet
  facet normal -0.917755 0.397148 0
    outer loop
      vertex -32.5422 12.8844 5
      vertex -31.6689 14.9023 40
      vertex -31.6689 14.9023 5
    endloop
  endfacet
  facet normal 0 0 1
    outer loop
      vertex -32.5422 12.8844 5
      vertex -31.6689 14.9023 5
      vertex -21.25 111.25 5
    endloop
  endfacet
  facet normal -0.917755 0.397148 0
    outer loop
      vertex -32.5422 12.8844 5
      vertex -32.5422 12.8844 40
      vertex -31.6689 14.9023 40
    endloop
  endfacet
  facet normal -0.94088 -0.338739 0
    outer loop
      vertex -33.287 -10.8156 0
      vertex -32.5422 -12.8844 0
      vertex -33.287 -10.8156 40
    endloop
  endfacet
  facet normal -0.94088 -0.338739 0
    outer loop
      vertex -33.287 -10.8156 40
      vertex -32.5422 -12.8844 0
      vertex -32.5422 -12.8844 40
    endloop
  endfacet
  facet normal 0 0 1
    outer loop
      vertex -33.287 -10.8156 40
      vertex -32.5422 -12.8844 40
      vertex -33.287 10.8156 40
    endloop
  endfacet
  facet normal -0 0 1
    outer loop
      vertex -33.287 10.8156 40
      vertex -32.5422 -12.8844 40
      vertex -32.5422 12.8844 40
    endloop
  endfacet
  facet normal -0.94088 0.338739 0
    outer loop
      vertex -33.287 10.8156 5
      vertex -32.5422 12.8844 40
      vertex -32.5422 12.8844 5
    endloop
  endfacet
  facet normal 0 0 1
    outer loop
      vertex -33.287 10.8156 5
      vertex -32.5422 12.8844 5
      vertex -21.25 111.25 5
    endloop
  endfacet
  facet normal -0.94088 0.338739 0
    outer loop
      vertex -33.287 10.8156 5
      vertex -33.287 10.8156 40
      vertex -32.5422 12.8844 40
    endloop
  endfacet
  facet normal -0.960294 -0.27899 0
    outer loop
      vertex -33.9004 -8.70415 0
      vertex -33.287 -10.8156 0
      vertex -33.9004 -8.70415 40
    endloop
  endfacet
  facet normal -0.960294 -0.27899 0
    outer loop
      vertex -33.9004 -8.70415 40
      vertex -33.287 -10.8156 0
      vertex -33.287 -10.8156 40
    endloop
  endfacet
  facet normal 0 0 1
    outer loop
      vertex -33.9004 -8.70415 40
      vertex -33.287 -10.8156 40
      vertex -33.9004 8.70415 40
    endloop
  endfacet
  facet normal -0 0 1
    outer loop
      vertex -33.9004 8.70415 40
      vertex -33.287 -10.8156 40
      vertex -33.287 10.8156 40
    endloop
  endfacet
  facet normal -0.960294 0.27899 0
    outer loop
      vertex -33.9004 8.70415 5
      vertex -33.287 10.8156 40
      vertex -33.287 10.8156 5
    endloop
  endfacet
  facet normal 0 0 1
    outer loop
      vertex -33.9004 8.70415 5
      vertex -33.287 10.8156 5
      vertex -21.25 111.25 5
    endloop
  endfacet
  facet normal -0.960294 0.27899 0
    outer loop
      vertex -33.9004 8.70415 5
      vertex -33.9004 8.70415 40
      vertex -33.287 10.8156 40
    endloop
  endfacet
  facet normal -0.975917 -0.218144 0
    outer loop
      vertex -34.3801 -6.55835 0
      vertex -33.9004 -8.70415 0
      vertex -34.3801 -6.55835 40
    endloop
  endfacet
  facet normal -0.975917 -0.218144 0
    outer loop
      vertex -34.3801 -6.55835 40
      vertex -33.9004 -8.70415 0
      vertex -33.9004 -8.70415 40
    endloop
  endfacet
  facet normal 0 0 1
    outer loop
      vertex -34.3801 -6.55835 40
      vertex -33.9004 -8.70415 40
      vertex -34.3801 6.55835 40
    endloop
  endfacet
  facet normal -0 0 1
    outer loop
      vertex -34.3801 6.55835 40
      vertex -33.9004 -8.70415 40
      vertex -33.9004 8.70415 40
    endloop
  endfacet
  facet normal -0.975917 0.218144 0
    outer loop
      vertex -34.3801 6.55835 5
      vertex -33.9004 8.70415 40
      vertex -33.9004 8.70415 5
    endloop
  endfacet
  facet normal 0 0 1
    outer loop
      vertex -34.3801 6.55835 5
      vertex -33.9004 8.70415 5
      vertex -21.25 111.25 5
    endloop
  endfacet
  facet normal -0.975917 0.218144 0
    outer loop
      vertex -34.3801 6.55835 5
      vertex -34.3801 6.55835 40
      vertex -33.9004 8.70415 40
    endloop
  endfacet
  facet normal -0.987688 -0.156434 0
    outer loop
      vertex -34.724 -4.38666 0
      vertex -34.3801 -6.55835 0
      vertex -34.724 -4.38666 40
    endloop
  endfacet
  facet normal 0 0 -1
    outer loop
      vertex -34.724 -4.38666 0
      vertex -34.724 4.38666 0
      vertex -34.3801 -6.55835 0
    endloop
  endfacet
  facet normal -0.987688 -0.156434 0
    outer loop
      vertex -34.724 -4.38666 40
      vertex -34.3801 -6.55835 0
      vertex -34.3801 -6.55835 40
    endloop
  endfacet
  facet normal 0 0 1
    outer loop
      vertex -34.724 -4.38666 40
      vertex -34.3801 -6.55835 40
      vertex -34.724 4.38666 40
    endloop
  endfacet
  facet normal 0 0 -1
    outer loop
      vertex -34.724 4.38666 0
      vertex -10.8156 -33.287 0
      vertex -12.8844 -32.5422 0
    endloop
  endfacet
  facet normal 0 0 -1
    outer loop
      vertex -34.724 4.38666 0
      vertex -12.8844 -32.5422 0
      vertex -14.9023 -31.6689 0
    endloop
  endfacet
  facet normal 0 0 -1
    outer loop
      vertex -34.724 4.38666 0
      vertex -14.9023 -31.6689 0
      vertex -16.8614 -30.6707 0
    endloop
  endfacet
  facet normal 0 0 -1
    outer loop
      vertex -34.724 4.38666 0
      vertex -16.8614 -30.6707 0
      vertex -18.7539 -29.5515 0
    endloop
  endfacet
  facet normal 0 0 -1
    outer loop
      vertex -34.724 4.38666 0
      vertex -18.7539 -29.5515 0
      vertex -20.5725 -28.3156 0
    endloop
  endfacet
  facet normal 0 0 -1
    outer loop
      vertex -34.724 4.38666 0
      vertex -2.19767 -34.9309 0
      vertex -4.38666 -34.724 0
    endloop
  endfacet
  facet normal 0 0 -1
    outer loop
      vertex -34.724 4.38666 0
      vertex -20.5725 -28.3156 0
      vertex -22.3098 -26.968 0
    endloop
  endfacet
  facet normal -0 0 -1
    outer loop
      vertex -34.724 4.38666 0
      vertex -21.25 111.25 0
      vertex 21.25 111.25 0
    endloop
  endfacet
  facet normal -0.992145 0.125096 0
    outer loop
      vertex -34.724 4.38666 0
      vertex -21.25 111.25 5
      vertex -21.25 111.25 0
    endloop
  endfacet
  facet normal 0 0 -1
    outer loop
      vertex -34.724 4.38666 0
      vertex -22.3098 -26.968 0
      vertex -23.9591 -25.5139 0
    endloop
  endfacet
  facet normal 0 0 -1
    outer loop
      vertex -34.724 4.38666 0
      vertex -23.9591 -25.5139 0
      vertex -25.5139 -23.9591 0
    endloop
  endfacet
  facet normal 0 0 -1
    outer loop
      vertex -34.724 4.38666 0
      vertex -25.5139 -23.9591 0
      vertex -26.968 -22.3098 0
    endloop
  endfacet
  facet normal 0 0 -1
    outer loop
      vertex -34.724 4.38666 0
      vertex -26.968 -22.3098 0
      vertex -28.3156 -20.5725 0
    endloop
  endfacet
  facet normal 0 0 -1
    outer loop
      vertex -34.724 4.38666 0
      vertex -28.3156 -20.5725 0
      vertex -29.5515 -18.7539 0
    endloop
  endfacet
  facet normal 0 0 -1
    outer loop
      vertex -34.724 4.38666 0
      vertex -29.5515 -18.7539 0
      vertex -30.6707 -16.8614 0
    endloop
  endfacet
  facet normal 0 0 -1
    outer loop
      vertex -34.724 4.38666 0
      vertex -30.6707 -16.8614 0
      vertex -31.6689 -14.9023 0
    endloop
  endfacet
  facet normal 0 0 -1
    outer loop
      vertex -34.724 4.38666 0
      vertex -31.6689 -14.9023 0
      vertex -32.5422 -12.8844 0
    endloop
  endfacet
  facet normal 0 0 -1
    outer loop
      vertex -34.724 4.38666 0
      vertex -32.5422 -12.8844 0
      vertex -33.287 -10.8156 0
    endloop
  endfacet
  facet normal 0 0 -1
    outer loop
      vertex -34.724 4.38666 0
      vertex -33.287 -10.8156 0
      vertex -33.9004 -8.70415 0
    endloop
  endfacet
  facet normal 0 0 -1
    outer loop
      vertex -34.724 4.38666 0
      vertex -33.9004 -8.70415 0
      vertex -34.3801 -6.55835 0
    endloop
  endfacet
  facet normal -0.992145 0.125096 0
    outer loop
      vertex -34.724 4.38666 0
      vertex -34.724 4.38666 5
      vertex -21.25 111.25 5
    endloop
  endfacet
  facet normal 0 0 -1
    outer loop
      vertex -34.724 4.38666 0
      vertex -4.38666 -34.724 0
      vertex -6.55835 -34.3801 0
    endloop
  endfacet
  facet normal 0 0 -1
    outer loop
      vertex -34.724 4.38666 0
      vertex -6.55835 -34.3801 0
      vertex -8.70415 -33.9004 0
    endloop
  endfacet
  facet normal 0 0 -1
    outer loop
      vertex -34.724 4.38666 0
      vertex -8.70415 -33.9004 0
      vertex -10.8156 -33.287 0
    endloop
  endfacet
  facet normal 0 0 -1
    outer loop
      vertex -34.724 4.38666 0
      vertex 0 -35 0
      vertex -2.19767 -34.9309 0
    endloop
  endfacet
  facet normal 0 0 -1
    outer loop
      vertex -34.724 4.38666 0
      vertex 10.8156 -33.287 0
      vertex 8.70415 -33.9004 0
    endloop
  endfacet
  facet normal 0 0 -1
    outer loop
      vertex -34.724 4.38666 0
      vertex 12.8844 -32.5422 0
      vertex 10.8156 -33.287 0
    endloop
  endfacet
  facet normal 0 0 -1
    outer loop
      vertex -34.724 4.38666 0
      vertex 14.9023 -31.6689 0
      vertex 12.8844 -32.5422 0
    endloop
  endfacet
  facet normal 0 0 -1
    outer loop
      vertex -34.724 4.38666 0
      vertex 16.8614 -30.6707 0
      vertex 14.9023 -31.6689 0
    endloop
  endfacet
  facet normal 0 0 -1
    outer loop
      vertex -34.724 4.38666 0
      vertex 18.7539 -29.5515 0
      vertex 16.8614 -30.6707 0
    endloop
  endfacet
  facet normal 0 0 -1
    outer loop
      vertex -34.724 4.38666 0
      vertex 2.19767 -34.9309 0
      vertex 0 -35 0
    endloop
  endfacet
  facet normal 0 0 -1
    outer loop
      vertex -34.724 4.38666 0
      vertex 20.5725 -28.3156 0
      vertex 18.7539 -29.5515 0
    endloop
  endfacet
  facet normal 0 0 -1
    outer loop
      vertex -34.724 4.38666 0
      vertex 21.25 111.25 0
      vertex 34.724 4.38666 0
    endloop
  endfacet
  facet normal 0 0 -1
    outer loop
      vertex -34.724 4.38666 0
      vertex 22.3098 -26.968 0
      vertex 20.5725 -28.3156 0
    endloop
  endfacet
  facet normal 0 0 -1
    outer loop
      vertex -34.724 4.38666 0
      vertex 34.724 4.38666 0
      vertex 22.3098 -26.968 0
    endloop
  endfacet
  facet normal 0 0 -1
    outer loop
      vertex -34.724 4.38666 0
      vertex 4.38666 -34.724 0
      vertex 2.19767 -34.9309 0
    endloop
  endfacet
  facet normal 0 0 -1
    outer loop
      vertex -34.724 4.38666 0
      vertex 6.55835 -34.3801 0
      vertex 4.38666 -34.724 0
    endloop
  endfacet
  facet normal 0 0 -1
    outer loop
      vertex -34.724 4.38666 0
      vertex 8.70415 -33.9004 0
      vertex 6.55835 -34.3801 0
    endloop
  endfacet
  facet normal -0 0 1
    outer loop
      vertex -34.724 4.38666 40
      vertex -34.3801 -6.55835 40
      vertex -34.3801 6.55835 40
    endloop
  endfacet
  facet normal -0.987688 0.156434 0
    outer loop
      vertex -34.724 4.38666 5
      vertex -34.3801 6.55835 40
      vertex -34.3801 6.55835 5
    endloop
  endfacet
  facet normal 0 -0 1
    outer loop
      vertex -34.724 4.38666 5
      vertex -34.3801 6.55835 5
      vertex -21.25 111.25 5
    endloop
  endfacet
  facet normal -0.987688 0.156434 0
    outer loop
      vertex -34.724 4.38666 5
      vertex -34.724 4.38666 40
      vertex -34.3801 6.55835 40
    endloop
  endfacet
  facet normal -0.995562 -0.0941082 0
    outer loop
      vertex -34.9309 -2.19767 0
      vertex -34.724 -4.38666 0
      vertex -34.9309 -2.19767 40
    endloop
  endfacet
  facet normal 0 0 -1
    outer loop
      vertex -34.9309 -2.19767 0
      vertex -34.724 4.38666 0
      vertex -34.724 -4.38666 0
    endloop
  endfacet
  facet normal 0 0 -1
    outer loop
      vertex -34.9309 -2.19767 0
      vertex -34.9309 2.19767 0
      vertex -34.724 4.38666 0
    endloop
  endfacet
  facet normal -0.995562 -0.0941082 0
    outer loop
      vertex -34.9309 -2.19767 40
      vertex -34.724 -4.38666 0
      vertex -34.724 -4.38666 40
    endloop
  endfacet
  facet normal 0 0 1
    outer loop
      vertex -34.9309 -2.19767 40
      vertex -34.724 -4.38666 40
      vertex -34.9309 2.19767 40
    endloop
  endfacet
  facet normal -0.995562 0.0941082 0
    outer loop
      vertex -34.9309 2.19767 0
      vertex -34.724 4.38666 5
      vertex -34.724 4.38666 0
    endloop
  endfacet
  facet normal -0.995562 0.0941082 0
    outer loop
      vertex -34.9309 2.19767 0
      vertex -34.9309 2.19767 40
      vertex -34.724 4.38666 5
    endloop
  endfacet
  facet normal -0 0 1
    outer loop
      vertex -34.9309 2.19767 40
      vertex -34.724 -4.38666 40
      vertex -34.724 4.38666 40
    endloop
  endfacet
  facet normal -0.995562 0.0941082 0
    outer loop
      vertex -34.9309 2.19767 40
      vertex -34.724 4.38666 40
      vertex -34.724 4.38666 5
    endloop
  endfacet
  facet normal -0.999507 -0.031411 0
    outer loop
      vertex -35 0 0
      vertex -34.9309 -2.19767 0
      vertex -35 0 40
    endloop
  endfacet
  facet normal 0 -0 -1
    outer loop
      vertex -35 0 0
      vertex -34.9309 2.19767 0
      vertex -34.9309 -2.19767 0
    endloop
  endfacet
  facet normal -0.999507 0.031411 0
    outer loop
      vertex -35 0 0
      vertex -34.9309 2.19767 40
      vertex -34.9309 2.19767 0
    endloop
  endfacet
  facet normal -0.999507 0.031411 0
    outer loop
      vertex -35 0 0
      vertex -35 0 40
      vertex -34.9309 2.19767 40
    endloop
  endfacet
  facet normal -0.999507 -0.031411 0
    outer loop
      vertex -35 0 40
      vertex -34.9309 -2.19767 0
      vertex -34.9309 -2.19767 40
    endloop
  endfacet
  facet normal 0 -0 1
    outer loop
      vertex -35 0 40
      vertex -34.9309 -2.19767 40
      vertex -34.9309 2.19767 40
    endloop
  endfacet
  facet normal -0.0941082 -0.995562 -0
    outer loop
      vertex -4.38666 -34.724 0
      vertex -2.19767 -34.9309 0
      vertex -2.19767 -34.9309 40
    endloop
  endfacet
  facet normal -0.0941082 -0.995562 0
    outer loop
      vertex -4.38666 -34.724 0
      vertex -2.19767 -34.9309 40
      vertex -4.38666 -34.724 40
    endloop
  endfacet
  facet normal 0 0 1
    outer loop
      vertex -4.38666 -34.724 40
      vertex -2.19767 -34.9309 40
      vertex -4.38666 34.724 40
    endloop
  endfacet
  facet normal -0 0 1
    outer loop
      vertex -4.38666 34.724 40
      vertex -2.19767 -34.9309 40
      vertex -2.19767 34.9309 40
    endloop
  endfacet
  facet normal -0.0941082 0.995562 0
    outer loop
      vertex -4.38666 34.724 40
      vertex -2.19767 34.9309 40
      vertex -2.19767 34.9309 5
    endloop
  endfacet
  facet normal -0.0941082 0.995562 0
    outer loop
      vertex -4.38666 34.724 5
      vertex -4.38666 34.724 40
      vertex -2.19767 34.9309 5
    endloop
  endfacet
  facet normal -0.156434 -0.987688 -0
    outer loop
      vertex -6.55835 -34.3801 0
      vertex -4.38666 -34.724 0
      vertex -4.38666 -34.724 40
    endloop
  endfacet
  facet normal -0.156434 -0.987688 0
    outer loop
      vertex -6.55835 -34.3801 0
      vertex -4.38666 -34.724 40
      vertex -6.55835 -34.3801 40
    endloop
  endfacet
  facet normal 0 0 1
    outer loop
      vertex -6.55835 -34.3801 40
      vertex -4.38666 -34.724 40
      vertex -6.55835 34.3801 40
    endloop
  endfacet
  facet normal -0 0 1
    outer loop
      vertex -6.55835 34.3801 40
      vertex -4.38666 -34.724 40
      vertex -4.38666 34.724 40
    endloop
  endfacet
  facet normal -0.156434 0.987688 0
    outer loop
      vertex -6.55835 34.3801 40
      vertex -4.38666 34.724 40
      vertex -4.38666 34.724 5
    endloop
  endfacet
  facet normal -0.156434 0.987688 0
    outer loop
      vertex -6.55835 34.3801 5
      vertex -6.55835 34.3801 40
      vertex -4.38666 34.724 5
    endloop
  endfacet
  facet normal -0.218144 -0.975917 -0
    outer loop
      vertex -8.70415 -33.9004 0
      vertex -6.55835 -34.3801 0
      vertex -6.55835 -34.3801 40
    endloop
  endfacet
  facet normal -0.218144 -0.975917 0
    outer loop
      vertex -8.70415 -33.9004 0
      vertex -6.55835 -34.3801 40
      vertex -8.70415 -33.9004 40
    endloop
  endfacet
  facet normal 0 0 1
    outer loop
      vertex -8.70415 -33.9004 40
      vertex -6.55835 -34.3801 40
      vertex -8.70415 33.9004 40
    endloop
  endfacet
  facet normal -0 0 1
    outer loop
      vertex -8.70415 33.9004 40
      vertex -6.55835 -34.3801 40
      vertex -6.55835 34.3801 40
    endloop
  endfacet
  facet normal -0.218144 0.975917 0
    outer loop
      vertex -8.70415 33.9004 40
      vertex -6.55835 34.3801 40
      vertex -6.55835 34.3801 5
    endloop
  endfacet
  facet normal -0.218144 0.975917 0
    outer loop
      vertex -8.70415 33.9004 5
      vertex -8.70415 33.9004 40
      vertex -6.55835 34.3801 5
    endloop
  endfacet
  facet normal 0.031411 -0.999507 0
    outer loop
      vertex 0 -35 0
      vertex 2.19767 -34.9309 0
      vertex 2.19767 -34.9309 40
    endloop
  endfacet
  facet normal 0.031411 -0.999507 0
    outer loop
      vertex 0 -35 0
      vertex 2.19767 -34.9309 40
      vertex 0 -35 40
    endloop
  endfacet
  facet normal 0 0 1
    outer loop
      vertex 0 -35 40
      vertex 2.19767 -34.9309 40
      vertex 0 35 40
    endloop
  endfacet
  facet normal 0 0 1
    outer loop
      vertex 0 35 40
      vertex 2.19767 -34.9309 40
      vertex 2.19767 34.9309 40
    endloop
  endfacet
  facet normal 0.031411 0.999507 -0
    outer loop
      vertex 0 35 40
      vertex 2.19767 34.9309 40
      vertex 2.19767 34.9309 5
    endloop
  endfacet
  facet normal 0.031411 0.999507 0
    outer loop
      vertex 0 35 5
      vertex 0 35 40
      vertex 2.19767 34.9309 5
    endloop
  endfacet
  facet normal 0 0 1
    outer loop
      vertex 0 35 5
      vertex 2.19767 34.9309 5
      vertex 13.9 74.5 5
    endloop
  endfacet
  facet normal 0.338739 -0.94088 0
    outer loop
      vertex 10.8156 -33.287 0
      vertex 12.8844 -32.5422 0
      vertex 12.8844 -32.5422 40
    endloop
  endfacet
  facet normal 0.338739 -0.94088 0
    outer loop
      vertex 10.8156 -33.287 0
      vertex 12.8844 -32.5422 40
      vertex 10.8156 -33.287 40
    endloop
  endfacet
  facet normal 0 0 1
    outer loop
      vertex 10.8156 -33.287 40
      vertex 12.8844 -32.5422 40
      vertex 10.8156 33.287 40
    endloop
  endfacet
  facet normal 0 0 1
    outer loop
      vertex 10.8156 33.287 40
      vertex 12.8844 -32.5422 40
      vertex 12.8844 32.5422 40
    endloop
  endfacet
  facet normal 0.338739 0.94088 -0
    outer loop
      vertex 10.8156 33.287 40
      vertex 12.8844 32.5422 40
      vertex 12.8844 32.5422 5
    endloop
  endfacet
  facet normal 0.338739 0.94088 0
    outer loop
      vertex 10.8156 33.287 5
      vertex 10.8156 33.287 40
      vertex 12.8844 32.5422 5
    endloop
  endfacet
  facet normal 0 0 1
    outer loop
      vertex 10.8156 33.287 5
      vertex 12.8844 32.5422 5
      vertex 13.9 74.5 5
    endloop
  endfacet
  facet normal 0.397148 -0.917755 0
    outer loop
      vertex 12.8844 -32.5422 0
      vertex 14.9023 -31.6689 0
      vertex 14.9023 -31.6689 40
    endloop
  endfacet
  facet normal 0.397148 -0.917755 0
    outer loop
      vertex 12.8844 -32.5422 0
      vertex 14.9023 -31.6689 40
      vertex 12.8844 -32.5422 40
    endloop
  endfacet
  facet normal 0 0 1
    outer loop
      vertex 12.8844 -32.5422 40
      vertex 14.9023 -31.6689 40
      vertex 12.8844 32.5422 40
    endloop
  endfacet
  facet normal 0 0 1
    outer loop
      vertex 12.8844 32.5422 40
      vertex 14.9023 -31.6689 40
      vertex 14.9023 31.6689 40
    endloop
  endfacet
  facet normal 0.397148 0.917755 -0
    outer loop
      vertex 12.8844 32.5422 40
      vertex 14.9023 31.6689 40
      vertex 14.9023 31.6689 5
    endloop
  endfacet
  facet normal 0.397148 0.917755 0
    outer loop
      vertex 12.8844 32.5422 5
      vertex 12.8844 32.5422 40
      vertex 14.9023 31.6689 5
    endloop
  endfacet
  facet normal 0 0 1
    outer loop
      vertex 12.8844 32.5422 5
      vertex 14.7 73.1144 5
      vertex 13.9 74.5 5
    endloop
  endfacet
  facet normal 0 0 1
    outer loop
      vertex 12.8844 32.5422 5
      vertex 14.9023 31.6689 5
      vertex 16.3 73.1144 5
    endloop
  endfacet
  facet normal 0 0 1
    outer loop
      vertex 12.8844 32.5422 5
      vertex 16.3 73.1144 5
      vertex 14.7 73.1144 5
    endloop
  endfacet
  facet normal 0 -0 1
    outer loop
      vertex 13.9 105.5 10
      vertex 14.7 104.114 10
      vertex 14.7 106.886 10
    endloop
  endfacet
  facet normal -0.866026 -0.499999 0
    outer loop
      vertex 13.9 105.5 10
      vertex 14.7 104.114 5
      vertex 14.7 104.114 10
    endloop
  endfacet
  facet normal -0.866026 0.499999 0
    outer loop
      vertex 13.9 105.5 5
      vertex 13.9 105.5 10
      vertex 14.7 106.886 10
    endloop
  endfacet
  facet normal -0.866026 -0.499999 0
    outer loop
      vertex 13.9 105.5 5
      vertex 14.7 104.114 5
      vertex 13.9 105.5 10
    endloop
  endfacet
  facet normal -0.866026 0.499999 0
    outer loop
      vertex 13.9 105.5 5
      vertex 14.7 106.886 10
      vertex 14.7 106.886 5
    endloop
  endfacet
  facet normal 0 -0 1
    outer loop
      vertex 13.9 74.5 10
      vertex 14.7 73.1144 10
      vertex 14.7 75.8856 10
    endloop
  endfacet
  facet normal -0.866026 -0.499999 0
    outer loop
      vertex 13.9 74.5 10
      vertex 14.7 73.1144 5
      vertex 14.7 73.1144 10
    endloop
  endfacet
  facet normal -0.866026 0.499999 0
    outer loop
      vertex 13.9 74.5 5
      vertex 13.9 74.5 10
      vertex 14.7 75.8856 10
    endloop
  endfacet
  facet normal -0.866026 -0.499999 0
    outer loop
      vertex 13.9 74.5 5
      vertex 14.7 73.1144 5
      vertex 13.9 74.5 10
    endloop
  endfacet
  facet normal -0.866026 0.499999 0
    outer loop
      vertex 13.9 74.5 5
      vertex 14.7 75.8856 10
      vertex 14.7 75.8856 5
    endloop
  endfacet
  facet normal 0 0 1
    outer loop
      vertex 14.7 104.114 10
      vertex 16.3 104.114 10
      vertex 14.7 106.886 10
    endloop
  endfacet
  facet normal 0 -1 0
    outer loop
      vertex 14.7 104.114 5
      vertex 16.3 104.114 10
      vertex 14.7 104.114 10
    endloop
  endfacet
  facet normal 0 -1 -0
    outer loop
      vertex 14.7 104.114 5
      vertex 16.3 104.114 5
      vertex 16.3 104.114 10
    endloop
  endfacet
  facet normal -0 0 1
    outer loop
      vertex 14.7 104.114 5
      vertex 16.3 75.8856 5
      vertex 16.3 104.114 5
    endloop
  endfacet
  facet normal -0 0 1
    outer loop
      vertex 14.7 106.886 10
      vertex 16.3 104.114 10
      vertex 16.3 106.886 10
    endloop
  endfacet
  facet normal 0 1 -0
    outer loop
      vertex 14.7 106.886 10
      vertex 16.3 106.886 10
      vertex 16.3 106.886 5
    endloop
  endfacet
  facet normal 0 1 0
    outer loop
      vertex 14.7 106.886 5
      vertex 14.7 106.886 10
      vertex 16.3 106.886 5
    endloop
  endfacet
  facet normal 0 0 1
    outer loop
      vertex 14.7 106.886 5
      vertex 16.3 106.886 5
      vertex 21.25 111.25 5
    endloop
  endfacet
  facet normal 0 0 1
    outer loop
      vertex 14.7 73.1144 10
      vertex 16.3 73.1144 10
      vertex 14.7 75.8856 10
    endloop
  endfacet
  facet normal 0 -1 0
    outer loop
      vertex 14.7 73.1144 5
      vertex 16.3 73.1144 10
      vertex 14.7 73.1144 10
    endloop
  endfacet
  facet normal 0 -1 -0
    outer loop
      vertex 14.7 73.1144 5
      vertex 16.3 73.1144 5
      vertex 16.3 73.1144 10
    endloop
  endfacet
  facet normal -0 0 1
    outer loop
      vertex 14.7 75.8856 10
      vertex 16.3 73.1144 10
      vertex 16.3 75.8856 10
    endloop
  endfacet
  facet normal 0 1 -0
    outer loop
      vertex 14.7 75.8856 10
      vertex 16.3 75.8856 10
      vertex 16.3 75.8856 5
    endloop
  endfacet
  facet normal 0 1 0
    outer loop
      vertex 14.7 75.8856 5
      vertex 14.7 75.8856 10
      vertex 16.3 75.8856 5
    endloop
  endfacet
  facet normal 0 0 1
    outer loop
      vertex 14.7 75.8856 5
      vertex 16.3 75.8856 5
      vertex 14.7 104.114 5
    endloop
  endfacet
  facet normal 0.45399 -0.891007 0
    outer loop
      vertex 14.9023 -31.6689 0
      vertex 16.8614 -30.6707 0
      vertex 16.8614 -30.6707 40
    endloop
  endfacet
  facet normal 0.45399 -0.891007 0
    outer loop
      vertex 14.9023 -31.6689 0
      vertex 16.8614 -30.6707 40
      vertex 14.9023 -31.6689 40
    endloop
  endfacet
  facet normal 0 0 1
    outer loop
      vertex 14.9023 -31.6689 40
      vertex 16.8614 -30.6707 40
      vertex 14.9023 31.6689 40
    endloop
  endfacet
  facet normal 0 0 1
    outer loop
      vertex 14.9023 31.6689 40
      vertex 16.8614 -30.6707 40
      vertex 16.8614 30.6707 40
    endloop
  endfacet
  facet normal 0.45399 0.891007 -0
    outer loop
      vertex 14.9023 31.6689 40
      vertex 16.8614 30.6707 40
      vertex 16.8614 30.6707 5
    endloop
  endfacet
  facet normal 0.45399 0.891007 0
    outer loop
      vertex 14.9023 31.6689 5
      vertex 14.9023 31.6689 40
      vertex 16.8614 30.6707 5
    endloop
  endfacet
  facet normal 0 0 1
    outer loop
      vertex 14.9023 31.6689 5
      vertex 16.8614 30.6707 5
      vertex 16.3 73.1144 5
    endloop
  endfacet
  facet normal 0 0 1
    outer loop
      vertex 16.3 104.114 10
      vertex 17.1 105.5 10
      vertex 16.3 106.886 10
    endloop
  endfacet
  facet normal 0.866026 -0.499999 0
    outer loop
      vertex 16.3 104.114 10
      vertex 17.1 105.5 5
      vertex 17.1 105.5 10
    endloop
  endfacet
  facet normal 0.866026 -0.499999 0
    outer loop
      vertex 16.3 104.114 5
      vertex 17.1 105.5 5
      vertex 16.3 104.114 10
    endloop
  endfacet
  facet normal -0 0 1
    outer loop
      vertex 16.3 104.114 5
      vertex 17.1 74.5 5
      vertex 17.1 105.5 5
    endloop
  endfacet
  facet normal 0.866026 0.499999 0
    outer loop
      vertex 16.3 106.886 5
      vertex 16.3 106.886 10
      vertex 17.1 105.5 10
    endloop
  endfacet
  facet normal 0.866026 0.499999 0
    outer loop
      vertex 16.3 106.886 5
      vertex 17.1 105.5 10
      vertex 17.1 105.5 5
    endloop
  endfacet
  facet normal 0 0 1
    outer loop
      vertex 16.3 106.886 5
      vertex 17.1 105.5 5
      vertex 21.25 111.25 5
    endloop
  endfacet
  facet normal 0 0 1
    outer loop
      vertex 16.3 73.1144 10
      vertex 17.1 74.5 10
      vertex 16.3 75.8856 10
    endloop
  endfacet
  facet normal 0.866026 -0.499999 0
    outer loop
      vertex 16.3 73.1144 10
      vertex 17.1 74.5 5
      vertex 17.1 74.5 10
    endloop
  endfacet
  facet normal 0 0 1
    outer loop
      vertex 16.3 73.1144 5
      vertex 16.8614 30.6707 5
      vertex 18.7539 29.5515 5
    endloop
  endfacet
  facet normal 0.866026 -0.499999 0
    outer loop
      vertex 16.3 73.1144 5
      vertex 17.1 74.5 5
      vertex 16.3 73.1144 10
    endloop
  endfacet
  facet normal 0 0 1
    outer loop
      vertex 16.3 73.1144 5
      vertex 18.7539 29.5515 5
      vertex 20.5725 28.3156 5
    endloop
  endfacet
  facet normal 0 0 1
    outer loop
      vertex 16.3 73.1144 5
      vertex 20.5725 28.3156 5
      vertex 22.3098 26.968 5
    endloop
  endfacet
  facet normal 0 0 1
    outer loop
      vertex 16.3 73.1144 5
      vertex 22.3098 26.968 5
      vertex 23.9591 25.5139 5
    endloop
  endfacet
  facet normal -0 0 1
    outer loop
      vertex 16.3 73.1144 5
      vertex 23.9591 25.5139 5
      vertex 17.1 74.5 5
    endloop
  endfacet
  facet normal 0.866026 0.499999 0
    outer loop
      vertex 16.3 75.8856 5
      vertex 16.3 75.8856 10
      vertex 17.1 74.5 10
    endloop
  endfacet
  facet normal 0.866026 0.499999 0
    outer loop
      vertex 16.3 75.8856 5
      vertex 17.1 74.5 10
      vertex 17.1 74.5 5
    endloop
  endfacet
  facet normal 0 0 1
    outer loop
      vertex 16.3 75.8856 5
      vertex 17.1 74.5 5
      vertex 16.3 104.114 5
    endloop
  endfacet
  facet normal 0.509042 -0.860742 0
    outer loop
      vertex 16.8614 -30.6707 0
      vertex 18.7539 -29.5515 0
      vertex 18.7539 -29.5515 40
    endloop
  endfacet
  facet normal 0.509042 -0.860742 0
    outer loop
      vertex 16.8614 -30.6707 0
      vertex 18.7539 -29.5515 40
      vertex 16.8614 -30.6707 40
    endloop
  endfacet
  facet normal 0 0 1
    outer loop
      vertex 16.8614 -30.6707 40
      vertex 18.7539 -29.5515 40
      vertex 16.8614 30.6707 40
    endloop
  endfacet
  facet normal 0 0 1
    outer loop
      vertex 16.8614 30.6707 40
      vertex 18.7539 -29.5515 40
      vertex 18.7539 29.5515 40
    endloop
  endfacet
  facet normal 0.509042 0.860742 -0
    outer loop
      vertex 16.8614 30.6707 40
      vertex 18.7539 29.5515 40
      vertex 18.7539 29.5515 5
    endloop
  endfacet
  facet normal 0.509042 0.860742 0
    outer loop
      vertex 16.8614 30.6707 5
      vertex 16.8614 30.6707 40
      vertex 18.7539 29.5515 5
    endloop
  endfacet
  facet normal 0 0 1
    outer loop
      vertex 17.1 74.5 5
      vertex 21.25 111.25 5
      vertex 17.1 105.5 5
    endloop
  endfacet
  facet normal 0 0 1
    outer loop
      vertex 17.1 74.5 5
      vertex 23.9591 25.5139 5
      vertex 25.5139 23.9591 5
    endloop
  endfacet
  facet normal 0 0 1
    outer loop
      vertex 17.1 74.5 5
      vertex 25.5139 23.9591 5
      vertex 26.968 22.3098 5
    endloop
  endfacet
  facet normal 0 0 1
    outer loop
      vertex 17.1 74.5 5
      vertex 26.968 22.3098 5
      vertex 28.3156 20.5725 5
    endloop
  endfacet
  facet normal 0 0 1
    outer loop
      vertex 17.1 74.5 5
      vertex 28.3156 20.5725 5
      vertex 29.5515 18.7539 5
    endloop
  endfacet
  facet normal 0 0 1
    outer loop
      vertex 17.1 74.5 5
      vertex 29.5515 18.7539 5
      vertex 30.6707 16.8614 5
    endloop
  endfacet
  facet normal 0 0 1
    outer loop
      vertex 17.1 74.5 5
      vertex 30.6707 16.8614 5
      vertex 31.6689 14.9023 5
    endloop
  endfacet
  facet normal -0 0 1
    outer loop
      vertex 17.1 74.5 5
      vertex 31.6689 14.9023 5
      vertex 21.25 111.25 5
    endloop
  endfacet
  facet normal 0.562083 -0.827081 0
    outer loop
      vertex 18.7539 -29.5515 0
      vertex 20.5725 -28.3156 0
      vertex 20.5725 -28.3156 40
    endloop
  endfacet
  facet normal 0.562083 -0.827081 0
    outer loop
      vertex 18.7539 -29.5515 0
      vertex 20.5725 -28.3156 40
      vertex 18.7539 -29.5515 40
    endloop
  endfacet
  facet normal 0 0 1
    outer loop
      vertex 18.7539 -29.5515 40
      vertex 20.5725 -28.3156 40
      vertex 18.7539 29.5515 40
    endloop
  endfacet
  facet normal 0 0 1
    outer loop
      vertex 18.7539 29.5515 40
      vertex 20.5725 -28.3156 40
      vertex 20.5725 28.3156 40
    endloop
  endfacet
  facet normal 0.562083 0.827081 -0
    outer loop
      vertex 18.7539 29.5515 40
      vertex 20.5725 28.3156 40
      vertex 20.5725 28.3156 5
    endloop
  endfacet
  facet normal 0.562083 0.827081 0
    outer loop
      vertex 18.7539 29.5515 5
      vertex 18.7539 29.5515 40
      vertex 20.5725 28.3156 5
    endloop
  endfacet
  facet normal 0.0941082 -0.995562 0
    outer loop
      vertex 2.19767 -34.9309 0
      vertex 4.38666 -34.724 0
      vertex 4.38666 -34.724 40
    endloop
  endfacet
  facet normal 0.0941082 -0.995562 0
    outer loop
      vertex 2.19767 -34.9309 0
      vertex 4.38666 -34.724 40
      vertex 2.19767 -34.9309 40
    endloop
  endfacet
  facet normal 0 0 1
    outer loop
      vertex 2.19767 -34.9309 40
      vertex 4.38666 -34.724 40
      vertex 2.19767 34.9309 40
    endloop
  endfacet
  facet normal 0 0 1
    outer loop
      vertex 2.19767 34.9309 40
      vertex 4.38666 -34.724 40
      vertex 4.38666 34.724 40
    endloop
  endfacet
  facet normal 0.0941082 0.995562 -0
    outer loop
      vertex 2.19767 34.9309 40
      vertex 4.38666 34.724 40
      vertex 4.38666 34.724 5
    endloop
  endfacet
  facet normal 0.0941082 0.995562 0
    outer loop
      vertex 2.19767 34.9309 5
      vertex 2.19767 34.9309 40
      vertex 4.38666 34.724 5
    endloop
  endfacet
  facet normal 0 0 1
    outer loop
      vertex 2.19767 34.9309 5
      vertex 4.38666 34.724 5
      vertex 13.9 74.5 5
    endloop
  endfacet
  facet normal 0.612906 -0.790155 0
    outer loop
      vertex 20.5725 -28.3156 0
      vertex 22.3098 -26.968 0
      vertex 22.3098 -26.968 40
    endloop
  endfacet
  facet normal 0.612906 -0.790155 0
    outer loop
      vertex 20.5725 -28.3156 0
      vertex 22.3098 -26.968 40
      vertex 20.5725 -28.3156 40
    endloop
  endfacet
  facet normal 0 0 1
    outer loop
      vertex 20.5725 -28.3156 40
      vertex 22.3098 -26.968 40
      vertex 20.5725 28.3156 40
    endloop
  endfacet
  facet normal 0 0 1
    outer loop
      vertex 20.5725 28.3156 40
      vertex 22.3098 -26.968 40
      vertex 22.3098 26.968 40
    endloop
  endfacet
  facet normal 0.612906 0.790155 -0
    outer loop
      vertex 20.5725 28.3156 40
      vertex 22.3098 26.968 40
      vertex 22.3098 26.968 5
    endloop
  endfacet
  facet normal 0.612906 0.790155 0
    outer loop
      vertex 20.5725 28.3156 5
      vertex 20.5725 28.3156 40
      vertex 22.3098 26.968 5
    endloop
  endfacet
  facet normal 0.992145 0.125096 0
    outer loop
      vertex 21.25 111.25 0
      vertex 21.25 111.25 5
      vertex 34.724 4.38666 5
    endloop
  endfacet
  facet normal 0.992145 0.125096 0
    outer loop
      vertex 21.25 111.25 0
      vertex 34.724 4.38666 5
      vertex 34.724 4.38666 0
    endloop
  endfacet
  facet normal 0 0 1
    outer loop
      vertex 21.25 111.25 5
      vertex 31.6689 14.9023 5
      vertex 32.5422 12.8844 5
    endloop
  endfacet
  facet normal 0 0 1
    outer loop
      vertex 21.25 111.25 5
      vertex 32.5422 12.8844 5
      vertex 33.287 10.8156 5
    endloop
  endfacet
  facet normal 0 0 1
    outer loop
      vertex 21.25 111.25 5
      vertex 33.287 10.8156 5
      vertex 33.9004 8.70415 5
    endloop
  endfacet
  facet normal 0 0 1
    outer loop
      vertex 21.25 111.25 5
      vertex 33.9004 8.70415 5
      vertex 34.3801 6.55835 5
    endloop
  endfacet
  facet normal 0 0 1
    outer loop
      vertex 21.25 111.25 5
      vertex 34.3801 6.55835 5
      vertex 34.724 4.38666 5
    endloop
  endfacet
  facet normal 0.661312 -0.750111 0
    outer loop
      vertex 22.3098 -26.968 0
      vertex 23.9591 -25.5139 0
      vertex 23.9591 -25.5139 40
    endloop
  endfacet
  facet normal 0.661312 -0.750111 0
    outer loop
      vertex 22.3098 -26.968 0
      vertex 23.9591 -25.5139 40
      vertex 22.3098 -26.968 40
    endloop
  endfacet
  facet normal 0 0 -1
    outer loop
      vertex 22.3098 -26.968 0
      vertex 34.724 4.38666 0
      vertex 23.9591 -25.5139 0
    endloop
  endfacet
  facet normal 0 0 1
    outer loop
      vertex 22.3098 -26.968 40
      vertex 23.9591 -25.5139 40
      vertex 22.3098 26.968 40
    endloop
  endfacet
  facet normal 0 0 1
    outer loop
      vertex 22.3098 26.968 40
      vertex 23.9591 -25.5139 40
      vertex 23.9591 25.5139 40
    endloop
  endfacet
  facet normal 0.661312 0.750111 -0
    outer loop
      vertex 22.3098 26.968 40
      vertex 23.9591 25.5139 40
      vertex 23.9591 25.5139 5
    endloop
  endfacet
  facet normal 0.661312 0.750111 0
    outer loop
      vertex 22.3098 26.968 5
      vertex 22.3098 26.968 40
      vertex 23.9591 25.5139 5
    endloop
  endfacet
  facet normal 0.707107 -0.707107 0
    outer loop
      vertex 23.9591 -25.5139 0
      vertex 25.5139 -23.9591 0
      vertex 23.9591 -25.5139 40
    endloop
  endfacet
  facet normal 0 0 -1
    outer loop
      vertex 23.9591 -25.5139 0
      vertex 34.724 4.38666 0
      vertex 25.5139 -23.9591 0
    endloop
  endfacet
  facet normal 0.707107 -0.707107 0
    outer loop
      vertex 23.9591 -25.5139 40
      vertex 25.5139 -23.9591 0
      vertex 25.5139 -23.9591 40
    endloop
  endfacet
  facet normal 0 0 1
    outer loop
      vertex 23.9591 -25.5139 40
      vertex 25.5139 -23.9591 40
      vertex 23.9591 25.5139 40
    endloop
  endfacet
  facet normal 0 0 1
    outer loop
      vertex 23.9591 25.5139 40
      vertex 25.5139 -23.9591 40
      vertex 25.5139 23.9591 40
    endloop
  endfacet
  facet normal 0.707107 0.707107 0
    outer loop
      vertex 23.9591 25.5139 5
      vertex 23.9591 25.5139 40
      vertex 25.5139 23.9591 40
    endloop
  endfacet
  facet normal 0.707107 0.707107 0
    outer loop
      vertex 23.9591 25.5139 5
      vertex 25.5139 23.9591 40
      vertex 25.5139 23.9591 5
    endloop
  endfacet
  facet normal 0.750111 -0.661312 0
    outer loop
      vertex 25.5139 -23.9591 0
      vertex 26.968 -22.3098 0
      vertex 25.5139 -23.9591 40
    endloop
  endfacet
  facet normal 0 0 -1
    outer loop
      vertex 25.5139 -23.9591 0
      vertex 34.724 4.38666 0
      vertex 26.968 -22.3098 0
    endloop
  endfacet
  facet normal 0.750111 -0.661312 0
    outer loop
      vertex 25.5139 -23.9591 40
      vertex 26.968 -22.3098 0
      vertex 26.968 -22.3098 40
    endloop
  endfacet
  facet normal 0 0 1
    outer loop
      vertex 25.5139 -23.9591 40
      vertex 26.968 -22.3098 40
      vertex 25.5139 23.9591 40
    endloop
  endfacet
  facet normal 0 0 1
    outer loop
      vertex 25.5139 23.9591 40
      vertex 26.968 -22.3098 40
      vertex 26.968 22.3098 40
    endloop
  endfacet
  facet normal 0.750111 0.661312 0
    outer loop
      vertex 25.5139 23.9591 5
      vertex 25.5139 23.9591 40
      vertex 26.968 22.3098 40
    endloop
  endfacet
  facet normal 0.750111 0.661312 0
    outer loop
      vertex 25.5139 23.9591 5
      vertex 26.968 22.3098 40
      vertex 26.968 22.3098 5
    endloop
  endfacet
  facet normal 0.790155 -0.612906 0
    outer loop
      vertex 26.968 -22.3098 0
      vertex 28.3156 -20.5725 0
      vertex 26.968 -22.3098 40
    endloop
  endfacet
  facet normal 0 0 -1
    outer loop
      vertex 26.968 -22.3098 0
      vertex 34.724 4.38666 0
      vertex 28.3156 -20.5725 0
    endloop
  endfacet
  facet normal 0.790155 -0.612906 0
    outer loop
      vertex 26.968 -22.3098 40
      vertex 28.3156 -20.5725 0
      vertex 28.3156 -20.5725 40
    endloop
  endfacet
  facet normal 0 0 1
    outer loop
      vertex 26.968 -22.3098 40
      vertex 28.3156 -20.5725 40
      vertex 26.968 22.3098 40
    endloop
  endfacet
  facet normal 0 0 1
    outer loop
      vertex 26.968 22.3098 40
      vertex 28.3156 -20.5725 40
      vertex 28.3156 20.5725 40
    endloop
  endfacet
  facet normal 0.790155 0.612906 0
    outer loop
      vertex 26.968 22.3098 5
      vertex 26.968 22.3098 40
      vertex 28.3156 20.5725 40
    endloop
  endfacet
  facet normal 0.790155 0.612906 0
    outer loop
      vertex 26.968 22.3098 5
      vertex 28.3156 20.5725 40
      vertex 28.3156 20.5725 5
    endloop
  endfacet
  facet normal 0.827081 -0.562083 0
    outer loop
      vertex 28.3156 -20.5725 0
      vertex 29.5515 -18.7539 0
      vertex 28.3156 -20.5725 40
    endloop
  endfacet
  facet normal 0 0 -1
    outer loop
      vertex 28.3156 -20.5725 0
      vertex 34.724 4.38666 0
      vertex 29.5515 -18.7539 0
    endloop
  endfacet
  facet normal 0.827081 -0.562083 0
    outer loop
      vertex 28.3156 -20.5725 40
      vertex 29.5515 -18.7539 0
      vertex 29.5515 -18.7539 40
    endloop
  endfacet
  facet normal 0 0 1
    outer loop
      vertex 28.3156 -20.5725 40
      vertex 29.5515 -18.7539 40
      vertex 28.3156 20.5725 40
    endloop
  endfacet
  facet normal 0 0 1
    outer loop
      vertex 28.3156 20.5725 40
      vertex 29.5515 -18.7539 40
      vertex 29.5515 18.7539 40
    endloop
  endfacet
  facet normal 0.827081 0.562083 0
    outer loop
      vertex 28.3156 20.5725 5
      vertex 28.3156 20.5725 40
      vertex 29.5515 18.7539 40
    endloop
  endfacet
  facet normal 0.827081 0.562083 0
    outer loop
      vertex 28.3156 20.5725 5
      vertex 29.5515 18.7539 40
      vertex 29.5515 18.7539 5
    endloop
  endfacet
  facet normal 0.860742 -0.509042 0
    outer loop
      vertex 29.5515 -18.7539 0
      vertex 30.6707 -16.8614 0
      vertex 29.5515 -18.7539 40
    endloop
  endfacet
  facet normal 0 0 -1
    outer loop
      vertex 29.5515 -18.7539 0
      vertex 34.724 4.38666 0
      vertex 30.6707 -16.8614 0
    endloop
  endfacet
  facet normal 0.860742 -0.509042 0
    outer loop
      vertex 29.5515 -18.7539 40
      vertex 30.6707 -16.8614 0
      vertex 30.6707 -16.8614 40
    endloop
  endfacet
  facet normal 0 0 1
    outer loop
      vertex 29.5515 -18.7539 40
      vertex 30.6707 -16.8614 40
      vertex 29.5515 18.7539 40
    endloop
  endfacet
  facet normal 0 0 1
    outer loop
      vertex 29.5515 18.7539 40
      vertex 30.6707 -16.8614 40
      vertex 30.6707 16.8614 40
    endloop
  endfacet
  facet normal 0.860742 0.509042 0
    outer loop
      vertex 29.5515 18.7539 5
      vertex 29.5515 18.7539 40
      vertex 30.6707 16.8614 40
    endloop
  endfacet
  facet normal 0.860742 0.509042 0
    outer loop
      vertex 29.5515 18.7539 5
      vertex 30.6707 16.8614 40
      vertex 30.6707 16.8614 5
    endloop
  endfacet
  facet normal 0.891007 -0.45399 0
    outer loop
      vertex 30.6707 -16.8614 0
      vertex 31.6689 -14.9023 0
      vertex 30.6707 -16.8614 40
    endloop
  endfacet
  facet normal 0 0 -1
    outer loop
      vertex 30.6707 -16.8614 0
      vertex 34.724 4.38666 0
      vertex 31.6689 -14.9023 0
    endloop
  endfacet
  facet normal 0.891007 -0.45399 0
    outer loop
      vertex 30.6707 -16.8614 40
      vertex 31.6689 -14.9023 0
      vertex 31.6689 -14.9023 40
    endloop
  endfacet
  facet normal 0 0 1
    outer loop
      vertex 30.6707 -16.8614 40
      vertex 31.6689 -14.9023 40
      vertex 30.6707 16.8614 40
    endloop
  endfacet
  facet normal 0 0 1
    outer loop
      vertex 30.6707 16.8614 40
      vertex 31.6689 -14.9023 40
      vertex 31.6689 14.9023 40
    endloop
  endfacet
  facet normal 0.891007 0.45399 0
    outer loop
      vertex 30.6707 16.8614 5
      vertex 30.6707 16.8614 40
      vertex 31.6689 14.9023 40
    endloop
  endfacet
  facet normal 0.891007 0.45399 0
    outer loop
      vertex 30.6707 16.8614 5
      vertex 31.6689 14.9023 40
      vertex 31.6689 14.9023 5
    endloop
  endfacet
  facet normal 0.917755 -0.397148 0
    outer loop
      vertex 31.6689 -14.9023 0
      vertex 32.5422 -12.8844 0
      vertex 31.6689 -14.9023 40
    endloop
  endfacet
  facet normal 0 0 -1
    outer loop
      vertex 31.6689 -14.9023 0
      vertex 34.724 4.38666 0
      vertex 32.5422 -12.8844 0
    endloop
  endfacet
  facet normal 0.917755 -0.397148 0
    outer loop
      vertex 31.6689 -14.9023 40
      vertex 32.5422 -12.8844 0
      vertex 32.5422 -12.8844 40
    endloop
  endfacet
  facet normal 0 0 1
    outer loop
      vertex 31.6689 -14.9023 40
      vertex 32.5422 -12.8844 40
      vertex 31.6689 14.9023 40
    endloop
  endfacet
  facet normal 0 0 1
    outer loop
      vertex 31.6689 14.9023 40
      vertex 32.5422 -12.8844 40
      vertex 32.5422 12.8844 40
    endloop
  endfacet
  facet normal 0.917755 0.397148 0
    outer loop
      vertex 31.6689 14.9023 5
      vertex 31.6689 14.9023 40
      vertex 32.5422 12.8844 40
    endloop
  endfacet
  facet normal 0.917755 0.397148 0
    outer loop
      vertex 31.6689 14.9023 5
      vertex 32.5422 12.8844 40
      vertex 32.5422 12.8844 5
    endloop
  endfacet
  facet normal 0.94088 -0.338739 0
    outer loop
      vertex 32.5422 -12.8844 0
      vertex 33.287 -10.8156 0
      vertex 32.5422 -12.8844 40
    endloop
  endfacet
  facet normal 0 0 -1
    outer loop
      vertex 32.5422 -12.8844 0
      vertex 34.724 4.38666 0
      vertex 33.287 -10.8156 0
    endloop
  endfacet
  facet normal 0.94088 -0.338739 0
    outer loop
      vertex 32.5422 -12.8844 40
      vertex 33.287 -10.8156 0
      vertex 33.287 -10.8156 40
    endloop
  endfacet
  facet normal 0 0 1
    outer loop
      vertex 32.5422 -12.8844 40
      vertex 33.287 -10.8156 40
      vertex 32.5422 12.8844 40
    endloop
  endfacet
  facet normal 0 0 1
    outer loop
      vertex 32.5422 12.8844 40
      vertex 33.287 -10.8156 40
      vertex 33.287 10.8156 40
    endloop
  endfacet
  facet normal 0.94088 0.338739 0
    outer loop
      vertex 32.5422 12.8844 5
      vertex 32.5422 12.8844 40
      vertex 33.287 10.8156 40
    endloop
  endfacet
  facet normal 0.94088 0.338739 0
    outer loop
      vertex 32.5422 12.8844 5
      vertex 33.287 10.8156 40
      vertex 33.287 10.8156 5
    endloop
  endfacet
  facet normal 0.960294 -0.27899 0
    outer loop
      vertex 33.287 -10.8156 0
      vertex 33.9004 -8.70415 0
      vertex 33.287 -10.8156 40
    endloop
  endfacet
  facet normal 0 0 -1
    outer loop
      vertex 33.287 -10.8156 0
      vertex 34.724 4.38666 0
      vertex 33.9004 -8.70415 0
    endloop
  endfacet
  facet normal 0.960294 -0.27899 0
    outer loop
      vertex 33.287 -10.8156 40
      vertex 33.9004 -8.70415 0
      vertex 33.9004 -8.70415 40
    endloop
  endfacet
  facet normal 0 0 1
    outer loop
      vertex 33.287 -10.8156 40
      vertex 33.9004 -8.70415 40
      vertex 33.287 10.8156 40
    endloop
  endfacet
  facet normal 0 0 1
    outer loop
      vertex 33.287 10.8156 40
      vertex 33.9004 -8.70415 40
      vertex 33.9004 8.70415 40
    endloop
  endfacet
  facet normal 0.960294 0.27899 0
    outer loop
      vertex 33.287 10.8156 5
      vertex 33.287 10.8156 40
      vertex 33.9004 8.70415 40
    endloop
  endfacet
  facet normal 0.960294 0.27899 0
    outer loop
      vertex 33.287 10.8156 5
      vertex 33.9004 8.70415 40
      vertex 33.9004 8.70415 5
    endloop
  endfacet
  facet normal 0.975917 -0.218144 0
    outer loop
      vertex 33.9004 -8.70415 0
      vertex 34.3801 -6.55835 0
      vertex 33.9004 -8.70415 40
    endloop
  endfacet
  facet normal 0 0 -1
    outer loop
      vertex 33.9004 -8.70415 0
      vertex 34.724 4.38666 0
      vertex 34.3801 -6.55835 0
    endloop
  endfacet
  facet normal 0.975917 -0.218144 0
    outer loop
      vertex 33.9004 -8.70415 40
      vertex 34.3801 -6.55835 0
      vertex 34.3801 -6.55835 40
    endloop
  endfacet
  facet normal 0 0 1
    outer loop
      vertex 33.9004 -8.70415 40
      vertex 34.3801 -6.55835 40
      vertex 33.9004 8.70415 40
    endloop
  endfacet
  facet normal 0 0 1
    outer loop
      vertex 33.9004 8.70415 40
      vertex 34.3801 -6.55835 40
      vertex 34.3801 6.55835 40
    endloop
  endfacet
  facet normal 0.975917 0.218144 0
    outer loop
      vertex 33.9004 8.70415 5
      vertex 33.9004 8.70415 40
      vertex 34.3801 6.55835 40
    endloop
  endfacet
  facet normal 0.975917 0.218144 0
    outer loop
      vertex 33.9004 8.70415 5
      vertex 34.3801 6.55835 40
      vertex 34.3801 6.55835 5
    endloop
  endfacet
  facet normal 0.987688 -0.156434 0
    outer loop
      vertex 34.3801 -6.55835 0
      vertex 34.724 -4.38666 0
      vertex 34.3801 -6.55835 40
    endloop
  endfacet
  facet normal 0 0 -1
    outer loop
      vertex 34.3801 -6.55835 0
      vertex 34.724 4.38666 0
      vertex 34.724 -4.38666 0
    endloop
  endfacet
  facet normal 0.987688 -0.156434 0
    outer loop
      vertex 34.3801 -6.55835 40
      vertex 34.724 -4.38666 0
      vertex 34.724 -4.38666 40
    endloop
  endfacet
  facet normal 0 0 1
    outer loop
      vertex 34.3801 -6.55835 40
      vertex 34.724 -4.38666 40
      vertex 34.3801 6.55835 40
    endloop
  endfacet
  facet normal 0 0 1
    outer loop
      vertex 34.3801 6.55835 40
      vertex 34.724 -4.38666 40
      vertex 34.724 4.38666 40
    endloop
  endfacet
  facet normal 0.987688 0.156434 0
    outer loop
      vertex 34.3801 6.55835 5
      vertex 34.3801 6.55835 40
      vertex 34.724 4.38666 40
    endloop
  endfacet
  facet normal 0.987688 0.156434 0
    outer loop
      vertex 34.3801 6.55835 5
      vertex 34.724 4.38666 40
      vertex 34.724 4.38666 5
    endloop
  endfacet
  facet normal 0 0 -1
    outer loop
      vertex 34.724 -4.38666 0
      vertex 34.724 4.38666 0
      vertex 34.9309 2.19767 0
    endloop
  endfacet
  facet normal 0.995562 -0.0941082 0
    outer loop
      vertex 34.724 -4.38666 0
      vertex 34.9309 -2.19767 0
      vertex 34.724 -4.38666 40
    endloop
  endfacet
  facet normal 0 0 -1
    outer loop
      vertex 34.724 -4.38666 0
      vertex 34.9309 2.19767 0
      vertex 34.9309 -2.19767 0
    endloop
  endfacet
  facet normal 0.995562 -0.0941082 0
    outer loop
      vertex 34.724 -4.38666 40
      vertex 34.9309 -2.19767 0
      vertex 34.9309 -2.19767 40
    endloop
  endfacet
  facet normal 0 0 1
    outer loop
      vertex 34.724 -4.38666 40
      vertex 34.9309 -2.19767 40
      vertex 34.724 4.38666 40
    endloop
  endfacet
  facet normal 0.995562 0.0941082 0
    outer loop
      vertex 34.724 4.38666 0
      vertex 34.724 4.38666 5
      vertex 34.9309 2.19767 0
    endloop
  endfacet
  facet normal 0 0 1
    outer loop
      vertex 34.724 4.38666 40
      vertex 34.9309 -2.19767 40
      vertex 34.9309 2.19767 40
    endloop
  endfacet
  facet normal 0.995562 0.0941082 0
    outer loop
      vertex 34.724 4.38666 5
      vertex 34.724 4.38666 40
      vertex 34.9309 2.19767 40
    endloop
  endfacet
  facet normal 0.995562 0.0941082 -0
    outer loop
      vertex 34.724 4.38666 5
      vertex 34.9309 2.19767 40
      vertex 34.9309 2.19767 0
    endloop
  endfacet
  facet normal 0 0 -1
    outer loop
      vertex 34.9309 -2.19767 0
      vertex 34.9309 2.19767 0
      vertex 35 0 0
    endloop
  endfacet
  facet normal 0.999507 -0.031411 0
    outer loop
      vertex 34.9309 -2.19767 0
      vertex 35 0 0
      vertex 34.9309 -2.19767 40
    endloop
  endfacet
  facet normal 0.999507 -0.031411 0
    outer loop
      vertex 34.9309 -2.19767 40
      vertex 35 0 0
      vertex 35 0 40
    endloop
  endfacet
  facet normal 0 0 1
    outer loop
      vertex 34.9309 -2.19767 40
      vertex 35 0 40
      vertex 34.9309 2.19767 40
    endloop
  endfacet
  facet normal 0.999507 0.031411 0
    outer loop
      vertex 34.9309 2.19767 0
      vertex 34.9309 2.19767 40
      vertex 35 0 40
    endloop
  endfacet
  facet normal 0.999507 0.031411 0
    outer loop
      vertex 34.9309 2.19767 0
      vertex 35 0 40
      vertex 35 0 0
    endloop
  endfacet
  facet normal 0.156434 -0.987688 0
    outer loop
      vertex 4.38666 -34.724 0
      vertex 6.55835 -34.3801 0
      vertex 6.55835 -34.3801 40
    endloop
  endfacet
  facet normal 0.156434 -0.987688 0
    outer loop
      vertex 4.38666 -34.724 0
      vertex 6.55835 -34.3801 40
      vertex 4.38666 -34.724 40
    endloop
  endfacet
  facet normal 0 0 1
    outer loop
      vertex 4.38666 -34.724 40
      vertex 6.55835 -34.3801 40
      vertex 4.38666 34.724 40
    endloop
  endfacet
  facet normal 0 0 1
    outer loop
      vertex 4.38666 34.724 40
      vertex 6.55835 -34.3801 40
      vertex 6.55835 34.3801 40
    endloop
  endfacet
  facet normal 0.156434 0.987688 -0
    outer loop
      vertex 4.38666 34.724 40
      vertex 6.55835 34.3801 40
      vertex 6.55835 34.3801 5
    endloop
  endfacet
  facet normal 0.156434 0.987688 0
    outer loop
      vertex 4.38666 34.724 5
      vertex 4.38666 34.724 40
      vertex 6.55835 34.3801 5
    endloop
  endfacet
  facet normal 0 0 1
    outer loop
      vertex 4.38666 34.724 5
      vertex 6.55835 34.3801 5
      vertex 13.9 74.5 5
    endloop
  endfacet
  facet normal 0.218144 -0.975917 0
    outer loop
      vertex 6.55835 -34.3801 0
      vertex 8.70415 -33.9004 0
      vertex 8.70415 -33.9004 40
    endloop
  endfacet
  facet normal 0.218144 -0.975917 0
    outer loop
      vertex 6.55835 -34.3801 0
      vertex 8.70415 -33.9004 40
      vertex 6.55835 -34.3801 40
    endloop
  endfacet
  facet normal 0 0 1
    outer loop
      vertex 6.55835 -34.3801 40
      vertex 8.70415 -33.9004 40
      vertex 6.55835 34.3801 40
    endloop
  endfacet
  facet normal 0 0 1
    outer loop
      vertex 6.55835 34.3801 40
      vertex 8.70415 -33.9004 40
      vertex 8.70415 33.9004 40
    endloop
  endfacet
  facet normal 0.218144 0.975917 -0
    outer loop
      vertex 6.55835 34.3801 40
      vertex 8.70415 33.9004 40
      vertex 8.70415 33.9004 5
    endloop
  endfacet
  facet normal 0.218144 0.975917 0
    outer loop
      vertex 6.55835 34.3801 5
      vertex 6.55835 34.3801 40
      vertex 8.70415 33.9004 5
    endloop
  endfacet
  facet normal 0 0 1
    outer loop
      vertex 6.55835 34.3801 5
      vertex 8.70415 33.9004 5
      vertex 13.9 74.5 5
    endloop
  endfacet
  facet normal 0.27899 -0.960294 0
    outer loop
      vertex 8.70415 -33.9004 0
      vertex 10.8156 -33.287 0
      vertex 10.8156 -33.287 40
    endloop
  endfacet
  facet normal 0.27899 -0.960294 0
    outer loop
      vertex 8.70415 -33.9004 0
      vertex 10.8156 -33.287 40
      vertex 8.70415 -33.9004 40
    endloop
  endfacet
  facet normal 0 0 1
    outer loop
      vertex 8.70415 -33.9004 40
      vertex 10.8156 -33.287 40
      vertex 8.70415 33.9004 40
    endloop
  endfacet
  facet normal 0 0 1
    outer loop
      vertex 8.70415 33.9004 40
      vertex 10.8156 -33.287 40
      vertex 10.8156 33.287 40
    endloop
  endfacet
  facet normal 0.27899 0.960294 -0
    outer loop
      vertex 8.70415 33.9004 40
      vertex 10.8156 33.287 40
      vertex 10.8156 33.287 5
    endloop
  endfacet
  facet normal 0 0 1
    outer loop
      vertex 8.70415 33.9004 5
      vertex 10.8156 33.287 5
      vertex 13.9 74.5 5
    endloop
  endfacet
  facet normal 0.27899 0.960294 0
    outer loop
      vertex 8.70415 33.9004 5
      vertex 8.70415 33.9004 40
      vertex 10.8156 33.287 5
    endloop
  endfacet
endsolid model
