solid model
  facet normal -0.104529 0.994522 0
    outer loop
      vertex -0.470378 -4.47535 0
      vertex -0.470378 -4.47535 30
      vertex 1.39058 -4.27975 0
    endloop
  endfacet
  facet normal 0 0 -1
    outer loop
      vertex -0.470378 -4.47535 0
      vertex 1.39058 -4.27975 0
      vertex 35 -65 0
    endloop
  endfacet
  facet normal -0.104529 0.994522 0
    outer loop
      vertex -0.470378 -4.47535 30
      vertex 1.39058 -4.27975 30
      vertex 1.39058 -4.27975 0
    endloop
  endfacet
  facet normal -0 0 1
    outer loop
      vertex -0.470378 -4.47535 30
      vertex 25 -45 30
      vertex 1.39058 -4.27975 30
    endloop
  endfacet
  facet normal -0.104529 -0.994522 -0
    outer loop
      vertex -0.470378 4.47535 0
      vertex 1.39058 4.27975 0
      vertex 1.39058 4.27975 30
    endloop
  endfacet
  facet normal -0.104529 -0.994522 0
    outer loop
      vertex -0.470378 4.47535 0
      vertex 1.39058 4.27975 30
      vertex -0.470378 4.47535 30
    endloop
  endfacet
  facet normal 0 0 -1
    outer loop
      vertex -0.470378 4.47535 0
      vertex 35 65 0
      vertex 1.39058 4.27975 0
    endloop
  endfacet
  facet normal 0 0 1
    outer loop
      vertex -0.470378 4.47535 30
      vertex 1.39058 4.27975 30
      vertex 25 45 30
    endloop
  endfacet
  facet normal -0.207911 0 0.978148
    outer loop
      vertex -10.8156 -45 68.287
      vertex -3.6585 -65 69.8083
      vertex -3.6585 -45 69.8083
    endloop
  endfacet
  facet normal -0.207911 0 0.978148
    outer loop
      vertex -10.8156 -65 68.287
      vertex -3.6585 -65 69.8083
      vertex -10.8156 -45 68.287
    endloop
  endfacet
  facet normal -0.207911 0 0.978148
    outer loop
      vertex -10.8156 45 68.287
      vertex -3.6585 45 69.8083
      vertex -10.8156 65 68.287
    endloop
  endfacet
  facet normal -0.207911 0 0.978148
    outer loop
      vertex -10.8156 65 68.287
      vertex -3.6585 45 69.8083
      vertex -3.6585 65 69.8083
    endloop
  endfacet
  facet normal 0 1 0
    outer loop
      vertex -10.8156 65 68.287
      vertex -3.6585 65 69.8083
      vertex 10.8156 65 68.287
    endloop
  endfacet
  facet normal 0 1 0
    outer loop
      vertex -10.8156 65 68.287
      vertex 10.8156 65 68.287
      vertex 17.5 65 65.3109
    endloop
  endfacet
  facet normal -0.406737 0 0.913545
    outer loop
      vertex -17.5 -45 65.3109
      vertex -10.8156 -65 68.287
      vertex -10.8156 -45 68.287
    endloop
  endfacet
  facet normal -0.406737 0 0.913545
    outer loop
      vertex -17.5 -65 65.3109
      vertex -10.8156 -65 68.287
      vertex -17.5 -45 65.3109
    endloop
  endfacet
  facet normal 0 -1 -0
    outer loop
      vertex -17.5 -65 65.3109
      vertex -3.6585 -65 69.8083
      vertex -10.8156 -65 68.287
    endloop
  endfacet
  facet normal 0 -1 -0
    outer loop
      vertex -17.5 -65 65.3109
      vertex 17.5 -65 65.3109
      vertex 3.6585 -65 69.8083
    endloop
  endfacet
  facet normal 0 -1 0
    outer loop
      vertex -17.5 -65 65.3109
      vertex 3.6585 -65 69.8083
      vertex -3.6585 -65 69.8083
    endloop
  endfacet
  facet normal -0.406737 0 0.913545
    outer loop
      vertex -17.5 45 65.3109
      vertex -10.8156 45 68.287
      vertex -17.5 65 65.3109
    endloop
  endfacet
  facet normal -0.406737 0 0.913545
    outer loop
      vertex -17.5 65 65.3109
      vertex -10.8156 45 68.287
      vertex -10.8156 65 68.287
    endloop
  endfacet
  facet normal 0 1 0
    outer loop
      vertex -17.5 65 65.3109
      vertex -10.8156 65 68.287
      vertex 17.5 65 65.3109
    endloop
  endfacet
  facet normal 0 1 0
    outer loop
      vertex -17.5 65 65.3109
      vertex 17.5 65 65.3109
      vertex 23.4196 65 61.0101
    endloop
  endfacet
  facet normal 0.309017 0.951056 0
    outer loop
      vertex -2.25 -3.89711 0
      vertex -2.25 -3.89711 30
      vertex -0.470378 -4.47535 0
    endloop
  endfacet
  facet normal 0.309017 0.951056 -0
    outer loop
      vertex -2.25 -3.89711 30
      vertex -0.470378 -4.47535 30
      vertex -0.470378 -4.47535 0
    endloop
  endfacet
  facet normal 0.309017 -0.951056 0
    outer loop
      vertex -2.25 3.89711 0
      vertex -0.470378 4.47535 0
      vertex -0.470378 4.47535 30
    endloop
  endfacet
  facet normal 0.309017 -0.951056 0
    outer loop
      vertex -2.25 3.89711 0
      vertex -0.470378 4.47535 30
      vertex -2.25 3.89711 30
    endloop
  endfacet
  facet normal -0.587786 0 0.809017
    outer loop
      vertex -23.4196 -45 61.0101
      vertex -17.5 -65 65.3109
      vertex -17.5 -45 65.3109
    endloop
  endfacet
  facet normal -0.587786 0 0.809017
    outer loop
      vertex -23.4196 -65 61.0101
      vertex -17.5 -65 65.3109
      vertex -23.4196 -45 61.0101
    endloop
  endfacet
  facet normal 0 -1 0
    outer loop
      vertex -23.4196 -65 61.0101
      vertex 17.5 -65 65.3109
      vertex -17.5 -65 65.3109
    endloop
  endfacet
  facet normal 0 -1 0
    outer loop
      vertex -23.4196 -65 61.0101
      vertex 23.4196 -65 61.0101
      vertex 17.5 -65 65.3109
    endloop
  endfacet
  facet normal -0.587786 0 0.809017
    outer loop
      vertex -23.4196 45 61.0101
      vertex -17.5 45 65.3109
      vertex -23.4196 65 61.0101
    endloop
  endfacet
  facet normal -0.587786 0 0.809017
    outer loop
      vertex -23.4196 65 61.0101
      vertex -17.5 45 65.3109
      vertex -17.5 65 65.3109
    endloop
  endfacet
  facet normal 0 1 0
    outer loop
      vertex -23.4196 65 61.0101
      vertex -17.5 65 65.3109
      vertex 23.4196 65 61.0101
    endloop
  endfacet
  facet normal 0 1 0
    outer loop
      vertex -23.4196 65 61.0101
      vertex 23.4196 65 61.0101
      vertex 28.3156 65 55.5725
    endloop
  endfacet
  facet normal 0 0 1
    outer loop
      vertex -25 -45 30
      vertex -0.470378 -4.47535 30
      vertex -2.25 -3.89711 30
    endloop
  endfacet
  facet normal 0 0 1
    outer loop
      vertex -25 -45 30
      vertex -2.25 -3.89711 30
      vertex -3.64058 -2.64503 30
    endloop
  endfacet
  facet normal 0 1 0
    outer loop
      vertex -25 -45 30
      vertex -25 -45 45
      vertex 25 -45 30
    endloop
  endfacet
  facet normal 1 0 0
    outer loop
      vertex -25 -45 30
      vertex -25 45 30
      vertex -25 -45 45
    endloop
  endfacet
  facet normal 0 0 1
    outer loop
      vertex -25 -45 30
      vertex -3.64058 -2.64503 30
      vertex -4.40166 -0.935602 30
    endloop
  endfacet
  facet normal 0 0 1
    outer loop
      vertex -25 -45 30
      vertex -4.40166 -0.935602 30
      vertex -25 45 30
    endloop
  endfacet
  facet normal 0 0 1
    outer loop
      vertex -25 -45 30
      vertex 25 -45 30
      vertex -0.470378 -4.47535 30
    endloop
  endfacet
  facet normal 0 1 0
    outer loop
      vertex -25 -45 45
      vertex -10.8156 -45 68.287
      vertex -3.6585 -45 69.8083
    endloop
  endfacet
  facet normal 0 1 0
    outer loop
      vertex -25 -45 45
      vertex -17.5 -45 65.3109
      vertex -10.8156 -45 68.287
    endloop
  endfacet
  facet normal 0 1 0
    outer loop
      vertex -25 -45 45
      vertex -23.4196 -45 61.0101
      vertex -17.5 -45 65.3109
    endloop
  endfacet
  facet normal 1 -0 0
    outer loop
      vertex -25 -45 45
      vertex -25 45 30
      vertex -25 45 45
    endloop
  endfacet
  facet normal 0 1 0
    outer loop
      vertex -25 -45 45
      vertex -3.6585 -45 69.8083
      vertex 25 -45 45
    endloop
  endfacet
  facet normal 0 1 -0
    outer loop
      vertex -25 -45 45
      vertex 25 -45 45
      vertex 25 -45 30
    endloop
  endfacet
  facet normal -0 0 1
    outer loop
      vertex -25 45 30
      vertex -0.470378 4.47535 30
      vertex 25 45 30
    endloop
  endfacet
  facet normal 0 0 1
    outer loop
      vertex -25 45 30
      vertex -2.25 3.89711 30
      vertex -0.470378 4.47535 30
    endloop
  endfacet
  facet normal 0 0 1
    outer loop
      vertex -25 45 30
      vertex -3.64058 2.64503 30
      vertex -2.25 3.89711 30
    endloop
  endfacet
  facet normal 0 0 1
    outer loop
      vertex -25 45 30
      vertex -4.40166 -0.935602 30
      vertex -4.40166 0.935602 30
    endloop
  endfacet
  facet normal 0 0 1
    outer loop
      vertex -25 45 30
      vertex -4.40166 0.935602 30
      vertex -3.64058 2.64503 30
    endloop
  endfacet
  facet normal 0 -1 -0
    outer loop
      vertex -25 45 30
      vertex 25 45 30
      vertex 25 45 45
    endloop
  endfacet
  facet normal 0 -1 0
    outer loop
      vertex -25 45 30
      vertex 25 45 45
      vertex -25 45 45
    endloop
  endfacet
  facet normal 0 -1 0
    outer loop
      vertex -25 45 45
      vertex -10.8156 45 68.287
      vertex -17.5 45 65.3109
    endloop
  endfacet
  facet normal 0 -1 0
    outer loop
      vertex -25 45 45
      vertex -17.5 45 65.3109
      vertex -23.4196 45 61.0101
    endloop
  endfacet
  facet normal 0 -1 0
    outer loop
      vertex -25 45 45
      vertex -3.6585 45 69.8083
      vertex -10.8156 45 68.287
    endloop
  endfacet
  facet normal 0 -1 0
    outer loop
      vertex -25 45 45
      vertex 25 45 45
      vertex 3.6585 45 69.8083
    endloop
  endfacet
  facet normal 0 -1 -0
    outer loop
      vertex -25 45 45
      vertex 3.6585 45 69.8083
      vertex -3.6585 45 69.8083
    endloop
  endfacet
  facet normal 0 1 0
    outer loop
      vertex -28.3156 -45 55.5725
      vertex -23.4196 -45 61.0101
      vertex -25 -45 45
    endloop
  endfacet
  facet normal -0.743145 0 0.669131
    outer loop
      vertex -28.3156 -65 55.5725
      vertex -23.4196 -45 61.0101
      vertex -28.3156 -45 55.5725
    endloop
  endfacet
  facet normal -0.743145 0 0.669131
    outer loop
      vertex -28.3156 -65 55.5725
      vertex -23.4196 -65 61.0101
      vertex -23.4196 -45 61.0101
    endloop
  endfacet
  facet normal 0 -1 0
    outer loop
      vertex -28.3156 -65 55.5725
      vertex 23.4196 -65 61.0101
      vertex -23.4196 -65 61.0101
    endloop
  endfacet
  facet normal 0 -1 0
    outer loop
      vertex -28.3156 -65 55.5725
      vertex 28.3156 -65 55.5725
      vertex 23.4196 -65 61.0101
    endloop
  endfacet
  facet normal -0.743145 0 0.669131
    outer loop
      vertex -28.3156 45 55.5725
      vertex -23.4196 45 61.0101
      vertex -23.4196 65 61.0101
    endloop
  endfacet
  facet normal -0.743145 0 0.669131
    outer loop
      vertex -28.3156 45 55.5725
      vertex -23.4196 65 61.0101
      vertex -28.3156 65 55.5725
    endloop
  endfacet
  facet normal 0 -1 0
    outer loop
      vertex -28.3156 45 55.5725
      vertex -25 45 45
      vertex -23.4196 45 61.0101
    endloop
  endfacet
  facet normal 0 1 0
    outer loop
      vertex -28.3156 65 55.5725
      vertex -23.4196 65 61.0101
      vertex 28.3156 65 55.5725
    endloop
  endfacet
  facet normal 0 1 0
    outer loop
      vertex -28.3156 65 55.5725
      vertex 28.3156 65 55.5725
      vertex 31.9741 65 49.2358
    endloop
  endfacet
  facet normal 0.669131 0.743145 0
    outer loop
      vertex -3.64058 -2.64503 0
      vertex -3.64058 -2.64503 30
      vertex -2.25 -3.89711 0
    endloop
  endfacet
  facet normal 0.669131 0.743145 -0
    outer loop
      vertex -3.64058 -2.64503 30
      vertex -2.25 -3.89711 30
      vertex -2.25 -3.89711 0
    endloop
  endfacet
  facet normal 0.66913 -0.743145 0
    outer loop
      vertex -3.64058 2.64503 0
      vertex -2.25 3.89711 0
      vertex -2.25 3.89711 30
    endloop
  endfacet
  facet normal 0.66913 -0.743145 0
    outer loop
      vertex -3.64058 2.64503 0
      vertex -2.25 3.89711 30
      vertex -3.64058 2.64503 30
    endloop
  endfacet
  facet normal 0 1 0
    outer loop
      vertex -3.6585 -45 69.8083
      vertex 3.6585 -45 69.8083
      vertex 25 -45 45
    endloop
  endfacet
  facet normal -0 0 1
    outer loop
      vertex -3.6585 -45 69.8083
      vertex 3.6585 -65 69.8083
      vertex 3.6585 -45 69.8083
    endloop
  endfacet
  facet normal 0 0 1
    outer loop
      vertex -3.6585 -65 69.8083
      vertex 3.6585 -65 69.8083
      vertex -3.6585 -45 69.8083
    endloop
  endfacet
  facet normal 0 0 1
    outer loop
      vertex -3.6585 45 69.8083
      vertex 3.6585 45 69.8083
      vertex -3.6585 65 69.8083
    endloop
  endfacet
  facet normal -0 0 1
    outer loop
      vertex -3.6585 65 69.8083
      vertex 3.6585 45 69.8083
      vertex 3.6585 65 69.8083
    endloop
  endfacet
  facet normal 0 1 0
    outer loop
      vertex -3.6585 65 69.8083
      vertex 3.6585 65 69.8083
      vertex 10.8156 65 68.287
    endloop
  endfacet
  facet normal 0 1 0
    outer loop
      vertex -31.9741 -45 49.2358
      vertex -28.3156 -45 55.5725
      vertex -25 -45 45
    endloop
  endfacet
  facet normal -0.866025 0 0.5
    outer loop
      vertex -31.9741 -65 49.2358
      vertex -28.3156 -45 55.5725
      vertex -31.9741 -45 49.2358
    endloop
  endfacet
  facet normal -0.866025 0 0.5
    outer loop
      vertex -31.9741 -65 49.2358
      vertex -28.3156 -65 55.5725
      vertex -28.3156 -45 55.5725
    endloop
  endfacet
  facet normal 0 -1 0
    outer loop
      vertex -31.9741 -65 49.2358
      vertex 28.3156 -65 55.5725
      vertex -28.3156 -65 55.5725
    endloop
  endfacet
  facet normal 0 -1 0
    outer loop
      vertex -31.9741 -65 49.2358
      vertex 31.9741 -65 49.2358
      vertex 28.3156 -65 55.5725
    endloop
  endfacet
  facet normal 0 -1 0
    outer loop
      vertex -31.9741 45 49.2358
      vertex -25 45 45
      vertex -28.3156 45 55.5725
    endloop
  endfacet
  facet normal -0.866025 0 0.5
    outer loop
      vertex -31.9741 45 49.2358
      vertex -28.3156 45 55.5725
      vertex -28.3156 65 55.5725
    endloop
  endfacet
  facet normal -0.866025 0 0.5
    outer loop
      vertex -31.9741 45 49.2358
      vertex -28.3156 65 55.5725
      vertex -31.9741 65 49.2358
    endloop
  endfacet
  facet normal 0 1 0
    outer loop
      vertex -31.9741 65 49.2358
      vertex -28.3156 65 55.5725
      vertex 31.9741 65 49.2358
    endloop
  endfacet
  facet normal 0 1 0
    outer loop
      vertex -31.9741 65 49.2358
      vertex 31.9741 65 49.2358
      vertex 34.2352 65 42.2769
    endloop
  endfacet
  facet normal 0 0 1
    outer loop
      vertex -33.3504 -45 45
      vertex -25 -45 45
      vertex -33.3504 45 45
    endloop
  endfacet
  facet normal 0 1 0
    outer loop
      vertex -33.3504 -45 45
      vertex -31.9741 -45 49.2358
      vertex -25 -45 45
    endloop
  endfacet
  facet normal -0.951057 0 0.309017
    outer loop
      vertex -33.3504 -45 45
      vertex -31.9741 -65 49.2358
      vertex -31.9741 -45 49.2358
    endloop
  endfacet
  facet normal -0 0 1
    outer loop
      vertex -33.3504 45 45
      vertex -25 -45 45
      vertex -25 45 45
    endloop
  endfacet
  facet normal 0 -1 0
    outer loop
      vertex -33.3504 45 45
      vertex -25 45 45
      vertex -31.9741 45 49.2358
    endloop
  endfacet
  facet normal -0.951057 0 0.309017
    outer loop
      vertex -33.3504 45 45
      vertex -31.9741 45 49.2358
      vertex -31.9741 65 49.2358
    endloop
  endfacet
  facet normal -0.951057 -3.90326e-08 0.309017
    outer loop
      vertex -34.2352 -65 42.2769
      vertex -31.9741 -65 49.2358
      vertex -33.3504 -45 45
    endloop
  endfacet
  facet normal -0.951057 0 0.309017
    outer loop
      vertex -34.2352 -65 42.2769
      vertex -33.3504 -45 45
      vertex -34.2352 65 42.2769
    endloop
  endfacet
  facet normal 0 -1 0
    outer loop
      vertex -34.2352 -65 42.2769
      vertex 31.9741 -65 49.2358
      vertex -31.9741 -65 49.2358
    endloop
  endfacet
  facet normal 0 -1 0
    outer loop
      vertex -34.2352 -65 42.2769
      vertex 34.2352 -65 42.2769
      vertex 31.9741 -65 49.2358
    endloop
  endfacet
  facet normal 0 1 0
    outer loop
      vertex -34.2352 65 42.2769
      vertex -31.9741 65 49.2358
      vertex 34.2352 65 42.2769
    endloop
  endfacet
  facet normal -0.951057 0 0.309017
    outer loop
      vertex -34.2352 65 42.2769
      vertex -33.3504 -45 45
      vertex -33.3504 45 45
    endloop
  endfacet
  facet normal -0.951057 3.90326e-08 0.309017
    outer loop
      vertex -34.2352 65 42.2769
      vertex -33.3504 45 45
      vertex -31.9741 65 49.2358
    endloop
  endfacet
  facet normal 0 1 0
    outer loop
      vertex -34.2352 65 42.2769
      vertex 34.2352 65 42.2769
      vertex 35 65 35
    endloop
  endfacet
  facet normal 0 0 -1
    outer loop
      vertex -35 -65 0
      vertex -0.470378 -4.47535 0
      vertex 35 -65 0
    endloop
  endfacet
  facet normal -0 0 -1
    outer loop
      vertex -35 -65 0
      vertex -2.25 -3.89711 0
      vertex -0.470378 -4.47535 0
    endloop
  endfacet
  facet normal -0 0 -1
    outer loop
      vertex -35 -65 0
      vertex -3.64058 -2.64503 0
      vertex -2.25 -3.89711 0
    endloop
  endfacet
  facet normal -1 -0 0
    outer loop
      vertex -35 -65 0
      vertex -35 -65 35
      vertex -35 65 35
    endloop
  endfacet
  facet normal 0 0 -1
    outer loop
      vertex -35 -65 0
      vertex -35 65 0
      vertex -4.40166 0.935602 0
    endloop
  endfacet
  facet normal -1 0 0
    outer loop
      vertex -35 -65 0
      vertex -35 65 35
      vertex -35 65 0
    endloop
  endfacet
  facet normal -0 0 -1
    outer loop
      vertex -35 -65 0
      vertex -4.40166 -0.935602 0
      vertex -3.64058 -2.64503 0
    endloop
  endfacet
  facet normal -0 0 -1
    outer loop
      vertex -35 -65 0
      vertex -4.40166 0.935602 0
      vertex -4.40166 -0.935602 0
    endloop
  endfacet
  facet normal 0 -1 -0
    outer loop
      vertex -35 -65 0
      vertex 35 -65 0
      vertex 35 -65 35
    endloop
  endfacet
  facet normal 0 -1 0
    outer loop
      vertex -35 -65 0
      vertex 35 -65 35
      vertex -35 -65 35
    endloop
  endfacet
  facet normal -0.994522 0 0.104529
    outer loop
      vertex -35 -65 35
      vertex -34.2352 -65 42.2769
      vertex -34.2352 65 42.2769
    endloop
  endfacet
  facet normal -0.994522 0 0.104529
    outer loop
      vertex -35 -65 35
      vertex -34.2352 65 42.2769
      vertex -35 65 35
    endloop
  endfacet
  facet normal 0 -1 0
    outer loop
      vertex -35 -65 35
      vertex 34.2352 -65 42.2769
      vertex -34.2352 -65 42.2769
    endloop
  endfacet
  facet normal 0 -1 0
    outer loop
      vertex -35 -65 35
      vertex 35 -65 35
      vertex 34.2352 -65 42.2769
    endloop
  endfacet
  facet normal 0 0 -1
    outer loop
      vertex -35 65 0
      vertex -0.470378 4.47535 0
      vertex -2.25 3.89711 0
    endloop
  endfacet
  facet normal 0 0 -1
    outer loop
      vertex -35 65 0
      vertex -2.25 3.89711 0
      vertex -3.64058 2.64503 0
    endloop
  endfacet
  facet normal 0 0 -1
    outer loop
      vertex -35 65 0
      vertex -3.64058 2.64503 0
      vertex -4.40166 0.935602 0
    endloop
  endfacet
  facet normal 0 1 0
    outer loop
      vertex -35 65 0
      vertex -35 65 35
      vertex 35 65 0
    endloop
  endfacet
  facet normal 0 0 -1
    outer loop
      vertex -35 65 0
      vertex 35 65 0
      vertex -0.470378 4.47535 0
    endloop
  endfacet
  facet normal 0 1 0
    outer loop
      vertex -35 65 35
      vertex -34.2352 65 42.2769
      vertex 35 65 35
    endloop
  endfacet
  facet normal 0 1 -0
    outer loop
      vertex -35 65 35
      vertex 35 65 35
      vertex 35 65 0
    endloop
  endfacet
  facet normal 0.913545 0.406737 0
    outer loop
      vertex -4.40166 -0.935602 0
      vertex -3.64058 -2.64503 30
      vertex -3.64058 -2.64503 0
    endloop
  endfacet
  facet normal 0.913545 0.406737 0
    outer loop
      vertex -4.40166 -0.935602 0
      vertex -4.40166 -0.935602 30
      vertex -3.64058 -2.64503 30
    endloop
  endfacet
  facet normal 1 0 0
    outer loop
      vertex -4.40166 -0.935602 0
      vertex -4.40166 0.935602 0
      vertex -4.40166 -0.935602 30
    endloop
  endfacet
  facet normal 1 -0 0
    outer loop
      vertex -4.40166 -0.935602 30
      vertex -4.40166 0.935602 0
      vertex -4.40166 0.935602 30
    endloop
  endfacet
  facet normal 0.913545 -0.406737 0
    outer loop
      vertex -4.40166 0.935602 0
      vertex -3.64058 2.64503 0
      vertex -4.40166 0.935602 30
    endloop
  endfacet
  facet normal 0.913545 -0.406737 0
    outer loop
      vertex -4.40166 0.935602 30
      vertex -3.64058 2.64503 0
      vertex -3.64058 2.64503 30
    endloop
  endfacet
  facet normal -0.5 0.866025 0
    outer loop
      vertex 1.39058 -4.27975 0
      vertex 1.39058 -4.27975 30
      vertex 3.01109 -3.34415 0
    endloop
  endfacet
  facet normal 0 0 -1
    outer loop
      vertex 1.39058 -4.27975 0
      vertex 3.01109 -3.34415 0
      vertex 35 -65 0
    endloop
  endfacet
  facet normal -0 0 1
    outer loop
      vertex 1.39058 -4.27975 30
      vertex 25 -45 30
      vertex 3.01109 -3.34415 30
    endloop
  endfacet
  facet normal -0.5 0.866025 0
    outer loop
      vertex 1.39058 -4.27975 30
      vertex 3.01109 -3.34415 30
      vertex 3.01109 -3.34415 0
    endloop
  endfacet
  facet normal -0.5 -0.866025 -0
    outer loop
      vertex 1.39058 4.27975 0
      vertex 3.01109 3.34415 0
      vertex 3.01109 3.34415 30
    endloop
  endfacet
  facet normal -0.5 -0.866025 0
    outer loop
      vertex 1.39058 4.27975 0
      vertex 3.01109 3.34415 30
      vertex 1.39058 4.27975 30
    endloop
  endfacet
  facet normal 0 0 -1
    outer loop
      vertex 1.39058 4.27975 0
      vertex 35 65 0
      vertex 3.01109 3.34415 0
    endloop
  endfacet
  facet normal 0 0 1
    outer loop
      vertex 1.39058 4.27975 30
      vertex 3.01109 3.34415 30
      vertex 25 45 30
    endloop
  endfacet
  facet normal 0 1 0
    outer loop
      vertex 10.8156 -45 68.287
      vertex 17.5 -45 65.3109
      vertex 25 -45 45
    endloop
  endfacet
  facet normal 0.406737 0 0.913545
    outer loop
      vertex 10.8156 -45 68.287
      vertex 17.5 -65 65.3109
      vertex 17.5 -45 65.3109
    endloop
  endfacet
  facet normal 0.406737 0 0.913545
    outer loop
      vertex 10.8156 -65 68.287
      vertex 17.5 -65 65.3109
      vertex 10.8156 -45 68.287
    endloop
  endfacet
  facet normal 0.406737 0 0.913545
    outer loop
      vertex 10.8156 45 68.287
      vertex 17.5 45 65.3109
      vertex 10.8156 65 68.287
    endloop
  endfacet
  facet normal 0 -1 0
    outer loop
      vertex 10.8156 45 68.287
      vertex 25 45 45
      vertex 17.5 45 65.3109
    endloop
  endfacet
  facet normal 0.406737 0 0.913545
    outer loop
      vertex 10.8156 65 68.287
      vertex 17.5 45 65.3109
      vertex 17.5 65 65.3109
    endloop
  endfacet
  facet normal 0 1 0
    outer loop
      vertex 17.5 -45 65.3109
      vertex 23.4196 -45 61.0101
      vertex 25 -45 45
    endloop
  endfacet
  facet normal 0.587786 0 0.809017
    outer loop
      vertex 17.5 -45 65.3109
      vertex 23.4196 -65 61.0101
      vertex 23.4196 -45 61.0101
    endloop
  endfacet
  facet normal 0.587786 0 0.809017
    outer loop
      vertex 17.5 -65 65.3109
      vertex 23.4196 -65 61.0101
      vertex 17.5 -45 65.3109
    endloop
  endfacet
  facet normal 0.587786 0 0.809017
    outer loop
      vertex 17.5 45 65.3109
      vertex 23.4196 45 61.0101
      vertex 17.5 65 65.3109
    endloop
  endfacet
  facet normal 0 -1 0
    outer loop
      vertex 17.5 45 65.3109
      vertex 25 45 45
      vertex 23.4196 45 61.0101
    endloop
  endfacet
  facet normal 0.587786 0 0.809017
    outer loop
      vertex 17.5 65 65.3109
      vertex 23.4196 45 61.0101
      vertex 23.4196 65 61.0101
    endloop
  endfacet
  facet normal 0 1 -0
    outer loop
      vertex 23.4196 -45 61.0101
      vertex 28.3156 -45 55.5725
      vertex 25 -45 45
    endloop
  endfacet
  facet normal 0.743145 -0 0.669131
    outer loop
      vertex 23.4196 -65 61.0101
      vertex 28.3156 -45 55.5725
      vertex 23.4196 -45 61.0101
    endloop
  endfacet
  facet normal 0.743145 0 0.669131
    outer loop
      vertex 23.4196 -65 61.0101
      vertex 28.3156 -65 55.5725
      vertex 28.3156 -45 55.5725
    endloop
  endfacet
  facet normal 0 -1 0
    outer loop
      vertex 23.4196 45 61.0101
      vertex 25 45 45
      vertex 28.3156 45 55.5725
    endloop
  endfacet
  facet normal 0.743145 0 0.669131
    outer loop
      vertex 23.4196 45 61.0101
      vertex 28.3156 45 55.5725
      vertex 28.3156 65 55.5725
    endloop
  endfacet
  facet normal 0.743145 -0 0.669131
    outer loop
      vertex 23.4196 45 61.0101
      vertex 28.3156 65 55.5725
      vertex 23.4196 65 61.0101
    endloop
  endfacet
  facet normal -1 -0 0
    outer loop
      vertex 25 -45 30
      vertex 25 -45 45
      vertex 25 45 45
    endloop
  endfacet
  facet normal -1 0 0
    outer loop
      vertex 25 -45 30
      vertex 25 45 45
      vertex 25 45 30
    endloop
  endfacet
  facet normal 0 1 0
    outer loop
      vertex 25 -45 45
      vertex 28.3156 -45 55.5725
      vertex 31.9741 -45 49.2358
    endloop
  endfacet
  facet normal 0 1 0
    outer loop
      vertex 25 -45 45
      vertex 31.9741 -45 49.2358
      vertex 33.3504 -45 45
    endloop
  endfacet
  facet normal 0 0 1
    outer loop
      vertex 25 -45 45
      vertex 33.3504 -45 45
      vertex 25 45 45
    endloop
  endfacet
  facet normal 0 -1 -0
    outer loop
      vertex 25 45 45
      vertex 31.9741 45 49.2358
      vertex 28.3156 45 55.5725
    endloop
  endfacet
  facet normal -0 0 1
    outer loop
      vertex 25 45 45
      vertex 33.3504 -45 45
      vertex 33.3504 45 45
    endloop
  endfacet
  facet normal 0 -1 -0
    outer loop
      vertex 25 45 45
      vertex 33.3504 45 45
      vertex 31.9741 45 49.2358
    endloop
  endfacet
  facet normal 0.866025 -0 0.5
    outer loop
      vertex 28.3156 -65 55.5725
      vertex 31.9741 -45 49.2358
      vertex 28.3156 -45 55.5725
    endloop
  endfacet
  facet normal 0.866025 0 0.5
    outer loop
      vertex 28.3156 -65 55.5725
      vertex 31.9741 -65 49.2358
      vertex 31.9741 -45 49.2358
    endloop
  endfacet
  facet normal 0.866025 0 0.5
    outer loop
      vertex 28.3156 45 55.5725
      vertex 31.9741 45 49.2358
      vertex 31.9741 65 49.2358
    endloop
  endfacet
  facet normal 0.866025 -0 0.5
    outer loop
      vertex 28.3156 45 55.5725
      vertex 31.9741 65 49.2358
      vertex 28.3156 65 55.5725
    endloop
  endfacet
  facet normal -0.809017 0.587785 0
    outer loop
      vertex 3.01109 -3.34415 0
      vertex 3.01109 -3.34415 30
      vertex 4.11095 -1.83031 30
    endloop
  endfacet
  facet normal 0 0 -1
    outer loop
      vertex 3.01109 -3.34415 0
      vertex 4.11095 -1.83031 0
      vertex 35 -65 0
    endloop
  endfacet
  facet normal -0.809017 0.587785 0
    outer loop
      vertex 3.01109 -3.34415 0
      vertex 4.11095 -1.83031 30
      vertex 4.11095 -1.83031 0
    endloop
  endfacet
  facet normal -0 0 1
    outer loop
      vertex 3.01109 -3.34415 30
      vertex 25 -45 30
      vertex 4.11095 -1.83031 30
    endloop
  endfacet
  facet normal 0 0 -1
    outer loop
      vertex 3.01109 3.34415 0
      vertex 35 65 0
      vertex 4.11095 1.83031 0
    endloop
  endfacet
  facet normal -0.809017 -0.587785 0
    outer loop
      vertex 3.01109 3.34415 0
      vertex 4.11095 1.83031 0
      vertex 3.01109 3.34415 30
    endloop
  endfacet
  facet normal -0.809017 -0.587785 0
    outer loop
      vertex 3.01109 3.34415 30
      vertex 4.11095 1.83031 0
      vertex 4.11095 1.83031 30
    endloop
  endfacet
  facet normal 0 0 1
    outer loop
      vertex 3.01109 3.34415 30
      vertex 4.11095 1.83031 30
      vertex 25 45 30
    endloop
  endfacet
  facet normal 0 1 0
    outer loop
      vertex 3.6585 -45 69.8083
      vertex 10.8156 -45 68.287
      vertex 25 -45 45
    endloop
  endfacet
  facet normal 0.207911 0 0.978148
    outer loop
      vertex 3.6585 -45 69.8083
      vertex 10.8156 -65 68.287
      vertex 10.8156 -45 68.287
    endloop
  endfacet
  facet normal 0.207911 0 0.978148
    outer loop
      vertex 3.6585 -65 69.8083
      vertex 10.8156 -65 68.287
      vertex 3.6585 -45 69.8083
    endloop
  endfacet
  facet normal -0 -1 -0
    outer loop
      vertex 3.6585 -65 69.8083
      vertex 17.5 -65 65.3109
      vertex 10.8156 -65 68.287
    endloop
  endfacet
  facet normal 0.207911 0 0.978148
    outer loop
      vertex 3.6585 45 69.8083
      vertex 10.8156 45 68.287
      vertex 3.6585 65 69.8083
    endloop
  endfacet
  facet normal 0 -1 0
    outer loop
      vertex 3.6585 45 69.8083
      vertex 25 45 45
      vertex 10.8156 45 68.287
    endloop
  endfacet
  facet normal 0.207911 0 0.978148
    outer loop
      vertex 3.6585 65 69.8083
      vertex 10.8156 45 68.287
      vertex 10.8156 65 68.287
    endloop
  endfacet
  facet normal 0.951057 0 0.309017
    outer loop
      vertex 31.9741 -65 49.2358
      vertex 33.3504 -45 45
      vertex 31.9741 -45 49.2358
    endloop
  endfacet
  facet normal 0.951057 -3.90326e-08 0.309017
    outer loop
      vertex 31.9741 -65 49.2358
      vertex 34.2352 -65 42.2769
      vertex 33.3504 -45 45
    endloop
  endfacet
  facet normal 0.951057 0 0.309017
    outer loop
      vertex 31.9741 45 49.2358
      vertex 33.3504 45 45
      vertex 31.9741 65 49.2358
    endloop
  endfacet
  facet normal 0.951057 3.90326e-08 0.309017
    outer loop
      vertex 31.9741 65 49.2358
      vertex 33.3504 45 45
      vertex 34.2352 65 42.2769
    endloop
  endfacet
  facet normal 0.951057 0 0.309017
    outer loop
      vertex 33.3504 -45 45
      vertex 34.2352 -65 42.2769
      vertex 34.2352 65 42.2769
    endloop
  endfacet
  facet normal 0.951057 -0 0.309017
    outer loop
      vertex 33.3504 -45 45
      vertex 34.2352 65 42.2769
      vertex 33.3504 45 45
    endloop
  endfacet
  facet normal 0.994522 0 0.104529
    outer loop
      vertex 34.2352 -65 42.2769
      vertex 35 -65 35
      vertex 34.2352 65 42.2769
    endloop
  endfacet
  facet normal 0.994522 0 0.104529
    outer loop
      vertex 34.2352 65 42.2769
      vertex 35 -65 35
      vertex 35 65 35
    endloop
  endfacet
  facet normal 1 0 0
    outer loop
      vertex 35 -65 0
      vertex 35 65 0
      vertex 35 -65 35
    endloop
  endfacet
  facet normal 1 -0 0
    outer loop
      vertex 35 -65 35
      vertex 35 65 0
      vertex 35 65 35
    endloop
  endfacet
  facet normal -0.978148 0.207912 0
    outer loop
      vertex 4.11095 -1.83031 0
      vertex 4.11095 -1.83031 30
      vertex 4.5 0 30
    endloop
  endfacet
  facet normal 0 0 -1
    outer loop
      vertex 4.11095 -1.83031 0
      vertex 4.5 0 0
      vertex 35 -65 0
    endloop
  endfacet
  facet normal -0.978148 0.207912 0
    outer loop
      vertex 4.11095 -1.83031 0
      vertex 4.5 0 30
      vertex 4.5 0 0
    endloop
  endfacet
  facet normal -0 0 1
    outer loop
      vertex 4.11095 -1.83031 30
      vertex 25 -45 30
      vertex 4.5 0 30
    endloop
  endfacet
  facet normal 0 0 -1
    outer loop
      vertex 4.11095 1.83031 0
      vertex 35 65 0
      vertex 4.5 0 0
    endloop
  endfacet
  facet normal -0.978148 -0.207912 0
    outer loop
      vertex 4.11095 1.83031 0
      vertex 4.5 0 0
      vertex 4.11095 1.83031 30
    endloop
  endfacet
  facet normal -0.978148 -0.207912 0
    outer loop
      vertex 4.11095 1.83031 30
      vertex 4.5 0 0
      vertex 4.5 0 30
    endloop
  endfacet
  facet normal 0 0 1
    outer loop
      vertex 4.11095 1.83031 30
      vertex 4.5 0 30
      vertex 25 45 30
    endloop
  endfacet
  facet normal 0 0 -1
    outer loop
      vertex 4.5 0 0
      vertex 35 65 0
      vertex 35 -65 0
    endloop
  endfacet
  facet normal 0 0 1
    outer loop
      vertex 4.5 0 30
      vertex 25 -45 30
      vertex 25 45 30
    endloop
  endfacet
endsolid model
