solid OpenSCAD_Model
  facet normal 0.998027 0.0627905 0
    outer loop
      vertex 252.487 0 30.05
      vertex 250.496 31.6451 0
      vertex 250.496 31.6451 30.05
    endloop
  endfacet
  facet normal 0.998027 0.0627905 0
    outer loop
      vertex 250.496 31.6451 0
      vertex 252.487 0 30.05
      vertex 252.487 0 0
    endloop
  endfacet
  facet normal 0.982288 0.187375 0
    outer loop
      vertex 250.496 31.6451 30.05
      vertex 250.312 32.6107 0
      vertex 250.312 32.6107 30.05
    endloop
  endfacet
  facet normal 0.982288 0.187375 0
    outer loop
      vertex 250.312 32.6107 0
      vertex 250.496 31.6451 30.05
      vertex 250.496 31.6451 0
    endloop
  endfacet
  facet normal 0 0 1
    outer loop
      vertex 250.496 31.6451 30.05
      vertex 214.444 27.0906 30.05
      vertex 216.149 0 30.05
    endloop
  endfacet
  facet normal 0 -0 1
    outer loop
      vertex 214.444 27.0906 30.05
      vertex 250.312 32.6107 30.05
      vertex 214.284 27.9314 30.05
    endloop
  endfacet
  facet normal 0 0 1
    outer loop
      vertex 216.149 0 30.05
      vertex 252.487 0 30.05
      vertex 250.496 31.6451 30.05
    endloop
  endfacet
  facet normal 0 0 1
    outer loop
      vertex 252.487 0 30.05
      vertex 216.149 0 30.05
      vertex 250.496 -31.6451 30.05
    endloop
  endfacet
  facet normal 0 0 1
    outer loop
      vertex 214.444 27.0906 30.05
      vertex 250.496 31.6451 30.05
      vertex 250.312 32.6107 30.05
    endloop
  endfacet
  facet normal -0 0 1
    outer loop
      vertex 214.444 -27.0906 30.05
      vertex 250.496 -31.6451 30.05
      vertex 216.149 0 30.05
    endloop
  endfacet
  facet normal 0 0 1
    outer loop
      vertex 250.496 -31.6451 30.05
      vertex 214.444 -27.0906 30.05
      vertex 250.331 -32.5123 30.05
    endloop
  endfacet
  facet normal 0 0 1
    outer loop
      vertex 250.331 -32.5123 30.05
      vertex 214.444 -27.0906 30.05
      vertex 214.302 -27.833 30.05
    endloop
  endfacet
  facet normal 0 0 1
    outer loop
      vertex 187.161 23.6439 30.05
      vertex 167.319 21.1373 30.05
      vertex 168.649 0 30.05
    endloop
  endfacet
  facet normal 0 -0 1
    outer loop
      vertex 167.319 21.1373 30.05
      vertex 187.019 24.3903 30.05
      vertex 167.189 21.815 30.05
    endloop
  endfacet
  facet normal 0 0 1
    outer loop
      vertex 168.649 0 30.05
      vertex 188.649 0 30.05
      vertex 187.161 23.6439 30.05
    endloop
  endfacet
  facet normal 0 0 1
    outer loop
      vertex 188.649 0 30.05
      vertex 168.649 0 30.05
      vertex 187.161 -23.6439 30.05
    endloop
  endfacet
  facet normal 0 0 1
    outer loop
      vertex 167.319 21.1373 30.05
      vertex 187.161 23.6439 30.05
      vertex 187.019 24.3903 30.05
    endloop
  endfacet
  facet normal -0 0 1
    outer loop
      vertex 167.319 -21.1373 30.05
      vertex 187.161 -23.6439 30.05
      vertex 168.649 0 30.05
    endloop
  endfacet
  facet normal 0 0 1
    outer loop
      vertex 187.161 -23.6439 30.05
      vertex 167.319 -21.1373 30.05
      vertex 187.037 -24.2919 30.05
    endloop
  endfacet
  facet normal 0 0 1
    outer loop
      vertex 187.037 -24.2919 30.05
      vertex 167.319 -21.1373 30.05
      vertex 167.208 -21.7165 30.05
    endloop
  endfacet
  facet normal 0.998027 -0.0627905 0
    outer loop
      vertex 250.496 -31.6451 30.05
      vertex 252.487 0 0
      vertex 252.487 0 30.05
    endloop
  endfacet
  facet normal 0.998027 -0.0627905 0
    outer loop
      vertex 252.487 0 0
      vertex 250.496 -31.6451 30.05
      vertex 250.496 -31.6451 0
    endloop
  endfacet
  facet normal 0.982288 -0.187378 0
    outer loop
      vertex 250.331 -32.5123 30.05
      vertex 250.496 -31.6451 0
      vertex 250.496 -31.6451 30.05
    endloop
  endfacet
  facet normal 0.982288 -0.187378 0
    outer loop
      vertex 250.496 -31.6451 0
      vertex 250.331 -32.5123 30.05
      vertex 250.331 -32.5123 0
    endloop
  endfacet
  facet normal 0 0 -1
    outer loop
      vertex 252.487 0 0
      vertex 216.149 0 0
      vertex 221.38 24.909 0
    endloop
  endfacet
  facet normal 0 -0 -1
    outer loop
      vertex 216.149 0 0
      vertex 221.38 -24.909 0
      vertex 214.637 -24.0213 0
    endloop
  endfacet
  facet normal 0 0 -1
    outer loop
      vertex 221.38 -24.909 0
      vertex 252.487 0 0
      vertex 250.496 -31.6451 0
    endloop
  endfacet
  facet normal 0 0 -1
    outer loop
      vertex 220.883 -28.6876 0
      vertex 250.496 -31.6451 0
      vertex 250.331 -32.5123 0
    endloop
  endfacet
  facet normal 0 0 -1
    outer loop
      vertex 216.149 0 0
      vertex 252.487 0 0
      vertex 221.38 -24.909 0
    endloop
  endfacet
  facet normal 0 0 -1
    outer loop
      vertex 252.487 0 0
      vertex 221.38 24.909 0
      vertex 250.496 31.6451 0
    endloop
  endfacet
  facet normal 0 0 -1
    outer loop
      vertex 250.496 -31.6451 0
      vertex 220.883 -28.6876 0
      vertex 221.38 -24.909 0
    endloop
  endfacet
  facet normal 0 0 -1
    outer loop
      vertex 220.87 28.7868 0
      vertex 250.496 31.6451 0
      vertex 221.38 24.909 0
    endloop
  endfacet
  facet normal -0 0 -1
    outer loop
      vertex 250.496 31.6451 0
      vertex 220.87 28.7868 0
      vertex 250.312 32.6107 0
    endloop
  endfacet
  facet normal 0 0 -1
    outer loop
      vertex 221.38 24.909 0
      vertex 216.149 0 0
      vertex 214.637 24.0213 0
    endloop
  endfacet
  facet normal 0 0 -1
    outer loop
      vertex 168.649 0 0
      vertex 188.649 0 0
      vertex 187.161 -23.6439 0
    endloop
  endfacet
  facet normal 0 0 -1
    outer loop
      vertex 167.319 -21.1373 0
      vertex 187.161 -23.6439 0
      vertex 187.037 -24.2919 0
    endloop
  endfacet
  facet normal 0 0 -1
    outer loop
      vertex 188.649 0 0
      vertex 168.649 0 0
      vertex 187.161 23.6439 0
    endloop
  endfacet
  facet normal 0 0 -1
    outer loop
      vertex 167.319 21.1373 0
      vertex 187.161 23.6439 0
      vertex 168.649 0 0
    endloop
  endfacet
  facet normal 0 0 -1
    outer loop
      vertex 187.161 -23.6439 0
      vertex 167.319 -21.1373 0
      vertex 168.649 0 0
    endloop
  endfacet
  facet normal 0 -0 -1
    outer loop
      vertex 167.319 -21.1373 0
      vertex 187.037 -24.2919 0
      vertex 167.208 -21.7165 0
    endloop
  endfacet
  facet normal -0 0 -1
    outer loop
      vertex 187.161 23.6439 0
      vertex 167.319 21.1373 0
      vertex 187.019 24.3903 0
    endloop
  endfacet
  facet normal 0 0 -1
    outer loop
      vertex 187.019 24.3903 0
      vertex 167.319 21.1373 0
      vertex 167.189 21.815 0
    endloop
  endfacet
  facet normal -0.998027 0.0627905 0
    outer loop
      vertex 214.637 -24.0213 19.9795
      vertex 216.149 0 0
      vertex 214.637 -24.0213 0
    endloop
  endfacet
  facet normal -0.998027 0.0627905 0
    outer loop
      vertex 216.149 0 0
      vertex 214.637 -24.0213 19.9795
      vertex 216.149 0 30.05
    endloop
  endfacet
  facet normal -0.998027 0.0627891 0
    outer loop
      vertex 214.444 -27.0906 30.05
      vertex 214.637 -24.0213 19.9795
      vertex 214.444 -27.0906 20.1003
    endloop
  endfacet
  facet normal -0.998027 0.0627904 3.85806e-07
    outer loop
      vertex 214.637 -24.0213 19.9795
      vertex 214.444 -27.0906 30.05
      vertex 216.149 0 30.05
    endloop
  endfacet
  facet normal -0.982287 -0.187382 0
    outer loop
      vertex 214.444 27.0906 20.1003
      vertex 214.284 27.9314 30.05
      vertex 214.284 27.9314 20.0719
    endloop
  endfacet
  facet normal -0.982287 -0.187382 0
    outer loop
      vertex 214.284 27.9314 30.05
      vertex 214.444 27.0906 20.1003
      vertex 214.444 27.0906 30.05
    endloop
  endfacet
  facet normal -0.998027 -0.0627891 0
    outer loop
      vertex 214.637 24.0213 19.9795
      vertex 214.444 27.0906 30.05
      vertex 214.444 27.0906 20.1003
    endloop
  endfacet
  facet normal -0.998027 -0.0627905 -0
    outer loop
      vertex 216.149 0 30.05
      vertex 214.637 24.0213 19.9795
      vertex 216.149 0 0
    endloop
  endfacet
  facet normal -0.998027 -0.0627904 3.85806e-07
    outer loop
      vertex 214.637 24.0213 19.9795
      vertex 216.149 0 30.05
      vertex 214.444 27.0906 30.05
    endloop
  endfacet
  facet normal -0.998027 -0.0627905 0
    outer loop
      vertex 214.637 24.0213 0
      vertex 216.149 0 0
      vertex 214.637 24.0213 19.9795
    endloop
  endfacet
  facet normal -0.982286 0.187386 0
    outer loop
      vertex 214.302 -27.833 30.05
      vertex 214.444 -27.0906 20.1003
      vertex 214.302 -27.833 20.0752
    endloop
  endfacet
  facet normal -0.982286 0.187386 0
    outer loop
      vertex 214.444 -27.0906 20.1003
      vertex 214.302 -27.833 30.05
      vertex 214.444 -27.0906 30.05
    endloop
  endfacet
  facet normal 0.998027 0.0627905 0
    outer loop
      vertex 188.649 0 30.05
      vertex 187.161 23.6439 0
      vertex 187.161 23.6439 30.05
    endloop
  endfacet
  facet normal 0.998027 0.0627905 0
    outer loop
      vertex 187.161 23.6439 0
      vertex 188.649 0 30.05
      vertex 188.649 0 0
    endloop
  endfacet
  facet normal 0.982287 0.187381 0
    outer loop
      vertex 187.161 23.6439 30.05
      vertex 187.019 24.3903 0
      vertex 187.019 24.3903 30.05
    endloop
  endfacet
  facet normal 0.982287 0.187381 0
    outer loop
      vertex 187.019 24.3903 0
      vertex 187.161 23.6439 30.05
      vertex 187.161 23.6439 0
    endloop
  endfacet
  facet normal 0.998027 -0.0627905 0
    outer loop
      vertex 187.161 -23.6439 30.05
      vertex 188.649 0 0
      vertex 188.649 0 30.05
    endloop
  endfacet
  facet normal 0.998027 -0.0627905 0
    outer loop
      vertex 188.649 0 0
      vertex 187.161 -23.6439 30.05
      vertex 187.161 -23.6439 0
    endloop
  endfacet
  facet normal 0.982287 -0.187384 0
    outer loop
      vertex 187.037 -24.2919 30.05
      vertex 187.161 -23.6439 0
      vertex 187.161 -23.6439 30.05
    endloop
  endfacet
  facet normal 0.982287 -0.187384 0
    outer loop
      vertex 187.161 -23.6439 0
      vertex 187.037 -24.2919 30.05
      vertex 187.037 -24.2919 0
    endloop
  endfacet
  facet normal -0.998027 -0.0627901 0
    outer loop
      vertex 168.649 0 0
      vertex 167.319 21.1373 30.05
      vertex 167.319 21.1373 0
    endloop
  endfacet
  facet normal -0.998027 -0.0627901 0
    outer loop
      vertex 167.319 21.1373 30.05
      vertex 168.649 0 0
      vertex 168.649 0 30.05
    endloop
  endfacet
  facet normal -0.982284 -0.187398 0
    outer loop
      vertex 167.319 21.1373 0
      vertex 167.189 21.815 30.05
      vertex 167.189 21.815 0
    endloop
  endfacet
  facet normal -0.982284 -0.187398 0
    outer loop
      vertex 167.189 21.815 30.05
      vertex 167.319 21.1373 0
      vertex 167.319 21.1373 30.05
    endloop
  endfacet
  facet normal -0.998027 0.0627901 0
    outer loop
      vertex 167.319 -21.1373 0
      vertex 168.649 0 30.05
      vertex 168.649 0 0
    endloop
  endfacet
  facet normal -0.998027 0.0627901 0
    outer loop
      vertex 168.649 0 30.05
      vertex 167.319 -21.1373 0
      vertex 167.319 -21.1373 30.05
    endloop
  endfacet
  facet normal -0.982287 0.187381 0
    outer loop
      vertex 167.208 -21.7165 0
      vertex 167.319 -21.1373 30.05
      vertex 167.319 -21.1373 0
    endloop
  endfacet
  facet normal -0.982287 0.187381 0
    outer loop
      vertex 167.319 -21.1373 30.05
      vertex 167.208 -21.7165 0
      vertex 167.208 -21.7165 30.05
    endloop
  endfacet
  facet normal -0.128796 0.991671 7.10539e-08
    outer loop
      vertex 220.709 28.7659 17.9375
      vertex 214.284 27.9314 30.05
      vertex 250.312 32.6107 30.05
    endloop
  endfacet
  facet normal -0.128796 0.991671 -1.9543e-07
    outer loop
      vertex 214.284 27.9314 30.05
      vertex 220.709 28.7659 17.9375
      vertex 215.663 28.1106 20.875
    endloop
  endfacet
  facet normal -0.128796 0.991671 -3.59495e-08
    outer loop
      vertex 250.312 32.6107 30.05
      vertex 220.87 28.7868 15
      vertex 220.709 28.7659 17.9375
    endloop
  endfacet
  facet normal -0.128796 0.991671 0
    outer loop
      vertex 250.312 32.6107 0
      vertex 220.87 28.7868 15
      vertex 250.312 32.6107 30.05
    endloop
  endfacet
  facet normal -0.128796 0.991671 0
    outer loop
      vertex 220.87 28.7868 15
      vertex 250.312 32.6107 0
      vertex 220.87 28.7868 0
    endloop
  endfacet
  facet normal -0.128795 0.991671 0
    outer loop
      vertex 214.284 27.9314 30.05
      vertex 215.663 28.1106 20.875
      vertex 214.284 27.9314 20.0719
    endloop
  endfacet
  facet normal -0.128795 0.991671 0
    outer loop
      vertex 220.709 28.7659 17.9375
      vertex 220.87 28.7868 15
      vertex 220.709 28.7659 15
    endloop
  endfacet
  facet normal -0.128796 0.991671 0
    outer loop
      vertex 187.019 24.3903 0
      vertex 167.189 21.815 30.05
      vertex 187.019 24.3903 30.05
    endloop
  endfacet
  facet normal -0.128796 0.991671 0
    outer loop
      vertex 167.189 21.815 30.05
      vertex 187.019 24.3903 0
      vertex 167.189 21.815 0
    endloop
  endfacet
  facet normal -0.128796 -0.991671 -2.14322e-07
    outer loop
      vertex 220.722 -28.6668 17.9375
      vertex 214.302 -27.833 30.05
      vertex 215.676 -28.0115 20.875
    endloop
  endfacet
  facet normal -0.128794 -0.991671 0
    outer loop
      vertex 215.676 -28.0115 20.875
      vertex 214.302 -27.833 30.05
      vertex 214.302 -27.833 20.0752
    endloop
  endfacet
  facet normal -0.128796 -0.991671 -1.20852e-07
    outer loop
      vertex 214.302 -27.833 30.05
      vertex 220.722 -28.6668 17.9375
      vertex 250.331 -32.5123 30.05
    endloop
  endfacet
  facet normal -0.128795 -0.991671 0
    outer loop
      vertex 220.883 -28.6876 15
      vertex 220.722 -28.6668 17.9375
      vertex 220.722 -28.6668 15
    endloop
  endfacet
  facet normal -0.128796 -0.991671 -3.73419e-08
    outer loop
      vertex 220.722 -28.6668 17.9375
      vertex 220.883 -28.6876 15
      vertex 250.331 -32.5123 30.05
    endloop
  endfacet
  facet normal -0.128796 -0.991671 0
    outer loop
      vertex 250.331 -32.5123 0
      vertex 220.883 -28.6876 15
      vertex 220.883 -28.6876 0
    endloop
  endfacet
  facet normal -0.128796 -0.991671 0
    outer loop
      vertex 220.883 -28.6876 15
      vertex 250.331 -32.5123 0
      vertex 250.331 -32.5123 30.05
    endloop
  endfacet
  facet normal -0.128796 -0.991671 0
    outer loop
      vertex 167.208 -21.7165 0
      vertex 187.037 -24.2919 30.05
      vertex 167.208 -21.7165 30.05
    endloop
  endfacet
  facet normal -0.128796 -0.991671 -0
    outer loop
      vertex 187.037 -24.2919 30.05
      vertex 167.208 -21.7165 0
      vertex 187.037 -24.2919 0
    endloop
  endfacet
  facet normal -0.13052 0.991446 0
    outer loop
      vertex 221.38 24.909 15
      vertex 221.38 24.909 0
      vertex 221.219 24.8878 15
    endloop
  endfacet
  facet normal -0.130526 0.991445 3.49742e-07
    outer loop
      vertex 221.219 24.8878 17.9375
      vertex 214.637 24.0213 19.9795
      vertex 216.175 24.2237 20.875
    endloop
  endfacet
  facet normal -0.130526 0.991445 0
    outer loop
      vertex 221.219 24.8878 15
      vertex 214.637 24.0213 19.9795
      vertex 221.219 24.8878 17.9375
    endloop
  endfacet
  facet normal -0.130526 0.991445 -6.91089e-08
    outer loop
      vertex 214.637 24.0213 0
      vertex 221.219 24.8878 15
      vertex 221.38 24.909 0
    endloop
  endfacet
  facet normal -0.130526 0.991445 0
    outer loop
      vertex 221.219 24.8878 15
      vertex 214.637 24.0213 0
      vertex 214.637 24.0213 19.9795
    endloop
  endfacet
  facet normal -0.495722 -0.0652633 -0.866025
    outer loop
      vertex 216.175 24.2237 20.875
      vertex 220.709 28.7659 17.9375
      vertex 221.219 24.8878 17.9375
    endloop
  endfacet
  facet normal -0.495724 -0.0652616 -0.866025
    outer loop
      vertex 220.709 28.7659 17.9375
      vertex 216.175 24.2237 20.875
      vertex 215.663 28.1106 20.875
    endloop
  endfacet
  facet normal -0.991445 -0.130527 0
    outer loop
      vertex 221.219 24.8878 15
      vertex 220.709 28.7659 17.9375
      vertex 220.709 28.7659 15
    endloop
  endfacet
  facet normal -0.991445 -0.130527 0
    outer loop
      vertex 220.709 28.7659 17.9375
      vertex 221.219 24.8878 15
      vertex 221.219 24.8878 17.9375
    endloop
  endfacet
  facet normal 0.495723 0.0652624 -0.866025
    outer loop
      vertex 214.444 27.0906 20.1003
      vertex 216.175 24.2237 20.875
      vertex 214.637 24.0213 19.9795
    endloop
  endfacet
  facet normal 0.495722 0.0652614 -0.866026
    outer loop
      vertex 216.175 24.2237 20.875
      vertex 214.444 27.0906 20.1003
      vertex 215.663 28.1106 20.875
    endloop
  endfacet
  facet normal 0.49572 0.065264 -0.866026
    outer loop
      vertex 215.663 28.1106 20.875
      vertex 214.444 27.0906 20.1003
      vertex 214.284 27.9314 20.0719
    endloop
  endfacet
  facet normal -0.991445 -0.130528 0
    outer loop
      vertex 221.38 24.909 0
      vertex 220.87 28.7868 15
      vertex 220.87 28.7868 0
    endloop
  endfacet
  facet normal -0.991445 -0.130528 0
    outer loop
      vertex 220.87 28.7868 15
      vertex 221.38 24.909 0
      vertex 221.38 24.909 15
    endloop
  endfacet
  facet normal 0 0 -1
    outer loop
      vertex 221.219 24.8878 15
      vertex 220.87 28.7868 15
      vertex 221.38 24.909 15
    endloop
  endfacet
  facet normal 0 -0 -1
    outer loop
      vertex 220.87 28.7868 15
      vertex 221.219 24.8878 15
      vertex 220.709 28.7659 15
    endloop
  endfacet
  facet normal -0.130526 -0.991445 3.49742e-07
    outer loop
      vertex 214.637 -24.0213 19.9795
      vertex 221.219 -24.8878 17.9375
      vertex 216.175 -24.2237 20.875
    endloop
  endfacet
  facet normal -0.130526 -0.991445 0
    outer loop
      vertex 214.637 -24.0213 19.9795
      vertex 221.219 -24.8878 15
      vertex 221.219 -24.8878 17.9375
    endloop
  endfacet
  facet normal -0.130526 -0.991445 0
    outer loop
      vertex 214.637 -24.0213 0
      vertex 221.219 -24.8878 15
      vertex 214.637 -24.0213 19.9795
    endloop
  endfacet
  facet normal -0.130526 -0.991445 -6.91089e-08
    outer loop
      vertex 221.38 -24.909 0
      vertex 221.219 -24.8878 15
      vertex 214.637 -24.0213 0
    endloop
  endfacet
  facet normal -0.13052 -0.991446 0
    outer loop
      vertex 221.219 -24.8878 15
      vertex 221.38 -24.909 0
      vertex 221.38 -24.909 15
    endloop
  endfacet
  facet normal -0.495722 0.0652622 -0.866025
    outer loop
      vertex 220.722 -28.6668 17.9375
      vertex 216.175 -24.2237 20.875
      vertex 221.219 -24.8878 17.9375
    endloop
  endfacet
  facet normal -0.495722 0.0652622 -0.866025
    outer loop
      vertex 216.175 -24.2237 20.875
      vertex 220.722 -28.6668 17.9375
      vertex 215.676 -28.0115 20.875
    endloop
  endfacet
  facet normal -0.991445 0.130524 0
    outer loop
      vertex 220.722 -28.6668 15
      vertex 221.219 -24.8878 17.9375
      vertex 221.219 -24.8878 15
    endloop
  endfacet
  facet normal -0.991445 0.130524 0
    outer loop
      vertex 221.219 -24.8878 17.9375
      vertex 220.722 -28.6668 15
      vertex 220.722 -28.6668 17.9375
    endloop
  endfacet
  facet normal 0.495723 -0.0652624 -0.866025
    outer loop
      vertex 214.444 -27.0906 20.1003
      vertex 216.175 -24.2237 20.875
      vertex 215.676 -28.0115 20.875
    endloop
  endfacet
  facet normal 0.495723 -0.0652624 -0.866025
    outer loop
      vertex 216.175 -24.2237 20.875
      vertex 214.444 -27.0906 20.1003
      vertex 214.637 -24.0213 19.9795
    endloop
  endfacet
  facet normal 0.495722 -0.0652652 -0.866026
    outer loop
      vertex 214.444 -27.0906 20.1003
      vertex 215.676 -28.0115 20.875
      vertex 214.302 -27.833 20.0752
    endloop
  endfacet
  facet normal -0.991445 0.130526 0
    outer loop
      vertex 220.883 -28.6876 0
      vertex 221.38 -24.909 15
      vertex 221.38 -24.909 0
    endloop
  endfacet
  facet normal -0.991445 0.130526 0
    outer loop
      vertex 221.38 -24.909 15
      vertex 220.883 -28.6876 0
      vertex 220.883 -28.6876 15
    endloop
  endfacet
  facet normal 0 0 -1
    outer loop
      vertex 220.883 -28.6876 15
      vertex 221.219 -24.8878 15
      vertex 221.38 -24.909 15
    endloop
  endfacet
  facet normal 0 0 -1
    outer loop
      vertex 221.219 -24.8878 15
      vertex 220.883 -28.6876 15
      vertex 220.722 -28.6668 15
    endloop
  endfacet
endsolid OpenSCAD_Model
