solid OpenSCAD_Model
  facet normal 0.999507 0.0314104 0
    outer loop
      vertex 257.487 0 30
      vertex 256.979 16.1678 0
      vertex 256.979 16.1678 30
    endloop
  endfacet
  facet normal 0.999507 0.0314104 0
    outer loop
      vertex 256.979 16.1678 0
      vertex 257.487 0 30
      vertex 257.487 0 0
    endloop
  endfacet
  facet normal 0 0 -1
    outer loop
      vertex 212.488 0 0
      vertex 257.487 0 0
      vertex 256.979 -16.1678 0
    endloop
  endfacet
  facet normal 0 0 -1
    outer loop
      vertex 212.068 -13.3422 0
      vertex 256.979 -16.1678 0
      vertex 255.457 -32.2717 0
    endloop
  endfacet
  facet normal 0 0 -1
    outer loop
      vertex 257.487 0 0
      vertex 212.488 0 0
      vertex 256.979 16.1678 0
    endloop
  endfacet
  facet normal 0 0 -1
    outer loop
      vertex 210.812 -26.6317 0
      vertex 255.457 -32.2717 0
      vertex 255.316 -33.1598 0
    endloop
  endfacet
  facet normal 0 0 -1
    outer loop
      vertex 212.068 13.3422 0
      vertex 256.979 16.1678 0
      vertex 212.488 0 0
    endloop
  endfacet
  facet normal -0 0 -1
    outer loop
      vertex 256.979 16.1678 0
      vertex 212.068 13.3422 0
      vertex 255.457 32.2717 0
    endloop
  endfacet
  facet normal 0 0 -1
    outer loop
      vertex 256.979 -16.1678 0
      vertex 212.068 -13.3422 0
      vertex 212.488 0 0
    endloop
  endfacet
  facet normal 0 0 -1
    outer loop
      vertex 255.457 -32.2717 0
      vertex 210.812 -26.6317 0
      vertex 212.068 -13.3422 0
    endloop
  endfacet
  facet normal 0 -0 -1
    outer loop
      vertex 210.812 -26.6317 0
      vertex 255.316 -33.1598 0
      vertex 210.696 -27.3646 0
    endloop
  endfacet
  facet normal 0 0 -1
    outer loop
      vertex 210.812 26.6317 0
      vertex 255.457 32.2717 0
      vertex 212.068 13.3422 0
    endloop
  endfacet
  facet normal -0 0 -1
    outer loop
      vertex 255.457 32.2717 0
      vertex 210.812 26.6317 0
      vertex 255.301 33.2586 0
    endloop
  endfacet
  facet normal 0 0 -1
    outer loop
      vertex 255.301 33.2586 0
      vertex 210.812 26.6317 0
      vertex 210.68 27.4634 0
    endloop
  endfacet
  facet normal 0 0 1
    outer loop
      vertex 256.979 16.1678 30
      vertex 237.019 14.912 30
      vertex 237.488 0 30
    endloop
  endfacet
  facet normal 0 0 1
    outer loop
      vertex 255.457 32.2717 30
      vertex 235.615 29.7651 30
      vertex 237.019 14.912 30
    endloop
  endfacet
  facet normal 0 -0 1
    outer loop
      vertex 235.615 29.7651 30
      vertex 255.301 33.2586 30
      vertex 235.469 30.683 30
    endloop
  endfacet
  facet normal 0 0 1
    outer loop
      vertex 237.488 0 30
      vertex 257.487 0 30
      vertex 256.979 16.1678 30
    endloop
  endfacet
  facet normal 0 0 1
    outer loop
      vertex 237.019 14.912 30
      vertex 256.979 16.1678 30
      vertex 255.457 32.2717 30
    endloop
  endfacet
  facet normal 0 0 1
    outer loop
      vertex 257.487 0 30
      vertex 237.488 0 30
      vertex 256.979 -16.1678 30
    endloop
  endfacet
  facet normal -0 0 1
    outer loop
      vertex 237.019 -14.912 30
      vertex 256.979 -16.1678 30
      vertex 237.488 0 30
    endloop
  endfacet
  facet normal 0 0 1
    outer loop
      vertex 235.615 29.7651 30
      vertex 255.457 32.2717 30
      vertex 255.301 33.2586 30
    endloop
  endfacet
  facet normal 0 0 1
    outer loop
      vertex 256.979 -16.1678 30
      vertex 237.019 -14.912 30
      vertex 255.457 -32.2717 30
    endloop
  endfacet
  facet normal -0 0 1
    outer loop
      vertex 235.615 -29.7651 30
      vertex 255.457 -32.2717 30
      vertex 237.019 -14.912 30
    endloop
  endfacet
  facet normal 0 0 1
    outer loop
      vertex 255.457 -32.2717 30
      vertex 235.615 -29.7651 30
      vertex 255.316 -33.1598 30
    endloop
  endfacet
  facet normal 0 0 1
    outer loop
      vertex 255.316 -33.1598 30
      vertex 235.615 -29.7651 30
      vertex 235.485 -30.5842 30
    endloop
  endfacet
  facet normal 0.987688 0.156438 0
    outer loop
      vertex 255.457 32.2717 30
      vertex 255.301 33.2586 0
      vertex 255.301 33.2586 30
    endloop
  endfacet
  facet normal 0.987688 0.156438 0
    outer loop
      vertex 255.301 33.2586 0
      vertex 255.457 32.2717 30
      vertex 255.457 32.2717 0
    endloop
  endfacet
  facet normal 0.995562 0.0941077 0
    outer loop
      vertex 256.979 16.1678 30
      vertex 255.457 32.2717 0
      vertex 255.457 32.2717 30
    endloop
  endfacet
  facet normal 0.995562 0.0941077 0
    outer loop
      vertex 255.457 32.2717 0
      vertex 256.979 16.1678 30
      vertex 256.979 16.1678 0
    endloop
  endfacet
  facet normal 0.999507 -0.0314104 0
    outer loop
      vertex 256.979 -16.1678 30
      vertex 257.487 0 0
      vertex 257.487 0 30
    endloop
  endfacet
  facet normal 0.999507 -0.0314104 0
    outer loop
      vertex 257.487 0 0
      vertex 256.979 -16.1678 30
      vertex 256.979 -16.1678 0
    endloop
  endfacet
  facet normal 0.987689 -0.156432 0
    outer loop
      vertex 255.316 -33.1598 30
      vertex 255.457 -32.2717 0
      vertex 255.457 -32.2717 30
    endloop
  endfacet
  facet normal 0.987689 -0.156432 0
    outer loop
      vertex 255.457 -32.2717 0
      vertex 255.316 -33.1598 30
      vertex 255.316 -33.1598 0
    endloop
  endfacet
  facet normal 0.995562 -0.0941077 0
    outer loop
      vertex 255.457 -32.2717 30
      vertex 256.979 -16.1678 0
      vertex 256.979 -16.1678 30
    endloop
  endfacet
  facet normal 0.995562 -0.0941077 0
    outer loop
      vertex 256.979 -16.1678 0
      vertex 255.457 -32.2717 30
      vertex 255.457 -32.2717 0
    endloop
  endfacet
  facet normal -0.999507 -0.0314108 0
    outer loop
      vertex 212.488 0 0
      vertex 212.068 13.3422 24
      vertex 212.068 13.3422 0
    endloop
  endfacet
  facet normal -0.999507 -0.0314108 0
    outer loop
      vertex 212.068 13.3422 24
      vertex 212.488 0 0
      vertex 212.488 0 24
    endloop
  endfacet
  facet normal -0.98769 -0.156421 0
    outer loop
      vertex 210.812 26.6317 0
      vertex 210.68 27.4634 24
      vertex 210.68 27.4634 0
    endloop
  endfacet
  facet normal -0.98769 -0.156421 0
    outer loop
      vertex 210.68 27.4634 24
      vertex 210.812 26.6317 0
      vertex 210.812 26.6317 24
    endloop
  endfacet
  facet normal -0.995562 -0.094109 0
    outer loop
      vertex 212.068 13.3422 0
      vertex 210.812 26.6317 24
      vertex 210.812 26.6317 0
    endloop
  endfacet
  facet normal -0.995562 -0.094109 0
    outer loop
      vertex 210.812 26.6317 24
      vertex 212.068 13.3422 0
      vertex 212.068 13.3422 24
    endloop
  endfacet
  facet normal -0.995562 0.094109 0
    outer loop
      vertex 210.812 -26.6317 0
      vertex 212.068 -13.3422 24
      vertex 212.068 -13.3422 0
    endloop
  endfacet
  facet normal -0.995562 0.094109 0
    outer loop
      vertex 212.068 -13.3422 24
      vertex 210.812 -26.6317 0
      vertex 210.812 -26.6317 24
    endloop
  endfacet
  facet normal -0.987689 0.156432 0
    outer loop
      vertex 210.696 -27.3646 0
      vertex 210.812 -26.6317 24
      vertex 210.812 -26.6317 0
    endloop
  endfacet
  facet normal -0.987689 0.156432 0
    outer loop
      vertex 210.812 -26.6317 24
      vertex 210.696 -27.3646 0
      vertex 210.696 -27.3646 24
    endloop
  endfacet
  facet normal -0.999507 0.0314108 0
    outer loop
      vertex 212.068 -13.3422 0
      vertex 212.488 0 24
      vertex 212.488 0 0
    endloop
  endfacet
  facet normal -0.999507 0.0314108 0
    outer loop
      vertex 212.488 0 24
      vertex 212.068 -13.3422 0
      vertex 212.068 -13.3422 24
    endloop
  endfacet
  facet normal -0.987688 -0.156438 0
    outer loop
      vertex 235.615 29.7651 24
      vertex 235.469 30.683 30
      vertex 235.469 30.683 24
    endloop
  endfacet
  facet normal -0.987688 -0.156438 0
    outer loop
      vertex 235.469 30.683 30
      vertex 235.615 29.7651 24
      vertex 235.615 29.7651 30
    endloop
  endfacet
  facet normal -0.999507 0.0314108 0
    outer loop
      vertex 237.019 -14.912 24
      vertex 237.488 0 30
      vertex 237.488 0 24
    endloop
  endfacet
  facet normal -0.999507 0.0314108 0
    outer loop
      vertex 237.488 0 30
      vertex 237.019 -14.912 24
      vertex 237.019 -14.912 30
    endloop
  endfacet
  facet normal -0.995562 -0.0941086 0
    outer loop
      vertex 237.019 14.912 24
      vertex 235.615 29.7651 30
      vertex 235.615 29.7651 24
    endloop
  endfacet
  facet normal -0.995562 -0.0941086 0
    outer loop
      vertex 235.615 29.7651 30
      vertex 237.019 14.912 24
      vertex 237.019 14.912 30
    endloop
  endfacet
  facet normal -0.999507 -0.0314108 0
    outer loop
      vertex 237.488 0 24
      vertex 237.019 14.912 30
      vertex 237.019 14.912 24
    endloop
  endfacet
  facet normal -0.999507 -0.0314108 0
    outer loop
      vertex 237.019 14.912 30
      vertex 237.488 0 24
      vertex 237.488 0 30
    endloop
  endfacet
  facet normal -0.987689 0.156432 0
    outer loop
      vertex 235.485 -30.5842 24
      vertex 235.615 -29.7651 30
      vertex 235.615 -29.7651 24
    endloop
  endfacet
  facet normal -0.987689 0.156432 0
    outer loop
      vertex 235.615 -29.7651 30
      vertex 235.485 -30.5842 24
      vertex 235.485 -30.5842 30
    endloop
  endfacet
  facet normal 0 0 1
    outer loop
      vertex 237.019 14.912 24
      vertex 212.068 13.3422 24
      vertex 212.488 0 24
    endloop
  endfacet
  facet normal 0 0 1
    outer loop
      vertex 235.615 29.7651 24
      vertex 210.812 26.6317 24
      vertex 212.068 13.3422 24
    endloop
  endfacet
  facet normal 0 -0 1
    outer loop
      vertex 210.812 26.6317 24
      vertex 235.469 30.683 24
      vertex 210.68 27.4634 24
    endloop
  endfacet
  facet normal 0 0 1
    outer loop
      vertex 212.488 0 24
      vertex 237.488 0 24
      vertex 237.019 14.912 24
    endloop
  endfacet
  facet normal 0 0 1
    outer loop
      vertex 212.068 13.3422 24
      vertex 237.019 14.912 24
      vertex 235.615 29.7651 24
    endloop
  endfacet
  facet normal 0 0 1
    outer loop
      vertex 237.488 0 24
      vertex 212.488 0 24
      vertex 237.019 -14.912 24
    endloop
  endfacet
  facet normal -0 0 1
    outer loop
      vertex 212.068 -13.3422 24
      vertex 237.019 -14.912 24
      vertex 212.488 0 24
    endloop
  endfacet
  facet normal 0 0 1
    outer loop
      vertex 210.812 26.6317 24
      vertex 235.615 29.7651 24
      vertex 235.469 30.683 24
    endloop
  endfacet
  facet normal 0 0 1
    outer loop
      vertex 237.019 -14.912 24
      vertex 212.068 -13.3422 24
      vertex 235.615 -29.7651 24
    endloop
  endfacet
  facet normal -0 0 1
    outer loop
      vertex 210.812 -26.6317 24
      vertex 235.615 -29.7651 24
      vertex 212.068 -13.3422 24
    endloop
  endfacet
  facet normal 0 0 1
    outer loop
      vertex 235.615 -29.7651 24
      vertex 210.812 -26.6317 24
      vertex 235.485 -30.5842 24
    endloop
  endfacet
  facet normal 0 0 1
    outer loop
      vertex 235.485 -30.5842 24
      vertex 210.812 -26.6317 24
      vertex 210.696 -27.3646 24
    endloop
  endfacet
  facet normal -0.995562 0.0941086 0
    outer loop
      vertex 235.615 -29.7651 24
      vertex 237.019 -14.912 30
      vertex 237.019 -14.912 24
    endloop
  endfacet
  facet normal -0.995562 0.0941086 0
    outer loop
      vertex 237.019 -14.912 30
      vertex 235.615 -29.7651 24
      vertex 235.615 -29.7651 30
    endloop
  endfacet
  facet normal -0.128796 0.991671 1.31539e-08
    outer loop
      vertex 246.094 32.0628 17.5597
      vertex 235.469 30.683 30
      vertex 255.301 33.2586 30
    endloop
  endfacet
  facet normal -0.128796 0.991671 2.05884e-07
    outer loop
      vertex 235.469 30.683 24
      vertex 216.12 28.1699 17.6097
      vertex 210.68 27.4634 24
    endloop
  endfacet
  facet normal -0.128796 0.991671 0
    outer loop
      vertex 235.469 30.683 30
      vertex 246.094 32.0628 17.5597
      vertex 235.469 30.683 24
    endloop
  endfacet
  facet normal -0.128796 0.991671 -1.05885e-06
    outer loop
      vertex 235.469 30.683 24
      vertex 246.094 32.0628 17.5597
      vertex 244.303 31.8302 17.4017
    endloop
  endfacet
  facet normal -0.128796 0.991671 3.66086e-07
    outer loop
      vertex 255.301 33.2586 30
      vertex 247.566 32.2541 16.52
      vertex 246.094 32.0628 17.5597
    endloop
  endfacet
  facet normal -0.128795 0.991671 -5.12212e-07
    outer loop
      vertex 255.301 33.2586 30
      vertex 248.031 32.3145 14.769
      vertex 247.566 32.2541 16.52
    endloop
  endfacet
  facet normal -0.128796 0.991671 0
    outer loop
      vertex 255.301 33.2586 0
      vertex 248.031 32.3145 14.769
      vertex 255.301 33.2586 30
    endloop
  endfacet
  facet normal -0.128796 0.991671 -4.40103e-07
    outer loop
      vertex 247.272 32.2158 13.1262
      vertex 255.301 33.2586 0
      vertex 245.643 32.0042 12.3601
    endloop
  endfacet
  facet normal -0.128796 0.991671 -2.04814e-07
    outer loop
      vertex 248.031 32.3145 14.769
      vertex 255.301 33.2586 0
      vertex 247.272 32.2158 13.1262
    endloop
  endfacet
  facet normal -0.128797 0.991671 -7.23555e-07
    outer loop
      vertex 214.349 27.94 17.295
      vertex 210.68 27.4634 24
      vertex 216.12 28.1699 17.6097
    endloop
  endfacet
  facet normal -0.128795 0.991671 3.13587e-07
    outer loop
      vertex 213.194 27.7899 15.9064
      vertex 210.68 27.4634 24
      vertex 214.349 27.94 17.295
    endloop
  endfacet
  facet normal -0.128796 0.991671 0
    outer loop
      vertex 213.194 27.7899 14.0936
      vertex 210.68 27.4634 24
      vertex 213.194 27.7899 15.9064
    endloop
  endfacet
  facet normal -0.128796 0.991671 6.01277e-08
    outer loop
      vertex 210.68 27.4634 0
      vertex 243.906 31.7787 12.8292
      vertex 255.301 33.2586 0
    endloop
  endfacet
  facet normal -0.128796 0.991671 -1.23078e-07
    outer loop
      vertex 243.906 31.7787 12.8292
      vertex 210.68 27.4634 0
      vertex 216.12 28.1699 12.3903
    endloop
  endfacet
  facet normal -0.128796 0.991671 0
    outer loop
      vertex 213.194 27.7899 14.0936
      vertex 210.68 27.4634 0
      vertex 210.68 27.4634 24
    endloop
  endfacet
  facet normal -0.128795 0.991671 -2.03649e-07
    outer loop
      vertex 214.349 27.94 12.705
      vertex 210.68 27.4634 0
      vertex 213.194 27.7899 14.0936
    endloop
  endfacet
  facet normal -0.128797 0.991671 3.98543e-07
    outer loop
      vertex 216.12 28.1699 12.3903
      vertex 210.68 27.4634 0
      vertex 214.349 27.94 12.705
    endloop
  endfacet
  facet normal -0.128796 0.991671 -5.73281e-07
    outer loop
      vertex 243.032 31.6652 16.1199
      vertex 235.469 30.683 24
      vertex 244.303 31.8302 17.4017
    endloop
  endfacet
  facet normal -0.128795 0.991671 -1.08479e-06
    outer loop
      vertex 235.469 30.683 24
      vertex 217.676 28.3721 16.7034
      vertex 216.12 28.1699 17.6097
    endloop
  endfacet
  facet normal -0.128795 0.991671 5.99129e-07
    outer loop
      vertex 242.875 31.6448 14.3141
      vertex 235.469 30.683 24
      vertex 243.032 31.6652 16.1199
    endloop
  endfacet
  facet normal -0.128796 0.991671 -1.75747e-07
    outer loop
      vertex 235.469 30.683 24
      vertex 218.291 28.4519 15
      vertex 217.676 28.3721 16.7034
    endloop
  endfacet
  facet normal -0.128796 0.991671 -5.97974e-08
    outer loop
      vertex 235.469 30.683 24
      vertex 242.875 31.6448 14.3141
      vertex 218.291 28.4519 15
    endloop
  endfacet
  facet normal -0.128796 0.991671 1.95107e-07
    outer loop
      vertex 242.875 31.6448 14.3141
      vertex 217.676 28.3721 13.2966
      vertex 218.291 28.4519 15
    endloop
  endfacet
  facet normal -0.128796 0.991671 5.46061e-07
    outer loop
      vertex 243.906 31.7787 12.8292
      vertex 217.676 28.3721 13.2966
      vertex 242.875 31.6448 14.3141
    endloop
  endfacet
  facet normal -0.128796 0.991671 1.8031e-06
    outer loop
      vertex 243.906 31.7787 12.8292
      vertex 216.12 28.1699 12.3903
      vertex 217.676 28.3721 13.2966
    endloop
  endfacet
  facet normal -0.128794 0.991671 1.49206e-06
    outer loop
      vertex 255.301 33.2586 0
      vertex 243.906 31.7787 12.8292
      vertex 245.643 32.0042 12.3601
    endloop
  endfacet
  facet normal -0.128795 -0.991671 3.7807e-07
    outer loop
      vertex 235.485 -30.5842 24
      vertex 244.316 -31.7311 17.4017
      vertex 246.107 -31.9637 17.5597
    endloop
  endfacet
  facet normal -0.128796 -0.991671 8.16999e-07
    outer loop
      vertex 218.304 -28.3528 15
      vertex 235.485 -30.5842 24
      vertex 217.69 -28.2729 16.7034
    endloop
  endfacet
  facet normal -0.128796 -0.991671 -4.91211e-07
    outer loop
      vertex 235.485 -30.5842 24
      vertex 243.045 -31.566 16.1199
      vertex 244.316 -31.7311 17.4017
    endloop
  endfacet
  facet normal -0.128796 -0.991671 7.43278e-08
    outer loop
      vertex 242.888 -31.5457 14.3141
      vertex 235.485 -30.5842 24
      vertex 218.304 -28.3528 15
    endloop
  endfacet
  facet normal -0.128795 -0.991671 6.12487e-07
    outer loop
      vertex 235.485 -30.5842 24
      vertex 242.888 -31.5457 14.3141
      vertex 243.045 -31.566 16.1199
    endloop
  endfacet
  facet normal -0.128796 -0.991671 -9.47131e-07
    outer loop
      vertex 217.69 -28.2729 13.2966
      vertex 242.888 -31.5457 14.3141
      vertex 218.304 -28.3528 15
    endloop
  endfacet
  facet normal -0.128796 -0.991671 4.93384e-07
    outer loop
      vertex 217.69 -28.2729 13.2966
      vertex 243.919 -31.6796 12.8292
      vertex 242.888 -31.5457 14.3141
    endloop
  endfacet
  facet normal -0.128796 -0.991671 2.38268e-07
    outer loop
      vertex 210.696 -27.3646 0
      vertex 217.69 -28.2729 13.2966
      vertex 216.133 -28.0707 12.3903
    endloop
  endfacet
  facet normal -0.128796 -0.991671 1.33459e-07
    outer loop
      vertex 217.69 -28.2729 13.2966
      vertex 210.696 -27.3646 0
      vertex 243.919 -31.6796 12.8292
    endloop
  endfacet
  facet normal -0.128796 -0.991671 -2.07706e-07
    outer loop
      vertex 210.696 -27.3646 24
      vertex 216.133 -28.0707 17.6097
      vertex 235.485 -30.5842 24
    endloop
  endfacet
  facet normal -0.128795 -0.991671 5.25365e-07
    outer loop
      vertex 210.696 -27.3646 24
      vertex 214.362 -27.8408 17.295
      vertex 216.133 -28.0707 17.6097
    endloop
  endfacet
  facet normal -0.128795 -0.991671 4.21181e-07
    outer loop
      vertex 210.696 -27.3646 24
      vertex 213.207 -27.6908 15.9064
      vertex 214.362 -27.8408 17.295
    endloop
  endfacet
  facet normal -0.128796 -0.991671 0
    outer loop
      vertex 210.696 -27.3646 24
      vertex 213.207 -27.6908 14.0936
      vertex 213.207 -27.6908 15.9064
    endloop
  endfacet
  facet normal -0.128796 -0.991671 -1.47286e-07
    outer loop
      vertex 255.316 -33.1598 0
      vertex 243.919 -31.6796 12.8292
      vertex 210.696 -27.3646 0
    endloop
  endfacet
  facet normal -0.128795 -0.991671 -2.89369e-07
    outer loop
      vertex 214.362 -27.8408 12.705
      vertex 210.696 -27.3646 0
      vertex 216.133 -28.0707 12.3903
    endloop
  endfacet
  facet normal -0.128795 -0.991671 -2.73496e-07
    outer loop
      vertex 213.207 -27.6908 14.0936
      vertex 210.696 -27.3646 0
      vertex 214.362 -27.8408 12.705
    endloop
  endfacet
  facet normal -0.128796 -0.991671 0
    outer loop
      vertex 210.696 -27.3646 0
      vertex 213.207 -27.6908 14.0936
      vertex 210.696 -27.3646 24
    endloop
  endfacet
  facet normal -0.128796 -0.991671 0
    outer loop
      vertex 246.107 -31.9637 17.5597
      vertex 235.485 -30.5842 30
      vertex 235.485 -30.5842 24
    endloop
  endfacet
  facet normal -0.128796 -0.991671 1.00356e-07
    outer loop
      vertex 217.69 -28.2729 16.7034
      vertex 235.485 -30.5842 24
      vertex 216.133 -28.0707 17.6097
    endloop
  endfacet
  facet normal -0.128796 -0.991671 4.47599e-08
    outer loop
      vertex 235.485 -30.5842 30
      vertex 246.107 -31.9637 17.5597
      vertex 255.316 -33.1598 30
    endloop
  endfacet
  facet normal -0.128796 -0.991671 4.08908e-07
    outer loop
      vertex 247.579 -32.1549 16.52
      vertex 255.316 -33.1598 30
      vertex 246.107 -31.9637 17.5597
    endloop
  endfacet
  facet normal -0.128795 -0.991671 -4.84158e-07
    outer loop
      vertex 248.045 -32.2154 14.769
      vertex 255.316 -33.1598 30
      vertex 247.579 -32.1549 16.52
    endloop
  endfacet
  facet normal -0.128795 -0.991671 3.72756e-07
    outer loop
      vertex 255.316 -33.1598 0
      vertex 248.045 -32.2154 14.769
      vertex 247.285 -32.1167 13.1262
    endloop
  endfacet
  facet normal -0.128796 -0.991671 0
    outer loop
      vertex 248.045 -32.2154 14.769
      vertex 255.316 -33.1598 0
      vertex 255.316 -33.1598 30
    endloop
  endfacet
  facet normal -0.128796 -0.991671 -7.57023e-08
    outer loop
      vertex 245.656 -31.9051 12.3601
      vertex 255.316 -33.1598 0
      vertex 247.285 -32.1167 13.1262
    endloop
  endfacet
  facet normal -0.128796 -0.991671 -1.05322e-07
    outer loop
      vertex 243.919 -31.6796 12.8292
      vertex 255.316 -33.1598 0
      vertex 245.656 -31.9051 12.3601
    endloop
  endfacet
  facet normal -0.931653 -0.122653 0.342022
    outer loop
      vertex 221.412 0 13.2966
      vertex 222.17 -1.00964 15
      vertex 222.037 0 15
    endloop
  endfacet
  facet normal -0.931653 -0.12265 0.342024
    outer loop
      vertex 222.17 -1.00964 15
      vertex 221.412 0 13.2966
      vertex 221.555 -1.09056 13.2966
    endloop
  endfacet
  facet normal -0.931653 -0.122655 0.342022
    outer loop
      vertex 221.263 1.12903 13.2966
      vertex 218.291 28.4519 15
      vertex 217.676 28.3721 13.2966
    endloop
  endfacet
  facet normal -0.931655 -0.122655 0.342016
    outer loop
      vertex 218.291 28.4519 15
      vertex 221.263 1.12903 13.2966
      vertex 221.899 1.04525 15
    endloop
  endfacet
  facet normal 0.991445 0.130526 0
    outer loop
      vertex 216.853 0 15.9064
      vertex 213.194 27.7899 14.0936
      vertex 213.194 27.7899 15.9064
    endloop
  endfacet
  facet normal 0.991445 0.130526 0
    outer loop
      vertex 213.194 27.7899 14.0936
      vertex 216.853 0 15.9064
      vertex 216.853 0 14.0936
    endloop
  endfacet
  facet normal -0.13053 0.991444 -6.03023e-06
    outer loop
      vertex 221.263 -1.12903 16.7034
      vertex 219.999 -1.29547 17.6097
      vertex 221.555 -1.09056 16.7034
    endloop
  endfacet
  facet normal -0.130526 0.991445 2.02298e-07
    outer loop
      vertex 219.999 -1.29547 17.6097
      vertex 221.263 -1.12903 16.7034
      vertex 219.735 -1.33019 17.5628
    endloop
  endfacet
  facet normal -0.130523 0.991445 8.02542e-07
    outer loop
      vertex 221.899 -1.04525 15
      vertex 221.555 -1.09056 16.7034
      vertex 222.17 -1.00964 15
    endloop
  endfacet
  facet normal -0.13053 0.991444 -7.92467e-07
    outer loop
      vertex 221.555 -1.09056 16.7034
      vertex 221.899 -1.04525 15
      vertex 221.263 -1.12903 16.7034
    endloop
  endfacet
  facet normal -0.130523 0.991445 -8.02542e-07
    outer loop
      vertex 221.555 -1.09056 13.2966
      vertex 221.899 -1.04525 15
      vertex 222.17 -1.00964 15
    endloop
  endfacet
  facet normal -0.13053 0.991444 7.92467e-07
    outer loop
      vertex 221.555 -1.09056 13.2966
      vertex 221.263 -1.12903 13.2966
      vertex 221.899 -1.04525 15
    endloop
  endfacet
  facet normal -0.13053 0.991444 6.03022e-06
    outer loop
      vertex 219.999 -1.29547 12.3903
      vertex 221.263 -1.12903 13.2966
      vertex 221.555 -1.09056 13.2966
    endloop
  endfacet
  facet normal -0.130526 0.991445 -2.02297e-07
    outer loop
      vertex 221.263 -1.12903 13.2966
      vertex 219.999 -1.29547 12.3903
      vertex 219.735 -1.33019 12.4372
    endloop
  endfacet
  facet normal 0.172163 0.0226671 0.984808
    outer loop
      vertex 219.999 -1.29547 12.3903
      vertex 219.828 0 12.3903
      vertex 219.735 -1.33019 12.4372
    endloop
  endfacet
  facet normal 0.172163 0.0226657 0.984808
    outer loop
      vertex 216.12 28.1699 12.3903
      vertex 218.028 0 12.705
      vertex 219.828 0 12.3903
    endloop
  endfacet
  facet normal 0.172163 0.0226657 0.984808
    outer loop
      vertex 218.028 0 12.705
      vertex 216.12 28.1699 12.3903
      vertex 214.349 27.94 12.705
    endloop
  endfacet
  facet normal -0.495725 -0.0652611 0.866024
    outer loop
      vertex 221.412 0 13.2966
      vertex 219.999 -1.29547 12.3903
      vertex 221.555 -1.09056 13.2966
    endloop
  endfacet
  facet normal -0.495721 -0.0652672 0.866026
    outer loop
      vertex 219.999 -1.29547 12.3903
      vertex 221.412 0 13.2966
      vertex 219.828 0 12.3903
    endloop
  endfacet
  facet normal -0.495722 -0.0652632 0.866026
    outer loop
      vertex 221.263 1.12903 13.2966
      vertex 217.676 28.3721 13.2966
      vertex 219.735 1.33019 12.4372
    endloop
  endfacet
  facet normal -0.495723 -0.0652633 0.866025
    outer loop
      vertex 216.12 28.1699 12.3903
      vertex 219.735 1.33019 12.4372
      vertex 217.676 28.3721 13.2966
    endloop
  endfacet
  facet normal -0.495676 -0.065257 0.866052
    outer loop
      vertex 219.735 1.33019 12.4372
      vertex 216.12 28.1699 12.3903
      vertex 219.828 0 12.3903
    endloop
  endfacet
  facet normal 0.759493 0.0999893 0.642785
    outer loop
      vertex 218.028 0 12.705
      vertex 213.194 27.7899 14.0936
      vertex 216.853 0 14.0936
    endloop
  endfacet
  facet normal 0.75949 0.0999885 0.642789
    outer loop
      vertex 213.194 27.7899 14.0936
      vertex 218.028 0 12.705
      vertex 214.349 27.94 12.705
    endloop
  endfacet
  facet normal -0.495724 -0.0652611 -0.866024
    outer loop
      vertex 219.999 -1.29547 17.6097
      vertex 221.412 0 16.7034
      vertex 221.555 -1.09056 16.7034
    endloop
  endfacet
  facet normal -0.49572 -0.0652671 -0.866026
    outer loop
      vertex 221.412 0 16.7034
      vertex 219.999 -1.29547 17.6097
      vertex 219.828 0 17.6097
    endloop
  endfacet
  facet normal -0.495669 -0.065256 -0.866057
    outer loop
      vertex 216.12 28.1699 17.6097
      vertex 219.735 1.33019 17.5628
      vertex 219.828 0 17.6097
    endloop
  endfacet
  facet normal -0.495722 -0.0652632 -0.866026
    outer loop
      vertex 219.735 1.33019 17.5628
      vertex 216.12 28.1699 17.6097
      vertex 217.676 28.3721 16.7034
    endloop
  endfacet
  facet normal -0.495722 -0.0652632 -0.866026
    outer loop
      vertex 221.263 1.12903 16.7034
      vertex 219.735 1.33019 17.5628
      vertex 217.676 28.3721 16.7034
    endloop
  endfacet
  facet normal 0.759489 0.0999885 -0.642789
    outer loop
      vertex 218.028 0 17.295
      vertex 213.194 27.7899 15.9064
      vertex 214.349 27.94 17.295
    endloop
  endfacet
  facet normal 0.759493 0.0999893 -0.642785
    outer loop
      vertex 213.194 27.7899 15.9064
      vertex 218.028 0 17.295
      vertex 216.853 0 15.9064
    endloop
  endfacet
  facet normal -0.931653 -0.122653 -0.342022
    outer loop
      vertex 222.17 -1.00964 15
      vertex 221.412 0 16.7034
      vertex 222.037 0 15
    endloop
  endfacet
  facet normal -0.931653 -0.12265 -0.342024
    outer loop
      vertex 221.412 0 16.7034
      vertex 222.17 -1.00964 15
      vertex 221.555 -1.09056 16.7034
    endloop
  endfacet
  facet normal -0.931653 -0.122655 -0.342022
    outer loop
      vertex 218.291 28.4519 15
      vertex 221.263 1.12903 16.7034
      vertex 217.676 28.3721 16.7034
    endloop
  endfacet
  facet normal -0.931655 -0.122655 -0.342016
    outer loop
      vertex 221.263 1.12903 16.7034
      vertex 218.291 28.4519 15
      vertex 221.899 1.04525 15
    endloop
  endfacet
  facet normal 0.172159 0.0226667 -0.984808
    outer loop
      vertex 219.828 0 17.6097
      vertex 219.999 -1.29547 17.6097
      vertex 219.735 -1.33019 17.5628
    endloop
  endfacet
  facet normal 0.172163 0.0226657 -0.984808
    outer loop
      vertex 218.028 0 17.295
      vertex 216.12 28.1699 17.6097
      vertex 219.828 0 17.6097
    endloop
  endfacet
  facet normal 0.172163 0.0226657 -0.984808
    outer loop
      vertex 216.12 28.1699 17.6097
      vertex 218.028 0 17.295
      vertex 214.349 27.94 17.295
    endloop
  endfacet
  facet normal -0.419002 -0.0551626 0.906308
    outer loop
      vertex 247.272 32.2158 13.1262
      vertex 249.515 2.5904 12.3601
      vertex 251.144 2.80484 13.1262
    endloop
  endfacet
  facet normal -0.419001 -0.0551625 0.906309
    outer loop
      vertex 249.515 2.5904 12.3601
      vertex 247.272 32.2158 13.1262
      vertex 245.643 32.0042 12.3601
    endloop
  endfacet
  facet normal 0.701057 0.0922958 -0.707107
    outer loop
      vertex 246.905 2.24677 16.1199
      vertex 244.303 31.8302 17.4017
      vertex 248.176 2.41407 17.4017
    endloop
  endfacet
  facet normal 0.701057 0.0922959 -0.707107
    outer loop
      vertex 244.303 31.8302 17.4017
      vertex 246.905 2.24677 16.1199
      vertex 243.032 31.6652 16.1199
    endloop
  endfacet
  facet normal -0.130526 0.991445 1.46504e-06
    outer loop
      vertex 251.438 2.8436 16.52
      vertex 248.176 2.41407 17.4017
      vertex 249.966 2.64978 17.5597
    endloop
  endfacet
  facet normal -0.130526 0.991445 4.83459e-07
    outer loop
      vertex 251.438 2.8436 16.52
      vertex 246.905 2.24677 16.1199
      vertex 248.176 2.41407 17.4017
    endloop
  endfacet
  facet normal -0.130526 0.991445 -1.81896e-07
    outer loop
      vertex 251.903 2.90483 14.769
      vertex 246.905 2.24677 16.1199
      vertex 251.438 2.8436 16.52
    endloop
  endfacet
  facet normal -0.130526 0.991445 7.64983e-07
    outer loop
      vertex 251.903 2.90483 14.769
      vertex 246.748 2.22615 14.3141
      vertex 246.905 2.24677 16.1199
    endloop
  endfacet
  facet normal -0.130526 0.991445 -5.43966e-07
    outer loop
      vertex 251.144 2.80484 13.1262
      vertex 246.748 2.22615 14.3141
      vertex 251.903 2.90483 14.769
    endloop
  endfacet
  facet normal -0.130526 0.991445 -7.58386e-07
    outer loop
      vertex 251.144 2.80484 13.1262
      vertex 247.779 2.36186 12.8292
      vertex 246.748 2.22615 14.3141
    endloop
  endfacet
  facet normal -0.130526 0.991445 5.97403e-08
    outer loop
      vertex 247.779 2.36186 12.8292
      vertex 251.144 2.80484 13.1262
      vertex 249.515 2.5904 12.3601
    endloop
  endfacet
  facet normal 0.812144 0.106921 0.573576
    outer loop
      vertex 242.875 31.6448 14.3141
      vertex 247.779 2.36186 12.8292
      vertex 243.906 31.7787 12.8292
    endloop
  endfacet
  facet normal 0.812142 0.10692 0.573579
    outer loop
      vertex 247.779 2.36186 12.8292
      vertex 242.875 31.6448 14.3141
      vertex 246.748 2.22615 14.3141
    endloop
  endfacet
  facet normal 0.256604 0.0337826 0.965926
    outer loop
      vertex 245.643 32.0042 12.3601
      vertex 247.779 2.36186 12.8292
      vertex 249.515 2.5904 12.3601
    endloop
  endfacet
  facet normal 0.256604 0.0337826 0.965926
    outer loop
      vertex 247.779 2.36186 12.8292
      vertex 245.643 32.0042 12.3601
      vertex 243.906 31.7787 12.8292
    endloop
  endfacet
  facet normal 0.987672 0.130029 -0.0871585
    outer loop
      vertex 246.905 2.24677 16.1199
      vertex 242.875 31.6448 14.3141
      vertex 243.032 31.6652 16.1199
    endloop
  endfacet
  facet normal 0.987672 0.130029 -0.0871615
    outer loop
      vertex 242.875 31.6448 14.3141
      vertex 246.905 2.24677 16.1199
      vertex 246.748 2.22615 14.3141
    endloop
  endfacet
  facet normal -0.957662 -0.126079 -0.258819
    outer loop
      vertex 251.903 2.90483 14.769
      vertex 247.566 32.2541 16.52
      vertex 248.031 32.3145 14.769
    endloop
  endfacet
  facet normal -0.957662 -0.126079 -0.258819
    outer loop
      vertex 247.566 32.2541 16.52
      vertex 251.903 2.90483 14.769
      vertex 251.438 2.8436 16.52
    endloop
  endfacet
  facet normal 0.08641 0.0113761 -0.996195
    outer loop
      vertex 248.176 2.41407 17.4017
      vertex 246.094 32.0628 17.5597
      vertex 249.966 2.64978 17.5597
    endloop
  endfacet
  facet normal 0.08641 0.0113761 -0.996195
    outer loop
      vertex 246.094 32.0628 17.5597
      vertex 248.176 2.41407 17.4017
      vertex 244.303 31.8302 17.4017
    endloop
  endfacet
  facet normal -0.898557 -0.118297 0.422612
    outer loop
      vertex 247.272 32.2158 13.1262
      vertex 251.903 2.90483 14.769
      vertex 248.031 32.3145 14.769
    endloop
  endfacet
  facet normal -0.898556 -0.118297 0.422615
    outer loop
      vertex 251.903 2.90483 14.769
      vertex 247.272 32.2158 13.1262
      vertex 251.144 2.80484 13.1262
    endloop
  endfacet
  facet normal -0.568672 -0.074867 -0.81915
    outer loop
      vertex 249.966 2.64978 17.5597
      vertex 247.566 32.2541 16.52
      vertex 251.438 2.8436 16.52
    endloop
  endfacet
  facet normal -0.568672 -0.0748671 -0.81915
    outer loop
      vertex 247.566 32.2541 16.52
      vertex 249.966 2.64978 17.5597
      vertex 246.094 32.0628 17.5597
    endloop
  endfacet
  facet normal -0.931653 0.12265 0.342024
    outer loop
      vertex 221.412 0 13.2966
      vertex 222.17 1.00964 15
      vertex 221.555 1.09056 13.2966
    endloop
  endfacet
  facet normal -0.931653 0.122653 0.342022
    outer loop
      vertex 222.17 1.00964 15
      vertex 221.412 0 13.2966
      vertex 222.037 0 15
    endloop
  endfacet
  facet normal -0.931655 0.122655 0.342016
    outer loop
      vertex 217.69 -28.2729 13.2966
      vertex 221.899 -1.04525 15
      vertex 221.263 -1.12903 13.2966
    endloop
  endfacet
  facet normal -0.931655 0.122655 0.342014
    outer loop
      vertex 221.899 -1.04525 15
      vertex 217.69 -28.2729 13.2966
      vertex 218.304 -28.3528 15
    endloop
  endfacet
  facet normal 0.991445 -0.130527 0
    outer loop
      vertex 213.207 -27.6908 15.9064
      vertex 216.853 0 14.0936
      vertex 216.853 0 15.9064
    endloop
  endfacet
  facet normal 0.991445 -0.130527 0
    outer loop
      vertex 216.853 0 14.0936
      vertex 213.207 -27.6908 15.9064
      vertex 213.207 -27.6908 14.0936
    endloop
  endfacet
  facet normal -0.130526 -0.991445 2.02298e-07
    outer loop
      vertex 221.263 1.12903 16.7034
      vertex 219.999 1.29547 17.6097
      vertex 219.735 1.33019 17.5628
    endloop
  endfacet
  facet normal -0.13053 -0.991444 -6.03023e-06
    outer loop
      vertex 221.263 1.12903 16.7034
      vertex 221.555 1.09056 16.7034
      vertex 219.999 1.29547 17.6097
    endloop
  endfacet
  facet normal -0.13053 -0.991444 -7.92467e-07
    outer loop
      vertex 221.899 1.04525 15
      vertex 221.555 1.09056 16.7034
      vertex 221.263 1.12903 16.7034
    endloop
  endfacet
  facet normal -0.130523 -0.991445 8.02542e-07
    outer loop
      vertex 221.899 1.04525 15
      vertex 222.17 1.00964 15
      vertex 221.555 1.09056 16.7034
    endloop
  endfacet
  facet normal -0.13053 -0.991444 7.92467e-07
    outer loop
      vertex 221.555 1.09056 13.2966
      vertex 221.899 1.04525 15
      vertex 221.263 1.12903 13.2966
    endloop
  endfacet
  facet normal -0.130523 -0.991445 -8.02542e-07
    outer loop
      vertex 221.899 1.04525 15
      vertex 221.555 1.09056 13.2966
      vertex 222.17 1.00964 15
    endloop
  endfacet
  facet normal -0.130526 -0.991445 -2.02297e-07
    outer loop
      vertex 219.999 1.29547 12.3903
      vertex 221.263 1.12903 13.2966
      vertex 219.735 1.33019 12.4372
    endloop
  endfacet
  facet normal -0.13053 -0.991444 6.03022e-06
    outer loop
      vertex 221.263 1.12903 13.2966
      vertex 219.999 1.29547 12.3903
      vertex 221.555 1.09056 13.2966
    endloop
  endfacet
  facet normal 0.172163 -0.0226671 0.984808
    outer loop
      vertex 219.999 1.29547 12.3903
      vertex 219.735 1.33019 12.4372
      vertex 219.828 0 12.3903
    endloop
  endfacet
  facet normal 0.172163 -0.0226656 0.984808
    outer loop
      vertex 218.028 0 12.705
      vertex 216.133 -28.0707 12.3903
      vertex 219.828 0 12.3903
    endloop
  endfacet
  facet normal 0.172162 -0.0226656 0.984808
    outer loop
      vertex 216.133 -28.0707 12.3903
      vertex 218.028 0 12.705
      vertex 214.362 -27.8408 12.705
    endloop
  endfacet
  facet normal -0.495725 0.0652611 0.866024
    outer loop
      vertex 219.999 1.29547 12.3903
      vertex 221.412 0 13.2966
      vertex 221.555 1.09056 13.2966
    endloop
  endfacet
  facet normal -0.495721 0.0652672 0.866026
    outer loop
      vertex 221.412 0 13.2966
      vertex 219.999 1.29547 12.3903
      vertex 219.828 0 12.3903
    endloop
  endfacet
  facet normal -0.495678 0.0652571 0.866051
    outer loop
      vertex 216.133 -28.0707 12.3903
      vertex 219.735 -1.33019 12.4372
      vertex 219.828 0 12.3903
    endloop
  endfacet
  facet normal -0.495723 0.0652631 0.866025
    outer loop
      vertex 219.735 -1.33019 12.4372
      vertex 216.133 -28.0707 12.3903
      vertex 217.69 -28.2729 13.2966
    endloop
  endfacet
  facet normal -0.495722 0.0652631 0.866026
    outer loop
      vertex 221.263 -1.12903 13.2966
      vertex 219.735 -1.33019 12.4372
      vertex 217.69 -28.2729 13.2966
    endloop
  endfacet
  facet normal 0.759493 -0.0999895 0.642785
    outer loop
      vertex 213.207 -27.6908 14.0936
      vertex 218.028 0 12.705
      vertex 216.853 0 14.0936
    endloop
  endfacet
  facet normal 0.75949 -0.0999887 0.642789
    outer loop
      vertex 218.028 0 12.705
      vertex 213.207 -27.6908 14.0936
      vertex 214.362 -27.8408 12.705
    endloop
  endfacet
  facet normal -0.495724 0.0652611 -0.866024
    outer loop
      vertex 221.412 0 16.7034
      vertex 219.999 1.29547 17.6097
      vertex 221.555 1.09056 16.7034
    endloop
  endfacet
  facet normal -0.49572 0.0652671 -0.866026
    outer loop
      vertex 219.999 1.29547 17.6097
      vertex 221.412 0 16.7034
      vertex 219.828 0 17.6097
    endloop
  endfacet
  facet normal -0.495722 0.0652631 -0.866026
    outer loop
      vertex 221.263 -1.12903 16.7034
      vertex 217.69 -28.2729 16.7034
      vertex 219.735 -1.33019 17.5628
    endloop
  endfacet
  facet normal -0.495722 0.0652631 -0.866026
    outer loop
      vertex 216.133 -28.0707 17.6097
      vertex 219.735 -1.33019 17.5628
      vertex 217.69 -28.2729 16.7034
    endloop
  endfacet
  facet normal -0.495671 0.0652561 -0.866056
    outer loop
      vertex 219.735 -1.33019 17.5628
      vertex 216.133 -28.0707 17.6097
      vertex 219.828 0 17.6097
    endloop
  endfacet
  facet normal 0.759493 -0.0999894 -0.642785
    outer loop
      vertex 218.028 0 17.295
      vertex 213.207 -27.6908 15.9064
      vertex 216.853 0 15.9064
    endloop
  endfacet
  facet normal 0.759489 -0.0999887 -0.642789
    outer loop
      vertex 213.207 -27.6908 15.9064
      vertex 218.028 0 17.295
      vertex 214.362 -27.8408 17.295
    endloop
  endfacet
  facet normal -0.931653 0.122653 -0.342022
    outer loop
      vertex 221.412 0 16.7034
      vertex 222.17 1.00964 15
      vertex 222.037 0 15
    endloop
  endfacet
  facet normal -0.931653 0.12265 -0.342024
    outer loop
      vertex 222.17 1.00964 15
      vertex 221.412 0 16.7034
      vertex 221.555 1.09056 16.7034
    endloop
  endfacet
  facet normal -0.931655 0.122655 -0.342016
    outer loop
      vertex 221.899 -1.04525 15
      vertex 217.69 -28.2729 16.7034
      vertex 221.263 -1.12903 16.7034
    endloop
  endfacet
  facet normal -0.931655 0.122655 -0.342014
    outer loop
      vertex 217.69 -28.2729 16.7034
      vertex 221.899 -1.04525 15
      vertex 218.304 -28.3528 15
    endloop
  endfacet
  facet normal 0.172159 -0.0226667 -0.984808
    outer loop
      vertex 219.828 0 17.6097
      vertex 219.735 1.33019 17.5628
      vertex 219.999 1.29547 17.6097
    endloop
  endfacet
  facet normal 0.172163 -0.0226656 -0.984808
    outer loop
      vertex 216.133 -28.0707 17.6097
      vertex 218.028 0 17.295
      vertex 219.828 0 17.6097
    endloop
  endfacet
  facet normal 0.172162 -0.0226656 -0.984808
    outer loop
      vertex 218.028 0 17.295
      vertex 216.133 -28.0707 17.6097
      vertex 214.362 -27.8408 17.295
    endloop
  endfacet
  facet normal -0.419002 0.0551627 0.906308
    outer loop
      vertex 249.515 -2.5904 12.3601
      vertex 247.285 -32.1167 13.1262
      vertex 251.144 -2.80484 13.1262
    endloop
  endfacet
  facet normal -0.419001 0.0551626 0.906309
    outer loop
      vertex 247.285 -32.1167 13.1262
      vertex 249.515 -2.5904 12.3601
      vertex 245.656 -31.9051 12.3601
    endloop
  endfacet
  facet normal 0.701057 -0.092296 -0.707107
    outer loop
      vertex 244.316 -31.7311 17.4017
      vertex 246.905 -2.24677 16.1199
      vertex 248.176 -2.41407 17.4017
    endloop
  endfacet
  facet normal 0.701057 -0.092296 -0.707107
    outer loop
      vertex 246.905 -2.24677 16.1199
      vertex 244.316 -31.7311 17.4017
      vertex 243.045 -31.566 16.1199
    endloop
  endfacet
  facet normal -0.130526 -0.991445 1.46504e-06
    outer loop
      vertex 248.176 -2.41407 17.4017
      vertex 251.438 -2.8436 16.52
      vertex 249.966 -2.64978 17.5597
    endloop
  endfacet
  facet normal -0.130526 -0.991445 4.83459e-07
    outer loop
      vertex 246.905 -2.24677 16.1199
      vertex 251.438 -2.8436 16.52
      vertex 248.176 -2.41407 17.4017
    endloop
  endfacet
  facet normal -0.130526 -0.991445 -1.81896e-07
    outer loop
      vertex 246.905 -2.24677 16.1199
      vertex 251.903 -2.90483 14.769
      vertex 251.438 -2.8436 16.52
    endloop
  endfacet
  facet normal -0.130526 -0.991445 7.64983e-07
    outer loop
      vertex 246.748 -2.22615 14.3141
      vertex 251.903 -2.90483 14.769
      vertex 246.905 -2.24677 16.1199
    endloop
  endfacet
  facet normal -0.130526 -0.991445 -5.43966e-07
    outer loop
      vertex 246.748 -2.22615 14.3141
      vertex 251.144 -2.80484 13.1262
      vertex 251.903 -2.90483 14.769
    endloop
  endfacet
  facet normal -0.130526 -0.991445 -7.58386e-07
    outer loop
      vertex 247.779 -2.36186 12.8292
      vertex 251.144 -2.80484 13.1262
      vertex 246.748 -2.22615 14.3141
    endloop
  endfacet
  facet normal -0.130526 -0.991445 5.97403e-08
    outer loop
      vertex 251.144 -2.80484 13.1262
      vertex 247.779 -2.36186 12.8292
      vertex 249.515 -2.5904 12.3601
    endloop
  endfacet
  facet normal 0.812142 -0.10692 0.573579
    outer loop
      vertex 242.888 -31.5457 14.3141
      vertex 247.779 -2.36186 12.8292
      vertex 246.748 -2.22615 14.3141
    endloop
  endfacet
  facet normal 0.812144 -0.106921 0.573576
    outer loop
      vertex 247.779 -2.36186 12.8292
      vertex 242.888 -31.5457 14.3141
      vertex 243.919 -31.6796 12.8292
    endloop
  endfacet
  facet normal 0.256604 -0.0337826 0.965926
    outer loop
      vertex 247.779 -2.36186 12.8292
      vertex 245.656 -31.9051 12.3601
      vertex 249.515 -2.5904 12.3601
    endloop
  endfacet
  facet normal 0.256604 -0.0337827 0.965926
    outer loop
      vertex 245.656 -31.9051 12.3601
      vertex 247.779 -2.36186 12.8292
      vertex 243.919 -31.6796 12.8292
    endloop
  endfacet
  facet normal 0.987672 -0.130029 -0.0871615
    outer loop
      vertex 246.905 -2.24677 16.1199
      vertex 242.888 -31.5457 14.3141
      vertex 246.748 -2.22615 14.3141
    endloop
  endfacet
  facet normal 0.987672 -0.13003 -0.0871585
    outer loop
      vertex 242.888 -31.5457 14.3141
      vertex 246.905 -2.24677 16.1199
      vertex 243.045 -31.566 16.1199
    endloop
  endfacet
  facet normal -0.957662 0.126078 -0.258819
    outer loop
      vertex 251.903 -2.90483 14.769
      vertex 247.579 -32.1549 16.52
      vertex 251.438 -2.8436 16.52
    endloop
  endfacet
  facet normal -0.957662 0.126078 -0.258819
    outer loop
      vertex 247.579 -32.1549 16.52
      vertex 251.903 -2.90483 14.769
      vertex 248.045 -32.2154 14.769
    endloop
  endfacet
  facet normal 0.08641 -0.0113761 -0.996195
    outer loop
      vertex 246.107 -31.9637 17.5597
      vertex 248.176 -2.41407 17.4017
      vertex 249.966 -2.64978 17.5597
    endloop
  endfacet
  facet normal 0.08641 -0.0113761 -0.996195
    outer loop
      vertex 248.176 -2.41407 17.4017
      vertex 246.107 -31.9637 17.5597
      vertex 244.316 -31.7311 17.4017
    endloop
  endfacet
  facet normal -0.898556 0.118297 0.422615
    outer loop
      vertex 247.285 -32.1167 13.1262
      vertex 251.903 -2.90483 14.769
      vertex 251.144 -2.80484 13.1262
    endloop
  endfacet
  facet normal -0.898554 0.118297 0.422619
    outer loop
      vertex 251.903 -2.90483 14.769
      vertex 247.285 -32.1167 13.1262
      vertex 248.045 -32.2154 14.769
    endloop
  endfacet
  facet normal -0.568672 0.0748669 -0.81915
    outer loop
      vertex 247.579 -32.1549 16.52
      vertex 249.966 -2.64978 17.5597
      vertex 251.438 -2.8436 16.52
    endloop
  endfacet
  facet normal -0.568668 0.0748667 -0.819153
    outer loop
      vertex 249.966 -2.64978 17.5597
      vertex 247.579 -32.1549 16.52
      vertex 246.107 -31.9637 17.5597
    endloop
  endfacet
endsolid OpenSCAD_Model
