solid OpenSCAD_Model
  facet normal 0.999507 0.03141 0
    outer loop
      vertex 252.487 0 30.05
      vertex 251.989 15.8538 0
      vertex 251.989 15.8538 30.05
    endloop
  endfacet
  facet normal 0.999507 0.03141 0
    outer loop
      vertex 251.989 15.8538 0
      vertex 252.487 0 30.05
      vertex 252.487 0 0
    endloop
  endfacet
  facet normal 0 0 -1
    outer loop
      vertex 215.722 13.5721 0
      vertex 251.989 15.8538 0
      vertex 216.149 0 0
    endloop
  endfacet
  facet normal 0 0 -1
    outer loop
      vertex 251.989 -15.8538 0
      vertex 215.722 -13.5721 0
      vertex 216.149 0 0
    endloop
  endfacet
  facet normal 0 -0 -1
    outer loop
      vertex 215.722 -13.5721 0
      vertex 221.38 -24.909 0
      vertex 214.733 -24.0339 0
    endloop
  endfacet
  facet normal 0 0 -1
    outer loop
      vertex 215.722 -13.5721 0
      vertex 251.989 -15.8538 0
      vertex 221.38 -24.909 0
    endloop
  endfacet
  facet normal 0 0 -1
    outer loop
      vertex 221.38 -24.909 0
      vertex 251.989 -15.8538 0
      vertex 250.496 -31.6451 0
    endloop
  endfacet
  facet normal 0 0 -1
    outer loop
      vertex 251.989 -15.8538 0
      vertex 216.149 0 0
      vertex 252.487 0 0
    endloop
  endfacet
  facet normal 0 0 -1
    outer loop
      vertex 220.883 -28.6876 0
      vertex 250.496 -31.6451 0
      vertex 250.359 -32.5159 0
    endloop
  endfacet
  facet normal 0 0 -1
    outer loop
      vertex 216.149 0 0
      vertex 251.989 15.8538 0
      vertex 252.487 0 0
    endloop
  endfacet
  facet normal 0 0 -1
    outer loop
      vertex 251.989 15.8538 0
      vertex 221.38 24.909 0
      vertex 250.496 31.6451 0
    endloop
  endfacet
  facet normal 0 0 -1
    outer loop
      vertex 250.496 -31.6451 0
      vertex 220.883 -28.6876 0
      vertex 221.38 -24.909 0
    endloop
  endfacet
  facet normal 0 0 -1
    outer loop
      vertex 220.87 28.7868 0
      vertex 250.496 31.6451 0
      vertex 221.38 24.909 0
    endloop
  endfacet
  facet normal -0 0 -1
    outer loop
      vertex 250.496 31.6451 0
      vertex 220.87 28.7868 0
      vertex 250.343 32.6147 0
    endloop
  endfacet
  facet normal -0 0 -1
    outer loop
      vertex 251.989 15.8538 0
      vertex 215.722 13.5721 0
      vertex 221.38 24.909 0
    endloop
  endfacet
  facet normal 0 0 -1
    outer loop
      vertex 221.38 24.909 0
      vertex 215.722 13.5721 0
      vertex 214.733 24.0339 0
    endloop
  endfacet
  facet normal 0 0 -1
    outer loop
      vertex 168.649 0 0
      vertex 188.649 0 0
      vertex 188.276 -11.8453 0
    endloop
  endfacet
  facet normal 0 0 -1
    outer loop
      vertex 168.316 -10.5895 0
      vertex 188.276 -11.8453 0
      vertex 187.161 -23.6439 0
    endloop
  endfacet
  facet normal 0 0 -1
    outer loop
      vertex 188.649 0 0
      vertex 168.649 0 0
      vertex 188.276 11.8453 0
    endloop
  endfacet
  facet normal 0 0 -1
    outer loop
      vertex 167.319 -21.1373 0
      vertex 187.161 -23.6439 0
      vertex 187.058 -24.2946 0
    endloop
  endfacet
  facet normal 0 0 -1
    outer loop
      vertex 168.316 10.5895 0
      vertex 188.276 11.8453 0
      vertex 168.649 0 0
    endloop
  endfacet
  facet normal -0 0 -1
    outer loop
      vertex 188.276 11.8453 0
      vertex 168.316 10.5895 0
      vertex 187.161 23.6439 0
    endloop
  endfacet
  facet normal 0 0 -1
    outer loop
      vertex 188.276 -11.8453 0
      vertex 168.316 -10.5895 0
      vertex 168.649 0 0
    endloop
  endfacet
  facet normal 0 0 -1
    outer loop
      vertex 187.161 -23.6439 0
      vertex 167.319 -21.1373 0
      vertex 168.316 -10.5895 0
    endloop
  endfacet
  facet normal 0 -0 -1
    outer loop
      vertex 167.319 -21.1373 0
      vertex 187.058 -24.2946 0
      vertex 167.227 -21.7189 0
    endloop
  endfacet
  facet normal 0 0 -1
    outer loop
      vertex 167.319 21.1373 0
      vertex 187.161 23.6439 0
      vertex 168.316 10.5895 0
    endloop
  endfacet
  facet normal -0 0 -1
    outer loop
      vertex 187.161 23.6439 0
      vertex 167.319 21.1373 0
      vertex 187.042 24.3934 0
    endloop
  endfacet
  facet normal 0 0 -1
    outer loop
      vertex 187.042 24.3934 0
      vertex 167.319 21.1373 0
      vertex 167.211 21.8177 0
    endloop
  endfacet
  facet normal 0 0 1
    outer loop
      vertex 251.989 15.8538 30.05
      vertex 215.722 13.5721 30.05
      vertex 216.149 0 30.05
    endloop
  endfacet
  facet normal 0 0 1
    outer loop
      vertex 250.496 31.6451 30.05
      vertex 214.444 27.0906 30.05
      vertex 215.722 13.5721 30.05
    endloop
  endfacet
  facet normal 0 -0 1
    outer loop
      vertex 214.444 27.0906 30.05
      vertex 250.343 32.6147 30.05
      vertex 214.31 27.9349 30.05
    endloop
  endfacet
  facet normal 0 0 1
    outer loop
      vertex 216.149 0 30.05
      vertex 252.487 0 30.05
      vertex 251.989 15.8538 30.05
    endloop
  endfacet
  facet normal 0 0 1
    outer loop
      vertex 215.722 13.5721 30.05
      vertex 251.989 15.8538 30.05
      vertex 250.496 31.6451 30.05
    endloop
  endfacet
  facet normal 0 0 1
    outer loop
      vertex 252.487 0 30.05
      vertex 216.149 0 30.05
      vertex 251.989 -15.8538 30.05
    endloop
  endfacet
  facet normal -0 0 1
    outer loop
      vertex 215.722 -13.5721 30.05
      vertex 251.989 -15.8538 30.05
      vertex 216.149 0 30.05
    endloop
  endfacet
  facet normal 0 0 1
    outer loop
      vertex 214.444 27.0906 30.05
      vertex 250.496 31.6451 30.05
      vertex 250.343 32.6147 30.05
    endloop
  endfacet
  facet normal 0 0 1
    outer loop
      vertex 251.989 -15.8538 30.05
      vertex 215.722 -13.5721 30.05
      vertex 250.496 -31.6451 30.05
    endloop
  endfacet
  facet normal -0 0 1
    outer loop
      vertex 214.444 -27.0906 30.05
      vertex 250.496 -31.6451 30.05
      vertex 215.722 -13.5721 30.05
    endloop
  endfacet
  facet normal 0 0 1
    outer loop
      vertex 250.496 -31.6451 30.05
      vertex 214.444 -27.0906 30.05
      vertex 250.359 -32.5159 30.05
    endloop
  endfacet
  facet normal 0 0 1
    outer loop
      vertex 250.359 -32.5159 30.05
      vertex 214.444 -27.0906 30.05
      vertex 214.326 -27.8361 30.05
    endloop
  endfacet
  facet normal 0 0 1
    outer loop
      vertex 188.276 11.8453 30.05
      vertex 168.316 10.5895 30.05
      vertex 168.649 0 30.05
    endloop
  endfacet
  facet normal 0 0 1
    outer loop
      vertex 187.161 23.6439 30.05
      vertex 167.319 21.1373 30.05
      vertex 168.316 10.5895 30.05
    endloop
  endfacet
  facet normal 0 -0 1
    outer loop
      vertex 167.319 21.1373 30.05
      vertex 187.042 24.3934 30.05
      vertex 167.211 21.8177 30.05
    endloop
  endfacet
  facet normal 0 0 1
    outer loop
      vertex 168.649 0 30.05
      vertex 188.649 0 30.05
      vertex 188.276 11.8453 30.05
    endloop
  endfacet
  facet normal 0 0 1
    outer loop
      vertex 168.316 10.5895 30.05
      vertex 188.276 11.8453 30.05
      vertex 187.161 23.6439 30.05
    endloop
  endfacet
  facet normal 0 0 1
    outer loop
      vertex 188.649 0 30.05
      vertex 168.649 0 30.05
      vertex 188.276 -11.8453 30.05
    endloop
  endfacet
  facet normal -0 0 1
    outer loop
      vertex 168.316 -10.5895 30.05
      vertex 188.276 -11.8453 30.05
      vertex 168.649 0 30.05
    endloop
  endfacet
  facet normal 0 0 1
    outer loop
      vertex 167.319 21.1373 30.05
      vertex 187.161 23.6439 30.05
      vertex 187.042 24.3934 30.05
    endloop
  endfacet
  facet normal 0 0 1
    outer loop
      vertex 188.276 -11.8453 30.05
      vertex 168.316 -10.5895 30.05
      vertex 187.161 -23.6439 30.05
    endloop
  endfacet
  facet normal -0 0 1
    outer loop
      vertex 167.319 -21.1373 30.05
      vertex 187.161 -23.6439 30.05
      vertex 168.316 -10.5895 30.05
    endloop
  endfacet
  facet normal 0 0 1
    outer loop
      vertex 187.161 -23.6439 30.05
      vertex 167.319 -21.1373 30.05
      vertex 187.058 -24.2946 30.05
    endloop
  endfacet
  facet normal 0 0 1
    outer loop
      vertex 187.058 -24.2946 30.05
      vertex 167.319 -21.1373 30.05
      vertex 167.227 -21.7189 30.05
    endloop
  endfacet
  facet normal 0.995562 -0.0941089 0
    outer loop
      vertex 250.496 -31.6451 30.05
      vertex 251.989 -15.8538 0
      vertex 251.989 -15.8538 30.05
    endloop
  endfacet
  facet normal 0.995562 -0.0941089 0
    outer loop
      vertex 251.989 -15.8538 0
      vertex 250.496 -31.6451 30.05
      vertex 250.496 -31.6451 0
    endloop
  endfacet
  facet normal 0.98769 0.156423 0
    outer loop
      vertex 250.496 31.6451 30.05
      vertex 250.343 32.6147 0
      vertex 250.343 32.6147 30.05
    endloop
  endfacet
  facet normal 0.98769 0.156423 0
    outer loop
      vertex 250.343 32.6147 0
      vertex 250.496 31.6451 30.05
      vertex 250.496 31.6451 0
    endloop
  endfacet
  facet normal 0.995562 0.0941089 0
    outer loop
      vertex 251.989 15.8538 30.05
      vertex 250.496 31.6451 0
      vertex 250.496 31.6451 30.05
    endloop
  endfacet
  facet normal 0.995562 0.0941089 0
    outer loop
      vertex 250.496 31.6451 0
      vertex 251.989 15.8538 30.05
      vertex 251.989 15.8538 0
    endloop
  endfacet
  facet normal 0.999507 -0.03141 0
    outer loop
      vertex 251.989 -15.8538 30.05
      vertex 252.487 0 0
      vertex 252.487 0 30.05
    endloop
  endfacet
  facet normal 0.999507 -0.03141 0
    outer loop
      vertex 252.487 0 0
      vertex 251.989 -15.8538 30.05
      vertex 251.989 -15.8538 0
    endloop
  endfacet
  facet normal 0.987689 -0.156432 0
    outer loop
      vertex 250.359 -32.5159 30.05
      vertex 250.496 -31.6451 0
      vertex 250.496 -31.6451 30.05
    endloop
  endfacet
  facet normal 0.987689 -0.156432 0
    outer loop
      vertex 250.496 -31.6451 0
      vertex 250.359 -32.5159 30.05
      vertex 250.359 -32.5159 0
    endloop
  endfacet
  facet normal -0.999507 -0.0314103 0
    outer loop
      vertex 216.149 0 0
      vertex 215.722 13.5721 30.05
      vertex 215.722 13.5721 0
    endloop
  endfacet
  facet normal -0.999507 -0.0314103 0
    outer loop
      vertex 215.722 13.5721 30.05
      vertex 216.149 0 0
      vertex 216.149 0 30.05
    endloop
  endfacet
  facet normal -0.987688 -0.156437 0
    outer loop
      vertex 214.444 27.0906 20.1003
      vertex 214.31 27.9349 30.05
      vertex 214.31 27.9349 20.0874
    endloop
  endfacet
  facet normal -0.987688 -0.156437 0
    outer loop
      vertex 214.31 27.9349 30.05
      vertex 214.444 27.0906 20.1003
      vertex 214.444 27.0906 30.05
    endloop
  endfacet
  facet normal -0.995562 -0.0941078 0
    outer loop
      vertex 214.733 24.0339 20.0353
      vertex 214.444 27.0906 30.05
      vertex 214.444 27.0906 20.1003
    endloop
  endfacet
  facet normal -0.995562 -0.0941087 -0
    outer loop
      vertex 215.722 13.5721 30.05
      vertex 214.733 24.0339 20.0353
      vertex 215.722 13.5721 0
    endloop
  endfacet
  facet normal -0.995562 -0.0941085 2.1328e-07
    outer loop
      vertex 214.733 24.0339 20.0353
      vertex 215.722 13.5721 30.05
      vertex 214.444 27.0906 30.05
    endloop
  endfacet
  facet normal -0.995562 -0.0941087 0
    outer loop
      vertex 214.733 24.0339 0
      vertex 215.722 13.5721 0
      vertex 214.733 24.0339 20.0353
    endloop
  endfacet
  facet normal -0.999507 0.0314103 0
    outer loop
      vertex 215.722 -13.5721 0
      vertex 216.149 0 30.05
      vertex 216.149 0 0
    endloop
  endfacet
  facet normal -0.999507 0.0314103 0
    outer loop
      vertex 216.149 0 30.05
      vertex 215.722 -13.5721 0
      vertex 215.722 -13.5721 30.05
    endloop
  endfacet
  facet normal -0.987689 0.15643 0
    outer loop
      vertex 214.326 -27.8361 30.05
      vertex 214.444 -27.0906 20.1003
      vertex 214.326 -27.8361 20.0889
    endloop
  endfacet
  facet normal -0.987689 0.15643 0
    outer loop
      vertex 214.444 -27.0906 20.1003
      vertex 214.326 -27.8361 30.05
      vertex 214.444 -27.0906 30.05
    endloop
  endfacet
  facet normal -0.995562 0.0941087 0
    outer loop
      vertex 214.733 -24.0339 20.0353
      vertex 215.722 -13.5721 0
      vertex 214.733 -24.0339 0
    endloop
  endfacet
  facet normal -0.995562 0.0941087 0
    outer loop
      vertex 215.722 -13.5721 0
      vertex 214.733 -24.0339 20.0353
      vertex 215.722 -13.5721 30.05
    endloop
  endfacet
  facet normal -0.995562 0.0941078 0
    outer loop
      vertex 214.444 -27.0906 30.05
      vertex 214.733 -24.0339 20.0353
      vertex 214.444 -27.0906 20.1003
    endloop
  endfacet
  facet normal -0.995562 0.0941085 2.1328e-07
    outer loop
      vertex 214.733 -24.0339 20.0353
      vertex 214.444 -27.0906 30.05
      vertex 215.722 -13.5721 30.05
    endloop
  endfacet
  facet normal 0.999507 0.0314106 0
    outer loop
      vertex 188.649 0 30.05
      vertex 188.276 11.8453 0
      vertex 188.276 11.8453 30.05
    endloop
  endfacet
  facet normal 0.999507 0.0314106 0
    outer loop
      vertex 188.276 11.8453 0
      vertex 188.649 0 30.05
      vertex 188.649 0 0
    endloop
  endfacet
  facet normal 0.995562 0.0941083 0
    outer loop
      vertex 188.276 11.8453 30.05
      vertex 187.161 23.6439 0
      vertex 187.161 23.6439 30.05
    endloop
  endfacet
  facet normal 0.995562 0.0941083 0
    outer loop
      vertex 187.161 23.6439 0
      vertex 188.276 11.8453 30.05
      vertex 188.276 11.8453 0
    endloop
  endfacet
  facet normal 0.995562 -0.0941083 0
    outer loop
      vertex 187.161 -23.6439 30.05
      vertex 188.276 -11.8453 0
      vertex 188.276 -11.8453 30.05
    endloop
  endfacet
  facet normal 0.995562 -0.0941083 0
    outer loop
      vertex 188.276 -11.8453 0
      vertex 187.161 -23.6439 30.05
      vertex 187.161 -23.6439 0
    endloop
  endfacet
  facet normal 0.987689 0.156428 0
    outer loop
      vertex 187.161 23.6439 30.05
      vertex 187.042 24.3934 0
      vertex 187.042 24.3934 30.05
    endloop
  endfacet
  facet normal 0.987689 0.156428 0
    outer loop
      vertex 187.042 24.3934 0
      vertex 187.161 23.6439 30.05
      vertex 187.161 23.6439 0
    endloop
  endfacet
  facet normal 0.999507 -0.0314106 0
    outer loop
      vertex 188.276 -11.8453 30.05
      vertex 188.649 0 0
      vertex 188.649 0 30.05
    endloop
  endfacet
  facet normal 0.999507 -0.0314106 0
    outer loop
      vertex 188.649 0 0
      vertex 188.276 -11.8453 30.05
      vertex 188.276 -11.8453 0
    endloop
  endfacet
  facet normal 0.987691 -0.156419 0
    outer loop
      vertex 187.058 -24.2946 30.05
      vertex 187.161 -23.6439 0
      vertex 187.161 -23.6439 30.05
    endloop
  endfacet
  facet normal 0.987691 -0.156419 0
    outer loop
      vertex 187.161 -23.6439 0
      vertex 187.058 -24.2946 30.05
      vertex 187.058 -24.2946 0
    endloop
  endfacet
  facet normal -0.999507 -0.0314098 0
    outer loop
      vertex 168.649 0 0
      vertex 168.316 10.5895 30.05
      vertex 168.316 10.5895 0
    endloop
  endfacet
  facet normal -0.999507 -0.0314098 0
    outer loop
      vertex 168.316 10.5895 30.05
      vertex 168.649 0 0
      vertex 168.649 0 30.05
    endloop
  endfacet
  facet normal -0.995562 0.0941084 0
    outer loop
      vertex 167.319 -21.1373 0
      vertex 168.316 -10.5895 30.05
      vertex 168.316 -10.5895 0
    endloop
  endfacet
  facet normal -0.995562 0.0941084 0
    outer loop
      vertex 168.316 -10.5895 30.05
      vertex 167.319 -21.1373 0
      vertex 167.319 -21.1373 30.05
    endloop
  endfacet
  facet normal -0.987686 -0.15645 0
    outer loop
      vertex 167.319 21.1373 0
      vertex 167.211 21.8177 30.05
      vertex 167.211 21.8177 0
    endloop
  endfacet
  facet normal -0.987686 -0.15645 0
    outer loop
      vertex 167.211 21.8177 30.05
      vertex 167.319 21.1373 0
      vertex 167.319 21.1373 30.05
    endloop
  endfacet
  facet normal -0.995562 -0.0941084 0
    outer loop
      vertex 168.316 10.5895 0
      vertex 167.319 21.1373 30.05
      vertex 167.319 21.1373 0
    endloop
  endfacet
  facet normal -0.995562 -0.0941084 0
    outer loop
      vertex 167.319 21.1373 30.05
      vertex 168.316 10.5895 0
      vertex 168.316 10.5895 30.05
    endloop
  endfacet
  facet normal -0.999507 0.0314098 0
    outer loop
      vertex 168.316 -10.5895 0
      vertex 168.649 0 30.05
      vertex 168.649 0 0
    endloop
  endfacet
  facet normal -0.999507 0.0314098 0
    outer loop
      vertex 168.649 0 30.05
      vertex 168.316 -10.5895 0
      vertex 168.316 -10.5895 30.05
    endloop
  endfacet
  facet normal -0.987687 0.156442 0
    outer loop
      vertex 167.227 -21.7189 0
      vertex 167.319 -21.1373 30.05
      vertex 167.319 -21.1373 0
    endloop
  endfacet
  facet normal -0.987687 0.156442 0
    outer loop
      vertex 167.319 -21.1373 30.05
      vertex 167.227 -21.7189 0
      vertex 167.227 -21.7189 30.05
    endloop
  endfacet
  facet normal -0.128796 0.991671 1.06969e-07
    outer loop
      vertex 220.709 28.7659 17.9375
      vertex 214.31 27.9349 30.05
      vertex 250.343 32.6147 30.05
    endloop
  endfacet
  facet normal -0.128796 0.991671 -1.47765e-07
    outer loop
      vertex 214.31 27.9349 30.05
      vertex 220.709 28.7659 17.9375
      vertex 215.663 28.1106 20.875
    endloop
  endfacet
  facet normal -0.128796 0.991671 -3.47593e-08
    outer loop
      vertex 250.343 32.6147 30.05
      vertex 220.87 28.7868 15
      vertex 220.709 28.7659 17.9375
    endloop
  endfacet
  facet normal -0.128796 0.991671 0
    outer loop
      vertex 250.343 32.6147 0
      vertex 220.87 28.7868 15
      vertex 250.343 32.6147 30.05
    endloop
  endfacet
  facet normal -0.128796 0.991671 0
    outer loop
      vertex 220.87 28.7868 15
      vertex 250.343 32.6147 0
      vertex 220.87 28.7868 0
    endloop
  endfacet
  facet normal -0.128795 0.991671 0
    outer loop
      vertex 214.31 27.9349 30.05
      vertex 215.663 28.1106 20.875
      vertex 214.31 27.9349 20.0874
    endloop
  endfacet
  facet normal -0.128795 0.991671 0
    outer loop
      vertex 220.709 28.7659 17.9375
      vertex 220.87 28.7868 15
      vertex 220.709 28.7659 15
    endloop
  endfacet
  facet normal -0.128796 0.991671 0
    outer loop
      vertex 187.042 24.3934 0
      vertex 167.211 21.8177 30.05
      vertex 187.042 24.3934 30.05
    endloop
  endfacet
  facet normal -0.128796 0.991671 0
    outer loop
      vertex 167.211 21.8177 30.05
      vertex 187.042 24.3934 0
      vertex 167.211 21.8177 0
    endloop
  endfacet
  facet normal -0.128796 -0.991671 -1.58843e-07
    outer loop
      vertex 220.722 -28.6668 17.9375
      vertex 214.326 -27.8361 30.05
      vertex 215.676 -28.0115 20.875
    endloop
  endfacet
  facet normal -0.128795 -0.991671 0
    outer loop
      vertex 215.676 -28.0115 20.875
      vertex 214.326 -27.8361 30.05
      vertex 214.326 -27.8361 20.0889
    endloop
  endfacet
  facet normal -0.128796 -0.991671 -1.0756e-07
    outer loop
      vertex 214.326 -27.8361 30.05
      vertex 220.722 -28.6668 17.9375
      vertex 250.359 -32.5159 30.05
    endloop
  endfacet
  facet normal -0.128795 -0.991671 0
    outer loop
      vertex 220.883 -28.6876 15
      vertex 220.722 -28.6668 17.9375
      vertex 220.722 -28.6668 15
    endloop
  endfacet
  facet normal -0.128796 -0.991671 -3.95623e-08
    outer loop
      vertex 220.722 -28.6668 17.9375
      vertex 220.883 -28.6876 15
      vertex 250.359 -32.5159 30.05
    endloop
  endfacet
  facet normal -0.128796 -0.991671 0
    outer loop
      vertex 250.359 -32.5159 0
      vertex 220.883 -28.6876 15
      vertex 220.883 -28.6876 0
    endloop
  endfacet
  facet normal -0.128796 -0.991671 0
    outer loop
      vertex 220.883 -28.6876 15
      vertex 250.359 -32.5159 0
      vertex 250.359 -32.5159 30.05
    endloop
  endfacet
  facet normal -0.128795 -0.991671 0
    outer loop
      vertex 167.227 -21.7189 0
      vertex 187.058 -24.2946 30.05
      vertex 167.227 -21.7189 30.05
    endloop
  endfacet
  facet normal -0.128795 -0.991671 -0
    outer loop
      vertex 187.058 -24.2946 30.05
      vertex 167.227 -21.7189 0
      vertex 187.058 -24.2946 0
    endloop
  endfacet
  facet normal -0.13052 0.991446 0
    outer loop
      vertex 221.38 24.909 15
      vertex 221.38 24.909 0
      vertex 221.219 24.8878 15
    endloop
  endfacet
  facet normal -0.130526 0.991445 6.12382e-08
    outer loop
      vertex 221.219 24.8878 17.9375
      vertex 214.733 24.0339 20.0353
      vertex 216.175 24.2237 20.875
    endloop
  endfacet
  facet normal -0.130526 0.991445 0
    outer loop
      vertex 221.219 24.8878 15
      vertex 214.733 24.0339 20.0353
      vertex 221.219 24.8878 17.9375
    endloop
  endfacet
  facet normal -0.130526 0.991445 -6.99138e-08
    outer loop
      vertex 214.733 24.0339 0
      vertex 221.219 24.8878 15
      vertex 221.38 24.909 0
    endloop
  endfacet
  facet normal -0.130526 0.991445 0
    outer loop
      vertex 221.219 24.8878 15
      vertex 214.733 24.0339 0
      vertex 214.733 24.0339 20.0353
    endloop
  endfacet
  facet normal -0.495722 -0.0652633 -0.866025
    outer loop
      vertex 216.175 24.2237 20.875
      vertex 220.709 28.7659 17.9375
      vertex 221.219 24.8878 17.9375
    endloop
  endfacet
  facet normal -0.495724 -0.0652616 -0.866025
    outer loop
      vertex 220.709 28.7659 17.9375
      vertex 216.175 24.2237 20.875
      vertex 215.663 28.1106 20.875
    endloop
  endfacet
  facet normal -0.991445 -0.130527 0
    outer loop
      vertex 221.219 24.8878 15
      vertex 220.709 28.7659 17.9375
      vertex 220.709 28.7659 15
    endloop
  endfacet
  facet normal -0.991445 -0.130527 0
    outer loop
      vertex 220.709 28.7659 17.9375
      vertex 221.219 24.8878 15
      vertex 221.219 24.8878 17.9375
    endloop
  endfacet
  facet normal 0.495724 0.0652631 -0.866024
    outer loop
      vertex 214.444 27.0906 20.1003
      vertex 216.175 24.2237 20.875
      vertex 214.733 24.0339 20.0353
    endloop
  endfacet
  facet normal 0.495722 0.0652614 -0.866026
    outer loop
      vertex 216.175 24.2237 20.875
      vertex 214.444 27.0906 20.1003
      vertex 215.663 28.1106 20.875
    endloop
  endfacet
  facet normal 0.49572 0.0652651 -0.866027
    outer loop
      vertex 215.663 28.1106 20.875
      vertex 214.444 27.0906 20.1003
      vertex 214.31 27.9349 20.0874
    endloop
  endfacet
  facet normal -0.991445 -0.130528 0
    outer loop
      vertex 221.38 24.909 0
      vertex 220.87 28.7868 15
      vertex 220.87 28.7868 0
    endloop
  endfacet
  facet normal -0.991445 -0.130528 0
    outer loop
      vertex 220.87 28.7868 15
      vertex 221.38 24.909 0
      vertex 221.38 24.909 15
    endloop
  endfacet
  facet normal 0 0 -1
    outer loop
      vertex 221.219 24.8878 15
      vertex 220.87 28.7868 15
      vertex 221.38 24.909 15
    endloop
  endfacet
  facet normal 0 -0 -1
    outer loop
      vertex 220.87 28.7868 15
      vertex 221.219 24.8878 15
      vertex 220.709 28.7659 15
    endloop
  endfacet
  facet normal -0.130526 -0.991445 6.12382e-08
    outer loop
      vertex 214.733 -24.0339 20.0353
      vertex 221.219 -24.8878 17.9375
      vertex 216.175 -24.2237 20.875
    endloop
  endfacet
  facet normal -0.130526 -0.991445 0
    outer loop
      vertex 214.733 -24.0339 20.0353
      vertex 221.219 -24.8878 15
      vertex 221.219 -24.8878 17.9375
    endloop
  endfacet
  facet normal -0.130526 -0.991445 0
    outer loop
      vertex 214.733 -24.0339 0
      vertex 221.219 -24.8878 15
      vertex 214.733 -24.0339 20.0353
    endloop
  endfacet
  facet normal -0.130526 -0.991445 -6.99138e-08
    outer loop
      vertex 221.38 -24.909 0
      vertex 221.219 -24.8878 15
      vertex 214.733 -24.0339 0
    endloop
  endfacet
  facet normal -0.13052 -0.991446 0
    outer loop
      vertex 221.219 -24.8878 15
      vertex 221.38 -24.909 0
      vertex 221.38 -24.909 15
    endloop
  endfacet
  facet normal -0.495722 0.0652622 -0.866025
    outer loop
      vertex 220.722 -28.6668 17.9375
      vertex 216.175 -24.2237 20.875
      vertex 221.219 -24.8878 17.9375
    endloop
  endfacet
  facet normal -0.495722 0.0652622 -0.866025
    outer loop
      vertex 216.175 -24.2237 20.875
      vertex 220.722 -28.6668 17.9375
      vertex 215.676 -28.0115 20.875
    endloop
  endfacet
  facet normal -0.991445 0.130524 0
    outer loop
      vertex 220.722 -28.6668 15
      vertex 221.219 -24.8878 17.9375
      vertex 221.219 -24.8878 15
    endloop
  endfacet
  facet normal -0.991445 0.130524 0
    outer loop
      vertex 221.219 -24.8878 17.9375
      vertex 220.722 -28.6668 15
      vertex 220.722 -28.6668 17.9375
    endloop
  endfacet
  facet normal 0.495723 -0.0652624 -0.866025
    outer loop
      vertex 214.444 -27.0906 20.1003
      vertex 216.175 -24.2237 20.875
      vertex 215.676 -28.0115 20.875
    endloop
  endfacet
  facet normal 0.495724 -0.0652631 -0.866024
    outer loop
      vertex 216.175 -24.2237 20.875
      vertex 214.444 -27.0906 20.1003
      vertex 214.733 -24.0339 20.0353
    endloop
  endfacet
  facet normal 0.495723 -0.0652626 -0.866025
    outer loop
      vertex 214.444 -27.0906 20.1003
      vertex 215.676 -28.0115 20.875
      vertex 214.326 -27.8361 20.0889
    endloop
  endfacet
  facet normal -0.991445 0.130526 0
    outer loop
      vertex 220.883 -28.6876 0
      vertex 221.38 -24.909 15
      vertex 221.38 -24.909 0
    endloop
  endfacet
  facet normal -0.991445 0.130526 0
    outer loop
      vertex 221.38 -24.909 15
      vertex 220.883 -28.6876 0
      vertex 220.883 -28.6876 15
    endloop
  endfacet
  facet normal 0 0 -1
    outer loop
      vertex 220.883 -28.6876 15
      vertex 221.219 -24.8878 15
      vertex 221.38 -24.909 15
    endloop
  endfacet
  facet normal 0 0 -1
    outer loop
      vertex 221.219 -24.8878 15
      vertex 220.883 -28.6876 15
      vertex 220.722 -28.6668 15
    endloop
  endfacet
endsolid OpenSCAD_Model
