solid OpenSCAD_Model
  facet normal -0.951056 0.309017 -4.6061e-17
    outer loop
      vertex -13.5729 -1.76336 0
      vertex -13 6.36816e-16 5.2
      vertex -13 0 0
    endloop
  endfacet
  facet normal -0.951056 0.309017 0
    outer loop
      vertex -13 6.36816e-16 5.2
      vertex -13.5729 -1.76336 0
      vertex -13.5729 -1.76336 5.2
    endloop
  endfacet
  facet normal 0.951057 0.309017 -4.6061e-17
    outer loop
      vertex -18.4271 -1.76336 5.2
      vertex -19 0 0
      vertex -19 6.36816e-16 5.2
    endloop
  endfacet
  facet normal 0.951057 0.309017 0
    outer loop
      vertex -19 0 0
      vertex -18.4271 -1.76336 5.2
      vertex -18.4271 -1.76336 0
    endloop
  endfacet
  facet normal 0 -1 0
    outer loop
      vertex -16.9271 2.85317 0
      vertex -15.0729 2.85317 5.2
      vertex -16.9271 2.85317 5.2
    endloop
  endfacet
  facet normal 0 -1 -0
    outer loop
      vertex -15.0729 2.85317 5.2
      vertex -16.9271 2.85317 0
      vertex -15.0729 2.85317 0
    endloop
  endfacet
  facet normal 0 1 -0
    outer loop
      vertex -15.0729 -2.85317 0
      vertex -16.9271 -2.85317 5.2
      vertex -15.0729 -2.85317 5.2
    endloop
  endfacet
  facet normal 0 1 0
    outer loop
      vertex -16.9271 -2.85317 5.2
      vertex -15.0729 -2.85317 0
      vertex -16.9271 -2.85317 0
    endloop
  endfacet
  facet normal -0.587785 0.809017 0
    outer loop
      vertex -13.5729 -1.76336 0
      vertex -15.0729 -2.85317 5.2
      vertex -13.5729 -1.76336 5.2
    endloop
  endfacet
  facet normal -0.587785 0.809017 0
    outer loop
      vertex -15.0729 -2.85317 5.2
      vertex -13.5729 -1.76336 0
      vertex -15.0729 -2.85317 0
    endloop
  endfacet
  facet normal 0.587785 0.809017 -0
    outer loop
      vertex -16.9271 -2.85317 0
      vertex -18.4271 -1.76336 5.2
      vertex -16.9271 -2.85317 5.2
    endloop
  endfacet
  facet normal 0.587785 0.809017 0
    outer loop
      vertex -18.4271 -1.76336 5.2
      vertex -16.9271 -2.85317 0
      vertex -18.4271 -1.76336 0
    endloop
  endfacet
  facet normal -0.951056 -0.309017 0
    outer loop
      vertex -13.5729 1.76336 0
      vertex -13 6.36816e-16 5.2
      vertex -13.5729 1.76336 5.2
    endloop
  endfacet
  facet normal -0.951056 -0.309017 3.78437e-17
    outer loop
      vertex -13 6.36816e-16 5.2
      vertex -13.5729 1.76336 0
      vertex -13 0 0
    endloop
  endfacet
  facet normal -0.587785 -0.809017 0
    outer loop
      vertex -15.0729 2.85317 0
      vertex -13.5729 1.76336 5.2
      vertex -15.0729 2.85317 5.2
    endloop
  endfacet
  facet normal -0.587785 -0.809017 -0
    outer loop
      vertex -13.5729 1.76336 5.2
      vertex -15.0729 2.85317 0
      vertex -13.5729 1.76336 0
    endloop
  endfacet
  facet normal 0.587785 -0.809017 0
    outer loop
      vertex -18.4271 1.76336 0
      vertex -16.9271 2.85317 5.2
      vertex -18.4271 1.76336 5.2
    endloop
  endfacet
  facet normal 0.587785 -0.809017 0
    outer loop
      vertex -16.9271 2.85317 5.2
      vertex -18.4271 1.76336 0
      vertex -16.9271 2.85317 0
    endloop
  endfacet
  facet normal 0.951057 -0.309017 0
    outer loop
      vertex -19 6.36816e-16 5.2
      vertex -18.4271 1.76336 0
      vertex -18.4271 1.76336 5.2
    endloop
  endfacet
  facet normal 0.951057 -0.309017 4.6061e-17
    outer loop
      vertex -18.4271 1.76336 0
      vertex -19 6.36816e-16 5.2
      vertex -19 0 0
    endloop
  endfacet
  facet normal 0.207911 -0.978148 0
    outer loop
      vertex 6.5 -11.2583 0
      vertex 8.31359 -10.8728 5.2
      vertex 6.5 -11.2583 5.2
    endloop
  endfacet
  facet normal 0.207911 -0.978148 0
    outer loop
      vertex 8.31359 -10.8728 5.2
      vertex 6.5 -11.2583 0
      vertex 8.31359 -10.8728 0
    endloop
  endfacet
  facet normal -0.743145 0.66913 0
    outer loop
      vertex 9.5 -16.4545 0
      vertex 10.7406 -15.0766 5.2
      vertex 10.7406 -15.0766 0
    endloop
  endfacet
  facet normal -0.743145 0.66913 0
    outer loop
      vertex 10.7406 -15.0766 5.2
      vertex 9.5 -16.4545 0
      vertex 9.5 -16.4545 5.2
    endloop
  endfacet
  facet normal 0.866025 0.5 0
    outer loop
      vertex 5.99261 -16.0858 5.2
      vertex 5.06556 -14.4801 0
      vertex 5.06556 -14.4801 5.2
    endloop
  endfacet
  facet normal 0.866025 0.5 0
    outer loop
      vertex 5.06556 -14.4801 0
      vertex 5.99261 -16.0858 5.2
      vertex 5.99261 -16.0858 0
    endloop
  endfacet
  facet normal -0.866025 -0.5 0
    outer loop
      vertex 10.9344 -13.2327 0
      vertex 10.0074 -11.627 5.2
      vertex 10.0074 -11.627 0
    endloop
  endfacet
  facet normal -0.866025 -0.5 0
    outer loop
      vertex 10.0074 -11.627 5.2
      vertex 10.9344 -13.2327 0
      vertex 10.9344 -13.2327 5.2
    endloop
  endfacet
  facet normal -0.406736 -0.913546 0
    outer loop
      vertex 8.31359 -10.8728 0
      vertex 10.0074 -11.627 5.2
      vertex 8.31359 -10.8728 5.2
    endloop
  endfacet
  facet normal -0.406736 -0.913546 -0
    outer loop
      vertex 10.0074 -11.627 5.2
      vertex 8.31359 -10.8728 0
      vertex 10.0074 -11.627 0
    endloop
  endfacet
  facet normal -0.994522 0.104529 0
    outer loop
      vertex 10.7406 -15.0766 0
      vertex 10.9344 -13.2327 5.2
      vertex 10.9344 -13.2327 0
    endloop
  endfacet
  facet normal -0.994522 0.104529 0
    outer loop
      vertex 10.9344 -13.2327 5.2
      vertex 10.7406 -15.0766 0
      vertex 10.7406 -15.0766 5.2
    endloop
  endfacet
  facet normal 0.743145 -0.66913 0
    outer loop
      vertex 5.25936 -12.6362 5.2
      vertex 6.5 -11.2583 0
      vertex 6.5 -11.2583 5.2
    endloop
  endfacet
  facet normal 0.743145 -0.66913 0
    outer loop
      vertex 6.5 -11.2583 0
      vertex 5.25936 -12.6362 5.2
      vertex 5.25936 -12.6362 0
    endloop
  endfacet
  facet normal 0.994522 -0.104529 0
    outer loop
      vertex 5.06556 -14.4801 5.2
      vertex 5.25936 -12.6362 0
      vertex 5.25936 -12.6362 5.2
    endloop
  endfacet
  facet normal 0.994522 -0.104529 0
    outer loop
      vertex 5.25936 -12.6362 0
      vertex 5.06556 -14.4801 5.2
      vertex 5.06556 -14.4801 0
    endloop
  endfacet
  facet normal 0.406737 0.913545 -0
    outer loop
      vertex 7.68641 -16.84 0
      vertex 5.99261 -16.0858 5.2
      vertex 7.68641 -16.84 5.2
    endloop
  endfacet
  facet normal 0.406737 0.913545 0
    outer loop
      vertex 5.99261 -16.0858 5.2
      vertex 7.68641 -16.84 0
      vertex 5.99261 -16.0858 0
    endloop
  endfacet
  facet normal -0.207911 0.978148 0
    outer loop
      vertex 9.5 -16.4545 0
      vertex 7.68641 -16.84 5.2
      vertex 9.5 -16.4545 5.2
    endloop
  endfacet
  facet normal -0.207911 0.978148 0
    outer loop
      vertex 7.68641 -16.84 5.2
      vertex 9.5 -16.4545 0
      vertex 7.68641 -16.84 0
    endloop
  endfacet
  facet normal 0.743145 0.66913 0
    outer loop
      vertex 6.5 11.2583 5.2
      vertex 5.25936 12.6362 0
      vertex 5.25936 12.6362 5.2
    endloop
  endfacet
  facet normal 0.743145 0.66913 0
    outer loop
      vertex 5.25936 12.6362 0
      vertex 6.5 11.2583 5.2
      vertex 6.5 11.2583 0
    endloop
  endfacet
  facet normal -0.207911 -0.978148 0
    outer loop
      vertex 7.68641 16.84 0
      vertex 9.5 16.4545 5.2
      vertex 7.68641 16.84 5.2
    endloop
  endfacet
  facet normal -0.207911 -0.978148 -0
    outer loop
      vertex 9.5 16.4545 5.2
      vertex 7.68641 16.84 0
      vertex 9.5 16.4545 0
    endloop
  endfacet
  facet normal -0.866025 0.5 0
    outer loop
      vertex 10.0074 11.627 0
      vertex 10.9344 13.2327 5.2
      vertex 10.9344 13.2327 0
    endloop
  endfacet
  facet normal -0.866025 0.5 0
    outer loop
      vertex 10.9344 13.2327 5.2
      vertex 10.0074 11.627 0
      vertex 10.0074 11.627 5.2
    endloop
  endfacet
  facet normal 0.866025 -0.5 0
    outer loop
      vertex 5.06556 14.4801 5.2
      vertex 5.99261 16.0858 0
      vertex 5.99261 16.0858 5.2
    endloop
  endfacet
  facet normal 0.866025 -0.5 0
    outer loop
      vertex 5.99261 16.0858 0
      vertex 5.06556 14.4801 5.2
      vertex 5.06556 14.4801 0
    endloop
  endfacet
  facet normal 0.994522 0.104529 0
    outer loop
      vertex 5.25936 12.6362 5.2
      vertex 5.06556 14.4801 0
      vertex 5.06556 14.4801 5.2
    endloop
  endfacet
  facet normal 0.994522 0.104529 0
    outer loop
      vertex 5.06556 14.4801 0
      vertex 5.25936 12.6362 5.2
      vertex 5.25936 12.6362 0
    endloop
  endfacet
  facet normal 0.406737 -0.913545 0
    outer loop
      vertex 5.99261 16.0858 0
      vertex 7.68641 16.84 5.2
      vertex 5.99261 16.0858 5.2
    endloop
  endfacet
  facet normal 0.406737 -0.913545 0
    outer loop
      vertex 7.68641 16.84 5.2
      vertex 5.99261 16.0858 0
      vertex 7.68641 16.84 0
    endloop
  endfacet
  facet normal 0.207911 0.978148 -0
    outer loop
      vertex 8.31359 10.8728 0
      vertex 6.5 11.2583 5.2
      vertex 8.31359 10.8728 5.2
    endloop
  endfacet
  facet normal 0.207911 0.978148 0
    outer loop
      vertex 6.5 11.2583 5.2
      vertex 8.31359 10.8728 0
      vertex 6.5 11.2583 0
    endloop
  endfacet
  facet normal -0.406736 0.913546 0
    outer loop
      vertex 10.0074 11.627 0
      vertex 8.31359 10.8728 5.2
      vertex 10.0074 11.627 5.2
    endloop
  endfacet
  facet normal -0.406736 0.913546 0
    outer loop
      vertex 8.31359 10.8728 5.2
      vertex 10.0074 11.627 0
      vertex 8.31359 10.8728 0
    endloop
  endfacet
  facet normal -0.994522 -0.104529 0
    outer loop
      vertex 10.9344 13.2327 0
      vertex 10.7406 15.0766 5.2
      vertex 10.7406 15.0766 0
    endloop
  endfacet
  facet normal -0.994522 -0.104529 0
    outer loop
      vertex 10.7406 15.0766 5.2
      vertex 10.9344 13.2327 0
      vertex 10.9344 13.2327 5.2
    endloop
  endfacet
  facet normal -0.743145 -0.66913 0
    outer loop
      vertex 10.7406 15.0766 0
      vertex 9.5 16.4545 5.2
      vertex 9.5 16.4545 0
    endloop
  endfacet
  facet normal -0.743145 -0.66913 0
    outer loop
      vertex 9.5 16.4545 5.2
      vertex 10.7406 15.0766 0
      vertex 10.7406 15.0766 5.2
    endloop
  endfacet
  facet normal 0.866026 0.5 0
    outer loop
      vertex 18.2709 8.13473 5.2
      vertex 16.1803 11.7557 0
      vertex 16.1803 11.7557 5.2
    endloop
  endfacet
  facet normal 0.866026 0.5 0
    outer loop
      vertex 16.1803 11.7557 0
      vertex 18.2709 8.13473 5.2
      vertex 18.2709 8.13473 0
    endloop
  endfacet
  facet normal -0.951057 0.309017 0
    outer loop
      vertex -19.563 4.15823 0
      vertex -18.2709 8.13473 5.2
      vertex -18.2709 8.13473 0
    endloop
  endfacet
  facet normal -0.951057 0.309017 0
    outer loop
      vertex -18.2709 8.13473 5.2
      vertex -19.563 4.15823 0
      vertex -19.563 4.15823 5.2
    endloop
  endfacet
  facet normal 0.743145 0.669131 0
    outer loop
      vertex 16.1803 11.7557 5.2
      vertex 13.3826 14.8629 0
      vertex 13.3826 14.8629 5.2
    endloop
  endfacet
  facet normal 0.743145 0.669131 0
    outer loop
      vertex 13.3826 14.8629 0
      vertex 16.1803 11.7557 5.2
      vertex 16.1803 11.7557 0
    endloop
  endfacet
  facet normal 0.207912 0.978148 -0
    outer loop
      vertex 6.18034 19.0211 0
      vertex 2.09057 19.8904 5.2
      vertex 6.18034 19.0211 5.2
    endloop
  endfacet
  facet normal 0.207912 0.978148 0
    outer loop
      vertex 2.09057 19.8904 5.2
      vertex 6.18034 19.0211 0
      vertex 2.09057 19.8904 0
    endloop
  endfacet
  facet normal -0.406737 0.913545 0
    outer loop
      vertex -6.18034 19.0211 0
      vertex -10 17.3205 5.2
      vertex -6.18034 19.0211 5.2
    endloop
  endfacet
  facet normal -0.406737 0.913545 0
    outer loop
      vertex -10 17.3205 5.2
      vertex -6.18034 19.0211 0
      vertex -10 17.3205 0
    endloop
  endfacet
  facet normal 0.994522 -0.104529 0
    outer loop
      vertex 19.563 -4.15823 5.2
      vertex 20 0 0
      vertex 20 0 5.2
    endloop
  endfacet
  facet normal 0.994522 -0.104529 0
    outer loop
      vertex 20 0 0
      vertex 19.563 -4.15823 5.2
      vertex 19.563 -4.15823 0
    endloop
  endfacet
  facet normal 0.951057 0.309017 0
    outer loop
      vertex 19.563 4.15823 5.2
      vertex 18.2709 8.13473 0
      vertex 18.2709 8.13473 5.2
    endloop
  endfacet
  facet normal 0.951057 0.309017 0
    outer loop
      vertex 18.2709 8.13473 0
      vertex 19.563 4.15823 5.2
      vertex 19.563 4.15823 0
    endloop
  endfacet
  facet normal 0.587785 0.809017 -0
    outer loop
      vertex 13.3826 14.8629 0
      vertex 10 17.3205 5.2
      vertex 13.3826 14.8629 5.2
    endloop
  endfacet
  facet normal 0.587785 0.809017 0
    outer loop
      vertex 10 17.3205 5.2
      vertex 13.3826 14.8629 0
      vertex 10 17.3205 0
    endloop
  endfacet
  facet normal 0 1 -0
    outer loop
      vertex 2.09057 19.8904 0
      vertex -2.09057 19.8904 5.2
      vertex 2.09057 19.8904 5.2
    endloop
  endfacet
  facet normal 0 1 0
    outer loop
      vertex -2.09057 19.8904 5.2
      vertex 2.09057 19.8904 0
      vertex -2.09057 19.8904 0
    endloop
  endfacet
  facet normal 0.406737 0.913545 -0
    outer loop
      vertex 10 17.3205 0
      vertex 6.18034 19.0211 5.2
      vertex 10 17.3205 5.2
    endloop
  endfacet
  facet normal 0.406737 0.913545 0
    outer loop
      vertex 6.18034 19.0211 5.2
      vertex 10 17.3205 0
      vertex 6.18034 19.0211 0
    endloop
  endfacet
  facet normal -0.994522 0.104529 0
    outer loop
      vertex -20 0 0
      vertex -19.563 4.15823 5.2
      vertex -19.563 4.15823 0
    endloop
  endfacet
  facet normal -0.994522 0.104529 0
    outer loop
      vertex -19.563 4.15823 5.2
      vertex -20 0 0
      vertex -20 0 5.2
    endloop
  endfacet
  facet normal -0.866026 0.5 0
    outer loop
      vertex -18.2709 8.13473 0
      vertex -16.1803 11.7557 5.2
      vertex -16.1803 11.7557 0
    endloop
  endfacet
  facet normal -0.866026 0.5 0
    outer loop
      vertex -16.1803 11.7557 5.2
      vertex -18.2709 8.13473 0
      vertex -18.2709 8.13473 5.2
    endloop
  endfacet
  facet normal -0.587785 0.809017 0
    outer loop
      vertex -10 17.3205 0
      vertex -13.3826 14.8629 5.2
      vertex -10 17.3205 5.2
    endloop
  endfacet
  facet normal -0.587785 0.809017 0
    outer loop
      vertex -13.3826 14.8629 5.2
      vertex -10 17.3205 0
      vertex -13.3826 14.8629 0
    endloop
  endfacet
  facet normal -0.207912 0.978148 0
    outer loop
      vertex -2.09057 19.8904 0
      vertex -6.18034 19.0211 5.2
      vertex -2.09057 19.8904 5.2
    endloop
  endfacet
  facet normal -0.207912 0.978148 0
    outer loop
      vertex -6.18034 19.0211 5.2
      vertex -2.09057 19.8904 0
      vertex -6.18034 19.0211 0
    endloop
  endfacet
  facet normal -0.743145 0.669131 0
    outer loop
      vertex -16.1803 11.7557 0
      vertex -13.3826 14.8629 5.2
      vertex -13.3826 14.8629 0
    endloop
  endfacet
  facet normal -0.743145 0.669131 0
    outer loop
      vertex -13.3826 14.8629 5.2
      vertex -16.1803 11.7557 0
      vertex -16.1803 11.7557 5.2
    endloop
  endfacet
  facet normal 0.994522 0.104529 0
    outer loop
      vertex 20 0 5.2
      vertex 19.563 4.15823 0
      vertex 19.563 4.15823 5.2
    endloop
  endfacet
  facet normal 0.994522 0.104529 0
    outer loop
      vertex 19.563 4.15823 0
      vertex 20 0 5.2
      vertex 20 0 0
    endloop
  endfacet
  facet normal 0.951057 -0.309017 0
    outer loop
      vertex 18.2709 -8.13473 5.2
      vertex 19.563 -4.15823 0
      vertex 19.563 -4.15823 5.2
    endloop
  endfacet
  facet normal 0.951057 -0.309017 0
    outer loop
      vertex 19.563 -4.15823 0
      vertex 18.2709 -8.13473 5.2
      vertex 18.2709 -8.13473 0
    endloop
  endfacet
  facet normal -0.866026 -0.5 0
    outer loop
      vertex -16.1803 -11.7557 0
      vertex -18.2709 -8.13473 5.2
      vertex -18.2709 -8.13473 0
    endloop
  endfacet
  facet normal -0.866026 -0.5 0
    outer loop
      vertex -18.2709 -8.13473 5.2
      vertex -16.1803 -11.7557 0
      vertex -16.1803 -11.7557 5.2
    endloop
  endfacet
  facet normal 0.587785 -0.809017 0
    outer loop
      vertex 10 -17.3205 0
      vertex 13.3826 -14.8629 5.2
      vertex 10 -17.3205 5.2
    endloop
  endfacet
  facet normal 0.587785 -0.809017 0
    outer loop
      vertex 13.3826 -14.8629 5.2
      vertex 10 -17.3205 0
      vertex 13.3826 -14.8629 0
    endloop
  endfacet
  facet normal 0 0 1
    outer loop
      vertex -3.25 -5.62916 5.2
      vertex -13.3826 -14.8629 5.2
      vertex -10 -17.3205 5.2
    endloop
  endfacet
  facet normal 0 0 1
    outer loop
      vertex -15.0729 -2.85317 5.2
      vertex -5.8563 -2.82024 5.2
      vertex -13.5729 -1.76336 5.2
    endloop
  endfacet
  facet normal 0 0 1
    outer loop
      vertex -5.8563 -2.82024 5.2
      vertex -15.0729 -2.85317 5.2
      vertex -16.1803 -11.7557 5.2
    endloop
  endfacet
  facet normal 0 0 1
    outer loop
      vertex -5.8563 -2.82024 5.2
      vertex -16.1803 -11.7557 5.2
      vertex -13.3826 -14.8629 5.2
    endloop
  endfacet
  facet normal 0 0 1
    outer loop
      vertex -18.2709 -8.13473 5.2
      vertex -15.0729 -2.85317 5.2
      vertex -16.9271 -2.85317 5.2
    endloop
  endfacet
  facet normal 0 0 1
    outer loop
      vertex -15.0729 -2.85317 5.2
      vertex -18.2709 -8.13473 5.2
      vertex -16.1803 -11.7557 5.2
    endloop
  endfacet
  facet normal 0 0 1
    outer loop
      vertex -19.563 -4.15823 5.2
      vertex -16.9271 -2.85317 5.2
      vertex -18.4271 -1.76336 5.2
    endloop
  endfacet
  facet normal -0 0 1
    outer loop
      vertex -20 0 5.2
      vertex -18.4271 -1.76336 5.2
      vertex -19 6.36816e-16 5.2
    endloop
  endfacet
  facet normal 0 0 1
    outer loop
      vertex -18.4271 1.76336 5.2
      vertex -20 0 5.2
      vertex -19 6.36816e-16 5.2
    endloop
  endfacet
  facet normal 0 0 1
    outer loop
      vertex -16.9271 -2.85317 5.2
      vertex -19.563 -4.15823 5.2
      vertex -18.2709 -8.13473 5.2
    endloop
  endfacet
  facet normal 0 0 1
    outer loop
      vertex -18.4271 -1.76336 5.2
      vertex -20 0 5.2
      vertex -19.563 -4.15823 5.2
    endloop
  endfacet
  facet normal 0 0 1
    outer loop
      vertex 19.563 4.15823 5.2
      vertex 6.21122 1.91591 5.2
      vertex 6.5 0 5.2
    endloop
  endfacet
  facet normal 0 0 1
    outer loop
      vertex 8.31359 10.8728 5.2
      vertex 5.37055 3.66158 5.2
      vertex 6.21122 1.91591 5.2
    endloop
  endfacet
  facet normal 0 0 1
    outer loop
      vertex 2.37472 6.05068 5.2
      vertex 6.5 11.2583 5.2
      vertex 5.25936 12.6362 5.2
    endloop
  endfacet
  facet normal 0 0 1
    outer loop
      vertex -1.44639 6.33703 5.2
      vertex 5.25936 12.6362 5.2
      vertex 5.06556 14.4801 5.2
    endloop
  endfacet
  facet normal 0 0 1
    outer loop
      vertex 8.31359 10.8728 5.2
      vertex 4.05268 5.0819 5.2
      vertex 5.37055 3.66158 5.2
    endloop
  endfacet
  facet normal 0 0 1
    outer loop
      vertex 20 0 5.2
      vertex 6.5 0 5.2
      vertex 19.563 -4.15823 5.2
    endloop
  endfacet
  facet normal 0 0 1
    outer loop
      vertex 19.563 -4.15823 5.2
      vertex 10.0074 -11.627 5.2
      vertex 10.9344 -13.2327 5.2
    endloop
  endfacet
  facet normal 0 0 1
    outer loop
      vertex 6.21122 1.91591 5.2
      vertex 10.0074 11.627 5.2
      vertex 8.31359 10.8728 5.2
    endloop
  endfacet
  facet normal -0 0 1
    outer loop
      vertex 6.21122 -1.91591 5.2
      vertex 19.563 -4.15823 5.2
      vertex 6.5 0 5.2
    endloop
  endfacet
  facet normal 0 0 1
    outer loop
      vertex 4.05268 5.0819 5.2
      vertex 8.31359 10.8728 5.2
      vertex 6.5 11.2583 5.2
    endloop
  endfacet
  facet normal 0 0 1
    outer loop
      vertex 19.563 -4.15823 5.2
      vertex 6.21122 -1.91591 5.2
      vertex 10.0074 -11.627 5.2
    endloop
  endfacet
  facet normal 0 0 1
    outer loop
      vertex 10.0074 -11.627 5.2
      vertex 6.21122 -1.91591 5.2
      vertex 8.31359 -10.8728 5.2
    endloop
  endfacet
  facet normal -0 0 1
    outer loop
      vertex 5.37055 -3.66158 5.2
      vertex 8.31359 -10.8728 5.2
      vertex 6.21122 -1.91591 5.2
    endloop
  endfacet
  facet normal -0 0 1
    outer loop
      vertex 4.05268 -5.0819 5.2
      vertex 8.31359 -10.8728 5.2
      vertex 5.37055 -3.66158 5.2
    endloop
  endfacet
  facet normal 0 0 1
    outer loop
      vertex 8.31359 -10.8728 5.2
      vertex 4.05268 -5.0819 5.2
      vertex 6.5 -11.2583 5.2
    endloop
  endfacet
  facet normal -0 0 1
    outer loop
      vertex 2.37472 -6.05068 5.2
      vertex 6.5 -11.2583 5.2
      vertex 4.05268 -5.0819 5.2
    endloop
  endfacet
  facet normal 0 0 1
    outer loop
      vertex 6.5 -11.2583 5.2
      vertex 2.37472 -6.05068 5.2
      vertex 5.25936 -12.6362 5.2
    endloop
  endfacet
  facet normal 0 0 1
    outer loop
      vertex 6.21122 1.91591 5.2
      vertex 18.2709 8.13473 5.2
      vertex 10.0074 11.627 5.2
    endloop
  endfacet
  facet normal 0 0 1
    outer loop
      vertex 16.1803 11.7557 5.2
      vertex 10.0074 11.627 5.2
      vertex 18.2709 8.13473 5.2
    endloop
  endfacet
  facet normal 0 0 1
    outer loop
      vertex 6.21122 1.91591 5.2
      vertex 19.563 4.15823 5.2
      vertex 18.2709 8.13473 5.2
    endloop
  endfacet
  facet normal 0 0 1
    outer loop
      vertex 10.0074 11.627 5.2
      vertex 16.1803 11.7557 5.2
      vertex 10.9344 13.2327 5.2
    endloop
  endfacet
  facet normal 0 0 1
    outer loop
      vertex 19.563 4.15823 5.2
      vertex 6.5 0 5.2
      vertex 20 0 5.2
    endloop
  endfacet
  facet normal -0 0 1
    outer loop
      vertex 10.9344 13.2327 5.2
      vertex 16.1803 11.7557 5.2
      vertex 13.3826 14.8629 5.2
    endloop
  endfacet
  facet normal 0 0 1
    outer loop
      vertex 19.563 -4.15823 5.2
      vertex 10.9344 -13.2327 5.2
      vertex 18.2709 -8.13473 5.2
    endloop
  endfacet
  facet normal 0 0 1
    outer loop
      vertex 18.2709 -8.13473 5.2
      vertex 10.9344 -13.2327 5.2
      vertex 16.1803 -11.7557 5.2
    endloop
  endfacet
  facet normal 0 0 1
    outer loop
      vertex 13.3826 14.8629 5.2
      vertex 10.7406 15.0766 5.2
      vertex 10.9344 13.2327 5.2
    endloop
  endfacet
  facet normal 0 0 1
    outer loop
      vertex 10 17.3205 5.2
      vertex 10.7406 15.0766 5.2
      vertex 13.3826 14.8629 5.2
    endloop
  endfacet
  facet normal 0 0 1
    outer loop
      vertex 10 17.3205 5.2
      vertex 9.5 16.4545 5.2
      vertex 10.7406 15.0766 5.2
    endloop
  endfacet
  facet normal 0 0 1
    outer loop
      vertex 10 17.3205 5.2
      vertex 7.68641 16.84 5.2
      vertex 9.5 16.4545 5.2
    endloop
  endfacet
  facet normal 0 0 1
    outer loop
      vertex 6.18034 19.0211 5.2
      vertex 7.68641 16.84 5.2
      vertex 10 17.3205 5.2
    endloop
  endfacet
  facet normal 0 0 1
    outer loop
      vertex 6.18034 19.0211 5.2
      vertex 5.99261 16.0858 5.2
      vertex 7.68641 16.84 5.2
    endloop
  endfacet
  facet normal 0 0 1
    outer loop
      vertex 2.09057 19.8904 5.2
      vertex 5.99261 16.0858 5.2
      vertex 6.18034 19.0211 5.2
    endloop
  endfacet
  facet normal 0 0 1
    outer loop
      vertex 6.5 11.2583 5.2
      vertex 2.37472 6.05068 5.2
      vertex 4.05268 5.0819 5.2
    endloop
  endfacet
  facet normal 0 0 1
    outer loop
      vertex 5.99261 16.0858 5.2
      vertex 2.09057 19.8904 5.2
      vertex 5.06556 14.4801 5.2
    endloop
  endfacet
  facet normal -0 0 1
    outer loop
      vertex -2.09057 19.8904 5.2
      vertex 5.06556 14.4801 5.2
      vertex 2.09057 19.8904 5.2
    endloop
  endfacet
  facet normal 0 0 1
    outer loop
      vertex 5.25936 12.6362 5.2
      vertex 0.485745 6.48182 5.2
      vertex 2.37472 6.05068 5.2
    endloop
  endfacet
  facet normal 0 -0 1
    outer loop
      vertex -1.44639 6.33703 5.2
      vertex 5.06556 14.4801 5.2
      vertex -2.09057 19.8904 5.2
    endloop
  endfacet
  facet normal 0 0 1
    outer loop
      vertex 5.25936 12.6362 5.2
      vertex -1.44639 6.33703 5.2
      vertex 0.485745 6.48182 5.2
    endloop
  endfacet
  facet normal -0 0 1
    outer loop
      vertex -6.18034 19.0211 5.2
      vertex -1.44639 6.33703 5.2
      vertex -2.09057 19.8904 5.2
    endloop
  endfacet
  facet normal 0 0 1
    outer loop
      vertex -1.44639 6.33703 5.2
      vertex -6.18034 19.0211 5.2
      vertex -3.25 5.62916 5.2
    endloop
  endfacet
  facet normal -0 0 1
    outer loop
      vertex -10 17.3205 5.2
      vertex -3.25 5.62916 5.2
      vertex -6.18034 19.0211 5.2
    endloop
  endfacet
  facet normal -0 0 1
    outer loop
      vertex -13.3826 14.8629 5.2
      vertex -3.25 5.62916 5.2
      vertex -10 17.3205 5.2
    endloop
  endfacet
  facet normal 0 0 1
    outer loop
      vertex -3.25 5.62916 5.2
      vertex -13.3826 14.8629 5.2
      vertex -4.76484 4.42112 5.2
    endloop
  endfacet
  facet normal 0 -0 1
    outer loop
      vertex -15.0729 2.85317 5.2
      vertex -4.76484 4.42112 5.2
      vertex -16.1803 11.7557 5.2
    endloop
  endfacet
  facet normal -0 0 1
    outer loop
      vertex -16.1803 11.7557 5.2
      vertex -4.76484 4.42112 5.2
      vertex -13.3826 14.8629 5.2
    endloop
  endfacet
  facet normal 0 0 1
    outer loop
      vertex 16.1803 -11.7557 5.2
      vertex 10.9344 -13.2327 5.2
      vertex 13.3826 -14.8629 5.2
    endloop
  endfacet
  facet normal 0 0 1
    outer loop
      vertex 10.7406 -15.0766 5.2
      vertex 13.3826 -14.8629 5.2
      vertex 10.9344 -13.2327 5.2
    endloop
  endfacet
  facet normal -0 0 1
    outer loop
      vertex 10.7406 -15.0766 5.2
      vertex 10 -17.3205 5.2
      vertex 13.3826 -14.8629 5.2
    endloop
  endfacet
  facet normal -0 0 1
    outer loop
      vertex 9.5 -16.4545 5.2
      vertex 10 -17.3205 5.2
      vertex 10.7406 -15.0766 5.2
    endloop
  endfacet
  facet normal -0 0 1
    outer loop
      vertex 7.68641 -16.84 5.2
      vertex 10 -17.3205 5.2
      vertex 9.5 -16.4545 5.2
    endloop
  endfacet
  facet normal 0 0 1
    outer loop
      vertex 7.68641 -16.84 5.2
      vertex 6.18034 -19.0211 5.2
      vertex 10 -17.3205 5.2
    endloop
  endfacet
  facet normal 0 0 1
    outer loop
      vertex 5.99261 -16.0858 5.2
      vertex 6.18034 -19.0211 5.2
      vertex 7.68641 -16.84 5.2
    endloop
  endfacet
  facet normal 0 0 1
    outer loop
      vertex 2.09057 -19.8904 5.2
      vertex 5.99261 -16.0858 5.2
      vertex 5.06556 -14.4801 5.2
    endloop
  endfacet
  facet normal -0 0 1
    outer loop
      vertex 0.485745 -6.48182 5.2
      vertex 5.25936 -12.6362 5.2
      vertex 2.37472 -6.05068 5.2
    endloop
  endfacet
  facet normal 0 0 1
    outer loop
      vertex -1.44639 -6.33703 5.2
      vertex 5.25936 -12.6362 5.2
      vertex 0.485745 -6.48182 5.2
    endloop
  endfacet
  facet normal 0 0 1
    outer loop
      vertex 5.25936 -12.6362 5.2
      vertex -1.44639 -6.33703 5.2
      vertex 5.06556 -14.4801 5.2
    endloop
  endfacet
  facet normal 0 0 1
    outer loop
      vertex 5.99261 -16.0858 5.2
      vertex 2.09057 -19.8904 5.2
      vertex 6.18034 -19.0211 5.2
    endloop
  endfacet
  facet normal 0 0 1
    outer loop
      vertex 5.06556 -14.4801 5.2
      vertex -1.44639 -6.33703 5.2
      vertex -2.09057 -19.8904 5.2
    endloop
  endfacet
  facet normal 0 0 1
    outer loop
      vertex 5.06556 -14.4801 5.2
      vertex -2.09057 -19.8904 5.2
      vertex 2.09057 -19.8904 5.2
    endloop
  endfacet
  facet normal 0 0 1
    outer loop
      vertex -6.18034 -19.0211 5.2
      vertex -1.44639 -6.33703 5.2
      vertex -3.25 -5.62916 5.2
    endloop
  endfacet
  facet normal 0 0 1
    outer loop
      vertex -13.3826 -14.8629 5.2
      vertex -3.25 -5.62916 5.2
      vertex -4.76484 -4.42112 5.2
    endloop
  endfacet
  facet normal 0 0 1
    outer loop
      vertex -6.4274 -0.968774 5.2
      vertex -13.5729 -1.76336 5.2
      vertex -5.8563 -2.82024 5.2
    endloop
  endfacet
  facet normal 0 0 1
    outer loop
      vertex -1.44639 -6.33703 5.2
      vertex -6.18034 -19.0211 5.2
      vertex -2.09057 -19.8904 5.2
    endloop
  endfacet
  facet normal 0 0 1
    outer loop
      vertex -13.5729 -1.76336 5.2
      vertex -6.4274 -0.968774 5.2
      vertex -13 6.36816e-16 5.2
    endloop
  endfacet
  facet normal 0 0 1
    outer loop
      vertex -5.8563 2.82024 5.2
      vertex -13.5729 1.76336 5.2
      vertex -6.4274 0.968774 5.2
    endloop
  endfacet
  facet normal 0 0 1
    outer loop
      vertex -5.8563 -2.82024 5.2
      vertex -13.3826 -14.8629 5.2
      vertex -4.76484 -4.42112 5.2
    endloop
  endfacet
  facet normal 0 0 1
    outer loop
      vertex -3.25 -5.62916 5.2
      vertex -10 -17.3205 5.2
      vertex -6.18034 -19.0211 5.2
    endloop
  endfacet
  facet normal 0 -0 1
    outer loop
      vertex -13 6.36816e-16 5.2
      vertex -6.4274 0.968774 5.2
      vertex -13.5729 1.76336 5.2
    endloop
  endfacet
  facet normal 0 0 1
    outer loop
      vertex -6.4274 0.968774 5.2
      vertex -13 6.36816e-16 5.2
      vertex -6.4274 -0.968774 5.2
    endloop
  endfacet
  facet normal 0 -0 1
    outer loop
      vertex -13.5729 1.76336 5.2
      vertex -4.76484 4.42112 5.2
      vertex -15.0729 2.85317 5.2
    endloop
  endfacet
  facet normal 0 0 1
    outer loop
      vertex -4.76484 4.42112 5.2
      vertex -13.5729 1.76336 5.2
      vertex -5.8563 2.82024 5.2
    endloop
  endfacet
  facet normal -0 0 1
    outer loop
      vertex -18.2709 8.13473 5.2
      vertex -15.0729 2.85317 5.2
      vertex -16.1803 11.7557 5.2
    endloop
  endfacet
  facet normal 0 0 1
    outer loop
      vertex -15.0729 2.85317 5.2
      vertex -18.2709 8.13473 5.2
      vertex -16.9271 2.85317 5.2
    endloop
  endfacet
  facet normal -0 0 1
    outer loop
      vertex -19.563 4.15823 5.2
      vertex -16.9271 2.85317 5.2
      vertex -18.2709 8.13473 5.2
    endloop
  endfacet
  facet normal 0 0 1
    outer loop
      vertex -16.9271 2.85317 5.2
      vertex -19.563 4.15823 5.2
      vertex -18.4271 1.76336 5.2
    endloop
  endfacet
  facet normal 0 0 1
    outer loop
      vertex -20 0 5.2
      vertex -18.4271 1.76336 5.2
      vertex -19.563 4.15823 5.2
    endloop
  endfacet
  facet normal 0.866026 -0.5 0
    outer loop
      vertex 16.1803 -11.7557 5.2
      vertex 18.2709 -8.13473 0
      vertex 18.2709 -8.13473 5.2
    endloop
  endfacet
  facet normal 0.866026 -0.5 0
    outer loop
      vertex 18.2709 -8.13473 0
      vertex 16.1803 -11.7557 5.2
      vertex 16.1803 -11.7557 0
    endloop
  endfacet
  facet normal 0 -1 0
    outer loop
      vertex -2.09057 -19.8904 0
      vertex 2.09057 -19.8904 5.2
      vertex -2.09057 -19.8904 5.2
    endloop
  endfacet
  facet normal 0 -1 -0
    outer loop
      vertex 2.09057 -19.8904 5.2
      vertex -2.09057 -19.8904 0
      vertex 2.09057 -19.8904 0
    endloop
  endfacet
  facet normal -0.994522 -0.104529 0
    outer loop
      vertex -19.563 -4.15823 0
      vertex -20 0 5.2
      vertex -20 0 0
    endloop
  endfacet
  facet normal -0.994522 -0.104529 0
    outer loop
      vertex -20 0 5.2
      vertex -19.563 -4.15823 0
      vertex -19.563 -4.15823 5.2
    endloop
  endfacet
  facet normal 0 0 -1
    outer loop
      vertex 10.0074 11.627 0
      vertex 16.1803 11.7557 0
      vertex 10.1127 7.34731 0
    endloop
  endfacet
  facet normal -0 0 -1
    outer loop
      vertex 16.1803 11.7557 0
      vertex 10.0074 11.627 0
      vertex 10.9344 13.2327 0
    endloop
  endfacet
  facet normal 0 0 -1
    outer loop
      vertex 8.36413 9.28931 0
      vertex 10.0074 11.627 0
      vertex 10.1127 7.34731 0
    endloop
  endfacet
  facet normal 0 0 -1
    outer loop
      vertex 8.36413 9.28931 0
      vertex 8.31359 10.8728 0
      vertex 10.0074 11.627 0
    endloop
  endfacet
  facet normal 0 0 -1
    outer loop
      vertex 6.25 10.8253 0
      vertex 8.31359 10.8728 0
      vertex 8.36413 9.28931 0
    endloop
  endfacet
  facet normal -0 0 -1
    outer loop
      vertex 8.31359 10.8728 0
      vertex 6.25 10.8253 0
      vertex 6.5 11.2583 0
    endloop
  endfacet
  facet normal 0 0 -1
    outer loop
      vertex 6.25 10.8253 0
      vertex 5.25936 12.6362 0
      vertex 6.5 11.2583 0
    endloop
  endfacet
  facet normal -0 0 -1
    outer loop
      vertex 5.25936 12.6362 0
      vertex 3.86271 11.8882 0
      vertex 5.06556 14.4801 0
    endloop
  endfacet
  facet normal 0 0 -1
    outer loop
      vertex 3.86271 11.8882 0
      vertex 5.25936 12.6362 0
      vertex 6.25 10.8253 0
    endloop
  endfacet
  facet normal 0 0 -1
    outer loop
      vertex 12.5 0 0
      vertex 20 0 0
      vertex 19.563 -4.15823 0
    endloop
  endfacet
  facet normal 0 0 -1
    outer loop
      vertex 12.2268 -2.5989 0
      vertex 19.563 -4.15823 0
      vertex 18.2709 -8.13473 0
    endloop
  endfacet
  facet normal 0 0 -1
    outer loop
      vertex 20 0 0
      vertex 12.5 0 0
      vertex 19.563 4.15823 0
    endloop
  endfacet
  facet normal 0 0 -1
    outer loop
      vertex 11.4193 -5.08421 0
      vertex 18.2709 -8.13473 0
      vertex 16.1803 -11.7557 0
    endloop
  endfacet
  facet normal 0 0 -1
    outer loop
      vertex 12.2268 2.5989 0
      vertex 19.563 4.15823 0
      vertex 12.5 0 0
    endloop
  endfacet
  facet normal 0 0 -1
    outer loop
      vertex 10.9344 -13.2327 0
      vertex 16.1803 -11.7557 0
      vertex 13.3826 -14.8629 0
    endloop
  endfacet
  facet normal -0 0 -1
    outer loop
      vertex 19.563 4.15823 0
      vertex 12.2268 2.5989 0
      vertex 18.2709 8.13473 0
    endloop
  endfacet
  facet normal 0 0 -1
    outer loop
      vertex 11.4193 5.08421 0
      vertex 18.2709 8.13473 0
      vertex 12.2268 2.5989 0
    endloop
  endfacet
  facet normal 0 0 -1
    outer loop
      vertex 19.563 -4.15823 0
      vertex 12.2268 -2.5989 0
      vertex 12.5 0 0
    endloop
  endfacet
  facet normal 0 0 -1
    outer loop
      vertex 18.2709 -8.13473 0
      vertex 11.4193 -5.08421 0
      vertex 12.2268 -2.5989 0
    endloop
  endfacet
  facet normal -0 0 -1
    outer loop
      vertex 16.1803 -11.7557 0
      vertex 10.9344 -13.2327 0
      vertex 10.0074 -11.627 0
    endloop
  endfacet
  facet normal -0 0 -1
    outer loop
      vertex 13.3826 -14.8629 0
      vertex 10.7406 -15.0766 0
      vertex 10.9344 -13.2327 0
    endloop
  endfacet
  facet normal 0 0 -1
    outer loop
      vertex 10 -17.3205 0
      vertex 10.7406 -15.0766 0
      vertex 13.3826 -14.8629 0
    endloop
  endfacet
  facet normal 0 0 -1
    outer loop
      vertex 10 -17.3205 0
      vertex 9.5 -16.4545 0
      vertex 10.7406 -15.0766 0
    endloop
  endfacet
  facet normal 0 0 -1
    outer loop
      vertex 10 -17.3205 0
      vertex 7.68641 -16.84 0
      vertex 9.5 -16.4545 0
    endloop
  endfacet
  facet normal 0 0 -1
    outer loop
      vertex 6.18034 -19.0211 0
      vertex 7.68641 -16.84 0
      vertex 10 -17.3205 0
    endloop
  endfacet
  facet normal 0 0 -1
    outer loop
      vertex 6.18034 -19.0211 0
      vertex 5.99261 -16.0858 0
      vertex 7.68641 -16.84 0
    endloop
  endfacet
  facet normal 0 0 -1
    outer loop
      vertex 2.09057 -19.8904 0
      vertex 5.99261 -16.0858 0
      vertex 6.18034 -19.0211 0
    endloop
  endfacet
  facet normal -0 0 -1
    outer loop
      vertex 5.99261 -16.0858 0
      vertex 2.09057 -19.8904 0
      vertex 5.06556 -14.4801 0
    endloop
  endfacet
  facet normal 0 0 -1
    outer loop
      vertex 1.30661 -12.4315 0
      vertex 5.06556 -14.4801 0
      vertex 2.09057 -19.8904 0
    endloop
  endfacet
  facet normal 0 0 -1
    outer loop
      vertex 5.06556 -14.4801 0
      vertex 1.30661 -12.4315 0
      vertex 3.86271 -11.8882 0
    endloop
  endfacet
  facet normal 0 0 -1
    outer loop
      vertex 2.09057 -19.8904 0
      vertex -1.30661 -12.4315 0
      vertex 1.30661 -12.4315 0
    endloop
  endfacet
  facet normal 0 0 -1
    outer loop
      vertex -2.09057 -19.8904 0
      vertex -1.30661 -12.4315 0
      vertex 2.09057 -19.8904 0
    endloop
  endfacet
  facet normal 0 0 -1
    outer loop
      vertex -2.09057 -19.8904 0
      vertex -3.86271 -11.8882 0
      vertex -1.30661 -12.4315 0
    endloop
  endfacet
  facet normal 0 0 -1
    outer loop
      vertex -6.18034 -19.0211 0
      vertex -3.86271 -11.8882 0
      vertex -2.09057 -19.8904 0
    endloop
  endfacet
  facet normal 0 0 -1
    outer loop
      vertex -6.18034 -19.0211 0
      vertex -6.25 -10.8253 0
      vertex -3.86271 -11.8882 0
    endloop
  endfacet
  facet normal 0 0 -1
    outer loop
      vertex -10 -17.3205 0
      vertex -6.25 -10.8253 0
      vertex -6.18034 -19.0211 0
    endloop
  endfacet
  facet normal -0 0 -1
    outer loop
      vertex -6.25 -10.8253 0
      vertex -10 -17.3205 0
      vertex -8.36413 -9.28931 0
    endloop
  endfacet
  facet normal 0 0 -1
    outer loop
      vertex -13.3826 -14.8629 0
      vertex -8.36413 -9.28931 0
      vertex -10 -17.3205 0
    endloop
  endfacet
  facet normal -0 0 -1
    outer loop
      vertex -8.36413 -9.28931 0
      vertex -13.3826 -14.8629 0
      vertex -10.1127 -7.34731 0
    endloop
  endfacet
  facet normal 0 0 -1
    outer loop
      vertex -16.1803 -11.7557 0
      vertex -10.1127 -7.34731 0
      vertex -13.3826 -14.8629 0
    endloop
  endfacet
  facet normal 0 0 -1
    outer loop
      vertex -13.5729 -1.76336 0
      vertex -12.5 0 0
      vertex -12.2268 -2.5989 0
    endloop
  endfacet
  facet normal -0 0 -1
    outer loop
      vertex -10.1127 -7.34731 0
      vertex -16.1803 -11.7557 0
      vertex -11.4193 -5.08421 0
    endloop
  endfacet
  facet normal 0 0 -1
    outer loop
      vertex -18.2709 -8.13473 0
      vertex -11.4193 -5.08421 0
      vertex -16.1803 -11.7557 0
    endloop
  endfacet
  facet normal -0 0 -1
    outer loop
      vertex -12.5 0 0
      vertex -13.5729 -1.76336 0
      vertex -13 0 0
    endloop
  endfacet
  facet normal 0 0 -1
    outer loop
      vertex -11.4193 -5.08421 0
      vertex -15.0729 -2.85317 0
      vertex -12.2268 -2.5989 0
    endloop
  endfacet
  facet normal -0 0 -1
    outer loop
      vertex -12.2268 -2.5989 0
      vertex -15.0729 -2.85317 0
      vertex -13.5729 -1.76336 0
    endloop
  endfacet
  facet normal -0 0 -1
    outer loop
      vertex -11.4193 -5.08421 0
      vertex -18.2709 -8.13473 0
      vertex -15.0729 -2.85317 0
    endloop
  endfacet
  facet normal -0 0 -1
    outer loop
      vertex -15.0729 -2.85317 0
      vertex -18.2709 -8.13473 0
      vertex -16.9271 -2.85317 0
    endloop
  endfacet
  facet normal 0 0 -1
    outer loop
      vertex -19.563 -4.15823 0
      vertex -16.9271 -2.85317 0
      vertex -18.2709 -8.13473 0
    endloop
  endfacet
  facet normal -0 0 -1
    outer loop
      vertex -16.9271 -2.85317 0
      vertex -19.563 -4.15823 0
      vertex -18.4271 -1.76336 0
    endloop
  endfacet
  facet normal 0 0 -1
    outer loop
      vertex -20 0 0
      vertex -18.4271 -1.76336 0
      vertex -19.563 -4.15823 0
    endloop
  endfacet
  facet normal -0 0 -1
    outer loop
      vertex 18.2709 8.13473 0
      vertex 11.4193 5.08421 0
      vertex 16.1803 11.7557 0
    endloop
  endfacet
  facet normal 0 0 -1
    outer loop
      vertex 10.1127 7.34731 0
      vertex 16.1803 11.7557 0
      vertex 11.4193 5.08421 0
    endloop
  endfacet
  facet normal 0 0 -1
    outer loop
      vertex 16.1803 11.7557 0
      vertex 10.9344 13.2327 0
      vertex 13.3826 14.8629 0
    endloop
  endfacet
  facet normal 0 0 -1
    outer loop
      vertex 10.7406 15.0766 0
      vertex 13.3826 14.8629 0
      vertex 10.9344 13.2327 0
    endloop
  endfacet
  facet normal 0 0 -1
    outer loop
      vertex 10.7406 15.0766 0
      vertex 10 17.3205 0
      vertex 13.3826 14.8629 0
    endloop
  endfacet
  facet normal 0 0 -1
    outer loop
      vertex 9.5 16.4545 0
      vertex 10 17.3205 0
      vertex 10.7406 15.0766 0
    endloop
  endfacet
  facet normal 0 0 -1
    outer loop
      vertex 7.68641 16.84 0
      vertex 10 17.3205 0
      vertex 9.5 16.4545 0
    endloop
  endfacet
  facet normal 0 0 -1
    outer loop
      vertex 7.68641 16.84 0
      vertex 6.18034 19.0211 0
      vertex 10 17.3205 0
    endloop
  endfacet
  facet normal 0 0 -1
    outer loop
      vertex 5.99261 16.0858 0
      vertex 6.18034 19.0211 0
      vertex 7.68641 16.84 0
    endloop
  endfacet
  facet normal 0 0 -1
    outer loop
      vertex 2.09057 19.8904 0
      vertex 5.99261 16.0858 0
      vertex 5.06556 14.4801 0
    endloop
  endfacet
  facet normal 0 0 -1
    outer loop
      vertex 1.30661 12.4315 0
      vertex 5.06556 14.4801 0
      vertex 3.86271 11.8882 0
    endloop
  endfacet
  facet normal 0 0 -1
    outer loop
      vertex 5.99261 16.0858 0
      vertex 2.09057 19.8904 0
      vertex 6.18034 19.0211 0
    endloop
  endfacet
  facet normal -0 0 -1
    outer loop
      vertex 5.06556 14.4801 0
      vertex 1.30661 12.4315 0
      vertex 2.09057 19.8904 0
    endloop
  endfacet
  facet normal 0 0 -1
    outer loop
      vertex -1.30661 12.4315 0
      vertex 2.09057 19.8904 0
      vertex 1.30661 12.4315 0
    endloop
  endfacet
  facet normal 0 0 -1
    outer loop
      vertex -1.30661 12.4315 0
      vertex -2.09057 19.8904 0
      vertex 2.09057 19.8904 0
    endloop
  endfacet
  facet normal 0 0 -1
    outer loop
      vertex -3.86271 11.8882 0
      vertex -2.09057 19.8904 0
      vertex -1.30661 12.4315 0
    endloop
  endfacet
  facet normal 0 0 -1
    outer loop
      vertex -3.86271 11.8882 0
      vertex -6.18034 19.0211 0
      vertex -2.09057 19.8904 0
    endloop
  endfacet
  facet normal 0 0 -1
    outer loop
      vertex -6.25 10.8253 0
      vertex -6.18034 19.0211 0
      vertex -3.86271 11.8882 0
    endloop
  endfacet
  facet normal 0 0 -1
    outer loop
      vertex -10 17.3205 0
      vertex -6.25 10.8253 0
      vertex -8.36413 9.28931 0
    endloop
  endfacet
  facet normal 0 0 -1
    outer loop
      vertex -6.25 10.8253 0
      vertex -10 17.3205 0
      vertex -6.18034 19.0211 0
    endloop
  endfacet
  facet normal 0 0 -1
    outer loop
      vertex -13.3826 14.8629 0
      vertex -8.36413 9.28931 0
      vertex -10.1127 7.34731 0
    endloop
  endfacet
  facet normal 0 0 -1
    outer loop
      vertex -16.1803 11.7557 0
      vertex -10.1127 7.34731 0
      vertex -11.4193 5.08421 0
    endloop
  endfacet
  facet normal 0 0 -1
    outer loop
      vertex -15.0729 2.85317 0
      vertex -11.4193 5.08421 0
      vertex -12.2268 2.5989 0
    endloop
  endfacet
  facet normal 0 0 -1
    outer loop
      vertex -13.5729 1.76336 0
      vertex -12.5 0 0
      vertex -13 0 0
    endloop
  endfacet
  facet normal 0 0 -1
    outer loop
      vertex -12.5 0 0
      vertex -13.5729 1.76336 0
      vertex -12.2268 2.5989 0
    endloop
  endfacet
  facet normal 0 0 -1
    outer loop
      vertex -15.0729 2.85317 0
      vertex -12.2268 2.5989 0
      vertex -13.5729 1.76336 0
    endloop
  endfacet
  facet normal 0 0 -1
    outer loop
      vertex -8.36413 9.28931 0
      vertex -13.3826 14.8629 0
      vertex -10 17.3205 0
    endloop
  endfacet
  facet normal 0 0 -1
    outer loop
      vertex -18.2709 8.13473 0
      vertex -11.4193 5.08421 0
      vertex -15.0729 2.85317 0
    endloop
  endfacet
  facet normal 0 0 -1
    outer loop
      vertex -10.1127 7.34731 0
      vertex -16.1803 11.7557 0
      vertex -13.3826 14.8629 0
    endloop
  endfacet
  facet normal 0 0 -1
    outer loop
      vertex -18.2709 8.13473 0
      vertex -15.0729 2.85317 0
      vertex -16.9271 2.85317 0
    endloop
  endfacet
  facet normal 0 0 -1
    outer loop
      vertex -11.4193 5.08421 0
      vertex -18.2709 8.13473 0
      vertex -16.1803 11.7557 0
    endloop
  endfacet
  facet normal 0 0 -1
    outer loop
      vertex -19.563 4.15823 0
      vertex -16.9271 2.85317 0
      vertex -18.4271 1.76336 0
    endloop
  endfacet
  facet normal 0 0 -1
    outer loop
      vertex -20 0 0
      vertex -18.4271 1.76336 0
      vertex -19 0 0
    endloop
  endfacet
  facet normal 0 0 -1
    outer loop
      vertex -18.4271 -1.76336 0
      vertex -20 0 0
      vertex -19 0 0
    endloop
  endfacet
  facet normal 0 0 -1
    outer loop
      vertex -16.9271 2.85317 0
      vertex -19.563 4.15823 0
      vertex -18.2709 8.13473 0
    endloop
  endfacet
  facet normal -0 0 -1
    outer loop
      vertex -18.4271 1.76336 0
      vertex -20 0 0
      vertex -19.563 4.15823 0
    endloop
  endfacet
  facet normal 0 0 -1
    outer loop
      vertex 16.1803 -11.7557 0
      vertex 10.1127 -7.34731 0
      vertex 11.4193 -5.08421 0
    endloop
  endfacet
  facet normal 0 0 -1
    outer loop
      vertex 16.1803 -11.7557 0
      vertex 10.0074 -11.627 0
      vertex 10.1127 -7.34731 0
    endloop
  endfacet
  facet normal 0 0 -1
    outer loop
      vertex 10.0074 -11.627 0
      vertex 8.36413 -9.28931 0
      vertex 10.1127 -7.34731 0
    endloop
  endfacet
  facet normal 0 0 -1
    outer loop
      vertex 8.31359 -10.8728 0
      vertex 8.36413 -9.28931 0
      vertex 10.0074 -11.627 0
    endloop
  endfacet
  facet normal 0 0 -1
    outer loop
      vertex 6.25 -10.8253 0
      vertex 8.31359 -10.8728 0
      vertex 6.5 -11.2583 0
    endloop
  endfacet
  facet normal 0 0 -1
    outer loop
      vertex 8.31359 -10.8728 0
      vertex 6.25 -10.8253 0
      vertex 8.36413 -9.28931 0
    endloop
  endfacet
  facet normal 0 0 -1
    outer loop
      vertex 5.25936 -12.6362 0
      vertex 6.25 -10.8253 0
      vertex 6.5 -11.2583 0
    endloop
  endfacet
  facet normal 0 0 -1
    outer loop
      vertex 5.25936 -12.6362 0
      vertex 3.86271 -11.8882 0
      vertex 6.25 -10.8253 0
    endloop
  endfacet
  facet normal 0 0 -1
    outer loop
      vertex 3.86271 -11.8882 0
      vertex 5.25936 -12.6362 0
      vertex 5.06556 -14.4801 0
    endloop
  endfacet
  facet normal 0.207912 -0.978148 0
    outer loop
      vertex 2.09057 -19.8904 0
      vertex 6.18034 -19.0211 5.2
      vertex 2.09057 -19.8904 5.2
    endloop
  endfacet
  facet normal 0.207912 -0.978148 0
    outer loop
      vertex 6.18034 -19.0211 5.2
      vertex 2.09057 -19.8904 0
      vertex 6.18034 -19.0211 0
    endloop
  endfacet
  facet normal 0.406737 -0.913545 0
    outer loop
      vertex 6.18034 -19.0211 0
      vertex 10 -17.3205 5.2
      vertex 6.18034 -19.0211 5.2
    endloop
  endfacet
  facet normal 0.406737 -0.913545 0
    outer loop
      vertex 10 -17.3205 5.2
      vertex 6.18034 -19.0211 0
      vertex 10 -17.3205 0
    endloop
  endfacet
  facet normal -0.207912 -0.978148 0
    outer loop
      vertex -6.18034 -19.0211 0
      vertex -2.09057 -19.8904 5.2
      vertex -6.18034 -19.0211 5.2
    endloop
  endfacet
  facet normal -0.207912 -0.978148 -0
    outer loop
      vertex -2.09057 -19.8904 5.2
      vertex -6.18034 -19.0211 0
      vertex -2.09057 -19.8904 0
    endloop
  endfacet
  facet normal -0.951057 -0.309017 0
    outer loop
      vertex -18.2709 -8.13473 0
      vertex -19.563 -4.15823 5.2
      vertex -19.563 -4.15823 0
    endloop
  endfacet
  facet normal -0.951057 -0.309017 0
    outer loop
      vertex -19.563 -4.15823 5.2
      vertex -18.2709 -8.13473 0
      vertex -18.2709 -8.13473 5.2
    endloop
  endfacet
  facet normal -0.743145 -0.669131 0
    outer loop
      vertex -13.3826 -14.8629 0
      vertex -16.1803 -11.7557 5.2
      vertex -16.1803 -11.7557 0
    endloop
  endfacet
  facet normal -0.743145 -0.669131 0
    outer loop
      vertex -16.1803 -11.7557 5.2
      vertex -13.3826 -14.8629 0
      vertex -13.3826 -14.8629 5.2
    endloop
  endfacet
  facet normal 0.743145 -0.669131 0
    outer loop
      vertex 13.3826 -14.8629 5.2
      vertex 16.1803 -11.7557 0
      vertex 16.1803 -11.7557 5.2
    endloop
  endfacet
  facet normal 0.743145 -0.669131 0
    outer loop
      vertex 16.1803 -11.7557 0
      vertex 13.3826 -14.8629 5.2
      vertex 13.3826 -14.8629 0
    endloop
  endfacet
  facet normal -0.406737 -0.913545 0
    outer loop
      vertex -10 -17.3205 0
      vertex -6.18034 -19.0211 5.2
      vertex -10 -17.3205 5.2
    endloop
  endfacet
  facet normal -0.406737 -0.913545 -0
    outer loop
      vertex -6.18034 -19.0211 5.2
      vertex -10 -17.3205 0
      vertex -6.18034 -19.0211 0
    endloop
  endfacet
  facet normal -0.587785 -0.809017 0
    outer loop
      vertex -13.3826 -14.8629 0
      vertex -10 -17.3205 5.2
      vertex -13.3826 -14.8629 5.2
    endloop
  endfacet
  facet normal -0.587785 -0.809017 -0
    outer loop
      vertex -10 -17.3205 5.2
      vertex -13.3826 -14.8629 0
      vertex -10 -17.3205 0
    endloop
  endfacet
  facet normal -0.994522 -0.104529 0
    outer loop
      vertex 12.5 0 0
      vertex 12.2268 2.5989 2.9
      vertex 12.2268 2.5989 0
    endloop
  endfacet
  facet normal -0.994522 -0.104529 0
    outer loop
      vertex 12.2268 2.5989 2.9
      vertex 12.5 0 0
      vertex 12.5 0 2.9
    endloop
  endfacet
  facet normal 0.994522 -0.104529 0
    outer loop
      vertex -12.5 0 2.9
      vertex -12.2268 2.5989 0
      vertex -12.2268 2.5989 2.9
    endloop
  endfacet
  facet normal 0.994522 -0.104529 0
    outer loop
      vertex -12.2268 2.5989 0
      vertex -12.5 0 2.9
      vertex -12.5 0 0
    endloop
  endfacet
  facet normal 0 -1 0
    outer loop
      vertex -1.30661 12.4315 0
      vertex 1.30661 12.4315 2.9
      vertex -1.30661 12.4315 2.9
    endloop
  endfacet
  facet normal 0 -1 -0
    outer loop
      vertex 1.30661 12.4315 2.9
      vertex -1.30661 12.4315 0
      vertex 1.30661 12.4315 0
    endloop
  endfacet
  facet normal 0 1 -0
    outer loop
      vertex 1.30661 -12.4315 0
      vertex -1.30661 -12.4315 2.9
      vertex 1.30661 -12.4315 2.9
    endloop
  endfacet
  facet normal 0 1 0
    outer loop
      vertex -1.30661 -12.4315 2.9
      vertex 1.30661 -12.4315 0
      vertex -1.30661 -12.4315 0
    endloop
  endfacet
  facet normal -0.587786 -0.809017 0
    outer loop
      vertex 6.25 10.8253 0
      vertex 8.36413 9.28931 2.9
      vertex 6.25 10.8253 2.9
    endloop
  endfacet
  facet normal -0.587786 -0.809017 -0
    outer loop
      vertex 8.36413 9.28931 2.9
      vertex 6.25 10.8253 0
      vertex 8.36413 9.28931 0
    endloop
  endfacet
  facet normal 0.743145 -0.669131 0
    outer loop
      vertex -10.1127 7.34731 2.9
      vertex -8.36413 9.28931 0
      vertex -8.36413 9.28931 2.9
    endloop
  endfacet
  facet normal 0.743145 -0.669131 0
    outer loop
      vertex -8.36413 9.28931 0
      vertex -10.1127 7.34731 2.9
      vertex -10.1127 7.34731 0
    endloop
  endfacet
  facet normal 0.866025 -0.5 0
    outer loop
      vertex -11.4193 5.08421 2.9
      vertex -10.1127 7.34731 0
      vertex -10.1127 7.34731 2.9
    endloop
  endfacet
  facet normal 0.866025 -0.5 0
    outer loop
      vertex -10.1127 7.34731 0
      vertex -11.4193 5.08421 2.9
      vertex -11.4193 5.08421 0
    endloop
  endfacet
  facet normal 0.406736 -0.913546 0
    outer loop
      vertex -6.25 10.8253 0
      vertex -3.86271 11.8882 2.9
      vertex -6.25 10.8253 2.9
    endloop
  endfacet
  facet normal 0.406736 -0.913546 0
    outer loop
      vertex -3.86271 11.8882 2.9
      vertex -6.25 10.8253 0
      vertex -3.86271 11.8882 0
    endloop
  endfacet
  facet normal -0.866025 0.5 0
    outer loop
      vertex 10.1127 -7.34731 0
      vertex 11.4193 -5.08421 2.9
      vertex 11.4193 -5.08421 0
    endloop
  endfacet
  facet normal -0.866025 0.5 0
    outer loop
      vertex 11.4193 -5.08421 2.9
      vertex 10.1127 -7.34731 0
      vertex 10.1127 -7.34731 2.9
    endloop
  endfacet
  facet normal -0.866025 -0.5 0
    outer loop
      vertex 11.4193 5.08421 0
      vertex 10.1127 7.34731 2.9
      vertex 10.1127 7.34731 0
    endloop
  endfacet
  facet normal -0.866025 -0.5 0
    outer loop
      vertex 10.1127 7.34731 2.9
      vertex 11.4193 5.08421 0
      vertex 11.4193 5.08421 2.9
    endloop
  endfacet
  facet normal -0.951057 -0.309017 0
    outer loop
      vertex 12.2268 2.5989 0
      vertex 11.4193 5.08421 2.9
      vertex 11.4193 5.08421 0
    endloop
  endfacet
  facet normal -0.951057 -0.309017 0
    outer loop
      vertex 11.4193 5.08421 2.9
      vertex 12.2268 2.5989 0
      vertex 12.2268 2.5989 2.9
    endloop
  endfacet
  facet normal -0.743145 -0.669131 0
    outer loop
      vertex 10.1127 7.34731 0
      vertex 8.36413 9.28931 2.9
      vertex 8.36413 9.28931 0
    endloop
  endfacet
  facet normal -0.743145 -0.669131 0
    outer loop
      vertex 8.36413 9.28931 2.9
      vertex 10.1127 7.34731 0
      vertex 10.1127 7.34731 2.9
    endloop
  endfacet
  facet normal -0.207912 -0.978148 0
    outer loop
      vertex 1.30661 12.4315 0
      vertex 3.86271 11.8882 2.9
      vertex 1.30661 12.4315 2.9
    endloop
  endfacet
  facet normal -0.207912 -0.978148 -0
    outer loop
      vertex 3.86271 11.8882 2.9
      vertex 1.30661 12.4315 0
      vertex 3.86271 11.8882 0
    endloop
  endfacet
  facet normal -0.406736 -0.913546 0
    outer loop
      vertex 3.86271 11.8882 0
      vertex 6.25 10.8253 2.9
      vertex 3.86271 11.8882 2.9
    endloop
  endfacet
  facet normal -0.406736 -0.913546 -0
    outer loop
      vertex 6.25 10.8253 2.9
      vertex 3.86271 11.8882 0
      vertex 6.25 10.8253 0
    endloop
  endfacet
  facet normal 0.951057 -0.309017 0
    outer loop
      vertex -12.2268 2.5989 2.9
      vertex -11.4193 5.08421 0
      vertex -11.4193 5.08421 2.9
    endloop
  endfacet
  facet normal 0.951057 -0.309017 0
    outer loop
      vertex -11.4193 5.08421 0
      vertex -12.2268 2.5989 2.9
      vertex -12.2268 2.5989 0
    endloop
  endfacet
  facet normal 0 0 -1
    outer loop
      vertex 6.5 0 2.9
      vertex 12.5 0 2.9
      vertex 12.2268 -2.5989 2.9
    endloop
  endfacet
  facet normal 0 0 -1
    outer loop
      vertex 6.21122 -1.91591 2.9
      vertex 12.2268 -2.5989 2.9
      vertex 11.4193 -5.08421 2.9
    endloop
  endfacet
  facet normal 0 0 -1
    outer loop
      vertex 12.5 0 2.9
      vertex 6.5 0 2.9
      vertex 12.2268 2.5989 2.9
    endloop
  endfacet
  facet normal 0 0 -1
    outer loop
      vertex 5.37055 -3.66158 2.9
      vertex 11.4193 -5.08421 2.9
      vertex 10.1127 -7.34731 2.9
    endloop
  endfacet
  facet normal 0 0 -1
    outer loop
      vertex 6.21122 1.91591 2.9
      vertex 12.2268 2.5989 2.9
      vertex 6.5 0 2.9
    endloop
  endfacet
  facet normal 0 0 -1
    outer loop
      vertex 5.37055 -3.66158 2.9
      vertex 10.1127 -7.34731 2.9
      vertex 8.36413 -9.28931 2.9
    endloop
  endfacet
  facet normal -0 0 -1
    outer loop
      vertex 12.2268 2.5989 2.9
      vertex 6.21122 1.91591 2.9
      vertex 11.4193 5.08421 2.9
    endloop
  endfacet
  facet normal 0 0 -1
    outer loop
      vertex 5.37055 3.66158 2.9
      vertex 11.4193 5.08421 2.9
      vertex 6.21122 1.91591 2.9
    endloop
  endfacet
  facet normal 0 0 -1
    outer loop
      vertex 4.05268 -5.0819 2.9
      vertex 8.36413 -9.28931 2.9
      vertex 6.25 -10.8253 2.9
    endloop
  endfacet
  facet normal 0 0 -1
    outer loop
      vertex 12.2268 -2.5989 2.9
      vertex 6.21122 -1.91591 2.9
      vertex 6.5 0 2.9
    endloop
  endfacet
  facet normal 0 0 -1
    outer loop
      vertex 11.4193 -5.08421 2.9
      vertex 5.37055 -3.66158 2.9
      vertex 6.21122 -1.91591 2.9
    endloop
  endfacet
  facet normal 0 0 -1
    outer loop
      vertex 8.36413 -9.28931 2.9
      vertex 4.05268 -5.0819 2.9
      vertex 5.37055 -3.66158 2.9
    endloop
  endfacet
  facet normal 0 0 -1
    outer loop
      vertex 2.37472 -6.05068 2.9
      vertex 6.25 -10.8253 2.9
      vertex 3.86271 -11.8882 2.9
    endloop
  endfacet
  facet normal 0 0 -1
    outer loop
      vertex 6.25 -10.8253 2.9
      vertex 2.37472 -6.05068 2.9
      vertex 4.05268 -5.0819 2.9
    endloop
  endfacet
  facet normal 0 0 -1
    outer loop
      vertex 0.485745 -6.48182 2.9
      vertex 3.86271 -11.8882 2.9
      vertex 1.30661 -12.4315 2.9
    endloop
  endfacet
  facet normal 0 0 -1
    outer loop
      vertex 3.86271 -11.8882 2.9
      vertex 0.485745 -6.48182 2.9
      vertex 2.37472 -6.05068 2.9
    endloop
  endfacet
  facet normal 0 0 -1
    outer loop
      vertex -1.30661 -12.4315 2.9
      vertex 0.485745 -6.48182 2.9
      vertex 1.30661 -12.4315 2.9
    endloop
  endfacet
  facet normal 0 0 -1
    outer loop
      vertex -1.30661 -12.4315 2.9
      vertex -1.44639 -6.33703 2.9
      vertex 0.485745 -6.48182 2.9
    endloop
  endfacet
  facet normal 0 0 -1
    outer loop
      vertex -3.86271 -11.8882 2.9
      vertex -1.44639 -6.33703 2.9
      vertex -1.30661 -12.4315 2.9
    endloop
  endfacet
  facet normal -0 0 -1
    outer loop
      vertex -1.44639 -6.33703 2.9
      vertex -3.86271 -11.8882 2.9
      vertex -3.25 -5.62916 2.9
    endloop
  endfacet
  facet normal 0 0 -1
    outer loop
      vertex -6.25 -10.8253 2.9
      vertex -3.25 -5.62916 2.9
      vertex -3.86271 -11.8882 2.9
    endloop
  endfacet
  facet normal 0 0 -1
    outer loop
      vertex -8.36413 -9.28931 2.9
      vertex -3.25 -5.62916 2.9
      vertex -6.25 -10.8253 2.9
    endloop
  endfacet
  facet normal -0 0 -1
    outer loop
      vertex -3.25 -5.62916 2.9
      vertex -8.36413 -9.28931 2.9
      vertex -4.76484 -4.42112 2.9
    endloop
  endfacet
  facet normal 0 0 -1
    outer loop
      vertex -10.1127 -7.34731 2.9
      vertex -4.76484 -4.42112 2.9
      vertex -8.36413 -9.28931 2.9
    endloop
  endfacet
  facet normal 0 0 -1
    outer loop
      vertex -11.4193 -5.08421 2.9
      vertex -5.8563 -2.82024 2.9
      vertex -10.1127 -7.34731 2.9
    endloop
  endfacet
  facet normal -0 0 -1
    outer loop
      vertex -4.76484 -4.42112 2.9
      vertex -10.1127 -7.34731 2.9
      vertex -5.8563 -2.82024 2.9
    endloop
  endfacet
  facet normal -0 0 -1
    outer loop
      vertex 11.4193 5.08421 2.9
      vertex 5.37055 3.66158 2.9
      vertex 10.1127 7.34731 2.9
    endloop
  endfacet
  facet normal -0 0 -1
    outer loop
      vertex 10.1127 7.34731 2.9
      vertex 5.37055 3.66158 2.9
      vertex 8.36413 9.28931 2.9
    endloop
  endfacet
  facet normal 0 0 -1
    outer loop
      vertex 4.05268 5.0819 2.9
      vertex 8.36413 9.28931 2.9
      vertex 5.37055 3.66158 2.9
    endloop
  endfacet
  facet normal -0 0 -1
    outer loop
      vertex 8.36413 9.28931 2.9
      vertex 4.05268 5.0819 2.9
      vertex 6.25 10.8253 2.9
    endloop
  endfacet
  facet normal 0 0 -1
    outer loop
      vertex 2.37472 6.05068 2.9
      vertex 6.25 10.8253 2.9
      vertex 4.05268 5.0819 2.9
    endloop
  endfacet
  facet normal -0 0 -1
    outer loop
      vertex 6.25 10.8253 2.9
      vertex 2.37472 6.05068 2.9
      vertex 3.86271 11.8882 2.9
    endloop
  endfacet
  facet normal 0 0 -1
    outer loop
      vertex 0.485745 6.48182 2.9
      vertex 3.86271 11.8882 2.9
      vertex 2.37472 6.05068 2.9
    endloop
  endfacet
  facet normal -0 0 -1
    outer loop
      vertex 3.86271 11.8882 2.9
      vertex 0.485745 6.48182 2.9
      vertex 1.30661 12.4315 2.9
    endloop
  endfacet
  facet normal 0 0 -1
    outer loop
      vertex 0.485745 6.48182 2.9
      vertex -1.30661 12.4315 2.9
      vertex 1.30661 12.4315 2.9
    endloop
  endfacet
  facet normal 0 0 -1
    outer loop
      vertex -1.44639 6.33703 2.9
      vertex -1.30661 12.4315 2.9
      vertex 0.485745 6.48182 2.9
    endloop
  endfacet
  facet normal 0 0 -1
    outer loop
      vertex -3.86271 11.8882 2.9
      vertex -1.44639 6.33703 2.9
      vertex -3.25 5.62916 2.9
    endloop
  endfacet
  facet normal 0 0 -1
    outer loop
      vertex -1.44639 6.33703 2.9
      vertex -3.86271 11.8882 2.9
      vertex -1.30661 12.4315 2.9
    endloop
  endfacet
  facet normal 0 0 -1
    outer loop
      vertex -8.36413 9.28931 2.9
      vertex -3.25 5.62916 2.9
      vertex -4.76484 4.42112 2.9
    endloop
  endfacet
  facet normal 0 0 -1
    outer loop
      vertex -10.1127 7.34731 2.9
      vertex -4.76484 4.42112 2.9
      vertex -5.8563 2.82024 2.9
    endloop
  endfacet
  facet normal 0 0 -1
    outer loop
      vertex -3.25 5.62916 2.9
      vertex -6.25 10.8253 2.9
      vertex -3.86271 11.8882 2.9
    endloop
  endfacet
  facet normal 0 0 -1
    outer loop
      vertex -12.2268 2.5989 2.9
      vertex -5.8563 2.82024 2.9
      vertex -6.4274 0.968774 2.9
    endloop
  endfacet
  facet normal 0 0 -1
    outer loop
      vertex -12.2268 -2.5989 2.9
      vertex -5.8563 -2.82024 2.9
      vertex -11.4193 -5.08421 2.9
    endloop
  endfacet
  facet normal 0 0 -1
    outer loop
      vertex -3.25 5.62916 2.9
      vertex -8.36413 9.28931 2.9
      vertex -6.25 10.8253 2.9
    endloop
  endfacet
  facet normal 0 0 -1
    outer loop
      vertex -5.8563 -2.82024 2.9
      vertex -12.2268 -2.5989 2.9
      vertex -6.4274 -0.968774 2.9
    endloop
  endfacet
  facet normal 0 0 -1
    outer loop
      vertex -4.76484 4.42112 2.9
      vertex -10.1127 7.34731 2.9
      vertex -8.36413 9.28931 2.9
    endloop
  endfacet
  facet normal 0 0 -1
    outer loop
      vertex -12.5 0 2.9
      vertex -6.4274 -0.968774 2.9
      vertex -12.2268 -2.5989 2.9
    endloop
  endfacet
  facet normal 0 0 -1
    outer loop
      vertex -5.8563 2.82024 2.9
      vertex -11.4193 5.08421 2.9
      vertex -10.1127 7.34731 2.9
    endloop
  endfacet
  facet normal 0 0 -1
    outer loop
      vertex -6.4274 -0.968774 2.9
      vertex -12.5 0 2.9
      vertex -6.4274 0.968774 2.9
    endloop
  endfacet
  facet normal -0 0 -1
    outer loop
      vertex -5.8563 2.82024 2.9
      vertex -12.2268 2.5989 2.9
      vertex -11.4193 5.08421 2.9
    endloop
  endfacet
  facet normal -0 0 -1
    outer loop
      vertex -6.4274 0.968774 2.9
      vertex -12.5 0 2.9
      vertex -12.2268 2.5989 2.9
    endloop
  endfacet
  facet normal 0.587785 -0.809017 0
    outer loop
      vertex -8.36413 9.28931 0
      vertex -6.25 10.8253 2.9
      vertex -8.36413 9.28931 2.9
    endloop
  endfacet
  facet normal 0.587785 -0.809017 0
    outer loop
      vertex -6.25 10.8253 2.9
      vertex -8.36413 9.28931 0
      vertex -6.25 10.8253 0
    endloop
  endfacet
  facet normal 0.207912 -0.978148 0
    outer loop
      vertex -3.86271 11.8882 0
      vertex -1.30661 12.4315 2.9
      vertex -3.86271 11.8882 2.9
    endloop
  endfacet
  facet normal 0.207912 -0.978148 0
    outer loop
      vertex -1.30661 12.4315 2.9
      vertex -3.86271 11.8882 0
      vertex -1.30661 12.4315 0
    endloop
  endfacet
  facet normal -0.951057 0.309017 0
    outer loop
      vertex 11.4193 -5.08421 0
      vertex 12.2268 -2.5989 2.9
      vertex 12.2268 -2.5989 0
    endloop
  endfacet
  facet normal -0.951057 0.309017 0
    outer loop
      vertex 12.2268 -2.5989 2.9
      vertex 11.4193 -5.08421 0
      vertex 11.4193 -5.08421 2.9
    endloop
  endfacet
  facet normal -0.994522 0.104529 0
    outer loop
      vertex 12.2268 -2.5989 0
      vertex 12.5 0 2.9
      vertex 12.5 0 0
    endloop
  endfacet
  facet normal -0.994522 0.104529 0
    outer loop
      vertex 12.5 0 2.9
      vertex 12.2268 -2.5989 0
      vertex 12.2268 -2.5989 2.9
    endloop
  endfacet
  facet normal 0.866025 0.5 0
    outer loop
      vertex -10.1127 -7.34731 2.9
      vertex -11.4193 -5.08421 0
      vertex -11.4193 -5.08421 2.9
    endloop
  endfacet
  facet normal 0.866025 0.5 0
    outer loop
      vertex -11.4193 -5.08421 0
      vertex -10.1127 -7.34731 2.9
      vertex -10.1127 -7.34731 0
    endloop
  endfacet
  facet normal -0.587786 0.809017 0
    outer loop
      vertex 8.36413 -9.28931 0
      vertex 6.25 -10.8253 2.9
      vertex 8.36413 -9.28931 2.9
    endloop
  endfacet
  facet normal -0.587786 0.809017 0
    outer loop
      vertex 6.25 -10.8253 2.9
      vertex 8.36413 -9.28931 0
      vertex 6.25 -10.8253 0
    endloop
  endfacet
  facet normal 0.743145 0.669131 0
    outer loop
      vertex -8.36413 -9.28931 2.9
      vertex -10.1127 -7.34731 0
      vertex -10.1127 -7.34731 2.9
    endloop
  endfacet
  facet normal 0.743145 0.669131 0
    outer loop
      vertex -10.1127 -7.34731 0
      vertex -8.36413 -9.28931 2.9
      vertex -8.36413 -9.28931 0
    endloop
  endfacet
  facet normal 0.951057 0.309017 0
    outer loop
      vertex -11.4193 -5.08421 2.9
      vertex -12.2268 -2.5989 0
      vertex -12.2268 -2.5989 2.9
    endloop
  endfacet
  facet normal 0.951057 0.309017 0
    outer loop
      vertex -12.2268 -2.5989 0
      vertex -11.4193 -5.08421 2.9
      vertex -11.4193 -5.08421 0
    endloop
  endfacet
  facet normal 0.994522 0.104529 0
    outer loop
      vertex -12.2268 -2.5989 2.9
      vertex -12.5 0 0
      vertex -12.5 0 2.9
    endloop
  endfacet
  facet normal 0.994522 0.104529 0
    outer loop
      vertex -12.5 0 0
      vertex -12.2268 -2.5989 2.9
      vertex -12.2268 -2.5989 0
    endloop
  endfacet
  facet normal -0.406736 0.913546 0
    outer loop
      vertex 6.25 -10.8253 0
      vertex 3.86271 -11.8882 2.9
      vertex 6.25 -10.8253 2.9
    endloop
  endfacet
  facet normal -0.406736 0.913546 0
    outer loop
      vertex 3.86271 -11.8882 2.9
      vertex 6.25 -10.8253 0
      vertex 3.86271 -11.8882 0
    endloop
  endfacet
  facet normal -0.207912 0.978148 0
    outer loop
      vertex 3.86271 -11.8882 0
      vertex 1.30661 -12.4315 2.9
      vertex 3.86271 -11.8882 2.9
    endloop
  endfacet
  facet normal -0.207912 0.978148 0
    outer loop
      vertex 1.30661 -12.4315 2.9
      vertex 3.86271 -11.8882 0
      vertex 1.30661 -12.4315 0
    endloop
  endfacet
  facet normal -0.743145 0.669131 0
    outer loop
      vertex 8.36413 -9.28931 0
      vertex 10.1127 -7.34731 2.9
      vertex 10.1127 -7.34731 0
    endloop
  endfacet
  facet normal -0.743145 0.669131 0
    outer loop
      vertex 10.1127 -7.34731 2.9
      vertex 8.36413 -9.28931 0
      vertex 8.36413 -9.28931 2.9
    endloop
  endfacet
  facet normal 0.406736 0.913546 -0
    outer loop
      vertex -3.86271 -11.8882 0
      vertex -6.25 -10.8253 2.9
      vertex -3.86271 -11.8882 2.9
    endloop
  endfacet
  facet normal 0.406736 0.913546 0
    outer loop
      vertex -6.25 -10.8253 2.9
      vertex -3.86271 -11.8882 0
      vertex -6.25 -10.8253 0
    endloop
  endfacet
  facet normal 0.587786 0.809017 -0
    outer loop
      vertex -6.25 -10.8253 0
      vertex -8.36413 -9.28931 2.9
      vertex -6.25 -10.8253 2.9
    endloop
  endfacet
  facet normal 0.587786 0.809017 0
    outer loop
      vertex -8.36413 -9.28931 2.9
      vertex -6.25 -10.8253 0
      vertex -8.36413 -9.28931 0
    endloop
  endfacet
  facet normal 0.207912 0.978148 -0
    outer loop
      vertex -1.30661 -12.4315 0
      vertex -3.86271 -11.8882 2.9
      vertex -1.30661 -12.4315 2.9
    endloop
  endfacet
  facet normal 0.207912 0.978148 0
    outer loop
      vertex -3.86271 -11.8882 2.9
      vertex -1.30661 -12.4315 0
      vertex -3.86271 -11.8882 0
    endloop
  endfacet
  facet normal -0.988831 -0.149043 0
    outer loop
      vertex 6.5 0 2.9
      vertex 6.21122 1.91591 5.2
      vertex 6.21122 1.91591 2.9
    endloop
  endfacet
  facet normal -0.988831 -0.149043 0
    outer loop
      vertex 6.21122 1.91591 5.2
      vertex 6.5 0 2.9
      vertex 6.5 0 5.2
    endloop
  endfacet
  facet normal 1 -0 0
    outer loop
      vertex -6.4274 -0.968774 5.2
      vertex -6.4274 0.968774 2.9
      vertex -6.4274 0.968774 5.2
    endloop
  endfacet
  facet normal 1 0 0
    outer loop
      vertex -6.4274 0.968774 2.9
      vertex -6.4274 -0.968774 5.2
      vertex -6.4274 -0.968774 2.9
    endloop
  endfacet
  facet normal 0.0747298 -0.997204 0
    outer loop
      vertex -1.44639 6.33703 2.9
      vertex 0.485745 6.48182 5.2
      vertex -1.44639 6.33703 5.2
    endloop
  endfacet
  facet normal 0.0747298 -0.997204 0
    outer loop
      vertex 0.485745 6.48182 5.2
      vertex -1.44639 6.33703 2.9
      vertex 0.485745 6.48182 2.9
    endloop
  endfacet
  facet normal -0.222521 0.974928 0
    outer loop
      vertex 2.37472 -6.05068 2.9
      vertex 0.485745 -6.48182 5.2
      vertex 2.37472 -6.05068 5.2
    endloop
  endfacet
  facet normal -0.222521 0.974928 0
    outer loop
      vertex 0.485745 -6.48182 5.2
      vertex 2.37472 -6.05068 2.9
      vertex 0.485745 -6.48182 2.9
    endloop
  endfacet
  facet normal -0.5 0.866025 0
    outer loop
      vertex 4.05268 -5.0819 2.9
      vertex 2.37472 -6.05068 5.2
      vertex 4.05268 -5.0819 5.2
    endloop
  endfacet
  facet normal -0.5 0.866025 0
    outer loop
      vertex 2.37472 -6.05068 5.2
      vertex 4.05268 -5.0819 2.9
      vertex 2.37472 -6.05068 2.9
    endloop
  endfacet
  facet normal -0.733052 -0.680173 0
    outer loop
      vertex 5.37055 3.66158 2.9
      vertex 4.05268 5.0819 5.2
      vertex 4.05268 5.0819 2.9
    endloop
  endfacet
  facet normal -0.733052 -0.680173 0
    outer loop
      vertex 4.05268 5.0819 5.2
      vertex 5.37055 3.66158 2.9
      vertex 5.37055 3.66158 5.2
    endloop
  endfacet
  facet normal -0.900969 -0.433884 0
    outer loop
      vertex 6.21122 1.91591 2.9
      vertex 5.37055 3.66158 5.2
      vertex 5.37055 3.66158 2.9
    endloop
  endfacet
  facet normal -0.900969 -0.433884 0
    outer loop
      vertex 5.37055 3.66158 5.2
      vertex 6.21122 1.91591 2.9
      vertex 6.21122 1.91591 5.2
    endloop
  endfacet
  facet normal -0.5 -0.866025 0
    outer loop
      vertex 2.37472 6.05068 2.9
      vertex 4.05268 5.0819 5.2
      vertex 2.37472 6.05068 5.2
    endloop
  endfacet
  facet normal -0.5 -0.866025 -0
    outer loop
      vertex 4.05268 5.0819 5.2
      vertex 2.37472 6.05068 2.9
      vertex 4.05268 5.0819 2.9
    endloop
  endfacet
  facet normal 0.826239 -0.56332 0
    outer loop
      vertex -5.8563 2.82024 5.2
      vertex -4.76484 4.42112 2.9
      vertex -4.76484 4.42112 5.2
    endloop
  endfacet
  facet normal 0.826239 -0.56332 0
    outer loop
      vertex -4.76484 4.42112 2.9
      vertex -5.8563 2.82024 5.2
      vertex -5.8563 2.82024 2.9
    endloop
  endfacet
  facet normal 0.955573 -0.294755 0
    outer loop
      vertex -6.4274 0.968774 5.2
      vertex -5.8563 2.82024 2.9
      vertex -5.8563 2.82024 5.2
    endloop
  endfacet
  facet normal 0.955573 -0.294755 0
    outer loop
      vertex -5.8563 2.82024 2.9
      vertex -6.4274 0.968774 5.2
      vertex -6.4274 0.968774 2.9
    endloop
  endfacet
  facet normal 0.62349 -0.781832 0
    outer loop
      vertex -4.76484 4.42112 2.9
      vertex -3.25 5.62916 5.2
      vertex -4.76484 4.42112 5.2
    endloop
  endfacet
  facet normal 0.62349 -0.781832 0
    outer loop
      vertex -3.25 5.62916 5.2
      vertex -4.76484 4.42112 2.9
      vertex -3.25 5.62916 2.9
    endloop
  endfacet
  facet normal -0.222521 -0.974928 0
    outer loop
      vertex 0.485745 6.48182 2.9
      vertex 2.37472 6.05068 5.2
      vertex 0.485745 6.48182 5.2
    endloop
  endfacet
  facet normal -0.222521 -0.974928 -0
    outer loop
      vertex 2.37472 6.05068 5.2
      vertex 0.485745 6.48182 2.9
      vertex 2.37472 6.05068 2.9
    endloop
  endfacet
  facet normal 0.365341 -0.930874 0
    outer loop
      vertex -3.25 5.62916 2.9
      vertex -1.44639 6.33703 5.2
      vertex -3.25 5.62916 5.2
    endloop
  endfacet
  facet normal 0.365341 -0.930874 0
    outer loop
      vertex -1.44639 6.33703 5.2
      vertex -3.25 5.62916 2.9
      vertex -1.44639 6.33703 2.9
    endloop
  endfacet
  facet normal 0.955573 0.294755 0
    outer loop
      vertex -5.8563 -2.82024 5.2
      vertex -6.4274 -0.968774 2.9
      vertex -6.4274 -0.968774 5.2
    endloop
  endfacet
  facet normal 0.955573 0.294755 0
    outer loop
      vertex -6.4274 -0.968774 2.9
      vertex -5.8563 -2.82024 5.2
      vertex -5.8563 -2.82024 2.9
    endloop
  endfacet
  facet normal -0.733052 0.680173 0
    outer loop
      vertex 4.05268 -5.0819 2.9
      vertex 5.37055 -3.66158 5.2
      vertex 5.37055 -3.66158 2.9
    endloop
  endfacet
  facet normal -0.733052 0.680173 0
    outer loop
      vertex 5.37055 -3.66158 5.2
      vertex 4.05268 -5.0819 2.9
      vertex 4.05268 -5.0819 5.2
    endloop
  endfacet
  facet normal -0.900969 0.433884 0
    outer loop
      vertex 5.37055 -3.66158 2.9
      vertex 6.21122 -1.91591 5.2
      vertex 6.21122 -1.91591 2.9
    endloop
  endfacet
  facet normal -0.900969 0.433884 0
    outer loop
      vertex 6.21122 -1.91591 5.2
      vertex 5.37055 -3.66158 2.9
      vertex 5.37055 -3.66158 5.2
    endloop
  endfacet
  facet normal 0.365341 0.930874 -0
    outer loop
      vertex -1.44639 -6.33703 2.9
      vertex -3.25 -5.62916 5.2
      vertex -1.44639 -6.33703 5.2
    endloop
  endfacet
  facet normal 0.365341 0.930874 0
    outer loop
      vertex -3.25 -5.62916 5.2
      vertex -1.44639 -6.33703 2.9
      vertex -3.25 -5.62916 2.9
    endloop
  endfacet
  facet normal 0.826239 0.56332 0
    outer loop
      vertex -4.76484 -4.42112 5.2
      vertex -5.8563 -2.82024 2.9
      vertex -5.8563 -2.82024 5.2
    endloop
  endfacet
  facet normal 0.826239 0.56332 0
    outer loop
      vertex -5.8563 -2.82024 2.9
      vertex -4.76484 -4.42112 5.2
      vertex -4.76484 -4.42112 2.9
    endloop
  endfacet
  facet normal 0.62349 0.781831 -0
    outer loop
      vertex -3.25 -5.62916 2.9
      vertex -4.76484 -4.42112 5.2
      vertex -3.25 -5.62916 5.2
    endloop
  endfacet
  facet normal 0.62349 0.781831 0
    outer loop
      vertex -4.76484 -4.42112 5.2
      vertex -3.25 -5.62916 2.9
      vertex -4.76484 -4.42112 2.9
    endloop
  endfacet
  facet normal -0.988831 0.149043 0
    outer loop
      vertex 6.21122 -1.91591 2.9
      vertex 6.5 0 5.2
      vertex 6.5 0 2.9
    endloop
  endfacet
  facet normal -0.988831 0.149043 0
    outer loop
      vertex 6.5 0 5.2
      vertex 6.21122 -1.91591 2.9
      vertex 6.21122 -1.91591 5.2
    endloop
  endfacet
  facet normal 0.0747298 0.997204 -0
    outer loop
      vertex 0.485745 -6.48182 2.9
      vertex -1.44639 -6.33703 5.2
      vertex 0.485745 -6.48182 5.2
    endloop
  endfacet
  facet normal 0.0747298 0.997204 0
    outer loop
      vertex -1.44639 -6.33703 5.2
      vertex 0.485745 -6.48182 2.9
      vertex -1.44639 -6.33703 2.9
    endloop
  endfacet
endsolid OpenSCAD_Model
