solid OpenSCAD_Model
  facet normal -1 0 0
    outer loop
      vertex 147.488 -19.1553 5
      vertex 147.488 19.2561 25
      vertex 147.488 19.2561 5
    endloop
  endfacet
  facet normal -1 -0 0
    outer loop
      vertex 147.488 19.2561 25
      vertex 147.488 -19.1553 5
      vertex 147.488 -19.1553 25
    endloop
  endfacet
  facet normal -0 0 1
    outer loop
      vertex 147.488 19.2561 25
      vertex 167.488 -21.7528 25
      vertex 167.488 21.8537 25
    endloop
  endfacet
  facet normal 0 0 1
    outer loop
      vertex 167.488 -21.7528 25
      vertex 147.488 19.2561 25
      vertex 147.488 -19.1553 25
    endloop
  endfacet
  facet normal 1 -0 0
    outer loop
      vertex 167.488 -21.7528 25
      vertex 167.488 21.8537 5
      vertex 167.488 21.8537 25
    endloop
  endfacet
  facet normal 1 0 0
    outer loop
      vertex 167.488 21.8537 5
      vertex 167.488 -21.7528 25
      vertex 167.488 -21.7528 5
    endloop
  endfacet
  facet normal 0 0 -1
    outer loop
      vertex 147.488 -19.1553 5
      vertex 167.488 21.8537 5
      vertex 167.488 -21.7528 5
    endloop
  endfacet
  facet normal 0 0 -1
    outer loop
      vertex 167.488 21.8537 5
      vertex 147.488 -19.1553 5
      vertex 147.488 19.2561 5
    endloop
  endfacet
  facet normal -0.128796 0.991671 -1.21384e-07
    outer loop
      vertex 167.488 21.8537 25
      vertex 156.619 20.4421 17.6097
      vertex 147.488 19.2561 25
    endloop
  endfacet
  facet normal -0.128796 0.991671 1.66719e-08
    outer loop
      vertex 167.488 21.8537 25
      vertex 158.176 20.6443 16.7034
      vertex 156.619 20.4421 17.6097
    endloop
  endfacet
  facet normal -0.128796 0.991671 6.89191e-07
    outer loop
      vertex 167.488 21.8537 25
      vertex 158.791 20.7242 15
      vertex 158.176 20.6443 16.7034
    endloop
  endfacet
  facet normal -0.128796 0.991671 0
    outer loop
      vertex 167.488 21.8537 5
      vertex 158.791 20.7242 15
      vertex 167.488 21.8537 25
    endloop
  endfacet
  facet normal -0.128796 0.991671 -1.66719e-08
    outer loop
      vertex 158.176 20.6443 13.2966
      vertex 167.488 21.8537 5
      vertex 156.619 20.4421 12.3903
    endloop
  endfacet
  facet normal -0.128796 0.991671 -6.89191e-07
    outer loop
      vertex 158.791 20.7242 15
      vertex 167.488 21.8537 5
      vertex 158.176 20.6443 13.2966
    endloop
  endfacet
  facet normal -0.128795 0.991671 9.25311e-07
    outer loop
      vertex 154.849 20.2122 17.295
      vertex 147.488 19.2561 25
      vertex 156.619 20.4421 17.6097
    endloop
  endfacet
  facet normal -0.128795 0.991671 6.02751e-07
    outer loop
      vertex 153.694 20.0621 15.9064
      vertex 147.488 19.2561 25
      vertex 154.849 20.2122 17.295
    endloop
  endfacet
  facet normal -0.128796 0.991671 0
    outer loop
      vertex 153.694 20.0621 14.0936
      vertex 147.488 19.2561 25
      vertex 153.694 20.0621 15.9064
    endloop
  endfacet
  facet normal -0.128796 0.991671 1.21384e-07
    outer loop
      vertex 147.488 19.2561 5
      vertex 156.619 20.4421 12.3903
      vertex 167.488 21.8537 5
    endloop
  endfacet
  facet normal -0.128796 0.991671 0
    outer loop
      vertex 153.694 20.0621 14.0936
      vertex 147.488 19.2561 5
      vertex 147.488 19.2561 25
    endloop
  endfacet
  facet normal -0.128795 0.991671 -6.0275e-07
    outer loop
      vertex 154.849 20.2122 12.705
      vertex 147.488 19.2561 5
      vertex 153.694 20.0621 14.0936
    endloop
  endfacet
  facet normal -0.128795 0.991671 -9.25311e-07
    outer loop
      vertex 156.619 20.4421 12.3903
      vertex 147.488 19.2561 5
      vertex 154.849 20.2122 12.705
    endloop
  endfacet
  facet normal -0.128796 -0.991671 4.20962e-08
    outer loop
      vertex 147.488 -19.1553 25
      vertex 156.632 -20.343 17.6097
      vertex 167.488 -21.7528 25
    endloop
  endfacet
  facet normal -0.128796 -0.991671 -6.54257e-08
    outer loop
      vertex 147.488 -19.1553 25
      vertex 154.862 -20.1131 17.295
      vertex 156.632 -20.343 17.6097
    endloop
  endfacet
  facet normal -0.128796 -0.991671 -1.71187e-07
    outer loop
      vertex 147.488 -19.1553 25
      vertex 153.707 -19.963 15.9064
      vertex 154.862 -20.1131 17.295
    endloop
  endfacet
  facet normal -0.128796 -0.991671 0
    outer loop
      vertex 147.488 -19.1553 25
      vertex 153.707 -19.963 14.0936
      vertex 153.707 -19.963 15.9064
    endloop
  endfacet
  facet normal -0.128796 -0.991671 6.54257e-08
    outer loop
      vertex 154.862 -20.1131 12.705
      vertex 147.488 -19.1553 5
      vertex 156.632 -20.343 12.3903
    endloop
  endfacet
  facet normal -0.128796 -0.991671 1.71187e-07
    outer loop
      vertex 153.707 -19.963 14.0936
      vertex 147.488 -19.1553 5
      vertex 154.862 -20.1131 12.705
    endloop
  endfacet
  facet normal -0.128796 -0.991671 0
    outer loop
      vertex 147.488 -19.1553 5
      vertex 153.707 -19.963 14.0936
      vertex 147.488 -19.1553 25
    endloop
  endfacet
  facet normal -0.128796 -0.991671 1.04705e-07
    outer loop
      vertex 158.189 -20.5452 16.7034
      vertex 167.488 -21.7528 25
      vertex 156.632 -20.343 17.6097
    endloop
  endfacet
  facet normal -0.128795 -0.991671 -1.48292e-07
    outer loop
      vertex 158.804 -20.625 15
      vertex 167.488 -21.7528 25
      vertex 158.189 -20.5452 16.7034
    endloop
  endfacet
  facet normal -0.128795 -0.991671 1.48292e-07
    outer loop
      vertex 167.488 -21.7528 5
      vertex 158.804 -20.625 15
      vertex 158.189 -20.5452 13.2966
    endloop
  endfacet
  facet normal -0.128796 -0.991671 -4.20962e-08
    outer loop
      vertex 167.488 -21.7528 5
      vertex 156.632 -20.343 12.3903
      vertex 147.488 -19.1553 5
    endloop
  endfacet
  facet normal -0.128796 -0.991671 0
    outer loop
      vertex 158.804 -20.625 15
      vertex 167.488 -21.7528 5
      vertex 167.488 -21.7528 25
    endloop
  endfacet
  facet normal -0.128796 -0.991671 -1.04705e-07
    outer loop
      vertex 156.632 -20.343 12.3903
      vertex 167.488 -21.7528 5
      vertex 158.189 -20.5452 13.2966
    endloop
  endfacet
  facet normal -0.931653 -0.122655 0.342022
    outer loop
      vertex 160.894 0 13.2966
      vertex 162.683 -8.84121 15
      vertex 161.519 0 15
    endloop
  endfacet
  facet normal -0.931652 -0.122654 0.342024
    outer loop
      vertex 162.683 -8.84121 15
      vertex 160.894 0 13.2966
      vertex 162.069 -8.92213 13.2966
    endloop
  endfacet
  facet normal -0.931656 -0.122654 0.342014
    outer loop
      vertex 159.678 9.23687 13.2966
      vertex 158.791 20.7242 15
      vertex 158.176 20.6443 13.2966
    endloop
  endfacet
  facet normal -0.931655 -0.122655 0.342016
    outer loop
      vertex 158.791 20.7242 15
      vertex 159.678 9.23687 13.2966
      vertex 160.314 9.15309 15
    endloop
  endfacet
  facet normal 0.991445 0.130526 0
    outer loop
      vertex 156.335 0 15.9064
      vertex 153.694 20.0621 14.0936
      vertex 153.694 20.0621 15.9064
    endloop
  endfacet
  facet normal 0.991445 0.130526 0
    outer loop
      vertex 153.694 20.0621 14.0936
      vertex 156.335 0 15.9064
      vertex 156.335 0 14.0936
    endloop
  endfacet
  facet normal -0.130526 0.991445 -7.3383e-07
    outer loop
      vertex 159.678 -9.23687 16.7034
      vertex 158.742 -9.36005 17.295
      vertex 160.512 -9.12704 17.6097
    endloop
  endfacet
  facet normal -0.130527 0.991445 2.97765e-08
    outer loop
      vertex 159.678 -9.23687 16.7034
      vertex 160.512 -9.12704 17.6097
      vertex 162.069 -8.92213 16.7034
    endloop
  endfacet
  facet normal -0.130525 0.991445 1.25085e-06
    outer loop
      vertex 158.742 -9.36005 17.295
      vertex 159.678 -9.23687 16.7034
      vertex 158.705 -9.36492 17.2505
    endloop
  endfacet
  facet normal -0.130526 0.991445 -2.66827e-07
    outer loop
      vertex 160.314 -9.15309 15
      vertex 162.069 -8.92213 16.7034
      vertex 162.683 -8.84121 15
    endloop
  endfacet
  facet normal -0.130527 0.991445 9.01176e-07
    outer loop
      vertex 162.069 -8.92213 16.7034
      vertex 160.314 -9.15309 15
      vertex 159.678 -9.23687 16.7034
    endloop
  endfacet
  facet normal -0.130526 0.991445 2.66827e-07
    outer loop
      vertex 162.069 -8.92213 13.2966
      vertex 160.314 -9.15309 15
      vertex 162.683 -8.84121 15
    endloop
  endfacet
  facet normal -0.130527 0.991445 -9.01176e-07
    outer loop
      vertex 162.069 -8.92213 13.2966
      vertex 159.678 -9.23687 13.2966
      vertex 160.314 -9.15309 15
    endloop
  endfacet
  facet normal -0.130527 0.991445 -2.97764e-08
    outer loop
      vertex 160.512 -9.12704 12.3903
      vertex 159.678 -9.23687 13.2966
      vertex 162.069 -8.92213 13.2966
    endloop
  endfacet
  facet normal -0.130526 0.991445 7.33829e-07
    outer loop
      vertex 158.742 -9.36005 12.705
      vertex 159.678 -9.23687 13.2966
      vertex 160.512 -9.12704 12.3903
    endloop
  endfacet
  facet normal -0.130525 0.991445 -1.25084e-06
    outer loop
      vertex 159.678 -9.23687 13.2966
      vertex 158.742 -9.36005 12.705
      vertex 158.705 -9.36492 12.7495
    endloop
  endfacet
  facet normal 0.172162 0.0226656 0.984808
    outer loop
      vertex 158.685 -8.92683 12.705
      vertex 160.512 -9.12704 12.3903
      vertex 159.311 0 12.3903
    endloop
  endfacet
  facet normal 0.172162 0.0226668 0.984808
    outer loop
      vertex 160.512 -9.12704 12.3903
      vertex 158.685 -8.92683 12.705
      vertex 158.742 -9.36005 12.705
    endloop
  endfacet
  facet normal 0.172163 0.0226657 0.984808
    outer loop
      vertex 156.619 20.4421 12.3903
      vertex 157.51 0 12.705
      vertex 159.311 0 12.3903
    endloop
  endfacet
  facet normal 0.172162 0.0226656 0.984808
    outer loop
      vertex 157.51 0 12.705
      vertex 156.619 20.4421 12.3903
      vertex 154.849 20.2122 12.705
    endloop
  endfacet
  facet normal -0.495725 -0.0652634 0.866024
    outer loop
      vertex 160.894 0 13.2966
      vertex 160.512 -9.12704 12.3903
      vertex 162.069 -8.92213 13.2966
    endloop
  endfacet
  facet normal -0.495724 -0.0652634 0.866024
    outer loop
      vertex 160.512 -9.12704 12.3903
      vertex 160.894 0 13.2966
      vertex 159.311 0 12.3903
    endloop
  endfacet
  facet normal -0.495723 -0.0652629 0.866025
    outer loop
      vertex 156.619 20.4421 12.3903
      vertex 158.705 9.36492 12.7495
      vertex 158.176 20.6443 13.2966
    endloop
  endfacet
  facet normal -0.495722 -0.0652628 0.866026
    outer loop
      vertex 158.176 20.6443 13.2966
      vertex 158.705 9.36492 12.7495
      vertex 159.678 9.23687 13.2966
    endloop
  endfacet
  facet normal -0.495727 -0.0652636 0.866023
    outer loop
      vertex 158.685 8.92683 12.705
      vertex 156.619 20.4421 12.3903
      vertex 159.311 0 12.3903
    endloop
  endfacet
  facet normal -0.49571 -0.0652603 0.866033
    outer loop
      vertex 158.705 9.36492 12.7495
      vertex 156.619 20.4421 12.3903
      vertex 158.685 8.92683 12.705
    endloop
  endfacet
  facet normal 0.759503 0.0999956 0.642772
    outer loop
      vertex 158.705 -9.36492 12.7495
      vertex 158.742 -9.36005 12.705
      vertex 158.685 -8.92683 12.705
    endloop
  endfacet
  facet normal 0.759489 0.0999887 0.64279
    outer loop
      vertex 157.51 0 12.705
      vertex 153.694 20.0621 14.0936
      vertex 156.335 0 14.0936
    endloop
  endfacet
  facet normal 0.75949 0.0999889 0.642789
    outer loop
      vertex 153.694 20.0621 14.0936
      vertex 157.51 0 12.705
      vertex 154.849 20.2122 12.705
    endloop
  endfacet
  facet normal -0.495724 -0.0652634 -0.866024
    outer loop
      vertex 160.512 -9.12704 17.6097
      vertex 160.894 0 16.7034
      vertex 162.069 -8.92213 16.7034
    endloop
  endfacet
  facet normal -0.495724 -0.0652634 -0.866025
    outer loop
      vertex 160.894 0 16.7034
      vertex 160.512 -9.12704 17.6097
      vertex 159.311 0 17.6097
    endloop
  endfacet
  facet normal -0.495722 -0.0652628 -0.866026
    outer loop
      vertex 158.705 9.36492 17.2505
      vertex 156.619 20.4421 17.6097
      vertex 158.176 20.6443 16.7034
    endloop
  endfacet
  facet normal -0.495727 -0.0652636 -0.866023
    outer loop
      vertex 156.619 20.4421 17.6097
      vertex 158.685 8.92683 17.295
      vertex 159.311 0 17.6097
    endloop
  endfacet
  facet normal -0.495722 -0.0652628 -0.866026
    outer loop
      vertex 158.705 9.36492 17.2505
      vertex 158.176 20.6443 16.7034
      vertex 159.678 9.23687 16.7034
    endloop
  endfacet
  facet normal -0.495704 -0.0652591 -0.866036
    outer loop
      vertex 156.619 20.4421 17.6097
      vertex 158.705 9.36492 17.2505
      vertex 158.685 8.92683 17.295
    endloop
  endfacet
  facet normal 0.759497 0.0999947 -0.64278
    outer loop
      vertex 158.742 -9.36005 17.295
      vertex 158.705 -9.36492 17.2505
      vertex 158.685 -8.92683 17.295
    endloop
  endfacet
  facet normal 0.759489 0.0999889 -0.642789
    outer loop
      vertex 157.51 0 17.295
      vertex 153.694 20.0621 15.9064
      vertex 154.849 20.2122 17.295
    endloop
  endfacet
  facet normal 0.759489 0.0999887 -0.64279
    outer loop
      vertex 153.694 20.0621 15.9064
      vertex 157.51 0 17.295
      vertex 156.335 0 15.9064
    endloop
  endfacet
  facet normal -0.931653 -0.122655 -0.342022
    outer loop
      vertex 162.683 -8.84121 15
      vertex 160.894 0 16.7034
      vertex 161.519 0 15
    endloop
  endfacet
  facet normal -0.931652 -0.122654 -0.342024
    outer loop
      vertex 160.894 0 16.7034
      vertex 162.683 -8.84121 15
      vertex 162.069 -8.92213 16.7034
    endloop
  endfacet
  facet normal -0.931656 -0.122654 -0.342014
    outer loop
      vertex 158.791 20.7242 15
      vertex 159.678 9.23687 16.7034
      vertex 158.176 20.6443 16.7034
    endloop
  endfacet
  facet normal -0.931655 -0.122655 -0.342016
    outer loop
      vertex 159.678 9.23687 16.7034
      vertex 158.791 20.7242 15
      vertex 160.314 9.15309 15
    endloop
  endfacet
  facet normal 0.172162 0.0226668 -0.984808
    outer loop
      vertex 158.685 -8.92683 17.295
      vertex 160.512 -9.12704 17.6097
      vertex 158.742 -9.36005 17.295
    endloop
  endfacet
  facet normal 0.172162 0.0226656 -0.984808
    outer loop
      vertex 160.512 -9.12704 17.6097
      vertex 158.685 -8.92683 17.295
      vertex 159.311 0 17.6097
    endloop
  endfacet
  facet normal 0.172163 0.0226657 -0.984808
    outer loop
      vertex 157.51 0 17.295
      vertex 156.619 20.4421 17.6097
      vertex 159.311 0 17.6097
    endloop
  endfacet
  facet normal 0.172162 0.0226656 -0.984808
    outer loop
      vertex 156.619 20.4421 17.6097
      vertex 157.51 0 17.295
      vertex 154.849 20.2122 17.295
    endloop
  endfacet
  facet normal -0.931652 0.122654 0.342024
    outer loop
      vertex 160.894 0 13.2966
      vertex 162.683 8.84121 15
      vertex 162.069 8.92213 13.2966
    endloop
  endfacet
  facet normal -0.931653 0.122655 0.342022
    outer loop
      vertex 162.683 8.84121 15
      vertex 160.894 0 13.2966
      vertex 161.519 0 15
    endloop
  endfacet
  facet normal -0.931655 0.122655 0.342016
    outer loop
      vertex 158.189 -20.5452 13.2966
      vertex 160.314 -9.15309 15
      vertex 159.678 -9.23687 13.2966
    endloop
  endfacet
  facet normal -0.931653 0.122654 0.342022
    outer loop
      vertex 160.314 -9.15309 15
      vertex 158.189 -20.5452 13.2966
      vertex 158.804 -20.625 15
    endloop
  endfacet
  facet normal 0.991445 -0.130526 0
    outer loop
      vertex 153.707 -19.963 15.9064
      vertex 156.335 0 14.0936
      vertex 156.335 0 15.9064
    endloop
  endfacet
  facet normal 0.991445 -0.130526 0
    outer loop
      vertex 156.335 0 14.0936
      vertex 153.707 -19.963 15.9064
      vertex 153.707 -19.963 14.0936
    endloop
  endfacet
  facet normal -0.130525 -0.991445 1.25085e-06
    outer loop
      vertex 159.678 9.23687 16.7034
      vertex 158.742 9.36005 17.295
      vertex 158.705 9.36492 17.2505
    endloop
  endfacet
  facet normal -0.130526 -0.991445 -7.3383e-07
    outer loop
      vertex 158.742 9.36005 17.295
      vertex 159.678 9.23687 16.7034
      vertex 160.512 9.12704 17.6097
    endloop
  endfacet
  facet normal -0.130527 -0.991445 2.97765e-08
    outer loop
      vertex 159.678 9.23687 16.7034
      vertex 162.069 8.92213 16.7034
      vertex 160.512 9.12704 17.6097
    endloop
  endfacet
  facet normal -0.130527 -0.991445 9.01176e-07
    outer loop
      vertex 160.314 9.15309 15
      vertex 162.069 8.92213 16.7034
      vertex 159.678 9.23687 16.7034
    endloop
  endfacet
  facet normal -0.130526 -0.991445 -2.66827e-07
    outer loop
      vertex 160.314 9.15309 15
      vertex 162.683 8.84121 15
      vertex 162.069 8.92213 16.7034
    endloop
  endfacet
  facet normal -0.130527 -0.991445 -9.01176e-07
    outer loop
      vertex 162.069 8.92213 13.2966
      vertex 160.314 9.15309 15
      vertex 159.678 9.23687 13.2966
    endloop
  endfacet
  facet normal -0.130526 -0.991445 2.66827e-07
    outer loop
      vertex 160.314 9.15309 15
      vertex 162.069 8.92213 13.2966
      vertex 162.683 8.84121 15
    endloop
  endfacet
  facet normal -0.130525 -0.991445 -1.25084e-06
    outer loop
      vertex 158.742 9.36005 12.705
      vertex 159.678 9.23687 13.2966
      vertex 158.705 9.36492 12.7495
    endloop
  endfacet
  facet normal -0.130526 -0.991445 7.33829e-07
    outer loop
      vertex 159.678 9.23687 13.2966
      vertex 158.742 9.36005 12.705
      vertex 160.512 9.12704 12.3903
    endloop
  endfacet
  facet normal -0.130527 -0.991445 -2.97764e-08
    outer loop
      vertex 159.678 9.23687 13.2966
      vertex 160.512 9.12704 12.3903
      vertex 162.069 8.92213 13.2966
    endloop
  endfacet
  facet normal 0.172162 -0.0226668 0.984808
    outer loop
      vertex 158.685 8.92683 12.705
      vertex 160.512 9.12704 12.3903
      vertex 158.742 9.36005 12.705
    endloop
  endfacet
  facet normal 0.172162 -0.0226656 0.984808
    outer loop
      vertex 160.512 9.12704 12.3903
      vertex 158.685 8.92683 12.705
      vertex 159.311 0 12.3903
    endloop
  endfacet
  facet normal 0.172163 -0.0226657 0.984808
    outer loop
      vertex 157.51 0 12.705
      vertex 156.632 -20.343 12.3903
      vertex 159.311 0 12.3903
    endloop
  endfacet
  facet normal 0.172164 -0.0226657 0.984808
    outer loop
      vertex 156.632 -20.343 12.3903
      vertex 157.51 0 12.705
      vertex 154.862 -20.1131 12.705
    endloop
  endfacet
  facet normal -0.495725 0.0652634 0.866024
    outer loop
      vertex 160.512 9.12704 12.3903
      vertex 160.894 0 13.2966
      vertex 162.069 8.92213 13.2966
    endloop
  endfacet
  facet normal -0.495724 0.0652634 0.866024
    outer loop
      vertex 160.894 0 13.2966
      vertex 160.512 9.12704 12.3903
      vertex 159.311 0 12.3903
    endloop
  endfacet
  facet normal -0.495723 0.0652631 0.866025
    outer loop
      vertex 158.705 -9.36492 12.7495
      vertex 156.632 -20.343 12.3903
      vertex 158.189 -20.5452 13.2966
    endloop
  endfacet
  facet normal -0.495725 0.0652635 0.866024
    outer loop
      vertex 156.632 -20.343 12.3903
      vertex 158.685 -8.92683 12.705
      vertex 159.311 0 12.3903
    endloop
  endfacet
  facet normal -0.495722 0.0652631 0.866026
    outer loop
      vertex 158.705 -9.36492 12.7495
      vertex 158.189 -20.5452 13.2966
      vertex 159.678 -9.23687 13.2966
    endloop
  endfacet
  facet normal -0.495709 0.0652604 0.866033
    outer loop
      vertex 156.632 -20.343 12.3903
      vertex 158.705 -9.36492 12.7495
      vertex 158.685 -8.92683 12.705
    endloop
  endfacet
  facet normal 0.759503 -0.0999956 0.642772
    outer loop
      vertex 158.705 9.36492 12.7495
      vertex 158.685 8.92683 12.705
      vertex 158.742 9.36005 12.705
    endloop
  endfacet
  facet normal 0.759489 -0.0999884 0.64279
    outer loop
      vertex 153.707 -19.963 14.0936
      vertex 157.51 0 12.705
      vertex 156.335 0 14.0936
    endloop
  endfacet
  facet normal 0.75949 -0.0999886 0.642789
    outer loop
      vertex 157.51 0 12.705
      vertex 153.707 -19.963 14.0936
      vertex 154.862 -20.1131 12.705
    endloop
  endfacet
  facet normal -0.495724 0.0652634 -0.866024
    outer loop
      vertex 160.894 0 16.7034
      vertex 160.512 9.12704 17.6097
      vertex 162.069 8.92213 16.7034
    endloop
  endfacet
  facet normal -0.495724 0.0652634 -0.866025
    outer loop
      vertex 160.512 9.12704 17.6097
      vertex 160.894 0 16.7034
      vertex 159.311 0 17.6097
    endloop
  endfacet
  facet normal -0.495722 0.0652631 -0.866026
    outer loop
      vertex 156.632 -20.343 17.6097
      vertex 158.705 -9.36492 17.2505
      vertex 158.189 -20.5452 16.7034
    endloop
  endfacet
  facet normal -0.495722 0.0652631 -0.866026
    outer loop
      vertex 158.189 -20.5452 16.7034
      vertex 158.705 -9.36492 17.2505
      vertex 159.678 -9.23687 16.7034
    endloop
  endfacet
  facet normal -0.495725 0.0652635 -0.866024
    outer loop
      vertex 158.685 -8.92683 17.295
      vertex 156.632 -20.343 17.6097
      vertex 159.311 0 17.6097
    endloop
  endfacet
  facet normal -0.495703 0.0652592 -0.866037
    outer loop
      vertex 158.705 -9.36492 17.2505
      vertex 156.632 -20.343 17.6097
      vertex 158.685 -8.92683 17.295
    endloop
  endfacet
  facet normal 0.759497 -0.0999947 -0.64278
    outer loop
      vertex 158.742 9.36005 17.295
      vertex 158.685 8.92683 17.295
      vertex 158.705 9.36492 17.2505
    endloop
  endfacet
  facet normal 0.759489 -0.0999884 -0.64279
    outer loop
      vertex 157.51 0 17.295
      vertex 153.707 -19.963 15.9064
      vertex 156.335 0 15.9064
    endloop
  endfacet
  facet normal 0.759489 -0.0999886 -0.642789
    outer loop
      vertex 153.707 -19.963 15.9064
      vertex 157.51 0 17.295
      vertex 154.862 -20.1131 17.295
    endloop
  endfacet
  facet normal -0.931653 0.122655 -0.342022
    outer loop
      vertex 160.894 0 16.7034
      vertex 162.683 8.84121 15
      vertex 161.519 0 15
    endloop
  endfacet
  facet normal -0.931652 0.122654 -0.342024
    outer loop
      vertex 162.683 8.84121 15
      vertex 160.894 0 16.7034
      vertex 162.069 8.92213 16.7034
    endloop
  endfacet
  facet normal -0.931655 0.122655 -0.342016
    outer loop
      vertex 160.314 -9.15309 15
      vertex 158.189 -20.5452 16.7034
      vertex 159.678 -9.23687 16.7034
    endloop
  endfacet
  facet normal -0.931653 0.122654 -0.342022
    outer loop
      vertex 158.189 -20.5452 16.7034
      vertex 160.314 -9.15309 15
      vertex 158.804 -20.625 15
    endloop
  endfacet
  facet normal 0.172162 -0.0226656 -0.984808
    outer loop
      vertex 158.685 8.92683 17.295
      vertex 160.512 9.12704 17.6097
      vertex 159.311 0 17.6097
    endloop
  endfacet
  facet normal 0.172162 -0.0226668 -0.984808
    outer loop
      vertex 160.512 9.12704 17.6097
      vertex 158.685 8.92683 17.295
      vertex 158.742 9.36005 17.295
    endloop
  endfacet
  facet normal 0.172163 -0.0226657 -0.984808
    outer loop
      vertex 156.632 -20.343 17.6097
      vertex 157.51 0 17.295
      vertex 159.311 0 17.6097
    endloop
  endfacet
  facet normal 0.172164 -0.0226657 -0.984808
    outer loop
      vertex 157.51 0 17.295
      vertex 156.632 -20.343 17.6097
      vertex 154.862 -20.1131 17.295
    endloop
  endfacet
endsolid OpenSCAD_Model
