solid OpenSCAD_Model
  facet normal -0.951056 0.309017 -4.6061e-17
    outer loop
      vertex -13.5729 -1.76336 0
      vertex -13 6.36816e-16 5.2
      vertex -13 0 0
    endloop
  endfacet
  facet normal -0.951056 0.309017 0
    outer loop
      vertex -13 6.36816e-16 5.2
      vertex -13.5729 -1.76336 0
      vertex -13.5729 -1.76336 5.2
    endloop
  endfacet
  facet normal 0.951057 0.309017 -4.6061e-17
    outer loop
      vertex -18.4271 -1.76336 5.2
      vertex -19 0 0
      vertex -19 6.36816e-16 5.2
    endloop
  endfacet
  facet normal 0.951057 0.309017 0
    outer loop
      vertex -19 0 0
      vertex -18.4271 -1.76336 5.2
      vertex -18.4271 -1.76336 0
    endloop
  endfacet
  facet normal 0 -1 0
    outer loop
      vertex -16.9271 2.85317 0
      vertex -15.0729 2.85317 5.2
      vertex -16.9271 2.85317 5.2
    endloop
  endfacet
  facet normal 0 -1 -0
    outer loop
      vertex -15.0729 2.85317 5.2
      vertex -16.9271 2.85317 0
      vertex -15.0729 2.85317 0
    endloop
  endfacet
  facet normal 0 1 -0
    outer loop
      vertex -15.0729 -2.85317 0
      vertex -16.9271 -2.85317 5.2
      vertex -15.0729 -2.85317 5.2
    endloop
  endfacet
  facet normal 0 1 0
    outer loop
      vertex -16.9271 -2.85317 5.2
      vertex -15.0729 -2.85317 0
      vertex -16.9271 -2.85317 0
    endloop
  endfacet
  facet normal -0.587785 0.809017 0
    outer loop
      vertex -13.5729 -1.76336 0
      vertex -15.0729 -2.85317 5.2
      vertex -13.5729 -1.76336 5.2
    endloop
  endfacet
  facet normal -0.587785 0.809017 0
    outer loop
      vertex -15.0729 -2.85317 5.2
      vertex -13.5729 -1.76336 0
      vertex -15.0729 -2.85317 0
    endloop
  endfacet
  facet normal 0.587785 0.809017 -0
    outer loop
      vertex -16.9271 -2.85317 0
      vertex -18.4271 -1.76336 5.2
      vertex -16.9271 -2.85317 5.2
    endloop
  endfacet
  facet normal 0.587785 0.809017 0
    outer loop
      vertex -18.4271 -1.76336 5.2
      vertex -16.9271 -2.85317 0
      vertex -18.4271 -1.76336 0
    endloop
  endfacet
  facet normal -0.951056 -0.309017 0
    outer loop
      vertex -13.5729 1.76336 0
      vertex -13 6.36816e-16 5.2
      vertex -13.5729 1.76336 5.2
    endloop
  endfacet
  facet normal -0.951056 -0.309017 3.78437e-17
    outer loop
      vertex -13 6.36816e-16 5.2
      vertex -13.5729 1.76336 0
      vertex -13 0 0
    endloop
  endfacet
  facet normal -0.587785 -0.809017 0
    outer loop
      vertex -15.0729 2.85317 0
      vertex -13.5729 1.76336 5.2
      vertex -15.0729 2.85317 5.2
    endloop
  endfacet
  facet normal -0.587785 -0.809017 -0
    outer loop
      vertex -13.5729 1.76336 5.2
      vertex -15.0729 2.85317 0
      vertex -13.5729 1.76336 0
    endloop
  endfacet
  facet normal 0.587785 -0.809017 0
    outer loop
      vertex -18.4271 1.76336 0
      vertex -16.9271 2.85317 5.2
      vertex -18.4271 1.76336 5.2
    endloop
  endfacet
  facet normal 0.587785 -0.809017 0
    outer loop
      vertex -16.9271 2.85317 5.2
      vertex -18.4271 1.76336 0
      vertex -16.9271 2.85317 0
    endloop
  endfacet
  facet normal 0.951057 -0.309017 0
    outer loop
      vertex -19 6.36816e-16 5.2
      vertex -18.4271 1.76336 0
      vertex -18.4271 1.76336 5.2
    endloop
  endfacet
  facet normal 0.951057 -0.309017 4.6061e-17
    outer loop
      vertex -18.4271 1.76336 0
      vertex -19 6.36816e-16 5.2
      vertex -19 0 0
    endloop
  endfacet
  facet normal 0.207911 -0.978148 0
    outer loop
      vertex 6.5 -11.2583 0
      vertex 8.31359 -10.8728 5.2
      vertex 6.5 -11.2583 5.2
    endloop
  endfacet
  facet normal 0.207911 -0.978148 0
    outer loop
      vertex 8.31359 -10.8728 5.2
      vertex 6.5 -11.2583 0
      vertex 8.31359 -10.8728 0
    endloop
  endfacet
  facet normal -0.743145 0.66913 0
    outer loop
      vertex 9.5 -16.4545 0
      vertex 10.7406 -15.0766 5.2
      vertex 10.7406 -15.0766 0
    endloop
  endfacet
  facet normal -0.743145 0.66913 0
    outer loop
      vertex 10.7406 -15.0766 5.2
      vertex 9.5 -16.4545 0
      vertex 9.5 -16.4545 5.2
    endloop
  endfacet
  facet normal 0.866025 0.5 0
    outer loop
      vertex 5.99261 -16.0858 5.2
      vertex 5.06556 -14.4801 0
      vertex 5.06556 -14.4801 5.2
    endloop
  endfacet
  facet normal 0.866025 0.5 0
    outer loop
      vertex 5.06556 -14.4801 0
      vertex 5.99261 -16.0858 5.2
      vertex 5.99261 -16.0858 0
    endloop
  endfacet
  facet normal -0.866025 -0.5 0
    outer loop
      vertex 10.9344 -13.2327 0
      vertex 10.0074 -11.627 5.2
      vertex 10.0074 -11.627 0
    endloop
  endfacet
  facet normal -0.866025 -0.5 0
    outer loop
      vertex 10.0074 -11.627 5.2
      vertex 10.9344 -13.2327 0
      vertex 10.9344 -13.2327 5.2
    endloop
  endfacet
  facet normal -0.406736 -0.913546 0
    outer loop
      vertex 8.31359 -10.8728 0
      vertex 10.0074 -11.627 5.2
      vertex 8.31359 -10.8728 5.2
    endloop
  endfacet
  facet normal -0.406736 -0.913546 -0
    outer loop
      vertex 10.0074 -11.627 5.2
      vertex 8.31359 -10.8728 0
      vertex 10.0074 -11.627 0
    endloop
  endfacet
  facet normal -0.994522 0.104529 0
    outer loop
      vertex 10.7406 -15.0766 0
      vertex 10.9344 -13.2327 5.2
      vertex 10.9344 -13.2327 0
    endloop
  endfacet
  facet normal -0.994522 0.104529 0
    outer loop
      vertex 10.9344 -13.2327 5.2
      vertex 10.7406 -15.0766 0
      vertex 10.7406 -15.0766 5.2
    endloop
  endfacet
  facet normal 0.743145 -0.66913 0
    outer loop
      vertex 5.25936 -12.6362 5.2
      vertex 6.5 -11.2583 0
      vertex 6.5 -11.2583 5.2
    endloop
  endfacet
  facet normal 0.743145 -0.66913 0
    outer loop
      vertex 6.5 -11.2583 0
      vertex 5.25936 -12.6362 5.2
      vertex 5.25936 -12.6362 0
    endloop
  endfacet
  facet normal 0.994522 -0.104529 0
    outer loop
      vertex 5.06556 -14.4801 5.2
      vertex 5.25936 -12.6362 0
      vertex 5.25936 -12.6362 5.2
    endloop
  endfacet
  facet normal 0.994522 -0.104529 0
    outer loop
      vertex 5.25936 -12.6362 0
      vertex 5.06556 -14.4801 5.2
      vertex 5.06556 -14.4801 0
    endloop
  endfacet
  facet normal 0.406737 0.913545 -0
    outer loop
      vertex 7.68641 -16.84 0
      vertex 5.99261 -16.0858 5.2
      vertex 7.68641 -16.84 5.2
    endloop
  endfacet
  facet normal 0.406737 0.913545 0
    outer loop
      vertex 5.99261 -16.0858 5.2
      vertex 7.68641 -16.84 0
      vertex 5.99261 -16.0858 0
    endloop
  endfacet
  facet normal -0.207911 0.978148 0
    outer loop
      vertex 9.5 -16.4545 0
      vertex 7.68641 -16.84 5.2
      vertex 9.5 -16.4545 5.2
    endloop
  endfacet
  facet normal -0.207911 0.978148 0
    outer loop
      vertex 7.68641 -16.84 5.2
      vertex 9.5 -16.4545 0
      vertex 7.68641 -16.84 0
    endloop
  endfacet
  facet normal 0.743145 0.66913 0
    outer loop
      vertex 6.5 11.2583 5.2
      vertex 5.25936 12.6362 0
      vertex 5.25936 12.6362 5.2
    endloop
  endfacet
  facet normal 0.743145 0.66913 0
    outer loop
      vertex 5.25936 12.6362 0
      vertex 6.5 11.2583 5.2
      vertex 6.5 11.2583 0
    endloop
  endfacet
  facet normal -0.207911 -0.978148 0
    outer loop
      vertex 7.68641 16.84 0
      vertex 9.5 16.4545 5.2
      vertex 7.68641 16.84 5.2
    endloop
  endfacet
  facet normal -0.207911 -0.978148 -0
    outer loop
      vertex 9.5 16.4545 5.2
      vertex 7.68641 16.84 0
      vertex 9.5 16.4545 0
    endloop
  endfacet
  facet normal -0.866025 0.5 0
    outer loop
      vertex 10.0074 11.627 0
      vertex 10.9344 13.2327 5.2
      vertex 10.9344 13.2327 0
    endloop
  endfacet
  facet normal -0.866025 0.5 0
    outer loop
      vertex 10.9344 13.2327 5.2
      vertex 10.0074 11.627 0
      vertex 10.0074 11.627 5.2
    endloop
  endfacet
  facet normal 0.866025 -0.5 0
    outer loop
      vertex 5.06556 14.4801 5.2
      vertex 5.99261 16.0858 0
      vertex 5.99261 16.0858 5.2
    endloop
  endfacet
  facet normal 0.866025 -0.5 0
    outer loop
      vertex 5.99261 16.0858 0
      vertex 5.06556 14.4801 5.2
      vertex 5.06556 14.4801 0
    endloop
  endfacet
  facet normal 0.994522 0.104529 0
    outer loop
      vertex 5.25936 12.6362 5.2
      vertex 5.06556 14.4801 0
      vertex 5.06556 14.4801 5.2
    endloop
  endfacet
  facet normal 0.994522 0.104529 0
    outer loop
      vertex 5.06556 14.4801 0
      vertex 5.25936 12.6362 5.2
      vertex 5.25936 12.6362 0
    endloop
  endfacet
  facet normal 0.406737 -0.913545 0
    outer loop
      vertex 5.99261 16.0858 0
      vertex 7.68641 16.84 5.2
      vertex 5.99261 16.0858 5.2
    endloop
  endfacet
  facet normal 0.406737 -0.913545 0
    outer loop
      vertex 7.68641 16.84 5.2
      vertex 5.99261 16.0858 0
      vertex 7.68641 16.84 0
    endloop
  endfacet
  facet normal 0.207911 0.978148 -0
    outer loop
      vertex 8.31359 10.8728 0
      vertex 6.5 11.2583 5.2
      vertex 8.31359 10.8728 5.2
    endloop
  endfacet
  facet normal 0.207911 0.978148 0
    outer loop
      vertex 6.5 11.2583 5.2
      vertex 8.31359 10.8728 0
      vertex 6.5 11.2583 0
    endloop
  endfacet
  facet normal -0.406736 0.913546 0
    outer loop
      vertex 10.0074 11.627 0
      vertex 8.31359 10.8728 5.2
      vertex 10.0074 11.627 5.2
    endloop
  endfacet
  facet normal -0.406736 0.913546 0
    outer loop
      vertex 8.31359 10.8728 5.2
      vertex 10.0074 11.627 0
      vertex 8.31359 10.8728 0
    endloop
  endfacet
  facet normal -0.994522 -0.104529 0
    outer loop
      vertex 10.9344 13.2327 0
      vertex 10.7406 15.0766 5.2
      vertex 10.7406 15.0766 0
    endloop
  endfacet
  facet normal -0.994522 -0.104529 0
    outer loop
      vertex 10.7406 15.0766 5.2
      vertex 10.9344 13.2327 0
      vertex 10.9344 13.2327 5.2
    endloop
  endfacet
  facet normal -0.743145 -0.66913 0
    outer loop
      vertex 10.7406 15.0766 0
      vertex 9.5 16.4545 5.2
      vertex 9.5 16.4545 0
    endloop
  endfacet
  facet normal -0.743145 -0.66913 0
    outer loop
      vertex 9.5 16.4545 5.2
      vertex 10.7406 15.0766 0
      vertex 10.7406 15.0766 5.2
    endloop
  endfacet
  facet normal 0.994522 0.104529 0
    outer loop
      vertex 20 0 5.2
      vertex 19.563 4.15823 0
      vertex 19.563 4.15823 5.2
    endloop
  endfacet
  facet normal 0.994522 0.104529 0
    outer loop
      vertex 19.563 4.15823 0
      vertex 20 0 5.2
      vertex 20 0 0
    endloop
  endfacet
  facet normal -0.994522 0.104529 0
    outer loop
      vertex -20 0 0
      vertex -19.563 4.15823 5.2
      vertex -19.563 4.15823 0
    endloop
  endfacet
  facet normal -0.994522 0.104529 0
    outer loop
      vertex -19.563 4.15823 5.2
      vertex -20 0 0
      vertex -20 0 5.2
    endloop
  endfacet
  facet normal 0 1 -0
    outer loop
      vertex 2.09057 19.8904 0
      vertex -2.09057 19.8904 5.2
      vertex 2.09057 19.8904 5.2
    endloop
  endfacet
  facet normal 0 1 0
    outer loop
      vertex -2.09057 19.8904 5.2
      vertex 2.09057 19.8904 0
      vertex -2.09057 19.8904 0
    endloop
  endfacet
  facet normal 0 -1 0
    outer loop
      vertex -2.09057 -19.8904 0
      vertex 2.09057 -19.8904 5.2
      vertex -2.09057 -19.8904 5.2
    endloop
  endfacet
  facet normal 0 -1 -0
    outer loop
      vertex 2.09057 -19.8904 5.2
      vertex -2.09057 -19.8904 0
      vertex 2.09057 -19.8904 0
    endloop
  endfacet
  facet normal 0.587785 0.809017 -0
    outer loop
      vertex 13.3826 14.8629 0
      vertex 10 17.3205 5.2
      vertex 13.3826 14.8629 5.2
    endloop
  endfacet
  facet normal 0.587785 0.809017 0
    outer loop
      vertex 10 17.3205 5.2
      vertex 13.3826 14.8629 0
      vertex 10 17.3205 0
    endloop
  endfacet
  facet normal 0.406737 0.913545 -0
    outer loop
      vertex 10 17.3205 0
      vertex 6.18034 19.0211 5.2
      vertex 10 17.3205 5.2
    endloop
  endfacet
  facet normal 0.406737 0.913545 0
    outer loop
      vertex 6.18034 19.0211 5.2
      vertex 10 17.3205 0
      vertex 6.18034 19.0211 0
    endloop
  endfacet
  facet normal -0.743145 0.669131 0
    outer loop
      vertex -16.1803 11.7557 0
      vertex -13.3826 14.8629 5.2
      vertex -13.3826 14.8629 0
    endloop
  endfacet
  facet normal -0.743145 0.669131 0
    outer loop
      vertex -13.3826 14.8629 5.2
      vertex -16.1803 11.7557 0
      vertex -16.1803 11.7557 5.2
    endloop
  endfacet
  facet normal -0.866026 0.5 0
    outer loop
      vertex -18.2709 8.13473 0
      vertex -16.1803 11.7557 5.2
      vertex -16.1803 11.7557 0
    endloop
  endfacet
  facet normal -0.866026 0.5 0
    outer loop
      vertex -16.1803 11.7557 5.2
      vertex -18.2709 8.13473 0
      vertex -18.2709 8.13473 5.2
    endloop
  endfacet
  facet normal -0.406737 0.913545 0
    outer loop
      vertex -6.18034 19.0211 0
      vertex -10 17.3205 5.2
      vertex -6.18034 19.0211 5.2
    endloop
  endfacet
  facet normal -0.406737 0.913545 0
    outer loop
      vertex -10 17.3205 5.2
      vertex -6.18034 19.0211 0
      vertex -10 17.3205 0
    endloop
  endfacet
  facet normal 0.951057 -0.309017 0
    outer loop
      vertex 18.2709 -8.13473 5.2
      vertex 19.563 -4.15823 0
      vertex 19.563 -4.15823 5.2
    endloop
  endfacet
  facet normal 0.951057 -0.309017 0
    outer loop
      vertex 19.563 -4.15823 0
      vertex 18.2709 -8.13473 5.2
      vertex 18.2709 -8.13473 0
    endloop
  endfacet
  facet normal 0.866026 0.5 0
    outer loop
      vertex 18.2709 8.13473 5.2
      vertex 16.1803 11.7557 0
      vertex 16.1803 11.7557 5.2
    endloop
  endfacet
  facet normal 0.866026 0.5 0
    outer loop
      vertex 16.1803 11.7557 0
      vertex 18.2709 8.13473 5.2
      vertex 18.2709 8.13473 0
    endloop
  endfacet
  facet normal 0.951057 0.309017 0
    outer loop
      vertex 19.563 4.15823 5.2
      vertex 18.2709 8.13473 0
      vertex 18.2709 8.13473 5.2
    endloop
  endfacet
  facet normal 0.951057 0.309017 0
    outer loop
      vertex 18.2709 8.13473 0
      vertex 19.563 4.15823 5.2
      vertex 19.563 4.15823 0
    endloop
  endfacet
  facet normal 0.743145 0.669131 0
    outer loop
      vertex 16.1803 11.7557 5.2
      vertex 13.3826 14.8629 0
      vertex 13.3826 14.8629 5.2
    endloop
  endfacet
  facet normal 0.743145 0.669131 0
    outer loop
      vertex 13.3826 14.8629 0
      vertex 16.1803 11.7557 5.2
      vertex 16.1803 11.7557 0
    endloop
  endfacet
  facet normal 0.207912 0.978148 -0
    outer loop
      vertex 6.18034 19.0211 0
      vertex 2.09057 19.8904 5.2
      vertex 6.18034 19.0211 5.2
    endloop
  endfacet
  facet normal 0.207912 0.978148 0
    outer loop
      vertex 2.09057 19.8904 5.2
      vertex 6.18034 19.0211 0
      vertex 2.09057 19.8904 0
    endloop
  endfacet
  facet normal -0.951057 0.309017 0
    outer loop
      vertex -19.563 4.15823 0
      vertex -18.2709 8.13473 5.2
      vertex -18.2709 8.13473 0
    endloop
  endfacet
  facet normal -0.951057 0.309017 0
    outer loop
      vertex -18.2709 8.13473 5.2
      vertex -19.563 4.15823 0
      vertex -19.563 4.15823 5.2
    endloop
  endfacet
  facet normal 0 0 1
    outer loop
      vertex -3.53553 -3.53553 5.2
      vertex -13.3826 -14.8629 5.2
      vertex -10 -17.3205 5.2
    endloop
  endfacet
  facet normal 0 0 1
    outer loop
      vertex -16.1803 -11.7557 5.2
      vertex -3.53553 -3.53553 5.2
      vertex -13.5729 -1.76336 5.2
    endloop
  endfacet
  facet normal 0 0 1
    outer loop
      vertex -16.1803 -11.7557 5.2
      vertex -13.5729 -1.76336 5.2
      vertex -15.0729 -2.85317 5.2
    endloop
  endfacet
  facet normal 0 0 1
    outer loop
      vertex -3.53553 -3.53553 5.2
      vertex -16.1803 -11.7557 5.2
      vertex -13.3826 -14.8629 5.2
    endloop
  endfacet
  facet normal 0 0 1
    outer loop
      vertex -18.2709 -8.13473 5.2
      vertex -15.0729 -2.85317 5.2
      vertex -16.9271 -2.85317 5.2
    endloop
  endfacet
  facet normal 0 0 1
    outer loop
      vertex -15.0729 -2.85317 5.2
      vertex -18.2709 -8.13473 5.2
      vertex -16.1803 -11.7557 5.2
    endloop
  endfacet
  facet normal 0 0 1
    outer loop
      vertex -19.563 -4.15823 5.2
      vertex -16.9271 -2.85317 5.2
      vertex -18.4271 -1.76336 5.2
    endloop
  endfacet
  facet normal -0 0 1
    outer loop
      vertex -20 0 5.2
      vertex -18.4271 -1.76336 5.2
      vertex -19 6.36816e-16 5.2
    endloop
  endfacet
  facet normal 0 0 1
    outer loop
      vertex -18.4271 1.76336 5.2
      vertex -20 0 5.2
      vertex -19 6.36816e-16 5.2
    endloop
  endfacet
  facet normal 0 0 1
    outer loop
      vertex -16.9271 -2.85317 5.2
      vertex -19.563 -4.15823 5.2
      vertex -18.2709 -8.13473 5.2
    endloop
  endfacet
  facet normal 0 0 1
    outer loop
      vertex -18.4271 -1.76336 5.2
      vertex -20 0 5.2
      vertex -19.563 -4.15823 5.2
    endloop
  endfacet
  facet normal 0 0 1
    outer loop
      vertex 19.563 4.15823 5.2
      vertex 5 0 5.2
      vertex 20 0 5.2
    endloop
  endfacet
  facet normal 0 0 1
    outer loop
      vertex 19.563 -4.15823 5.2
      vertex 10.0074 -11.627 5.2
      vertex 10.9344 -13.2327 5.2
    endloop
  endfacet
  facet normal 0 0 1
    outer loop
      vertex 4.6194 1.91342 5.2
      vertex 10.0074 11.627 5.2
      vertex 8.31359 10.8728 5.2
    endloop
  endfacet
  facet normal -0 0 1
    outer loop
      vertex 4.6194 -1.91342 5.2
      vertex 19.563 -4.15823 5.2
      vertex 5 0 5.2
    endloop
  endfacet
  facet normal 0 0 1
    outer loop
      vertex 3.53553 3.53553 5.2
      vertex 8.31359 10.8728 5.2
      vertex 6.5 11.2583 5.2
    endloop
  endfacet
  facet normal 0 -0 1
    outer loop
      vertex 8.31359 -10.8728 5.2
      vertex 19.563 -4.15823 5.2
      vertex 4.6194 -1.91342 5.2
    endloop
  endfacet
  facet normal 0 0 1
    outer loop
      vertex 1.91342 4.6194 5.2
      vertex 6.5 11.2583 5.2
      vertex 5.25936 12.6362 5.2
    endloop
  endfacet
  facet normal 0 0 1
    outer loop
      vertex 19.563 -4.15823 5.2
      vertex 8.31359 -10.8728 5.2
      vertex 10.0074 -11.627 5.2
    endloop
  endfacet
  facet normal 0 0 1
    outer loop
      vertex -2.09057 19.8904 5.2
      vertex 5.25936 12.6362 5.2
      vertex 5.06556 14.4801 5.2
    endloop
  endfacet
  facet normal -0 0 1
    outer loop
      vertex 3.53553 -3.53553 5.2
      vertex 8.31359 -10.8728 5.2
      vertex 4.6194 -1.91342 5.2
    endloop
  endfacet
  facet normal 0 0 1
    outer loop
      vertex 4.6194 1.91342 5.2
      vertex 18.2709 8.13473 5.2
      vertex 10.0074 11.627 5.2
    endloop
  endfacet
  facet normal 0 0 1
    outer loop
      vertex 16.1803 11.7557 5.2
      vertex 10.0074 11.627 5.2
      vertex 18.2709 8.13473 5.2
    endloop
  endfacet
  facet normal 0 0 1
    outer loop
      vertex 18.2709 8.13473 5.2
      vertex 4.6194 1.91342 5.2
      vertex 19.563 4.15823 5.2
    endloop
  endfacet
  facet normal 0 0 1
    outer loop
      vertex 10.0074 11.627 5.2
      vertex 16.1803 11.7557 5.2
      vertex 10.9344 13.2327 5.2
    endloop
  endfacet
  facet normal 0 -0 1
    outer loop
      vertex 5 0 5.2
      vertex 19.563 4.15823 5.2
      vertex 4.6194 1.91342 5.2
    endloop
  endfacet
  facet normal -0 0 1
    outer loop
      vertex 10.9344 13.2327 5.2
      vertex 16.1803 11.7557 5.2
      vertex 13.3826 14.8629 5.2
    endloop
  endfacet
  facet normal 0 0 1
    outer loop
      vertex 19.563 -4.15823 5.2
      vertex 10.9344 -13.2327 5.2
      vertex 18.2709 -8.13473 5.2
    endloop
  endfacet
  facet normal 0 0 1
    outer loop
      vertex 18.2709 -8.13473 5.2
      vertex 10.9344 -13.2327 5.2
      vertex 16.1803 -11.7557 5.2
    endloop
  endfacet
  facet normal 0 0 1
    outer loop
      vertex 13.3826 14.8629 5.2
      vertex 10.7406 15.0766 5.2
      vertex 10.9344 13.2327 5.2
    endloop
  endfacet
  facet normal 0 0 1
    outer loop
      vertex 10 17.3205 5.2
      vertex 10.7406 15.0766 5.2
      vertex 13.3826 14.8629 5.2
    endloop
  endfacet
  facet normal 0 0 1
    outer loop
      vertex 10 17.3205 5.2
      vertex 9.5 16.4545 5.2
      vertex 10.7406 15.0766 5.2
    endloop
  endfacet
  facet normal 0 0 1
    outer loop
      vertex 10 17.3205 5.2
      vertex 7.68641 16.84 5.2
      vertex 9.5 16.4545 5.2
    endloop
  endfacet
  facet normal 0 0 1
    outer loop
      vertex 6.18034 19.0211 5.2
      vertex 7.68641 16.84 5.2
      vertex 10 17.3205 5.2
    endloop
  endfacet
  facet normal 0 0 1
    outer loop
      vertex 6.18034 19.0211 5.2
      vertex 5.99261 16.0858 5.2
      vertex 7.68641 16.84 5.2
    endloop
  endfacet
  facet normal 0 0 1
    outer loop
      vertex 2.09057 19.8904 5.2
      vertex 5.99261 16.0858 5.2
      vertex 6.18034 19.0211 5.2
    endloop
  endfacet
  facet normal 0 0 1
    outer loop
      vertex 8.31359 -10.8728 5.2
      vertex 3.53553 -3.53553 5.2
      vertex 6.5 -11.2583 5.2
    endloop
  endfacet
  facet normal 0 0 1
    outer loop
      vertex 20 0 5.2
      vertex 5 0 5.2
      vertex 19.563 -4.15823 5.2
    endloop
  endfacet
  facet normal 0 0 1
    outer loop
      vertex 8.31359 10.8728 5.2
      vertex 3.53553 3.53553 5.2
      vertex 4.6194 1.91342 5.2
    endloop
  endfacet
  facet normal 0 0 1
    outer loop
      vertex 5.99261 16.0858 5.2
      vertex 2.09057 19.8904 5.2
      vertex 5.06556 14.4801 5.2
    endloop
  endfacet
  facet normal -0 0 1
    outer loop
      vertex -2.09057 19.8904 5.2
      vertex 5.06556 14.4801 5.2
      vertex 2.09057 19.8904 5.2
    endloop
  endfacet
  facet normal 0 0 1
    outer loop
      vertex 6.5 11.2583 5.2
      vertex 1.91342 4.6194 5.2
      vertex 3.53553 3.53553 5.2
    endloop
  endfacet
  facet normal 0 0 1
    outer loop
      vertex 5.25936 12.6362 5.2
      vertex 0 5 5.2
      vertex 1.91342 4.6194 5.2
    endloop
  endfacet
  facet normal 0 0 1
    outer loop
      vertex 5.25936 12.6362 5.2
      vertex -2.09057 19.8904 5.2
      vertex 0 5 5.2
    endloop
  endfacet
  facet normal 0 0 1
    outer loop
      vertex 0 5 5.2
      vertex -2.09057 19.8904 5.2
      vertex -1.91342 4.6194 5.2
    endloop
  endfacet
  facet normal -0 0 1
    outer loop
      vertex -6.18034 19.0211 5.2
      vertex -1.91342 4.6194 5.2
      vertex -2.09057 19.8904 5.2
    endloop
  endfacet
  facet normal -0 0 1
    outer loop
      vertex -10 17.3205 5.2
      vertex -1.91342 4.6194 5.2
      vertex -6.18034 19.0211 5.2
    endloop
  endfacet
  facet normal 0 0 1
    outer loop
      vertex -1.91342 4.6194 5.2
      vertex -10 17.3205 5.2
      vertex -3.53553 3.53553 5.2
    endloop
  endfacet
  facet normal -0 0 1
    outer loop
      vertex -13.3826 14.8629 5.2
      vertex -3.53553 3.53553 5.2
      vertex -10 17.3205 5.2
    endloop
  endfacet
  facet normal 0 0 1
    outer loop
      vertex 16.1803 -11.7557 5.2
      vertex 10.9344 -13.2327 5.2
      vertex 13.3826 -14.8629 5.2
    endloop
  endfacet
  facet normal 0 0 1
    outer loop
      vertex 10.7406 -15.0766 5.2
      vertex 13.3826 -14.8629 5.2
      vertex 10.9344 -13.2327 5.2
    endloop
  endfacet
  facet normal -0 0 1
    outer loop
      vertex 10.7406 -15.0766 5.2
      vertex 10 -17.3205 5.2
      vertex 13.3826 -14.8629 5.2
    endloop
  endfacet
  facet normal -0 0 1
    outer loop
      vertex 9.5 -16.4545 5.2
      vertex 10 -17.3205 5.2
      vertex 10.7406 -15.0766 5.2
    endloop
  endfacet
  facet normal -0 0 1
    outer loop
      vertex 7.68641 -16.84 5.2
      vertex 10 -17.3205 5.2
      vertex 9.5 -16.4545 5.2
    endloop
  endfacet
  facet normal 0 0 1
    outer loop
      vertex 7.68641 -16.84 5.2
      vertex 6.18034 -19.0211 5.2
      vertex 10 -17.3205 5.2
    endloop
  endfacet
  facet normal 0 0 1
    outer loop
      vertex 5.99261 -16.0858 5.2
      vertex 6.18034 -19.0211 5.2
      vertex 7.68641 -16.84 5.2
    endloop
  endfacet
  facet normal 0 0 1
    outer loop
      vertex 2.09057 -19.8904 5.2
      vertex 5.99261 -16.0858 5.2
      vertex 5.06556 -14.4801 5.2
    endloop
  endfacet
  facet normal -0 0 1
    outer loop
      vertex 1.91342 -4.6194 5.2
      vertex 6.5 -11.2583 5.2
      vertex 3.53553 -3.53553 5.2
    endloop
  endfacet
  facet normal 0 0 1
    outer loop
      vertex 6.5 -11.2583 5.2
      vertex 1.91342 -4.6194 5.2
      vertex 5.25936 -12.6362 5.2
    endloop
  endfacet
  facet normal 0 0 1
    outer loop
      vertex 5.99261 -16.0858 5.2
      vertex 2.09057 -19.8904 5.2
      vertex 6.18034 -19.0211 5.2
    endloop
  endfacet
  facet normal -0 0 1
    outer loop
      vertex 0 -5 5.2
      vertex 5.25936 -12.6362 5.2
      vertex 1.91342 -4.6194 5.2
    endloop
  endfacet
  facet normal 0 0 1
    outer loop
      vertex -2.09057 -19.8904 5.2
      vertex 5.25936 -12.6362 5.2
      vertex 0 -5 5.2
    endloop
  endfacet
  facet normal 0 0 1
    outer loop
      vertex 5.25936 -12.6362 5.2
      vertex -2.09057 -19.8904 5.2
      vertex 5.06556 -14.4801 5.2
    endloop
  endfacet
  facet normal 0 0 1
    outer loop
      vertex -2.09057 -19.8904 5.2
      vertex 0 -5 5.2
      vertex -1.91342 -4.6194 5.2
    endloop
  endfacet
  facet normal 0 0 1
    outer loop
      vertex 5.06556 -14.4801 5.2
      vertex -2.09057 -19.8904 5.2
      vertex 2.09057 -19.8904 5.2
    endloop
  endfacet
  facet normal 0 0 1
    outer loop
      vertex -10 -17.3205 5.2
      vertex -1.91342 -4.6194 5.2
      vertex -3.53553 -3.53553 5.2
    endloop
  endfacet
  facet normal -0 0 1
    outer loop
      vertex -13.5729 -1.76336 5.2
      vertex -4.6194 -1.91342 5.2
      vertex -13 6.36816e-16 5.2
    endloop
  endfacet
  facet normal 0 0 1
    outer loop
      vertex -13 6.36816e-16 5.2
      vertex -4.6194 -1.91342 5.2
      vertex -5 0 5.2
    endloop
  endfacet
  facet normal 0 0 1
    outer loop
      vertex -1.91342 -4.6194 5.2
      vertex -6.18034 -19.0211 5.2
      vertex -2.09057 -19.8904 5.2
    endloop
  endfacet
  facet normal -0 0 1
    outer loop
      vertex -16.1803 11.7557 5.2
      vertex -3.53553 3.53553 5.2
      vertex -13.3826 14.8629 5.2
    endloop
  endfacet
  facet normal 0 0 1
    outer loop
      vertex -3.53553 3.53553 5.2
      vertex -13.5729 1.76336 5.2
      vertex -4.6194 1.91342 5.2
    endloop
  endfacet
  facet normal 0 0 1
    outer loop
      vertex -4.6194 -1.91342 5.2
      vertex -13.5729 -1.76336 5.2
      vertex -3.53553 -3.53553 5.2
    endloop
  endfacet
  facet normal 0 0 1
    outer loop
      vertex -1.91342 -4.6194 5.2
      vertex -10 -17.3205 5.2
      vertex -6.18034 -19.0211 5.2
    endloop
  endfacet
  facet normal 0 -0 1
    outer loop
      vertex -13 6.36816e-16 5.2
      vertex -4.6194 1.91342 5.2
      vertex -13.5729 1.76336 5.2
    endloop
  endfacet
  facet normal 0 0 1
    outer loop
      vertex -4.6194 1.91342 5.2
      vertex -13 6.36816e-16 5.2
      vertex -5 0 5.2
    endloop
  endfacet
  facet normal 0 0 1
    outer loop
      vertex -3.53553 3.53553 5.2
      vertex -16.1803 11.7557 5.2
      vertex -13.5729 1.76336 5.2
    endloop
  endfacet
  facet normal 0 0 1
    outer loop
      vertex -13.5729 1.76336 5.2
      vertex -16.1803 11.7557 5.2
      vertex -15.0729 2.85317 5.2
    endloop
  endfacet
  facet normal -0 0 1
    outer loop
      vertex -18.2709 8.13473 5.2
      vertex -15.0729 2.85317 5.2
      vertex -16.1803 11.7557 5.2
    endloop
  endfacet
  facet normal 0 0 1
    outer loop
      vertex -15.0729 2.85317 5.2
      vertex -18.2709 8.13473 5.2
      vertex -16.9271 2.85317 5.2
    endloop
  endfacet
  facet normal -0 0 1
    outer loop
      vertex -19.563 4.15823 5.2
      vertex -16.9271 2.85317 5.2
      vertex -18.2709 8.13473 5.2
    endloop
  endfacet
  facet normal 0 0 1
    outer loop
      vertex -16.9271 2.85317 5.2
      vertex -19.563 4.15823 5.2
      vertex -18.4271 1.76336 5.2
    endloop
  endfacet
  facet normal 0 0 1
    outer loop
      vertex -20 0 5.2
      vertex -18.4271 1.76336 5.2
      vertex -19.563 4.15823 5.2
    endloop
  endfacet
  facet normal -0.587785 0.809017 0
    outer loop
      vertex -10 17.3205 0
      vertex -13.3826 14.8629 5.2
      vertex -10 17.3205 5.2
    endloop
  endfacet
  facet normal -0.587785 0.809017 0
    outer loop
      vertex -13.3826 14.8629 5.2
      vertex -10 17.3205 0
      vertex -13.3826 14.8629 0
    endloop
  endfacet
  facet normal -0.207912 0.978148 0
    outer loop
      vertex -2.09057 19.8904 0
      vertex -6.18034 19.0211 5.2
      vertex -2.09057 19.8904 5.2
    endloop
  endfacet
  facet normal -0.207912 0.978148 0
    outer loop
      vertex -6.18034 19.0211 5.2
      vertex -2.09057 19.8904 0
      vertex -6.18034 19.0211 0
    endloop
  endfacet
  facet normal 0.994522 -0.104529 0
    outer loop
      vertex 19.563 -4.15823 5.2
      vertex 20 0 0
      vertex 20 0 5.2
    endloop
  endfacet
  facet normal 0.994522 -0.104529 0
    outer loop
      vertex 20 0 0
      vertex 19.563 -4.15823 5.2
      vertex 19.563 -4.15823 0
    endloop
  endfacet
  facet normal 0 0 -1
    outer loop
      vertex -16.1803 -11.7557 0
      vertex -3.53553 -3.53553 0
      vertex -13.3826 -14.8629 0
    endloop
  endfacet
  facet normal 0 0 -1
    outer loop
      vertex -3.53553 -3.53553 0
      vertex -13.5729 -1.76336 0
      vertex -13 0 0
    endloop
  endfacet
  facet normal -0 0 -1
    outer loop
      vertex -3.53553 -3.53553 0
      vertex -16.1803 -11.7557 0
      vertex -13.5729 -1.76336 0
    endloop
  endfacet
  facet normal 0 0 -1
    outer loop
      vertex -13.5729 -1.76336 0
      vertex -16.1803 -11.7557 0
      vertex -15.0729 -2.85317 0
    endloop
  endfacet
  facet normal 0 0 -1
    outer loop
      vertex -18.2709 -8.13473 0
      vertex -15.0729 -2.85317 0
      vertex -16.1803 -11.7557 0
    endloop
  endfacet
  facet normal -0 0 -1
    outer loop
      vertex -15.0729 -2.85317 0
      vertex -18.2709 -8.13473 0
      vertex -16.9271 -2.85317 0
    endloop
  endfacet
  facet normal 0 0 -1
    outer loop
      vertex -19.563 -4.15823 0
      vertex -16.9271 -2.85317 0
      vertex -18.2709 -8.13473 0
    endloop
  endfacet
  facet normal -0 0 -1
    outer loop
      vertex -16.9271 -2.85317 0
      vertex -19.563 -4.15823 0
      vertex -18.4271 -1.76336 0
    endloop
  endfacet
  facet normal 0 0 -1
    outer loop
      vertex -20 0 0
      vertex -18.4271 -1.76336 0
      vertex -19.563 -4.15823 0
    endloop
  endfacet
  facet normal 0 0 -1
    outer loop
      vertex 19.563 -4.15823 0
      vertex 5 0 0
      vertex 20 0 0
    endloop
  endfacet
  facet normal 0 0 -1
    outer loop
      vertex 19.563 4.15823 0
      vertex 10.0074 11.627 0
      vertex 10.9344 13.2327 0
    endloop
  endfacet
  facet normal 0 0 -1
    outer loop
      vertex 4.6194 -1.91342 0
      vertex 10.0074 -11.627 0
      vertex 8.31359 -10.8728 0
    endloop
  endfacet
  facet normal 0 0 -1
    outer loop
      vertex 4.6194 1.91342 0
      vertex 19.563 4.15823 0
      vertex 5 0 0
    endloop
  endfacet
  facet normal 0 0 -1
    outer loop
      vertex 3.53553 -3.53553 0
      vertex 8.31359 -10.8728 0
      vertex 6.5 -11.2583 0
    endloop
  endfacet
  facet normal 0 -0 -1
    outer loop
      vertex 8.31359 10.8728 0
      vertex 19.563 4.15823 0
      vertex 4.6194 1.91342 0
    endloop
  endfacet
  facet normal 0 0 -1
    outer loop
      vertex 1.91342 -4.6194 0
      vertex 6.5 -11.2583 0
      vertex 5.25936 -12.6362 0
    endloop
  endfacet
  facet normal 0 0 -1
    outer loop
      vertex 19.563 4.15823 0
      vertex 8.31359 10.8728 0
      vertex 10.0074 11.627 0
    endloop
  endfacet
  facet normal 0 0 -1
    outer loop
      vertex -2.09057 -19.8904 0
      vertex 5.25936 -12.6362 0
      vertex 5.06556 -14.4801 0
    endloop
  endfacet
  facet normal 0 0 -1
    outer loop
      vertex 3.53553 3.53553 0
      vertex 8.31359 10.8728 0
      vertex 4.6194 1.91342 0
    endloop
  endfacet
  facet normal 0 0 -1
    outer loop
      vertex 4.6194 -1.91342 0
      vertex 18.2709 -8.13473 0
      vertex 10.0074 -11.627 0
    endloop
  endfacet
  facet normal 0 0 -1
    outer loop
      vertex 16.1803 -11.7557 0
      vertex 10.0074 -11.627 0
      vertex 18.2709 -8.13473 0
    endloop
  endfacet
  facet normal 0 0 -1
    outer loop
      vertex 18.2709 -8.13473 0
      vertex 4.6194 -1.91342 0
      vertex 19.563 -4.15823 0
    endloop
  endfacet
  facet normal 0 0 -1
    outer loop
      vertex 10.0074 -11.627 0
      vertex 16.1803 -11.7557 0
      vertex 10.9344 -13.2327 0
    endloop
  endfacet
  facet normal 0 -0 -1
    outer loop
      vertex 5 0 0
      vertex 19.563 -4.15823 0
      vertex 4.6194 -1.91342 0
    endloop
  endfacet
  facet normal 0 0 -1
    outer loop
      vertex 10.9344 -13.2327 0
      vertex 16.1803 -11.7557 0
      vertex 13.3826 -14.8629 0
    endloop
  endfacet
  facet normal 0 0 -1
    outer loop
      vertex 19.563 4.15823 0
      vertex 10.9344 13.2327 0
      vertex 18.2709 8.13473 0
    endloop
  endfacet
  facet normal 0 0 -1
    outer loop
      vertex 18.2709 8.13473 0
      vertex 10.9344 13.2327 0
      vertex 16.1803 11.7557 0
    endloop
  endfacet
  facet normal -0 0 -1
    outer loop
      vertex 13.3826 -14.8629 0
      vertex 10.7406 -15.0766 0
      vertex 10.9344 -13.2327 0
    endloop
  endfacet
  facet normal 0 0 -1
    outer loop
      vertex 10 -17.3205 0
      vertex 10.7406 -15.0766 0
      vertex 13.3826 -14.8629 0
    endloop
  endfacet
  facet normal 0 0 -1
    outer loop
      vertex 10 -17.3205 0
      vertex 9.5 -16.4545 0
      vertex 10.7406 -15.0766 0
    endloop
  endfacet
  facet normal 0 0 -1
    outer loop
      vertex 10 -17.3205 0
      vertex 7.68641 -16.84 0
      vertex 9.5 -16.4545 0
    endloop
  endfacet
  facet normal 0 0 -1
    outer loop
      vertex 6.18034 -19.0211 0
      vertex 7.68641 -16.84 0
      vertex 10 -17.3205 0
    endloop
  endfacet
  facet normal 0 0 -1
    outer loop
      vertex 6.18034 -19.0211 0
      vertex 5.99261 -16.0858 0
      vertex 7.68641 -16.84 0
    endloop
  endfacet
  facet normal 0 0 -1
    outer loop
      vertex 2.09057 -19.8904 0
      vertex 5.99261 -16.0858 0
      vertex 6.18034 -19.0211 0
    endloop
  endfacet
  facet normal -0 0 -1
    outer loop
      vertex 8.31359 10.8728 0
      vertex 3.53553 3.53553 0
      vertex 6.5 11.2583 0
    endloop
  endfacet
  facet normal 0 0 -1
    outer loop
      vertex 20 0 0
      vertex 5 0 0
      vertex 19.563 4.15823 0
    endloop
  endfacet
  facet normal 0 0 -1
    outer loop
      vertex 8.31359 -10.8728 0
      vertex 3.53553 -3.53553 0
      vertex 4.6194 -1.91342 0
    endloop
  endfacet
  facet normal -0 0 -1
    outer loop
      vertex 5.99261 -16.0858 0
      vertex 2.09057 -19.8904 0
      vertex 5.06556 -14.4801 0
    endloop
  endfacet
  facet normal 0 0 -1
    outer loop
      vertex -2.09057 -19.8904 0
      vertex 5.06556 -14.4801 0
      vertex 2.09057 -19.8904 0
    endloop
  endfacet
  facet normal 0 0 -1
    outer loop
      vertex 6.5 -11.2583 0
      vertex 1.91342 -4.6194 0
      vertex 3.53553 -3.53553 0
    endloop
  endfacet
  facet normal 0 0 -1
    outer loop
      vertex 5.25936 -12.6362 0
      vertex 0 -5 0
      vertex 1.91342 -4.6194 0
    endloop
  endfacet
  facet normal -0 0 -1
    outer loop
      vertex 5.25936 -12.6362 0
      vertex -2.09057 -19.8904 0
      vertex 0 -5 0
    endloop
  endfacet
  facet normal -0 0 -1
    outer loop
      vertex 0 -5 0
      vertex -2.09057 -19.8904 0
      vertex -1.91342 -4.6194 0
    endloop
  endfacet
  facet normal 0 0 -1
    outer loop
      vertex -6.18034 -19.0211 0
      vertex -1.91342 -4.6194 0
      vertex -2.09057 -19.8904 0
    endloop
  endfacet
  facet normal 0 0 -1
    outer loop
      vertex -10 -17.3205 0
      vertex -1.91342 -4.6194 0
      vertex -6.18034 -19.0211 0
    endloop
  endfacet
  facet normal -0 0 -1
    outer loop
      vertex -1.91342 -4.6194 0
      vertex -10 -17.3205 0
      vertex -3.53553 -3.53553 0
    endloop
  endfacet
  facet normal 0 0 -1
    outer loop
      vertex -13.3826 -14.8629 0
      vertex -3.53553 -3.53553 0
      vertex -10 -17.3205 0
    endloop
  endfacet
  facet normal 0 0 -1
    outer loop
      vertex 16.1803 11.7557 0
      vertex 10.9344 13.2327 0
      vertex 13.3826 14.8629 0
    endloop
  endfacet
  facet normal 0 0 -1
    outer loop
      vertex 10.7406 15.0766 0
      vertex 13.3826 14.8629 0
      vertex 10.9344 13.2327 0
    endloop
  endfacet
  facet normal 0 0 -1
    outer loop
      vertex 10.7406 15.0766 0
      vertex 10 17.3205 0
      vertex 13.3826 14.8629 0
    endloop
  endfacet
  facet normal 0 0 -1
    outer loop
      vertex 9.5 16.4545 0
      vertex 10 17.3205 0
      vertex 10.7406 15.0766 0
    endloop
  endfacet
  facet normal 0 0 -1
    outer loop
      vertex 7.68641 16.84 0
      vertex 10 17.3205 0
      vertex 9.5 16.4545 0
    endloop
  endfacet
  facet normal 0 0 -1
    outer loop
      vertex 7.68641 16.84 0
      vertex 6.18034 19.0211 0
      vertex 10 17.3205 0
    endloop
  endfacet
  facet normal 0 0 -1
    outer loop
      vertex 5.99261 16.0858 0
      vertex 6.18034 19.0211 0
      vertex 7.68641 16.84 0
    endloop
  endfacet
  facet normal 0 0 -1
    outer loop
      vertex 2.09057 19.8904 0
      vertex 5.99261 16.0858 0
      vertex 5.06556 14.4801 0
    endloop
  endfacet
  facet normal 0 0 -1
    outer loop
      vertex 1.91342 4.6194 0
      vertex 6.5 11.2583 0
      vertex 3.53553 3.53553 0
    endloop
  endfacet
  facet normal -0 0 -1
    outer loop
      vertex 6.5 11.2583 0
      vertex 1.91342 4.6194 0
      vertex 5.25936 12.6362 0
    endloop
  endfacet
  facet normal 0 0 -1
    outer loop
      vertex 5.99261 16.0858 0
      vertex 2.09057 19.8904 0
      vertex 6.18034 19.0211 0
    endloop
  endfacet
  facet normal 0 0 -1
    outer loop
      vertex 0 5 0
      vertex 5.25936 12.6362 0
      vertex 1.91342 4.6194 0
    endloop
  endfacet
  facet normal 0 0 -1
    outer loop
      vertex -2.09057 19.8904 0
      vertex 5.25936 12.6362 0
      vertex 0 5 0
    endloop
  endfacet
  facet normal 0 0 -1
    outer loop
      vertex 5.25936 12.6362 0
      vertex -2.09057 19.8904 0
      vertex 5.06556 14.4801 0
    endloop
  endfacet
  facet normal 0 0 -1
    outer loop
      vertex -2.09057 19.8904 0
      vertex 0 5 0
      vertex -1.91342 4.6194 0
    endloop
  endfacet
  facet normal 0 0 -1
    outer loop
      vertex 5.06556 14.4801 0
      vertex -2.09057 19.8904 0
      vertex 2.09057 19.8904 0
    endloop
  endfacet
  facet normal 0 0 -1
    outer loop
      vertex -10 17.3205 0
      vertex -1.91342 4.6194 0
      vertex -3.53553 3.53553 0
    endloop
  endfacet
  facet normal 0 0 -1
    outer loop
      vertex -13.5729 1.76336 0
      vertex -3.53553 3.53553 0
      vertex -4.6194 1.91342 0
    endloop
  endfacet
  facet normal 0 0 -1
    outer loop
      vertex -13 0 0
      vertex -4.6194 1.91342 0
      vertex -5 0 0
    endloop
  endfacet
  facet normal 0 0 -1
    outer loop
      vertex -1.91342 4.6194 0
      vertex -6.18034 19.0211 0
      vertex -2.09057 19.8904 0
    endloop
  endfacet
  facet normal 0 0 -1
    outer loop
      vertex -3.53553 -3.53553 0
      vertex -13 0 0
      vertex -4.6194 -1.91342 0
    endloop
  endfacet
  facet normal 0 0 -1
    outer loop
      vertex -4.6194 1.91342 0
      vertex -13 0 0
      vertex -13.5729 1.76336 0
    endloop
  endfacet
  facet normal 0 0 -1
    outer loop
      vertex -4.6194 -1.91342 0
      vertex -13 0 0
      vertex -5 0 0
    endloop
  endfacet
  facet normal 0 0 -1
    outer loop
      vertex -16.1803 11.7557 0
      vertex -3.53553 3.53553 0
      vertex -13.5729 1.76336 0
    endloop
  endfacet
  facet normal 0 0 -1
    outer loop
      vertex -1.91342 4.6194 0
      vertex -10 17.3205 0
      vertex -6.18034 19.0211 0
    endloop
  endfacet
  facet normal 0 0 -1
    outer loop
      vertex -3.53553 3.53553 0
      vertex -13.3826 14.8629 0
      vertex -10 17.3205 0
    endloop
  endfacet
  facet normal 0 0 -1
    outer loop
      vertex -16.1803 11.7557 0
      vertex -13.5729 1.76336 0
      vertex -15.0729 2.85317 0
    endloop
  endfacet
  facet normal 0 0 -1
    outer loop
      vertex -3.53553 3.53553 0
      vertex -16.1803 11.7557 0
      vertex -13.3826 14.8629 0
    endloop
  endfacet
  facet normal 0 0 -1
    outer loop
      vertex -18.2709 8.13473 0
      vertex -15.0729 2.85317 0
      vertex -16.9271 2.85317 0
    endloop
  endfacet
  facet normal 0 0 -1
    outer loop
      vertex -15.0729 2.85317 0
      vertex -18.2709 8.13473 0
      vertex -16.1803 11.7557 0
    endloop
  endfacet
  facet normal 0 0 -1
    outer loop
      vertex -19.563 4.15823 0
      vertex -16.9271 2.85317 0
      vertex -18.4271 1.76336 0
    endloop
  endfacet
  facet normal 0 0 -1
    outer loop
      vertex -20 0 0
      vertex -18.4271 1.76336 0
      vertex -19 0 0
    endloop
  endfacet
  facet normal 0 0 -1
    outer loop
      vertex -18.4271 -1.76336 0
      vertex -20 0 0
      vertex -19 0 0
    endloop
  endfacet
  facet normal 0 0 -1
    outer loop
      vertex -16.9271 2.85317 0
      vertex -19.563 4.15823 0
      vertex -18.2709 8.13473 0
    endloop
  endfacet
  facet normal -0 0 -1
    outer loop
      vertex -18.4271 1.76336 0
      vertex -20 0 0
      vertex -19.563 4.15823 0
    endloop
  endfacet
  facet normal 0.207912 -0.978148 0
    outer loop
      vertex 2.09057 -19.8904 0
      vertex 6.18034 -19.0211 5.2
      vertex 2.09057 -19.8904 5.2
    endloop
  endfacet
  facet normal 0.207912 -0.978148 0
    outer loop
      vertex 6.18034 -19.0211 5.2
      vertex 2.09057 -19.8904 0
      vertex 6.18034 -19.0211 0
    endloop
  endfacet
  facet normal 0.866026 -0.5 0
    outer loop
      vertex 16.1803 -11.7557 5.2
      vertex 18.2709 -8.13473 0
      vertex 18.2709 -8.13473 5.2
    endloop
  endfacet
  facet normal 0.866026 -0.5 0
    outer loop
      vertex 18.2709 -8.13473 0
      vertex 16.1803 -11.7557 5.2
      vertex 16.1803 -11.7557 0
    endloop
  endfacet
  facet normal -0.866026 -0.5 0
    outer loop
      vertex -16.1803 -11.7557 0
      vertex -18.2709 -8.13473 5.2
      vertex -18.2709 -8.13473 0
    endloop
  endfacet
  facet normal -0.866026 -0.5 0
    outer loop
      vertex -18.2709 -8.13473 5.2
      vertex -16.1803 -11.7557 0
      vertex -16.1803 -11.7557 5.2
    endloop
  endfacet
  facet normal 0.587785 -0.809017 0
    outer loop
      vertex 10 -17.3205 0
      vertex 13.3826 -14.8629 5.2
      vertex 10 -17.3205 5.2
    endloop
  endfacet
  facet normal 0.587785 -0.809017 0
    outer loop
      vertex 13.3826 -14.8629 5.2
      vertex 10 -17.3205 0
      vertex 13.3826 -14.8629 0
    endloop
  endfacet
  facet normal 0.406737 -0.913545 0
    outer loop
      vertex 6.18034 -19.0211 0
      vertex 10 -17.3205 5.2
      vertex 6.18034 -19.0211 5.2
    endloop
  endfacet
  facet normal 0.406737 -0.913545 0
    outer loop
      vertex 10 -17.3205 5.2
      vertex 6.18034 -19.0211 0
      vertex 10 -17.3205 0
    endloop
  endfacet
  facet normal -0.207912 -0.978148 0
    outer loop
      vertex -6.18034 -19.0211 0
      vertex -2.09057 -19.8904 5.2
      vertex -6.18034 -19.0211 5.2
    endloop
  endfacet
  facet normal -0.207912 -0.978148 -0
    outer loop
      vertex -2.09057 -19.8904 5.2
      vertex -6.18034 -19.0211 0
      vertex -2.09057 -19.8904 0
    endloop
  endfacet
  facet normal -0.743145 -0.669131 0
    outer loop
      vertex -13.3826 -14.8629 0
      vertex -16.1803 -11.7557 5.2
      vertex -16.1803 -11.7557 0
    endloop
  endfacet
  facet normal -0.743145 -0.669131 0
    outer loop
      vertex -16.1803 -11.7557 5.2
      vertex -13.3826 -14.8629 0
      vertex -13.3826 -14.8629 5.2
    endloop
  endfacet
  facet normal -0.951057 -0.309017 0
    outer loop
      vertex -18.2709 -8.13473 0
      vertex -19.563 -4.15823 5.2
      vertex -19.563 -4.15823 0
    endloop
  endfacet
  facet normal -0.951057 -0.309017 0
    outer loop
      vertex -19.563 -4.15823 5.2
      vertex -18.2709 -8.13473 0
      vertex -18.2709 -8.13473 5.2
    endloop
  endfacet
  facet normal -0.994522 -0.104529 0
    outer loop
      vertex -19.563 -4.15823 0
      vertex -20 0 5.2
      vertex -20 0 0
    endloop
  endfacet
  facet normal -0.994522 -0.104529 0
    outer loop
      vertex -20 0 5.2
      vertex -19.563 -4.15823 0
      vertex -19.563 -4.15823 5.2
    endloop
  endfacet
  facet normal 0.743145 -0.669131 0
    outer loop
      vertex 13.3826 -14.8629 5.2
      vertex 16.1803 -11.7557 0
      vertex 16.1803 -11.7557 5.2
    endloop
  endfacet
  facet normal 0.743145 -0.669131 0
    outer loop
      vertex 16.1803 -11.7557 0
      vertex 13.3826 -14.8629 5.2
      vertex 13.3826 -14.8629 0
    endloop
  endfacet
  facet normal -0.406737 -0.913545 0
    outer loop
      vertex -10 -17.3205 0
      vertex -6.18034 -19.0211 5.2
      vertex -10 -17.3205 5.2
    endloop
  endfacet
  facet normal -0.406737 -0.913545 -0
    outer loop
      vertex -6.18034 -19.0211 5.2
      vertex -10 -17.3205 0
      vertex -6.18034 -19.0211 0
    endloop
  endfacet
  facet normal -0.587785 -0.809017 0
    outer loop
      vertex -13.3826 -14.8629 0
      vertex -10 -17.3205 5.2
      vertex -13.3826 -14.8629 5.2
    endloop
  endfacet
  facet normal -0.587785 -0.809017 -0
    outer loop
      vertex -10 -17.3205 5.2
      vertex -13.3826 -14.8629 0
      vertex -10 -17.3205 0
    endloop
  endfacet
  facet normal -0.980785 -0.195091 0
    outer loop
      vertex 5 0 0
      vertex 4.6194 1.91342 5.2
      vertex 4.6194 1.91342 0
    endloop
  endfacet
  facet normal -0.980785 -0.195091 0
    outer loop
      vertex 4.6194 1.91342 5.2
      vertex 5 0 0
      vertex 5 0 5.2
    endloop
  endfacet
  facet normal 0.980785 -0.195091 0
    outer loop
      vertex -5 0 5.2
      vertex -4.6194 1.91342 0
      vertex -4.6194 1.91342 5.2
    endloop
  endfacet
  facet normal 0.980785 -0.195091 0
    outer loop
      vertex -4.6194 1.91342 0
      vertex -5 0 5.2
      vertex -5 0 0
    endloop
  endfacet
  facet normal -0.195091 -0.980785 0
    outer loop
      vertex 0 5 0
      vertex 1.91342 4.6194 5.2
      vertex 0 5 5.2
    endloop
  endfacet
  facet normal -0.195091 -0.980785 -0
    outer loop
      vertex 1.91342 4.6194 5.2
      vertex 0 5 0
      vertex 1.91342 4.6194 0
    endloop
  endfacet
  facet normal -0.83147 -0.55557 0
    outer loop
      vertex 4.6194 1.91342 0
      vertex 3.53553 3.53553 5.2
      vertex 3.53553 3.53553 0
    endloop
  endfacet
  facet normal -0.83147 -0.55557 0
    outer loop
      vertex 3.53553 3.53553 5.2
      vertex 4.6194 1.91342 0
      vertex 4.6194 1.91342 5.2
    endloop
  endfacet
  facet normal -0.195091 0.980785 0
    outer loop
      vertex 1.91342 -4.6194 0
      vertex 0 -5 5.2
      vertex 1.91342 -4.6194 5.2
    endloop
  endfacet
  facet normal -0.195091 0.980785 0
    outer loop
      vertex 0 -5 5.2
      vertex 1.91342 -4.6194 0
      vertex 0 -5 0
    endloop
  endfacet
  facet normal 0.195091 0.980785 -0
    outer loop
      vertex 0 -5 0
      vertex -1.91342 -4.6194 5.2
      vertex 0 -5 5.2
    endloop
  endfacet
  facet normal 0.195091 0.980785 0
    outer loop
      vertex -1.91342 -4.6194 5.2
      vertex 0 -5 0
      vertex -1.91342 -4.6194 0
    endloop
  endfacet
  facet normal -0.55557 -0.83147 0
    outer loop
      vertex 1.91342 4.6194 0
      vertex 3.53553 3.53553 5.2
      vertex 1.91342 4.6194 5.2
    endloop
  endfacet
  facet normal -0.55557 -0.83147 -0
    outer loop
      vertex 3.53553 3.53553 5.2
      vertex 1.91342 4.6194 0
      vertex 3.53553 3.53553 0
    endloop
  endfacet
  facet normal 0.195091 -0.980785 0
    outer loop
      vertex -1.91342 4.6194 0
      vertex 0 5 5.2
      vertex -1.91342 4.6194 5.2
    endloop
  endfacet
  facet normal 0.195091 -0.980785 0
    outer loop
      vertex 0 5 5.2
      vertex -1.91342 4.6194 0
      vertex 0 5 0
    endloop
  endfacet
  facet normal 0.83147 -0.55557 0
    outer loop
      vertex -4.6194 1.91342 5.2
      vertex -3.53553 3.53553 0
      vertex -3.53553 3.53553 5.2
    endloop
  endfacet
  facet normal 0.83147 -0.55557 0
    outer loop
      vertex -3.53553 3.53553 0
      vertex -4.6194 1.91342 5.2
      vertex -4.6194 1.91342 0
    endloop
  endfacet
  facet normal 0.55557 -0.83147 0
    outer loop
      vertex -3.53553 3.53553 0
      vertex -1.91342 4.6194 5.2
      vertex -3.53553 3.53553 5.2
    endloop
  endfacet
  facet normal 0.55557 -0.83147 0
    outer loop
      vertex -1.91342 4.6194 5.2
      vertex -3.53553 3.53553 0
      vertex -1.91342 4.6194 0
    endloop
  endfacet
  facet normal 0.980785 0.195091 0
    outer loop
      vertex -4.6194 -1.91342 5.2
      vertex -5 0 0
      vertex -5 0 5.2
    endloop
  endfacet
  facet normal 0.980785 0.195091 0
    outer loop
      vertex -5 0 0
      vertex -4.6194 -1.91342 5.2
      vertex -4.6194 -1.91342 0
    endloop
  endfacet
  facet normal 0.55557 0.83147 -0
    outer loop
      vertex -1.91342 -4.6194 0
      vertex -3.53553 -3.53553 5.2
      vertex -1.91342 -4.6194 5.2
    endloop
  endfacet
  facet normal 0.55557 0.83147 0
    outer loop
      vertex -3.53553 -3.53553 5.2
      vertex -1.91342 -4.6194 0
      vertex -3.53553 -3.53553 0
    endloop
  endfacet
  facet normal -0.83147 0.55557 0
    outer loop
      vertex 3.53553 -3.53553 0
      vertex 4.6194 -1.91342 5.2
      vertex 4.6194 -1.91342 0
    endloop
  endfacet
  facet normal -0.83147 0.55557 0
    outer loop
      vertex 4.6194 -1.91342 5.2
      vertex 3.53553 -3.53553 0
      vertex 3.53553 -3.53553 5.2
    endloop
  endfacet
  facet normal -0.55557 0.83147 0
    outer loop
      vertex 3.53553 -3.53553 0
      vertex 1.91342 -4.6194 5.2
      vertex 3.53553 -3.53553 5.2
    endloop
  endfacet
  facet normal -0.55557 0.83147 0
    outer loop
      vertex 1.91342 -4.6194 5.2
      vertex 3.53553 -3.53553 0
      vertex 1.91342 -4.6194 0
    endloop
  endfacet
  facet normal -0.980785 0.195091 0
    outer loop
      vertex 4.6194 -1.91342 0
      vertex 5 0 5.2
      vertex 5 0 0
    endloop
  endfacet
  facet normal -0.980785 0.195091 0
    outer loop
      vertex 5 0 5.2
      vertex 4.6194 -1.91342 0
      vertex 4.6194 -1.91342 5.2
    endloop
  endfacet
  facet normal 0.83147 0.55557 0
    outer loop
      vertex -3.53553 -3.53553 5.2
      vertex -4.6194 -1.91342 0
      vertex -4.6194 -1.91342 5.2
    endloop
  endfacet
  facet normal 0.83147 0.55557 0
    outer loop
      vertex -4.6194 -1.91342 0
      vertex -3.53553 -3.53553 5.2
      vertex -3.53553 -3.53553 0
    endloop
  endfacet
endsolid OpenSCAD_Model
